0
SECTION
2
HEADER
9
$INSUNITS
70
4
9
$ACADVER
1
AC1014
9
$HANDSEED
5
FFFF
0
ENDSEC
0
SECTION
2
TABLES
0
TABLE
2
VPORT
5
8
100
AcDbSymbolTable
0
ENDTAB
0
TABLE
2
LTYPE
5
5
100
AcDbSymbolTable
0
LTYPE
5
14
100
AcDbSymbolTableRecord
100
AcDbLinetypeTableRecord
2
BYBLOCK
70
0
0
LTYPE
5
15
100
AcDbSymbolTableRecord
100
AcDbLinetypeTableRecord
2
BYLAYER
70
0
0
LTYPE
5
16
100
AcDbSymbolTableRecord
100
AcDbLinetypeTableRecord
2
DASHED
70
0
3
Dashed __ __ __ __ __ __ __ __ __ __ __ __ __ _
72
65
73
2
40
0.75
49
0.5
74
0
49
-0.25
74
0
0
ENDTAB
0
TABLE
2
LAYER
5
2
100
AcDbSymbolTable
70
2
0
LAYER
5
50
100
AcDbSymbolTableRecord
100
AcDbLayerTableRecord
2
0
70
0
62
7
6
CONTINUOUS
0
ENDTAB
0
TABLE
2
STYLE
5
3
100
AcDbSymbolTable
70
1
0
STYLE
5
11
100
AcDbSymbolTableRecord
100
AcDbTextStyleTableRecord
2
STANDARD
70
0
0
ENDTAB
0
TABLE
2
VIEW
5
6
100
AcDbSymbolTable
70
0
0
ENDTAB
0
TABLE
2
UCS
5
7
100
AcDbSymbolTable
70
0
0
ENDTAB
0
TABLE
2
APPID
5
9
100
AcDbSymbolTable
70
2
0
APPID
5
12
100
AcDbSymbolTableRecord
100
AcDbRegAppTableRecord
2
ACAD
70
0
0
ENDTAB
0
TABLE
2
DIMSTYLE
5
A
100
AcDbSymbolTable
70
1
0
ENDTAB
0
TABLE
2
BLOCK_RECORD
5
1
100
AcDbSymbolTable
70
1
0
BLOCK_RECORD
5
1F
100
AcDbSymbolTableRecord
100
AcDbBlockTableRecord
2
*MODEL_SPACE
0
BLOCK_RECORD
5
1B
100
AcDbSymbolTableRecord
100
AcDbBlockTableRecord
2
*PAPER_SPACE
0
ENDTAB
0
ENDSEC
0
SECTION
2
BLOCKS
0
BLOCK
5
20
100
AcDbEntity
100
AcDbBlockBegin
2
*MODEL_SPACE
0
ENDBLK
5
21
100
AcDbEntity
100
AcDbBlockEnd
0
BLOCK
5
1C
100
AcDbEntity
100
AcDbBlockBegin
2
*PAPER_SPACE
0
ENDBLK
5
1D
100
AcDbEntity
100
AcDbBlockEnd
0
ENDSEC
0
SECTION
2
ENTITIES
0
LWPOLYLINE
5
100
100
AcDbEntity
8
0
100
AcDbPolyline
90
10
70
1
43
0.0
10
46.14303715128311
20
-30.498631245548076
42
0.41421356237309503
10
47.349451772891072
20
-29.292216623940128
10
47.349451772891122
20
-25.65175551926151
42
0.19891236737966186
10
46.988502549846359
20
-24.780347009658851
10
43.734190751689404
20
-21.526035211501913
42
0.41421356237309886
10
43.051761642017098
20
-21.526035211501913
10
39.797449843860157
20
-24.780347009658836
42
0.19891236737965803
10
39.436500620815416
20
-25.651755519261496
10
39.436500620815416
20
-29.292216623940107
42
0.41421356237309398
10
40.642915242423356
20
-30.498631245548058
0
LWPOLYLINE
5
101
100
AcDbEntity
8
0
100
AcDbPolyline
90
10
70
1
43
0.0
10
55.349451772891129
20
-21.292216623940092
10
55.349451772891143
20
-15.792094715080333
42
0.41421356237309559
10
54.143037151283195
20
-14.585680093472373
10
50.502576046604581
20
-14.585680093472339
42
0.19891236737965989
10
49.631167537001922
20
-14.94662931651709
10
46.376855738844974
20
-18.200941114674041
42
0.41421356237310075
10
46.376855738844981
20
-18.883370224346365
10
49.631167537001915
20
-22.137682022503292
42
0.19891236737965734
10
50.502576046604574
20
-22.49863124554804
10
54.143037151283167
20
-22.49863124554804
42
0.4142135623730972
0
LWPOLYLINE
5
102
100
AcDbEntity
8
0
100
AcDbPolyline
90
10
70
1
43
0.0
10
32.642915242423349
20
-14.585680093472345
42
0.41421356237309503
10
31.436500620815394
20
-15.792094715080289
10
31.43650062081538
20
-21.29221662394005
42
0.41421356237309398
10
32.642915242423328
20
-22.498631245548012
10
36.283376347101949
20
-22.498631245548047
42
0.19891236737966059
10
37.154784856704609
20
-22.137682022503292
10
40.40909665486155
20
-18.88337022434634
42
0.41421356237309975
10
40.409096654861543
20
-18.20094111467402
10
37.154784856704623
20
-14.94662931651709
42
0.19891236737965801
10
36.283376347101964
20
-14.585680093472345
0
LWPOLYLINE
5
103
100
AcDbEntity
8
0
100
AcDbPolyline
90
10
70
1
43
0.0
10
43.051761642017112
20
-15.558276127518482
42
0.41421356237310458
10
43.734190751689454
20
-15.558276127518479
10
46.988502549846373
20
-12.303964329361552
42
0.19891236737965801
10
47.349451772891115
20
-11.432555819758887
10
47.349451772891122
20
-7.7920947150802755
42
0.41421356237309614
10
46.143037151283167
20
-6.5856800934723259
10
40.64291524242342
20
-6.5856800934723081
42
0.41421356237309503
10
39.436500620815451
20
-7.7920947150802577
10
39.436500620815409
20
-11.432555819758875
42
0.19891236737966059
10
39.797449843860164
20
-12.303964329361534
0
ARC
5
104
100
AcDbEntity
8
0
100
AcDbCircle
10
32.742976196853228
20
-15.892155669510174
30
0
40
2.9738643704795598
210
0
220
-0
230
1
100
AcDbArc
50
90
51
180
0
LINE
5
105
100
AcDbEntity
8
0
100
AcDbLine
10
29.769111826373667
20
-15.892155669510185
30
0
11
29.76911182637366
21
-21.192155669510178
31
0
0
LINE
5
106
100
AcDbEntity
8
0
100
AcDbLine
10
36.241929742713111
20
-12.918291299030615
30
0
11
32.742976196853228
21
-12.918291299030615
31
0
0
LINE
5
107
100
AcDbEntity
8
0
100
AcDbLine
10
37.769111826373717
20
-11.391109215370033
30
0
11
37.769111826373717
21
-7.8921556695101547
31
0
0
ARC
5
108
100
AcDbEntity
8
0
100
AcDbCircle
10
40.742976196853284
20
-7.8921556695101494
30
0
40
2.9738643704795678
210
0
220
-0
230
1
100
AcDbArc
50
90
51
180
0
LINE
5
109
100
AcDbEntity
8
0
100
AcDbLine
10
46.042976196853274
20
-4.918291299030586
30
0
11
40.742976196853284
21
-4.9182912990305816
31
0
0
ARC
5
110
100
AcDbEntity
8
0
100
AcDbCircle
10
46.042976196853274
20
-7.8921556695101565
30
0
40
2.9738643704795642
210
0
220
-0
230
1
100
AcDbArc
50
0
51
90
0
LINE
5
111
100
AcDbEntity
8
0
100
AcDbLine
10
49.016840567332842
20
-11.391109215370037
30
0
11
49.016840567332842
21
-7.8921556695101547
31
0
0
CIRCLE
5
112
100
AcDbEntity
8
0
100
AcDbCircle
10
52.492452969783166
20
-9.6660200399897462
30
0
40
2.5043630964172126
210
0
220
-0
230
1
0
LINE
5
113
100
AcDbEntity
8
0
100
AcDbLine
10
50.544022650993426
20
-12.918291299030638
30
0
11
54.042976196853303
21
-12.918291299030638
31
0
0
ARC
5
114
100
AcDbEntity
8
0
100
AcDbCircle
10
54.042976196853303
20
-15.892155669510206
30
0
40
2.9738643704795642
210
0
220
0
230
1
100
AcDbArc
50
0
51
90
0
LINE
5
115
100
AcDbEntity
8
0
100
AcDbLine
10
57.016840567332864
20
-21.1921556695102
30
0
11
57.016840567332864
21
-15.892155669510206
31
0
0
ARC
5
116
100
AcDbEntity
8
0
100
AcDbCircle
10
54.042976196853296
20
-21.192155669510203
30
0
40
2.9738643704795598
210
0
220
0
230
1
100
AcDbArc
50
-90
51
0
0
LINE
5
117
100
AcDbEntity
8
0
100
AcDbLine
10
50.544022650993412
20
-24.166020039989768
30
0
11
54.042976196853296
21
-24.166020039989764
31
0
0
LINE
5
118
100
AcDbEntity
8
0
100
AcDbLine
10
49.016840567332814
20
-25.693202123650352
30
0
11
49.016840567332814
21
-29.192155669510228
31
0
0
ARC
5
119
100
AcDbEntity
8
0
100
AcDbCircle
10
46.04297619685326
20
-29.192155669510257
30
0
40
2.9738643704795464
210
0
220
0
230
1
100
AcDbArc
50
-90.000000000000313
51
0
0
LINE
5
120
100
AcDbEntity
8
0
100
AcDbLine
10
40.742976196853256
20
-32.166020039989796
30
0
11
46.042976196853246
21
-32.166020039989803
31
0
0
ARC
5
121
100
AcDbEntity
8
0
100
AcDbCircle
10
40.742976196853242
20
-29.192155669510235
30
0
40
2.9738643704795553
210
0
220
0
230
1
100
AcDbArc
50
180
51
270.00000000000023
0
LINE
5
122
100
AcDbEntity
8
0
100
AcDbLine
10
37.769111826373688
20
-25.693202123650348
30
0
11
37.769111826373688
21
-29.192155669510228
31
0
0
CIRCLE
5
123
100
AcDbEntity
8
0
100
AcDbCircle
10
34.492452969783173
20
-27.666020039989746
30
0
40
2.5043630964172126
210
0
220
-0
230
1
0
LINE
5
124
100
AcDbEntity
8
0
100
AcDbLine
10
36.241929742713104
20
-24.166020039989746
30
0
11
32.742976196853228
21
-24.166020039989746
31
0
0
ARC
5
125
100
AcDbEntity
8
0
100
AcDbCircle
10
32.74297619685322
20
-21.192155669510171
30
0
40
2.9738643704795598
210
0
220
0
230
1
100
AcDbArc
50
180
51
270.00000000000011
0
CIRCLE
5
126
100
AcDbEntity
8
0
100
AcDbCircle
10
34.407987396177035
20
-2.0511313175968855
30
0
40
2.5069798993405001
210
0
220
0
230
1
0
LINE
5
127
100
AcDbEntity
8
0
100
AcDbLine
10
35.032987396177035
20
7.7589833151248886
30
0
11
35.032987396177035
21
0.40553274319788168
31
0
0
LINE
5
128
100
AcDbEntity
8
0
100
AcDbLine
10
33.782987396177035
20
0.40553274319788168
30
0
11
33.782987396177035
21
7.328434580567226
31
0
0
LINE
5
129
100
AcDbEntity
8
0
100
AcDbLine
10
24.255343087833339
20
-1.4261313175968857
30
0
11
31.951323335382263
21
-1.4261313175968857
31
0
0
LINE
5
130
100
AcDbEntity
8
0
100
AcDbLine
10
24.255347538540164
20
-2.6761313175968855
30
0
11
31.951323335382263
21
-2.6761313175968855
31
0
0
LINE
5
131
100
AcDbEntity
8
0
100
AcDbLine
10
23.147184066648265
20
-11.383791602563122
30
0
11
23.147132755527533
21
3.0271555631663238
31
0
0
LINE
5
132
100
AcDbEntity
8
0
100
AcDbLine
10
24.241362284497892
20
3.1306977797084734
30
0
11
24.241413397893719
21
-11.224717503886259
31
0
0
SPLINE
5
133
100
AcDbEntity
8
0
100
AcDbSpline
70
4
71
3
72
15
73
11
74
0
42
0.000000001
43
0.0000000001
44
0.0000000001
40
-0.7836971831755164
40
-0.7836971831755164
40
-0.7836971831755164
40
-0.7836971831755164
40
-0.29925240608568593
40
-0.29925240608568593
40
-7.7715611723760958e-16
40
-7.7715611723760958e-16
40
-7.7715611723760958e-16
40
0.29925240608568421
40
0.29925240608568421
40
0.78369718317551529
40
0.78369718317551529
40
0.78369718317551529
40
0.78369718317551529
41
1
41
1
41
1
41
1
41
1
41
1
41
1
41
1
41
1
41
1
41
1
10
24.24141340949825
20
-11.228207987843922
30
0
10
24.24141453299347
20
-11.592159206306418
30
0
10
24.151412809130441
20
-11.955902859233824
30
0
10
23.876592916890385
20
-12.476882233422753
30
0
10
23.741600949767339
20
-12.659947949409677
30
0
10
23.582550730511688
20
-12.8189993012868
30
0
10
23.423500511256034
20
-12.978050653163919
30
0
10
23.240435756569223
20
-13.113043923918466
30
0
10
22.719458339421937
20
-13.387867526113887
30
0
10
22.355715327417812
20
-13.477871840240812
30
0
10
21.991764108956545
20
-13.477873308489865
30
0
0
LINE
5
134
100
AcDbEntity
8
0
100
AcDbLine
10
21.988273624998875
20
-13.477873321741527
30
0
11
20.781383337842513
21
-13.477877618953398
31
0
0
SPLINE
5
135
100
AcDbEntity
8
0
100
AcDbSpline
70
4
71
3
72
15
73
11
74
0
42
0.000000001
43
0.0000000001
44
0.0000000001
40
-0.78524587014986591
40
-0.78524587014986591
40
-0.78524587014986591
40
-0.78524587014986591
40
-0.29990863796456474
40
-0.29990863796456474
40
1.4988010832439613e-15
40
1.4988010832439613e-15
40
1.4988010832439613e-15
40
0.29990863796456774
40
0.29990863796456774
40
0.78524587014986891
40
0.78524587014986891
40
0.78524587014986891
40
0.78524587014986891
41
1
41
1
41
1
41
1
41
1
41
1
41
1
41
1
41
1
41
1
41
1
10
22.150830412787137
20
-12.383636756343943
30
0
10
22.312068452227521
20
-12.383073637812714
30
0
10
22.47286166060405
20
-12.342794867107798
30
0
10
22.703111181473979
20
-12.220908097349398
30
0
10
22.784017078169271
20
-12.161151132282447
30
0
10
22.854356976615296
20
-12.090810732935012
30
0
10
22.924696875061322
20
-12.020470333587577
30
0
10
22.984453263985273
20
-11.939564011357167
30
0
10
23.106338394103602
20
-11.709313622521432
30
0
10
23.146616019778008
20
-11.548520127318575
30
0
10
23.147177990112038
20
-11.387282083872236
30
0
0
LINE
5
136
100
AcDbEntity
8
0
100
AcDbLine
10
20.781383337842513
20
-12.38364772131421
30
0
11
22.147339931521376
21
-12.383642857736344
31
0
0
LINE
5
137
100
AcDbEntity
8
0
100
AcDbLine
10
20.731352876873792
20
-13.478751082034734
30
0
11
20.731352876873792
21
-12.382774614506339
31
0
0
LINE
5
138
100
AcDbEntity
8
0
100
AcDbLine
10
-14.442637654086985
20
-12.382773862213059
30
0
11
-14.442637654086985
21
-13.478750329741452
31
0
0
LINE
5
139
100
AcDbEntity
8
0
100
AcDbLine
10
-14.492668115055704
20
-12.38364696902093
30
0
11
-15.647339931521376
21
-12.383642857736344
31
0
0
SPLINE
5
140
100
AcDbEntity
8
0
100
AcDbSpline
70
4
71
3
72
15
73
11
74
0
42
0.000000001
43
0.0000000001
44
0.0000000001
40
-0.78524587014986591
40
-0.78524587014986591
40
-0.78524587014986591
40
-0.78524587014986591
40
-0.29990863796456474
40
-0.29990863796456474
40
1.4988010832439613e-15
40
1.4988010832439613e-15
40
1.4988010832439613e-15
40
0.29990863796456774
40
0.29990863796456774
40
0.78524587014986891
40
0.78524587014986891
40
0.78524587014986891
40
0.78524587014986891
41
1
41
1
41
1
41
1
41
1
41
1
41
1
41
1
41
1
41
1
41
1
10
-15.650830412787135
20
-12.383636756343943
30
0
10
-15.812068452227519
20
-12.383073637812714
30
0
10
-15.972861660604048
20
-12.342794867107798
30
0
10
-16.203111181473979
20
-12.220908097349398
30
0
10
-16.284017078169267
20
-12.161151132282447
30
0
10
-16.354356976615293
20
-12.090810732935012
30
0
10
-16.424696875061318
20
-12.020470333587577
30
0
10
-16.484453263985273
20
-11.939564011357167
30
0
10
-16.606338394103599
20
-11.709313622521432
30
0
10
-16.646616019778008
20
-11.548520127318575
30
0
10
-16.647177990112038
20
-11.387282083872236
30
0
0
LINE
5
141
100
AcDbEntity
8
0
100
AcDbLine
10
-16.647184066648261
20
-11.383791602563122
30
0
11
-16.647132789974599
21
3.017480958022456
31
0
0
LINE
5
142
100
AcDbEntity
8
0
100
AcDbLine
10
-17.741362687613794
20
3.017480958022456
30
0
11
-17.741413397893716
21
-11.224717503886259
31
0
0
SPLINE
5
143
100
AcDbEntity
8
0
100
AcDbSpline
70
4
71
3
72
15
73
11
74
0
42
0.000000001
43
0.0000000001
44
0.0000000001
40
-0.7836971831755164
40
-0.7836971831755164
40
-0.7836971831755164
40
-0.7836971831755164
40
-0.29925240608568593
40
-0.29925240608568593
40
-7.7715611723760958e-16
40
-7.7715611723760958e-16
40
-7.7715611723760958e-16
40
0.29925240608568421
40
0.29925240608568421
40
0.78369718317551529
40
0.78369718317551529
40
0.78369718317551529
40
0.78369718317551529
41
1
41
1
41
1
41
1
41
1
41
1
41
1
41
1
41
1
41
1
41
1
10
-17.741413409498247
20
-11.228207987843922
30
0
10
-17.74141453299347
20
-11.592159206306418
30
0
10
-17.651412809130441
20
-11.955902859233824
30
0
10
-17.376592916890385
20
-12.476882233422753
30
0
10
-17.241600949767339
20
-12.659947949409677
30
0
10
-17.082550730511688
20
-12.8189993012868
30
0
10
-16.923500511256034
20
-12.978050653163919
30
0
10
-16.740435756569219
20
-13.113043923918466
30
0
10
-16.219458339421934
20
-13.387867526113887
30
0
10
-15.85571532741781
20
-13.477871840240812
30
0
10
-15.491764108956543
20
-13.477873308489865
30
0
0
LINE
5
144
100
AcDbEntity
8
0
100
AcDbLine
10
-15.488273624998874
20
-13.477873321741527
30
0
11
-14.492668115055707
21
-13.477876866660118
31
0
0
CIRCLE
5
145
100
AcDbEntity
8
0
100
AcDbCircle
10
-26.369393257817684
20
-7.5578097293367463
30
0
40
4.8326112060786279
210
0
220
0
230
1
0
CIRCLE
5
146
100
AcDbEntity
8
0
100
AcDbCircle
10
-22.516403304665808
20
-23.620274339230182
30
0
40
4.8326112060786288
210
0
220
0
230
1
0
CIRCLE
5
147
100
AcDbEntity
8
0
100
AcDbCircle
10
-42.236965401202767
20
-12.161837123744574
30
0
40
4.8326112060786288
210
0
220
0
230
1
0
CIRCLE
5
148
100
AcDbEntity
8
0
100
AcDbCircle
10
-38.383975448050904
20
-28.224301733638029
30
0
40
4.8326112060786279
210
0
220
0
230
1
0
CIRCLE
5
149
100
AcDbEntity
8
0
100
AcDbCircle
10
-55.282828661719833
20
-28.164523111376315
30
0
40
4.8326112060786288
210
0
220
0
230
1
0
CIRCLE
5
150
100
AcDbEntity
8
0
100
AcDbCircle
10
-48.288171470609853
20
-20.468194956417584
30
0
40
2.5043630964172081
210
0
220
-0
230
1
0
CIRCLE
5
151
100
AcDbEntity
8
0
100
AcDbCircle
10
-59.135818614871596
20
-12.102058501482848
30
0
40
4.8326112060786288
210
0
220
0
230
1
0
CIRCLE
5
152
100
AcDbEntity
8
0
100
AcDbCircle
10
-59.135818614871596
20
-12.102058501482848
30
0
40
6.6212462272576724
210
0
220
-0
230
1
0
CIRCLE
5
153
100
AcDbEntity
8
0
100
AcDbCircle
10
-42.236965401202767
20
-12.161837123744574
30
0
40
6.6212462272576724
210
0
220
-0
230
1
0
CIRCLE
5
154
100
AcDbEntity
8
0
100
AcDbCircle
10
-38.383975448050904
20
-28.224301733638029
30
0
40
6.6212462272576715
210
0
220
-0
230
1
0
CIRCLE
5
155
100
AcDbEntity
8
0
100
AcDbCircle
10
-55.282828661719833
20
-28.164523111376315
30
0
40
6.6212462272576724
210
0
220
-0
230
1
0
CIRCLE
5
156
100
AcDbEntity
8
0
100
AcDbCircle
10
-26.369393257817684
20
-7.5578097293367463
30
0
40
6.6212462272576715
210
0
220
-0
230
1
0
CIRCLE
5
157
100
AcDbEntity
8
0
100
AcDbCircle
10
-22.516403304665808
20
-23.620274339230182
30
0
40
6.6212462272576724
210
0
220
-0
230
1
0
LINE
5
158
100
AcDbEntity
8
0
100
AcDbLine
10
-30.25868593718868
20
-31.590785485303062
30
0
11
-30.25868593718868
21
-34.653985550269752
31
0
0
ELLIPSE
5
159
100
AcDbEntity
8
0
100
AcDbEllipse
10
-30.284871858757867
20
-31.590785485303062
30
0
11
7.4446497784509856e-17
21
1
31
0.0
40
0.026185921569186792
41
4.7123889803846968
42
5.4846971743921538
0
LINE
5
160
100
AcDbEntity
8
0
100
AcDbLine
10
-30.266114832247496
20
-30.892995025461381
30
0
11
-30.290522464591678
21
-29.936178005394826
31
0
0
LINE
5
161
100
AcDbEntity
8
0
100
AcDbLine
10
-29.00868593718868
20
-34.653985550269752
30
0
11
-29.00868593718868
21
-31.590785485303062
31
0
0
ELLIPSE
5
162
100
AcDbEntity
8
0
100
AcDbEllipse
10
-28.982500015619486
20
-31.590785485303062
30
0
11
7.444649778450988e-17
21
-1
31
0.0
40
0.026185921569186792
41
3.9400807863772251
42
4.7123889803846861
0
LINE
5
163
100
AcDbEntity
8
0
100
AcDbLine
10
-28.976849409785679
20
-29.936178005394826
30
0
11
-29.001257042129861
21
-30.892995025461381
31
0
0
CIRCLE
5
164
100
AcDbEntity
8
0
100
AcDbCircle
10
-32.464169645145311
20
-18.258610898360807
30
0
40
2.5043630964172126
210
0
220
-0
230
1
0
LINE
5
165
100
AcDbEntity
8
0
100
AcDbLine
10
-33.782987396177035
20
-1.4456828724016439
30
0
11
-33.782987396177035
21
-4.642020516169171
31
0
0
LINE
5
166
100
AcDbEntity
8
0
100
AcDbLine
10
-35.032987396177035
20
-4.642020516169171
30
0
11
-35.032987396177035
21
-1.9818261376531421
31
0
0
ELLIPSE
5
167
100
AcDbEntity
8
0
100
AcDbEllipse
10
-35.050442461105249
20
-4.642020516169171
30
0
11
1.8665235256975617e-19
21
1.0000000000000002
31
0.0
40
0.017455064928217766
41
3.9357174632470682
42
4.7123889803846888
0
LINE
5
168
100
AcDbEntity
8
0
100
AcDbLine
10
-35.045434570586167
20
-5.7767852611620203
30
0
11
-35.037992628205188
21
-5.3429297804690208
31
0
0
ELLIPSE
5
169
100
AcDbEntity
8
0
100
AcDbEllipse
10
-33.765532331248821
20
-4.642020516169171
30
0
11
1.9248264091713821e-18
21
-1.0000000000000002
31
0.0
40
0.017455064928217766
41
4.7123889803846897
42
5.4890604975221509
0
LINE
5
170
100
AcDbEntity
8
0
100
AcDbLine
10
-33.777982164148888
20
-5.3429297804690208
30
0
11
-33.770540221767902
21
-5.7767852611620203
31
0
0
ARC
5
171
100
AcDbEntity
8
0
100
AcDbCircle
10
-35.727898802953646
20
1.5241352398386261
30
0
40
4.0674497379733809
210
-0
220
0
230
1
100
AcDbArc
50
-61.294400208048579
51
108.12100688347181
0
ARC
5
172
100
AcDbEntity
8
0
100
AcDbCircle
10
-50.657345793443497
20
47.144188438397535
30
0
40
52.068258494505727
210
0
220
0
230
1
100
AcDbArc
50
268.12100688347192
51
287.45201854737883
0
ARC
5
173
100
AcDbEntity
8
0
100
AcDbCircle
10
-52.23123175756119
20
-0.83081051160917185
30
0
40
4.0674497379733463
210
0
220
-0
230
1
100
AcDbArc
50
88.121006883471921
51
268.12100688347147
0
ARC
5
174
100
AcDbEntity
8
0
100
AcDbCircle
10
-50.657345793443355
20
47.144188438396561
30
0
40
43.933359018558022
210
0
220
0
230
1
100
AcDbArc
50
268.12100688347169
51
288.12100688347175
0
LINE
5
175
100
AcDbEntity
8
0
100
AcDbLine
10
-61.451193006401127
20
-20.252298452644084
30
0
11
-64.014221675122371
21
-20.252298452644084
31
0
0
ELLIPSE
5
176
100
AcDbEntity
8
0
100
AcDbEllipse
10
-61.451193006401127
20
-20.226112531074897
30
0
11
0.99999999999999978
21
-2.4800860585180936e-18
31
0.0
40
0.026185921569186938
41
4.7123889803846897
42
5.4846971743920694
0
LINE
5
177
100
AcDbEntity
8
0
100
AcDbLine
10
-60.75340254655945
20
-20.244869557585268
30
0
11
-59.796585526492876
21
-20.220461925241082
31
0
0
LINE
5
178
100
AcDbEntity
8
0
100
AcDbLine
10
-64.014221675122371
20
-21.502298452644084
30
0
11
-61.451193006401127
21
-21.502298452644084
31
0
0
ELLIPSE
5
179
100
AcDbEntity
8
0
100
AcDbEllipse
10
-61.451193006401127
20
-21.528484374213267
30
0
11
-0.99999999999999978
21
7.2676444472485625e-19
31
0.0
40
0.026185921569186789
41
3.94008078637723
42
4.7123889803846897
0
LINE
5
180
100
AcDbEntity
8
0
100
AcDbLine
10
-59.796585526492876
20
-21.534134980047082
30
0
11
-60.75340254655945
21
-21.509727347702892
31
0
0
LINE
5
181
100
AcDbEntity
8
0
100
AcDbLine
10
-46.141367858635157
20
-32.865713880050421
30
0
11
-46.141367858635157
21
-35.546519868335345
31
0
0
ELLIPSE
5
182
100
AcDbEntity
8
0
100
AcDbEllipse
10
-46.106457728778729
20
-32.865713880050421
30
0
11
-4.1167863836130448e-17
21
-1.9999999999999993
31
0.0
40
0.017455064928217589
41
3.7960911230875762
42
4.7123889803846897
0
LINE
5
183
100
AcDbEntity
8
0
100
AcDbLine
10
-46.127709669317014
20
-31.279007199467944
30
0
11
-46.059992345939811
21
-28.302144610029902
31
0
0
LINE
5
184
100
AcDbEntity
8
0
100
AcDbLine
10
-47.86293289455277
20
-35.471354715588852
30
0
11
-47.86293289455277
21
-32.865713880050421
31
0
0
ELLIPSE
5
185
100
AcDbEntity
8
0
100
AcDbEllipse
10
-47.897843024409205
20
-32.865713880050421
30
0
11
-4.1167863836130448e-17
21
1.9999999999999993
31
0.0
40
0.017455064928217589
41
4.7123889803846897
42
5.6286868376816228
0
LINE
5
186
100
AcDbEntity
8
0
100
AcDbLine
10
-47.944308407248116
20
-28.302144610029902
30
0
11
-47.87659108387092
21
-31.279007199467944
31
0
0
LINE
5
187
100
AcDbEntity
8
0
100
AcDbLine
10
-0.625
20
-41.087367069649481
30
0
11
-0.625
21
-41.68080081100544
31
0
0
ELLIPSE
5
188
100
AcDbEntity
8
0
100
AcDbEllipse
10
-0.65118592156918709
20
-41.087367069649481
30
0
11
7.4446497784510275e-17
21
1
31
0.0
40
0.026185921569186938
41
4.7123889803846968
42
5.484697174392184
0
LINE
5
189
100
AcDbEntity
8
0
100
AcDbLine
10
0.625
20
-41.68080081100544
30
0
11
0.625
21
-41.087367069649481
31
0
0
ELLIPSE
5
190
100
AcDbEntity
8
0
100
AcDbEllipse
10
0.65118592156918687
20
-41.087367069649481
30
0
11
7.4446497784510275e-17
21
-1
31
0.0
40
0.026185921569186938
41
3.9400807863771927
42
4.7123889803846826
0
LINE
5
191
100
AcDbEntity
8
0
100
AcDbLine
10
0.66992500155693357
20
-38.91967111558732
30
0
11
0.63242889505881283
21
-40.389576609807804
31
0
0
LINE
5
192
100
AcDbEntity
8
0
100
AcDbLine
10
-0.63242889505881295
20
-40.389576609807804
30
0
11
-0.66992500155693369
21
-38.91967111558732
31
0
0
LINE
5
193
100
AcDbEntity
8
0
100
AcDbLine
10
29.00868593718868
20
-31.590785485303062
30
0
11
29.00868593718868
21
-34.653985550269752
31
0
0
ELLIPSE
5
194
100
AcDbEntity
8
0
100
AcDbEllipse
10
28.982500015619486
20
-31.590785485303062
30
0
11
7.4446497784509856e-17
21
1
31
0.0
40
0.026185921569186792
41
4.7123889803846932
42
5.4846971743921538
0
LINE
5
195
100
AcDbEntity
8
0
100
AcDbLine
10
29.001257042129861
20
-30.892995025461381
30
0
11
28.989942370570279
21
-30.449442362424858
31
0
0
LINE
5
196
100
AcDbEntity
8
0
100
AcDbLine
10
30.25868593718868
20
-34.653985550269752
30
0
11
30.25868593718868
21
-31.590785485303062
31
0
0
ELLIPSE
5
197
100
AcDbEntity
8
0
100
AcDbEllipse
10
30.28487185875786
20
-31.590785485303062
30
0
11
7.444649778450988e-17
21
-1
31
0.0
40
0.026185921569186792
41
3.9400807863770666
42
4.7123889803846826
0
LINE
5
198
100
AcDbEntity
8
0
100
AcDbLine
10
30.277429503807078
20
-30.449442362424854
30
0
11
30.266114832247485
21
-30.892995025461381
31
0
0
LINE
5
199
100
AcDbEntity
8
0
100
AcDbLine
10
64.014221675122371
20
-20.252298452644084
30
0
11
61.451193006401127
21
-20.252298452644084
31
0
0
ELLIPSE
5
200
100
AcDbEntity
8
0
100
AcDbEllipse
10
61.451193006401127
20
-20.226112531074897
30
0
11
0.99999999999999978
21
-7.2676444472436321e-19
31
0.0
40
0.026185921569186938
41
3.9400807863773095
42
4.7123889803846897
0
LINE
5
201
100
AcDbEntity
8
0
100
AcDbLine
10
59.796585526492876
20
-20.220461925241082
30
0
11
60.75340254655945
21
-20.244869557585268
31
0
0
LINE
5
202
100
AcDbEntity
8
0
100
AcDbLine
10
61.451193006401127
20
-21.502298452644084
30
0
11
64.014221675122371
21
-21.502298452644084
31
0
0
ELLIPSE
5
203
100
AcDbEntity
8
0
100
AcDbEllipse
10
61.451193006401127
20
-21.528484374213267
30
0
11
-0.99999999999999978
21
2.4800860585185866e-18
31
0.0
40
0.026185921569186785
41
4.7123889803846968
42
5.4846971743921538
0
LINE
5
204
100
AcDbEntity
8
0
100
AcDbLine
10
60.75340254655945
20
-21.509727347702892
30
0
11
59.796585526492876
21
-21.534134980047078
31
0
0
LINE
5
205
100
AcDbEntity
8
0
100
AcDbLine
10
-0.625
20
-41.68080081100544
30
0
11
-7.4004190076042518
21
-41.680800811005447
31
0
0
LINE
5
206
100
AcDbEntity
8
0
100
AcDbLine
10
7.4004190076042553
20
-41.68080081100544
30
0
11
0.625
21
-41.68080081100544
31
0
0
CIRCLE
5
207
100
AcDbEntity
8
0
100
AcDbCircle
10
-3.0871873220352493
20
-6.7140321564132934
30
0
40
0.98299999999999998
210
0
220
-0
230
1
0
CIRCLE
5
208
100
AcDbEntity
8
0
100
AcDbCircle
10
34.563425938002695
20
-9.6645141956564853
30
0
40
1.1000000000000003
210
0
220
-0
230
1
0
ENDSEC
0
SECTION
2
OBJECTS
0
DICTIONARY
5
C
100
AcDbDictionary
3
ACAD_GROUP
350
D
3
ACAD_MLINESTYLE
350
17
0
DICTIONARY
5
D
100
AcDbDictionary
0
DICTIONARY
5
1A
330
C
100
AcDbDictionary
0
DICTIONARY
5
17
100
AcDbDictionary
0
ENDSEC
0
EOF
