0
SECTION
2
HEADER
9
$INSUNITS
70
4
9
$ACADVER
1
AC1014
9
$HANDSEED
5
FFFF
0
ENDSEC
0
SECTION
2
TABLES
0
TABLE
2
VPORT
5
8
100
AcDbSymbolTable
0
ENDTAB
0
TABLE
2
LTYPE
5
5
100
AcDbSymbolTable
0
LTYPE
5
14
100
AcDbSymbolTableRecord
100
AcDbLinetypeTableRecord
2
BYBLOCK
70
0
0
LTYPE
5
15
100
AcDbSymbolTableRecord
100
AcDbLinetypeTableRecord
2
BYLAYER
70
0
0
LTYPE
5
16
100
AcDbSymbolTableRecord
100
AcDbLinetypeTableRecord
2
DASHED
70
0
3
Dashed __ __ __ __ __ __ __ __ __ __ __ __ __ _
72
65
73
2
40
0.75
49
0.5
74
0
49
-0.25
74
0
0
ENDTAB
0
TABLE
2
LAYER
5
2
100
AcDbSymbolTable
70
2
0
LAYER
5
50
100
AcDbSymbolTableRecord
100
AcDbLayerTableRecord
2
0
70
0
62
7
6
CONTINUOUS
0
ENDTAB
0
TABLE
2
STYLE
5
3
100
AcDbSymbolTable
70
1
0
STYLE
5
11
100
AcDbSymbolTableRecord
100
AcDbTextStyleTableRecord
2
STANDARD
70
0
0
ENDTAB
0
TABLE
2
VIEW
5
6
100
AcDbSymbolTable
70
0
0
ENDTAB
0
TABLE
2
UCS
5
7
100
AcDbSymbolTable
70
0
0
ENDTAB
0
TABLE
2
APPID
5
9
100
AcDbSymbolTable
70
2
0
APPID
5
12
100
AcDbSymbolTableRecord
100
AcDbRegAppTableRecord
2
ACAD
70
0
0
ENDTAB
0
TABLE
2
DIMSTYLE
5
A
100
AcDbSymbolTable
70
1
0
ENDTAB
0
TABLE
2
BLOCK_RECORD
5
1
100
AcDbSymbolTable
70
1
0
BLOCK_RECORD
5
1F
100
AcDbSymbolTableRecord
100
AcDbBlockTableRecord
2
*MODEL_SPACE
0
BLOCK_RECORD
5
1B
100
AcDbSymbolTableRecord
100
AcDbBlockTableRecord
2
*PAPER_SPACE
0
ENDTAB
0
ENDSEC
0
SECTION
2
BLOCKS
0
BLOCK
5
20
100
AcDbEntity
100
AcDbBlockBegin
2
*MODEL_SPACE
0
ENDBLK
5
21
100
AcDbEntity
100
AcDbBlockEnd
0
BLOCK
5
1C
100
AcDbEntity
100
AcDbBlockBegin
2
*PAPER_SPACE
0
ENDBLK
5
1D
100
AcDbEntity
100
AcDbBlockEnd
0
ENDSEC
0
SECTION
2
ENTITIES
0
ARC
5
100
100
AcDbEntity
8
0
100
AcDbCircle
10
-14.070317345932013
20
1.1491026850721553
30
0
40
1.0000000000000009
210
0
220
0
230
1
100
AcDbArc
50
0
51
90
0
LINE
5
101
100
AcDbEntity
8
0
100
AcDbLine
10
-14.070317345932013
20
2.1491026850721555
30
0
11
-22.654927064107703
21
2.149102685072156
31
0
0
SPLINE
5
102
100
AcDbEntity
8
0
100
AcDbSpline
70
0
71
3
72
11
73
7
74
0
42
0.000000001
43
0.0000000001
44
0.0000000001
40
0
40
0
40
0
40
0
40
0.303812329246815
40
0.303812329246815
40
0.303812329246815
40
0.60766683209985817
40
0.60766683209985817
40
0.60766683209985817
40
0.60766683209985817
10
-22.65492706410771
20
2.149102685072156
30
0
10
-23.762832841704391
20
2.1491026850721555
30
0
10
-24.865068206578623
20
2.3073107967114623
30
0
10
-25.928257806389073
20
2.619000287253618
30
0
10
-26.991594992088437
20
2.930733044745093
30
0
10
-28.004914432846043
20
3.3927763781354736
30
0
10
-28.937559128578133
20
3.9910822281233198
30
0
0
ARC
5
103
100
AcDbEntity
8
0
100
AcDbCircle
10
-43.392976196853262
20
-18.542155669510191
30
0
40
26.771363296797702
210
0
220
-0
230
1
100
AcDbArc
50
57.319206790750215
51
173.21610860446052
0
ARC
5
104
100
AcDbEntity
8
0
100
AcDbCircle
10
-68.487408561590186
20
-15.556981106712071
30
0
40
1.5000000000000016
210
0
220
0
230
1
100
AcDbArc
50
173.2161086044604
51
270
0
LINE
5
105
100
AcDbEntity
8
0
100
AcDbLine
10
-68.487408561590186
20
-17.056981106712072
30
0
11
-67.045140936493354
21
-17.056981106712069
31
0
0
ARC
5
106
100
AcDbEntity
8
0
100
AcDbCircle
10
-67.045140936493354
20
-20.877298452644084
30
0
40
3.8203173459320094
210
0
220
0
230
1
100
AcDbArc
50
-90
51
90
0
LINE
5
107
100
AcDbEntity
8
0
100
AcDbLine
10
-67.045140936493354
20
-24.697615798576091
30
0
11
-67.476907210934314
21
-24.697615798576091
31
0
0
ARC
5
108
100
AcDbEntity
8
0
100
AcDbCircle
10
-67.476907210934314
20
-26.197615798576095
30
0
40
1.5000000000000036
210
0
220
-0
230
1
100
AcDbArc
50
90
51
197.63368538925013
0
ARC
5
109
100
AcDbEntity
8
0
100
AcDbCircle
10
-43.392976196853262
20
-18.542155669510191
30
0
40
26.771363296797681
210
0
220
0
230
1
100
AcDbArc
50
197.6336853892501
51
212.94672644359389
0
ARC
5
110
100
AcDbEntity
8
0
100
AcDbCircle
10
-62.502171656900671
20
-30.926566647205036
30
0
40
3.9999999999999956
210
0
220
0
230
1
100
AcDbArc
50
212.94672644359395
51
270
0
LINE
5
111
100
AcDbEntity
8
0
100
AcDbLine
10
-62.502171656900671
20
-34.926566647205021
30
0
11
-35.155748363253679
21
-34.926566647205007
31
0
0
ARC
5
112
100
AcDbEntity
8
0
100
AcDbCircle
10
-35.155748363253679
20
-30.176566647205
30
0
40
4.7500000000000053
210
0
220
0
230
1
100
AcDbArc
50
270
51
304.12739054912788
0
ARC
5
113
100
AcDbEntity
8
0
100
AcDbCircle
10
-30.066984784112584
20
-37.684904811640749
30
0
40
4.3203173459320166
210
0
220
-0
230
1
100
AcDbArc
50
90
51
124.12739054912788
0
LINE
5
114
100
AcDbEntity
8
0
100
AcDbLine
10
-30.066984784112584
20
-33.36458746570873
30
0
11
-27.135019154966209
21
-33.36458746570873
31
0
0
ARC
5
115
100
AcDbEntity
8
0
100
AcDbCircle
10
-27.135019154966209
20
-35.36458746570873
30
0
40
2.0000000000000018
210
0
220
0
230
1
100
AcDbArc
50
0
51
90
0
LINE
5
116
100
AcDbEntity
8
0
100
AcDbLine
10
-25.135019154966205
20
-35.36458746570873
30
0
11
-25.135019154966205
21
-36.347451313762036
31
0
0
ARC
5
117
100
AcDbEntity
8
0
100
AcDbCircle
10
-23.135019154966201
20
-36.347451313762036
30
0
40
2.0000000000000018
210
0
220
0
230
1
100
AcDbArc
50
180
51
270
0
LINE
5
118
100
AcDbEntity
8
0
100
AcDbLine
10
-23.135019154966201
20
-38.347451313762036
30
0
11
-9.3887240122205355
21
-38.347451313762036
31
0
0
ARC
5
119
100
AcDbEntity
8
0
100
AcDbCircle
10
-9.3887240122205355
20
-41.347451313762029
30
0
40
2.9999999999999982
210
0
220
0
230
1
100
AcDbArc
50
0
51
90
0
LINE
5
120
100
AcDbEntity
8
0
100
AcDbLine
10
-6.3887240122205382
20
-41.347451313762029
30
0
11
-6.3887240122205391
21
-45.813518966307889
31
0
0
LINE
5
121
100
AcDbEntity
8
0
100
AcDbLine
10
-6.3887240122205391
20
-45.813518966307889
30
0
11
6.3887240122205391
21
-45.813518966307889
31
0
0
LINE
5
122
100
AcDbEntity
8
0
100
AcDbLine
10
6.3887240122205391
20
-45.813518966307889
30
0
11
6.3887240122205382
21
-41.347451313762036
31
0
0
ARC
5
123
100
AcDbEntity
8
0
100
AcDbCircle
10
9.3887240122205373
20
-41.347451313762036
30
0
40
2.9999999999999982
210
0
220
-0
230
1
100
AcDbArc
50
90
51
180
0
LINE
5
124
100
AcDbEntity
8
0
100
AcDbLine
10
9.3887240122205373
20
-38.347451313762036
30
0
11
23.135019154966201
21
-38.347451313762036
31
0
0
ARC
5
125
100
AcDbEntity
8
0
100
AcDbCircle
10
23.135019154966201
20
-36.347451313762036
30
0
40
2.0000000000000018
210
0
220
0
230
1
100
AcDbArc
50
-90
51
0
0
LINE
5
126
100
AcDbEntity
8
0
100
AcDbLine
10
25.135019154966205
20
-36.347451313762036
30
0
11
25.135019154966205
21
-35.36458746570873
31
0
0
ARC
5
127
100
AcDbEntity
8
0
100
AcDbCircle
10
27.135019154966209
20
-35.36458746570873
30
0
40
2.0000000000000018
210
0
220
-0
230
1
100
AcDbArc
50
90
51
180
0
LINE
5
128
100
AcDbEntity
8
0
100
AcDbLine
10
27.135019154966209
20
-33.36458746570873
30
0
11
30.066984784112584
21
-33.36458746570873
31
0
0
ARC
5
129
100
AcDbEntity
8
0
100
AcDbCircle
10
30.066984784112584
20
-37.684904811640749
30
0
40
4.3203173459320183
210
0
220
-0
230
1
100
AcDbArc
50
55.872609450872133
51
90
0
ARC
5
130
100
AcDbEntity
8
0
100
AcDbCircle
10
35.155748363253679
20
-30.176566647205
30
0
40
4.7499999999999982
210
0
220
0
230
1
100
AcDbArc
50
235.87260945087212
51
270
0
LINE
5
131
100
AcDbEntity
8
0
100
AcDbLine
10
35.155748363253679
20
-34.926566647205
30
0
11
62.502171656900686
21
-34.926566647205014
31
0
0
ARC
5
132
100
AcDbEntity
8
0
100
AcDbCircle
10
62.502171656900686
20
-30.926566647205039
30
0
40
3.9999999999999769
210
0
220
0
230
1
100
AcDbArc
50
270
51
327.05327355640622
0
ARC
5
133
100
AcDbEntity
8
0
100
AcDbCircle
10
43.392976196853255
20
-18.542155669510198
30
0
40
26.771363296797695
210
0
220
0
230
1
100
AcDbArc
50
327.05327355640617
51
342.3663146107499
0
ARC
5
134
100
AcDbEntity
8
0
100
AcDbCircle
10
67.476907210934328
20
-26.197615798576102
30
0
40
1.5000000000000009
210
0
220
0
230
1
100
AcDbArc
50
-17.633685389250289
51
90
0
LINE
5
135
100
AcDbEntity
8
0
100
AcDbLine
10
67.476907210934328
20
-24.697615798576106
30
0
11
67.045140936493368
21
-24.697615798576106
31
0
0
ARC
5
136
100
AcDbEntity
8
0
100
AcDbCircle
10
67.045140936493368
20
-20.877298452644084
30
0
40
3.8203173459320183
210
0
220
-0
230
1
100
AcDbArc
50
90
51
270
0
LINE
5
137
100
AcDbEntity
8
0
100
AcDbLine
10
67.045140936493368
20
-17.056981106712065
30
0
11
68.487408561590186
21
-17.056981106712065
31
0
0
ARC
5
138
100
AcDbEntity
8
0
100
AcDbCircle
10
68.487408561590186
20
-15.55698110671206
30
0
40
1.5000000000000036
210
0
220
0
230
1
100
AcDbArc
50
-90
51
6.7838913955395004
0
ARC
5
139
100
AcDbEntity
8
0
100
AcDbCircle
10
43.392976196853255
20
-18.542155669510198
30
0
40
26.771363296797691
210
0
220
-0
230
1
100
AcDbArc
50
6.7838913955395537
51
122.68079320924976
0
SPLINE
5
140
100
AcDbEntity
8
0
100
AcDbSpline
70
0
71
3
72
11
73
7
74
0
42
0.000000001
43
0.0000000001
44
0.0000000001
40
0
40
0
40
0
40
0
40
0.30380232590174916
40
0.30380232590174916
40
0.30380232590174916
40
0.60766683369723951
40
0.60766683369723951
40
0.60766683369723951
40
0.60766683369723951
10
28.937559128578144
20
3.991082228123318
30
0
10
28.005074586960312
20
3.3928791194515378
30
0
10
26.991942178411445
20
2.9308912020349833
30
0
10
25.928802804715595
20
2.6191600758834839
30
0
10
24.865445828728706
20
2.3073651449205772
30
0
10
23.763023118191882
20
2.1491026850721515
30
0
10
22.654927064107714
20
2.1491026850721515
30
0
0
LINE
5
141
100
AcDbEntity
8
0
100
AcDbLine
10
22.654927064107717
20
2.1491026850721515
30
0
11
-4.4296826540679923
21
2.1491026850721546
31
0
0
ARC
5
142
100
AcDbEntity
8
0
100
AcDbCircle
10
-4.4296826540679923
20
1.1491026850721544
30
0
40
1
210
0
220
-0
230
1
100
AcDbArc
50
90
51
180
0
LINE
5
143
100
AcDbEntity
8
0
100
AcDbLine
10
-5.4296826540679923
20
1.1491026850721544
30
0
11
-5.4296826540679906
21
-0.8461634044202313
31
0
0
ARC
5
144
100
AcDbEntity
8
0
100
AcDbCircle
10
-9.2500000000000036
20
-0.84616340442023108
30
0
40
3.8203173459320117
210
0
220
0
230
1
100
AcDbArc
50
180
51
360
0
LINE
5
145
100
AcDbEntity
8
0
100
AcDbLine
10
-13.070317345932015
20
-0.84616340442023152
30
0
11
-13.070317345932011
21
1.1491026850721551
31
0
0
CIRCLE
5
146
100
AcDbEntity
8
0
100
AcDbCircle
10
-28.244154417237716
20
-16.331665936336442
30
0
40
1.0999999999999988
210
0
220
0
230
1
0
CIRCLE
5
147
100
AcDbEntity
8
0
100
AcDbCircle
10
-52.775470852153752
20
-19.085882564886674
30
0
40
1.1000000000000032
210
0
220
0
230
1
0
CIRCLE
5
148
100
AcDbEntity
8
0
100
AcDbCircle
10
23.694287995352518
20
-8.8871357730014449
30
0
40
0.65000000000000224
210
0
220
0
230
1
0
CIRCLE
5
149
100
AcDbEntity
8
0
100
AcDbCircle
10
0
20
-42.30580081100544
30
0
40
0.60001523280439339
210
0
220
0
230
1
0
CIRCLE
5
150
100
AcDbEntity
8
0
100
AcDbCircle
10
52.483824750835339
20
-27.696330589918045
30
0
40
1.1000000000000001
210
0
220
0
230
1
0
CIRCLE
5
151
100
AcDbEntity
8
0
100
AcDbCircle
10
-17.194247701479615
20
-11.387281359309377
30
0
40
0.65000000000000002
210
0
220
0
230
1
0
CIRCLE
5
152
100
AcDbEntity
8
0
100
AcDbCircle
10
34.563425938002695
20
-9.6645141956564853
30
0
40
1.1000000000000003
210
0
220
0
230
1
0
CIRCLE
5
153
100
AcDbEntity
8
0
100
AcDbCircle
10
6.8130645271802024
20
-1.4978883511787688
30
0
40
1.1000000000000001
210
0
220
0
230
1
0
CIRCLE
5
154
100
AcDbEntity
8
0
100
AcDbCircle
10
-3.0871873220352493
20
-6.7140321564132934
30
0
40
0.98299999999999998
210
0
220
0
230
1
0
CIRCLE
5
155
100
AcDbEntity
8
0
100
AcDbCircle
10
43.392976196853269
20
-10.234266007728561
30
8.3266726846886741e-15
40
2.3415624999999984
210
-2.1082649285524379e-16
220
-1.748372560149386e-16
230
1
0
CIRCLE
5
156
100
AcDbEntity
8
0
100
AcDbCircle
10
51.700865858634927
20
-18.542155669510194
30
1.3322676295501878e-14
40
2.3415624999999984
210
-1.748372560149386e-16
220
2.1082649285524379e-16
230
1
0
CIRCLE
5
157
100
AcDbEntity
8
0
100
AcDbCircle
10
43.392976196853262
20
-26.850045331291831
30
-3.8857805861880479e-15
40
2.3415624999999984
210
2.1082649285524377e-16
220
1.7483725601493863e-16
230
1
0
CIRCLE
5
158
100
AcDbEntity
8
0
100
AcDbCircle
10
35.085086535071646
20
-18.542155669510191
30
-9.4368957093138306e-15
40
2.3415624999999984
210
1.7483725601493863e-16
220
-2.1082649285524377e-16
230
1
0
LWPOLYLINE
5
159
100
AcDbEntity
8
0
100
AcDbPolyline
90
4
70
1
43
0.0
10
42.642976196853283
20
-12.584266007728557
10
42.642976196853283
20
-14.084266007728557
10
44.142976196853283
20
-14.084266007728557
10
44.142976196853283
20
-12.584266007728557
0
LWPOLYLINE
5
160
100
AcDbEntity
8
0
100
AcDbPolyline
90
4
70
1
43
0.0
10
37.435086535071626
20
-17.79215566951018
10
37.435086535071626
20
-19.29215566951018
10
38.935086535071626
20
-19.29215566951018
10
38.935086535071626
20
-17.79215566951018
0
LWPOLYLINE
5
161
100
AcDbEntity
8
0
100
AcDbPolyline
90
4
70
1
43
0.0
10
42.642976196853283
20
-23.000045331291822
10
42.642976196853283
20
-24.500045331291819
10
44.142976196853283
20
-24.500045331291815
10
44.142976196853283
20
-23.000045331291815
0
LWPOLYLINE
5
162
100
AcDbEntity
8
0
100
AcDbPolyline
90
4
70
1
43
0.0
10
47.850865858634926
20
-17.792155669510194
10
47.850865858634926
20
-19.292155669510191
10
49.350865858634933
20
-19.292155669510191
10
49.350865858634933
20
-17.792155669510194
0
LINE
5
163
100
AcDbEntity
8
0
100
AcDbLine
10
26.535038755869891
20
-12.153610776209634
30
-7.1886940844478886e-14
11
26.855038755869892
21
-12.153610776209632
31
-7.2387879012088092e-14
0
LINE
5
164
100
AcDbEntity
8
0
100
AcDbLine
10
25.285038755869898
20
-12.153610776209639
30
-6.9944050551384862e-14
11
25.605038755869899
21
-12.153610776209637
31
-7.0444988718994056e-14
0
LINE
5
165
100
AcDbEntity
8
0
100
AcDbLine
10
25.605038755869899
20
-12.503610776209637
30
-7.1331829332166308e-14
11
25.285038755869898
21
-12.503610776209639
31
-7.0830891164557114e-14
0
LINE
5
166
100
AcDbEntity
8
0
100
AcDbLine
10
26.855038755869892
20
-12.50361077620963
30
-7.3274719625260332e-14
11
26.535038755869891
21
-12.503610776209634
31
-7.2773781457651125e-14
0
CIRCLE
5
167
100
AcDbEntity
8
0
100
AcDbCircle
10
18.374999999999982
20
-7.8641354725656631
30
-8.8095815576949748e-16
40
1.4999999999999996
210
5.5511151231283021e-17
220
6.9947110329342489e-18
230
1
0
CIRCLE
5
168
100
AcDbEntity
8
0
100
AcDbCircle
10
13.625000000000007
20
-1.3641354725656651
30
-1.9876804451548127e-15
40
1.4999999999999991
210
1.1922228401599367e-16
220
-7.3590356665695075e-17
230
1
0
CIRCLE
5
169
100
AcDbEntity
8
0
100
AcDbCircle
10
4.7499999999999973
20
-7.8641354725656605
30
-3.2584664345645625e-16
40
1.4999999999999996
210
5.5511151231257784e-17
220
6.9947110329340517e-18
230
1
0
CIRCLE
5
170
100
AcDbEntity
8
0
100
AcDbCircle
10
-1.3421636549455128e-15
20
-1.364135472565666
30
1.893118262937929e-17
40
1.4999999999999996
210
2.7755575615628873e-17
220
2.7755575615628726e-17
230
1
0
CIRCLE
5
171
100
AcDbEntity
8
0
100
AcDbCircle
10
-9.25
20
-7.864135472565672
30
1.2209243413053322e-15
40
1.4999999999999996
210
5.5511137996367958e-17
220
6.2506044243929911e-17
230
1
0
CIRCLE
5
172
100
AcDbEntity
8
0
100
AcDbCircle
10
0
20
-42.30580081100544
30
0
40
0.60001523280439339
210
0
220
-0
230
1
0
CIRCLE
5
173
100
AcDbEntity
8
0
100
AcDbCircle
10
3.6000000000000028
20
-39.710213416841952
30
4.163336342344337e-16
40
0.27500000002435637
210
-9.7144514654700482e-17
220
1.5517792115242534e-31
230
1
0
CIRCLE
5
174
100
AcDbEntity
8
0
100
AcDbCircle
10
-3.6000000000000094
20
-39.710213416841952
30
-4.163336342344337e-16
40
0.27500000002435637
210
-9.7144514654700482e-17
220
1.5517792115242534e-31
230
1
0
CIRCLE
5
175
100
AcDbEntity
8
0
100
AcDbCircle
10
-35.727898802953646
20
1.5241352398386254
30
0
40
1.5441590302277897
210
0
220
-0
230
1
0
CIRCLE
5
176
100
AcDbEntity
8
0
100
AcDbCircle
10
-41.125011300982578
20
0.099398711956692337
30
0
40
1.5441590302277897
210
0
220
-0
230
1
0
CIRCLE
5
177
100
AcDbEntity
8
0
100
AcDbCircle
10
-46.651032270455843
20
-0.68913773945380652
30
0
40
1.5441590302277897
210
0
220
-0
230
1
0
CIRCLE
5
178
100
AcDbEntity
8
0
100
AcDbCircle
10
-52.231231757561204
20
-0.83081051160917219
30
0
40
1.5441590302277897
210
0
220
-0
230
1
0
LWPOLYLINE
5
179
100
AcDbEntity
8
0
100
AcDbPolyline
90
4
70
1
43
0.0
10
-59.885818614871582
20
-8.2520585014828569
10
-59.885818614871582
20
-9.7520585014828569
10
-58.385818614871582
20
-9.7520585014828569
10
-58.385818614871575
20
-8.2520585014828569
0
LWPOLYLINE
5
180
100
AcDbEntity
8
0
100
AcDbPolyline
90
4
70
1
43
0.0
10
-42.986965401202781
20
-8.3118371237445778
10
-42.986965401202781
20
-9.8118371237445778
10
-41.486965401202781
20
-9.8118371237445778
10
-41.486965401202774
20
-8.3118371237445778
0
LWPOLYLINE
5
181
100
AcDbEntity
8
0
100
AcDbPolyline
90
4
70
1
43
0.0
10
-27.119393257817677
20
-3.7078097293367573
10
-27.119393257817677
20
-5.2078097293367565
10
-25.619393257817681
20
-5.2078097293367556
10
-25.619393257817684
20
-3.7078097293367569
0
LWPOLYLINE
5
182
100
AcDbEntity
8
0
100
AcDbPolyline
90
4
70
1
43
0.0
10
-23.266403304665811
20
-19.770274339230202
10
-23.266403304665811
20
-21.270274339230202
10
-21.766403304665815
20
-21.270274339230198
10
-21.766403304665815
20
-19.770274339230202
0
LWPOLYLINE
5
183
100
AcDbEntity
8
0
100
AcDbPolyline
90
4
70
1
43
0.0
10
-39.133975448050919
20
-24.374301733638038
10
-39.133975448050919
20
-25.874301733638035
10
-37.633975448050919
20
-25.874301733638035
10
-37.633975448050919
20
-24.374301733638042
0
LWPOLYLINE
5
184
100
AcDbEntity
8
0
100
AcDbPolyline
90
4
70
1
43
0.0
10
-56.032828661719861
20
-24.314523111376349
10
-56.032828661719861
20
-25.814523111376349
10
-54.532828661719861
20
-25.814523111376346
10
-54.532828661719854
20
-24.314523111376346
0
CIRCLE
5
185
100
AcDbEntity
8
0
100
AcDbCircle
10
34.407987396177035
20
-2.0511313175968828
30
8.3266726846886741e-16
40
1.5000000000000002
210
-5.5511151231257963e-17
220
-4.2674197509029415e-16
230
1
0
CIRCLE
5
186
100
AcDbEntity
8
0
100
AcDbCircle
10
-34.407987396177035
20
-2.0511313175968819
30
-3.0531133177191805e-15
40
1.5000000000000009
210
-7.1882604035789055e-17
220
-4.2413988987632697e-16
230
1
0
LINE
5
187
100
AcDbEntity
8
0
100
AcDbLine
10
24.245038755869921
20
-16.778610776209629
30
-7.9658502016854982e-14
11
27.895038755869905
21
-16.778610776209614
31
-8.5372327991147419e-14
0
LINE
5
188
100
AcDbEntity
8
0
100
AcDbLine
10
59.621327202546574
20
-28.563820957576809
30
-2.7755575615628914e-16
11
59.621327202546574
21
-28.063820957576809
31
-2.7755575615628914e-16
0
LINE
5
189
100
AcDbEntity
8
0
100
AcDbLine
10
67.121327202546567
20
-28.563820957576809
30
-2.7755575615628914e-16
11
67.121327202546567
21
-28.063820957576809
31
-2.7755575615628914e-16
0
LINE
5
190
100
AcDbEntity
8
0
100
AcDbLine
10
-59.621327202546574
20
-28.563820957576809
30
-2.7755575615628914e-16
11
-59.621327202546574
21
-28.063820957576809
31
-2.7755575615628914e-16
0
LINE
5
191
100
AcDbEntity
8
0
100
AcDbLine
10
-67.121327202546567
20
-28.563820957576809
30
-2.7755575615628914e-16
11
-67.121327202546567
21
-28.063820957576809
31
-2.7755575615628914e-16
0
CIRCLE
5
192
100
AcDbEntity
8
0
100
AcDbCircle
10
-26.369393257817695
20
-7.5578097293367472
30
5.5511151231257827e-16
40
2.3415624999999989
210
1.1667694977456713e-16
220
-2.0855512075642033e-16
230
1
0
CIRCLE
5
193
100
AcDbEntity
8
0
100
AcDbCircle
10
-42.236965401202767
20
-12.161837123744572
30
1.6653345369377348e-15
40
2.3415624999999989
210
1.1667694977456711e-16
220
-2.0855512075642023e-16
230
1
0
CIRCLE
5
194
100
AcDbEntity
8
0
100
AcDbCircle
10
-59.135818614871596
20
-12.102058501482846
30
4.4408920985006262e-15
40
2.3415624999999989
210
1.1667694977456711e-16
220
-2.0855512075642025e-16
230
1
0
CIRCLE
5
195
100
AcDbEntity
8
0
100
AcDbCircle
10
-55.282828661719833
20
-28.164523111376312
30
5.5511151231257827e-16
40
2.3415624999999989
210
1.1667694977456711e-16
220
-2.0855512075642023e-16
230
1
0
CIRCLE
5
196
100
AcDbEntity
8
0
100
AcDbCircle
10
-38.383975448050919
20
-28.224301733638029
30
-1.6653345369377348e-15
40
2.3415624999999984
210
1.1667694977456716e-16
220
-2.085551207564203e-16
230
1
0
CIRCLE
5
197
100
AcDbEntity
8
0
100
AcDbCircle
10
-22.516403304665815
20
-23.620274339230178
30
-2.7755575615628914e-15
40
2.3415624999999993
210
1.1667694977456711e-16
220
-2.0855512075642025e-16
230
1
0
ENDSEC
0
SECTION
2
OBJECTS
0
DICTIONARY
5
C
100
AcDbDictionary
3
ACAD_GROUP
350
D
3
ACAD_MLINESTYLE
350
17
0
DICTIONARY
5
D
100
AcDbDictionary
0
DICTIONARY
5
1A
330
C
100
AcDbDictionary
0
DICTIONARY
5
17
100
AcDbDictionary
0
ENDSEC
0
EOF
