0
SECTION
2
HEADER
9
$INSUNITS
70
4
9
$ACADVER
1
AC1014
9
$HANDSEED
5
FFFF
0
ENDSEC
0
SECTION
2
TABLES
0
TABLE
2
VPORT
5
8
100
AcDbSymbolTable
0
ENDTAB
0
TABLE
2
LTYPE
5
5
100
AcDbSymbolTable
0
LTYPE
5
14
100
AcDbSymbolTableRecord
100
AcDbLinetypeTableRecord
2
BYBLOCK
70
0
0
LTYPE
5
15
100
AcDbSymbolTableRecord
100
AcDbLinetypeTableRecord
2
BYLAYER
70
0
0
LTYPE
5
16
100
AcDbSymbolTableRecord
100
AcDbLinetypeTableRecord
2
DASHED
70
0
3
Dashed __ __ __ __ __ __ __ __ __ __ __ __ __ _
72
65
73
2
40
0.75
49
0.5
74
0
49
-0.25
74
0
0
ENDTAB
0
TABLE
2
LAYER
5
2
100
AcDbSymbolTable
70
2
0
LAYER
5
50
100
AcDbSymbolTableRecord
100
AcDbLayerTableRecord
2
0
70
0
62
7
6
CONTINUOUS
0
ENDTAB
0
TABLE
2
STYLE
5
3
100
AcDbSymbolTable
70
1
0
STYLE
5
11
100
AcDbSymbolTableRecord
100
AcDbTextStyleTableRecord
2
STANDARD
70
0
0
ENDTAB
0
TABLE
2
VIEW
5
6
100
AcDbSymbolTable
70
0
0
ENDTAB
0
TABLE
2
UCS
5
7
100
AcDbSymbolTable
70
0
0
ENDTAB
0
TABLE
2
APPID
5
9
100
AcDbSymbolTable
70
2
0
APPID
5
12
100
AcDbSymbolTableRecord
100
AcDbRegAppTableRecord
2
ACAD
70
0
0
ENDTAB
0
TABLE
2
DIMSTYLE
5
A
100
AcDbSymbolTable
70
1
0
ENDTAB
0
TABLE
2
BLOCK_RECORD
5
1
100
AcDbSymbolTable
70
1
0
BLOCK_RECORD
5
1F
100
AcDbSymbolTableRecord
100
AcDbBlockTableRecord
2
*MODEL_SPACE
0
BLOCK_RECORD
5
1B
100
AcDbSymbolTableRecord
100
AcDbBlockTableRecord
2
*PAPER_SPACE
0
ENDTAB
0
ENDSEC
0
SECTION
2
BLOCKS
0
BLOCK
5
20
100
AcDbEntity
100
AcDbBlockBegin
2
*MODEL_SPACE
0
ENDBLK
5
21
100
AcDbEntity
100
AcDbBlockEnd
0
BLOCK
5
1C
100
AcDbEntity
100
AcDbBlockBegin
2
*PAPER_SPACE
0
ENDBLK
5
1D
100
AcDbEntity
100
AcDbBlockEnd
0
ENDSEC
0
SECTION
2
ENTITIES
0
LWPOLYLINE
5
100
100
AcDbEntity
8
0
100
AcDbPolyline
90
28
70
1
43
0.0
10
8.8420000000000005
20
9.8121124065189846
10
8.8420000000000005
20
10.449999999999999
10
-15.771000000000001
20
10.449999999999999
10
-15.771000000000001
20
15.791
10
-18.271000000000001
20
15.791
10
-18.271000000000001
20
7.9499999999999993
10
6.3419999999999987
20
7.9499999999999993
10
6.3419999999999996
20
2.5499999999999989
10
-5.8419999999999996
20
2.5499999999999994
10
-5.8419999999999987
20
-2.5500000000000007
10
5.8420000000000005
20
-2.5500000000000007
10
5.8419999999999996
20
-0.0500000000000006
10
8.8420000000000005
20
-0.050000000000000433
10
8.8420000000000005
20
1.812112406518984
10
10.842000000000001
20
1.812112406518984
10
10.842000000000001
20
-0.050000000000000322
10
13.842000000000002
20
-0.0500000000000006
10
13.842000000000001
20
-2.5500000000000007
10
25.526
20
-2.5500000000000007
10
25.526
20
2.5499999999999994
10
13.342000000000001
20
2.5499999999999994
10
13.342000000000001
20
7.9499999999999993
10
37.955000000000005
20
7.9499999999999993
10
37.955000000000005
20
15.791
10
35.455000000000005
20
15.791
10
35.455000000000005
20
10.449999999999999
10
10.842000000000001
20
10.449999999999999
10
10.842000000000001
20
9.8121124065189846
0
LWPOLYLINE
5
101
100
AcDbEntity
8
0
100
AcDbPolyline
90
4
70
1
43
0.0
10
8.8420000000000005
20
8.8121124065189846
10
10.842000000000001
20
8.8121124065189846
10
10.842000000000001
20
6.3121124065189838
10
8.8420000000000005
20
6.3121124065189838
0
LWPOLYLINE
5
102
100
AcDbEntity
8
0
100
AcDbPolyline
90
4
70
1
43
0.0
10
8.8420000000000005
20
5.3121124065189838
10
10.842000000000001
20
5.3121124065189838
10
10.842000000000001
20
2.8121124065189838
10
8.8420000000000005
20
2.8121124065189838
0
CIRCLE
5
103
100
AcDbEntity
8
0
100
AcDbCircle
10
20.210044370000002
20
0.38125002999999935
30
0
40
0.50000000000000022
210
0
220
-0
230
1
0
CIRCLE
5
104
100
AcDbEntity
8
0
100
AcDbCircle
10
-0.52604436999999749
20
0.38125002999999935
30
0
40
0.50000000000000022
210
0
220
-0
230
1
0
ENDSEC
0
SECTION
2
OBJECTS
0
DICTIONARY
5
C
100
AcDbDictionary
3
ACAD_GROUP
350
D
3
ACAD_MLINESTYLE
350
17
0
DICTIONARY
5
D
100
AcDbDictionary
0
DICTIONARY
5
1A
330
C
100
AcDbDictionary
0
DICTIONARY
5
17
100
AcDbDictionary
0
ENDSEC
0
EOF
