%TF.GenerationSoftware,KiCad,Pcbnew,9.0.6-rc2*%
%TF.CreationDate,2025-11-20T00:57:41-08:00*%
%TF.ProjectId,LatteJr_Main_Board,4c617474-654a-4725-9f4d-61696e5f426f,rev?*%
%TF.SameCoordinates,Original*%
%TF.FileFunction,Legend,Bot*%
%TF.FilePolarity,Positive*%
%FSLAX46Y46*%
G04 Gerber Fmt 4.6, Leading zero omitted, Abs format (unit mm)*
G04 Created by KiCad (PCBNEW 9.0.6-rc2) date 2025-11-20 00:57:41*
%MOMM*%
%LPD*%
G01*
G04 APERTURE LIST*
%ADD10C,0.120000*%
%ADD11C,0.100000*%
%ADD12C,0.200000*%
G04 APERTURE END LIST*
D10*
X29458800Y-35200530D02*
X29458800Y-35629101D01*
X29458800Y-35629101D02*
X29487371Y-35714816D01*
X29487371Y-35714816D02*
X29544514Y-35771959D01*
X29544514Y-35771959D02*
X29630228Y-35800530D01*
X29630228Y-35800530D02*
X29687371Y-35800530D01*
X28887371Y-35200530D02*
X29173085Y-35200530D01*
X29173085Y-35200530D02*
X29201657Y-35486244D01*
X29201657Y-35486244D02*
X29173085Y-35457673D01*
X29173085Y-35457673D02*
X29115943Y-35429101D01*
X29115943Y-35429101D02*
X28973085Y-35429101D01*
X28973085Y-35429101D02*
X28915943Y-35457673D01*
X28915943Y-35457673D02*
X28887371Y-35486244D01*
X28887371Y-35486244D02*
X28858800Y-35543387D01*
X28858800Y-35543387D02*
X28858800Y-35686244D01*
X28858800Y-35686244D02*
X28887371Y-35743387D01*
X28887371Y-35743387D02*
X28915943Y-35771959D01*
X28915943Y-35771959D02*
X28973085Y-35800530D01*
X28973085Y-35800530D02*
X29115943Y-35800530D01*
X29115943Y-35800530D02*
X29173085Y-35771959D01*
X29173085Y-35771959D02*
X29201657Y-35743387D01*
X156283000Y-35200530D02*
X156283000Y-35629101D01*
X156283000Y-35629101D02*
X156311571Y-35714816D01*
X156311571Y-35714816D02*
X156368714Y-35771959D01*
X156368714Y-35771959D02*
X156454428Y-35800530D01*
X156454428Y-35800530D02*
X156511571Y-35800530D01*
X155740143Y-35400530D02*
X155740143Y-35800530D01*
X155883000Y-35171959D02*
X156025857Y-35600530D01*
X156025857Y-35600530D02*
X155654428Y-35600530D01*
X128595013Y-63635302D02*
X128635419Y-63554490D01*
X128635419Y-63554490D02*
X128736434Y-63453474D01*
X128736434Y-63453474D02*
X128797043Y-63433271D01*
X128797043Y-63433271D02*
X128837449Y-63433271D01*
X128837449Y-63433271D02*
X128898058Y-63453474D01*
X128898058Y-63453474D02*
X128938464Y-63493881D01*
X128938464Y-63493881D02*
X128958668Y-63554490D01*
X128958668Y-63554490D02*
X128958668Y-63594896D01*
X128958668Y-63594896D02*
X128938464Y-63655505D01*
X128938464Y-63655505D02*
X128877855Y-63756520D01*
X128877855Y-63756520D02*
X128857652Y-63817129D01*
X128857652Y-63817129D02*
X128857652Y-63857535D01*
X128857652Y-63857535D02*
X128877855Y-63918145D01*
X128877855Y-63918145D02*
X128918261Y-63958551D01*
X128918261Y-63958551D02*
X128978871Y-63978754D01*
X128978871Y-63978754D02*
X129019277Y-63978754D01*
X129019277Y-63978754D02*
X129079886Y-63958551D01*
X129079886Y-63958551D02*
X129180901Y-63857535D01*
X129180901Y-63857535D02*
X129221307Y-63776723D01*
X129382932Y-63655505D02*
X129059683Y-63130225D01*
X129059683Y-63130225D02*
X129443541Y-63352459D01*
X129443541Y-63352459D02*
X129221308Y-62968601D01*
X129221308Y-62968601D02*
X129746587Y-63291850D01*
X129867805Y-63170632D02*
X130130445Y-62907992D01*
X130130445Y-62907992D02*
X129827399Y-62887789D01*
X129827399Y-62887789D02*
X129888008Y-62827180D01*
X129888008Y-62827180D02*
X129908211Y-62766571D01*
X129908211Y-62766571D02*
X129908211Y-62726164D01*
X129908211Y-62726164D02*
X129888008Y-62665555D01*
X129888008Y-62665555D02*
X129786993Y-62564540D01*
X129786993Y-62564540D02*
X129726384Y-62544337D01*
X129726384Y-62544337D02*
X129685977Y-62544337D01*
X129685977Y-62544337D02*
X129625368Y-62564540D01*
X129625368Y-62564540D02*
X129504150Y-62685758D01*
X129504150Y-62685758D02*
X129483947Y-62746368D01*
X129483947Y-62746368D02*
X129483947Y-62786774D01*
X66666800Y-52444931D02*
X66666800Y-52873502D01*
X66666800Y-52873502D02*
X66695371Y-52959217D01*
X66695371Y-52959217D02*
X66752514Y-53016360D01*
X66752514Y-53016360D02*
X66838228Y-53044931D01*
X66838228Y-53044931D02*
X66895371Y-53044931D01*
X66123943Y-52444931D02*
X66238228Y-52444931D01*
X66238228Y-52444931D02*
X66295371Y-52473502D01*
X66295371Y-52473502D02*
X66323943Y-52502074D01*
X66323943Y-52502074D02*
X66381085Y-52587788D01*
X66381085Y-52587788D02*
X66409657Y-52702074D01*
X66409657Y-52702074D02*
X66409657Y-52930645D01*
X66409657Y-52930645D02*
X66381085Y-52987788D01*
X66381085Y-52987788D02*
X66352514Y-53016360D01*
X66352514Y-53016360D02*
X66295371Y-53044931D01*
X66295371Y-53044931D02*
X66181085Y-53044931D01*
X66181085Y-53044931D02*
X66123943Y-53016360D01*
X66123943Y-53016360D02*
X66095371Y-52987788D01*
X66095371Y-52987788D02*
X66066800Y-52930645D01*
X66066800Y-52930645D02*
X66066800Y-52787788D01*
X66066800Y-52787788D02*
X66095371Y-52730645D01*
X66095371Y-52730645D02*
X66123943Y-52702074D01*
X66123943Y-52702074D02*
X66181085Y-52673502D01*
X66181085Y-52673502D02*
X66295371Y-52673502D01*
X66295371Y-52673502D02*
X66352514Y-52702074D01*
X66352514Y-52702074D02*
X66381085Y-52730645D01*
X66381085Y-52730645D02*
X66409657Y-52787788D01*
X110126199Y-62070040D02*
X110211914Y-62041468D01*
X110211914Y-62041468D02*
X110354771Y-62041468D01*
X110354771Y-62041468D02*
X110411914Y-62070040D01*
X110411914Y-62070040D02*
X110440485Y-62098611D01*
X110440485Y-62098611D02*
X110469056Y-62155754D01*
X110469056Y-62155754D02*
X110469056Y-62212897D01*
X110469056Y-62212897D02*
X110440485Y-62270040D01*
X110440485Y-62270040D02*
X110411914Y-62298611D01*
X110411914Y-62298611D02*
X110354771Y-62327182D01*
X110354771Y-62327182D02*
X110240485Y-62355754D01*
X110240485Y-62355754D02*
X110183342Y-62384325D01*
X110183342Y-62384325D02*
X110154771Y-62412897D01*
X110154771Y-62412897D02*
X110126199Y-62470040D01*
X110126199Y-62470040D02*
X110126199Y-62527182D01*
X110126199Y-62527182D02*
X110154771Y-62584325D01*
X110154771Y-62584325D02*
X110183342Y-62612897D01*
X110183342Y-62612897D02*
X110240485Y-62641468D01*
X110240485Y-62641468D02*
X110383342Y-62641468D01*
X110383342Y-62641468D02*
X110469056Y-62612897D01*
X110669057Y-62641468D02*
X110811914Y-62041468D01*
X110811914Y-62041468D02*
X110926200Y-62470040D01*
X110926200Y-62470040D02*
X111040485Y-62041468D01*
X111040485Y-62041468D02*
X111183343Y-62641468D01*
X111726199Y-62041468D02*
X111383342Y-62041468D01*
X111554771Y-62041468D02*
X111554771Y-62641468D01*
X111554771Y-62641468D02*
X111497628Y-62555754D01*
X111497628Y-62555754D02*
X111440485Y-62498611D01*
X111440485Y-62498611D02*
X111383342Y-62470040D01*
X97501599Y-25630131D02*
X97501599Y-26058702D01*
X97501599Y-26058702D02*
X97530170Y-26144417D01*
X97530170Y-26144417D02*
X97587313Y-26201560D01*
X97587313Y-26201560D02*
X97673027Y-26230131D01*
X97673027Y-26230131D02*
X97730170Y-26230131D01*
X97273027Y-25630131D02*
X96901599Y-25630131D01*
X96901599Y-25630131D02*
X97101599Y-25858702D01*
X97101599Y-25858702D02*
X97015884Y-25858702D01*
X97015884Y-25858702D02*
X96958742Y-25887274D01*
X96958742Y-25887274D02*
X96930170Y-25915845D01*
X96930170Y-25915845D02*
X96901599Y-25972988D01*
X96901599Y-25972988D02*
X96901599Y-26115845D01*
X96901599Y-26115845D02*
X96930170Y-26172988D01*
X96930170Y-26172988D02*
X96958742Y-26201560D01*
X96958742Y-26201560D02*
X97015884Y-26230131D01*
X97015884Y-26230131D02*
X97187313Y-26230131D01*
X97187313Y-26230131D02*
X97244456Y-26201560D01*
X97244456Y-26201560D02*
X97273027Y-26172988D01*
X55596870Y-62574642D02*
X55677682Y-62615048D01*
X55677682Y-62615048D02*
X55778698Y-62716063D01*
X55778698Y-62716063D02*
X55798901Y-62776672D01*
X55798901Y-62776672D02*
X55798901Y-62817078D01*
X55798901Y-62817078D02*
X55778698Y-62877687D01*
X55778698Y-62877687D02*
X55738291Y-62918093D01*
X55738291Y-62918093D02*
X55677682Y-62938297D01*
X55677682Y-62938297D02*
X55637276Y-62938297D01*
X55637276Y-62938297D02*
X55576667Y-62918093D01*
X55576667Y-62918093D02*
X55475652Y-62857484D01*
X55475652Y-62857484D02*
X55415043Y-62837281D01*
X55415043Y-62837281D02*
X55374637Y-62837281D01*
X55374637Y-62837281D02*
X55314027Y-62857484D01*
X55314027Y-62857484D02*
X55273621Y-62897890D01*
X55273621Y-62897890D02*
X55253418Y-62958500D01*
X55253418Y-62958500D02*
X55253418Y-62998906D01*
X55253418Y-62998906D02*
X55273621Y-63059515D01*
X55273621Y-63059515D02*
X55374637Y-63160530D01*
X55374637Y-63160530D02*
X55455449Y-63200936D01*
X55576667Y-63362561D02*
X56101947Y-63039312D01*
X56101947Y-63039312D02*
X55879713Y-63423170D01*
X55879713Y-63423170D02*
X56263571Y-63200937D01*
X56263571Y-63200937D02*
X55940322Y-63726216D01*
X56425195Y-63928246D02*
X56708038Y-63645403D01*
X56162556Y-63988855D02*
X56364586Y-63584794D01*
X56364586Y-63584794D02*
X56627226Y-63847434D01*
D11*
%TO.C,J5*%
X25908800Y-32816200D02*
X25908800Y-32816200D01*
X25908800Y-32816200D02*
X32608800Y-32816200D01*
X25908800Y-32841200D02*
X25908800Y-32841200D01*
X25908800Y-32841200D02*
X25908800Y-33091200D01*
X25908800Y-33091200D02*
X25908800Y-32841200D01*
X25908800Y-33091200D02*
X25908800Y-33091200D01*
X25908800Y-35591200D02*
X25908800Y-35591200D01*
X25908800Y-35591200D02*
X25908800Y-36866200D01*
X25908800Y-36866200D02*
X25908800Y-35591200D01*
X25908800Y-36866200D02*
X25908800Y-36866200D01*
X25908800Y-36866200D02*
X25908800Y-36866200D01*
X25908800Y-36866200D02*
X27758800Y-36866200D01*
X27758800Y-36866200D02*
X25908800Y-36866200D01*
X27758800Y-36866200D02*
X27758800Y-36866200D01*
D12*
X28458800Y-38141200D02*
X28458800Y-38141200D01*
X28458800Y-38141200D02*
X28458800Y-38141200D01*
X28458801Y-38241200D02*
X28458801Y-38241200D01*
D11*
X30758800Y-36866200D02*
X30758800Y-36866200D01*
X30758800Y-36866200D02*
X32608800Y-36866200D01*
X32608800Y-32816200D02*
X25908800Y-32816200D01*
X32608800Y-32816200D02*
X32608800Y-32816200D01*
X32608800Y-32816200D02*
X32608800Y-32816200D01*
X32608800Y-32816200D02*
X32608800Y-33091200D01*
X32608800Y-33091200D02*
X32608800Y-32816200D01*
X32608800Y-33091200D02*
X32608800Y-33091200D01*
X32608800Y-35591200D02*
X32608800Y-35591200D01*
X32608800Y-35591200D02*
X32608800Y-36866200D01*
X32608800Y-36866200D02*
X30758800Y-36866200D01*
X32608800Y-36866200D02*
X32608800Y-35591200D01*
X32608800Y-36866200D02*
X32608800Y-36866200D01*
X32608800Y-36866200D02*
X32608800Y-36866200D01*
D12*
X28458800Y-38141200D02*
G75*
G02*
X28458801Y-38241200I0J-50000D01*
G01*
X28458800Y-38141200D02*
G75*
G02*
X28458801Y-38241200I0J-50000D01*
G01*
X28458801Y-38241200D02*
G75*
G02*
X28458800Y-38141200I-1J50000D01*
G01*
D11*
%TO.C,J4*%
X152733000Y-32816200D02*
X152733000Y-32816200D01*
X152733000Y-32816200D02*
X159433000Y-32816200D01*
X152733000Y-32841200D02*
X152733000Y-32841200D01*
X152733000Y-32841200D02*
X152733000Y-33091200D01*
X152733000Y-33091200D02*
X152733000Y-32841200D01*
X152733000Y-33091200D02*
X152733000Y-33091200D01*
X152733000Y-35591200D02*
X152733000Y-35591200D01*
X152733000Y-35591200D02*
X152733000Y-36866200D01*
X152733000Y-36866200D02*
X152733000Y-35591200D01*
X152733000Y-36866200D02*
X152733000Y-36866200D01*
X152733000Y-36866200D02*
X152733000Y-36866200D01*
X152733000Y-36866200D02*
X154583000Y-36866200D01*
X154583000Y-36866200D02*
X152733000Y-36866200D01*
X154583000Y-36866200D02*
X154583000Y-36866200D01*
D12*
X155283000Y-38141200D02*
X155283000Y-38141200D01*
X155283000Y-38141200D02*
X155283000Y-38141200D01*
X155283001Y-38241200D02*
X155283001Y-38241200D01*
D11*
X157583000Y-36866200D02*
X157583000Y-36866200D01*
X157583000Y-36866200D02*
X159433000Y-36866200D01*
X159433000Y-32816200D02*
X152733000Y-32816200D01*
X159433000Y-32816200D02*
X159433000Y-32816200D01*
X159433000Y-32816200D02*
X159433000Y-32816200D01*
X159433000Y-32816200D02*
X159433000Y-33091200D01*
X159433000Y-33091200D02*
X159433000Y-32816200D01*
X159433000Y-33091200D02*
X159433000Y-33091200D01*
X159433000Y-35591200D02*
X159433000Y-35591200D01*
X159433000Y-35591200D02*
X159433000Y-36866200D01*
X159433000Y-36866200D02*
X157583000Y-36866200D01*
X159433000Y-36866200D02*
X159433000Y-35591200D01*
X159433000Y-36866200D02*
X159433000Y-36866200D01*
X159433000Y-36866200D02*
X159433000Y-36866200D01*
D12*
X155283000Y-38141200D02*
G75*
G02*
X155283001Y-38241200I0J-50000D01*
G01*
X155283000Y-38141200D02*
G75*
G02*
X155283001Y-38241200I0J-50000D01*
G01*
X155283001Y-38241200D02*
G75*
G02*
X155283000Y-38141200I-1J50000D01*
G01*
D10*
%TO.C,J6*%
X64236800Y-46263600D02*
X66471800Y-46263600D01*
X64236800Y-51983600D02*
X64236800Y-46263600D01*
X65306800Y-51683600D02*
X65306800Y-51983600D01*
X65306800Y-51983600D02*
X64236800Y-51983600D01*
X65596800Y-51973600D02*
X65596800Y-52273600D01*
X65596800Y-52273600D02*
X65096800Y-52273600D01*
X66471800Y-51683600D02*
X65306800Y-51683600D01*
X66471800Y-51683600D02*
X67636800Y-51683600D01*
X67636800Y-51683600D02*
X67636800Y-51983600D01*
X67636800Y-51983600D02*
X68706800Y-51983599D01*
X68706799Y-46263600D02*
X66471800Y-46263600D01*
X68706800Y-51983599D02*
X68706799Y-46263600D01*
D12*
%TO.C,J3*%
X87677599Y-15173800D02*
X97527599Y-15173800D01*
X87677599Y-16508799D02*
X87677599Y-15173800D01*
X87677599Y-21308800D02*
X87677599Y-18908800D01*
X87677599Y-23108800D02*
X87677599Y-25043800D01*
X87677599Y-25043800D02*
X97527599Y-25043800D01*
D11*
X89802599Y-25508799D02*
X89802599Y-25508799D01*
X89802599Y-25608800D02*
X89802599Y-25608800D01*
D12*
X97527599Y-15173800D02*
X97527599Y-16508799D01*
X97527599Y-18908800D02*
X97527599Y-21308800D01*
X97527599Y-25043800D02*
X97527599Y-23108800D01*
D11*
X89802599Y-25508799D02*
G75*
G02*
X89802599Y-25608801I0J-50001D01*
G01*
X89802599Y-25608800D02*
G75*
G02*
X89802599Y-25508800I1J50000D01*
G01*
%TD*%
M02*
