M48
; DRILL file {KiCad 9.0.6-rc2} date 2025-11-20T00:57:44-0800
; FORMAT={-:-/ absolute / metric / decimal}
; #@! TF.CreationDate,2025-11-20T00:57:44-08:00
; #@! TF.GenerationSoftware,Kicad,Pcbnew,9.0.6-rc2
; #@! TF.FileFunction,Plated,1,4,PTH
FMAT,2
METRIC
; #@! TA.AperFunction,Plated,PTH,ComponentDrill
T1C0.250
; #@! TA.AperFunction,Plated,PTH,ViaDrill
T2C0.300
; #@! TA.AperFunction,Plated,PTH,ComponentDrill
T3C0.400
; #@! TA.AperFunction,Plated,PTH,ComponentDrill
T4C0.500
; #@! TA.AperFunction,Plated,PTH,ComponentDrill
T5C0.800
%
G90
G05
T1
X99.768Y-39.856
X99.768Y-41.231
X99.768Y-42.606
X101.143Y-39.856
X101.143Y-41.231
X101.143Y-42.606
X102.518Y-39.856
X102.518Y-41.231
X102.518Y-42.606
T2
X24.638Y-53.391
X25.425Y-55.22
X26.162Y-56.693
X27.127Y-58.42
X27.864Y-36.043
X28.016Y-59.69
X28.956Y-60.985
X30.353Y-62.459
X30.607Y-28.88
X30.937Y-38.456
X31.572Y-63.754
X32.893Y-64.846
X33.147Y-28.88
X34.519Y-66.065
X35.687Y-28.88
X36.449Y-67.259
X38.202Y-68.199
X38.227Y-28.88
X38.964Y-44.348
X40.03Y-41.808
X40.437Y-69.113
X40.767Y-28.88
X41.072Y-46.025
X41.859Y-47.269
X42.012Y-42.189
X42.723Y-69.774
X42.926Y-42.291
X43.18Y-43.078
X43.307Y-28.88
X43.993Y-45.999
X44.145Y-43.078
X44.933Y-70.231
X45.847Y-28.88
X46.609Y-37.109
X46.66Y-35.255
X46.736Y-53.746
X46.787Y-51.968
X47.295Y-70.536
X47.447Y-50.47
X47.752Y-39.268
X47.777Y-38.405
X47.854Y-49.581
X48.387Y-28.88
X49.276Y-35.306
X50.063Y-70.587
X50.267Y-54.991
X50.673Y-49.555
X50.724Y-39.37
X50.749Y-38.202
X50.749Y-50.47
X50.927Y-28.88
X51.714Y-51.918
X51.714Y-53.899
X51.994Y-36.703
X52.019Y-34.696
X52.73Y-70.383
X53.467Y-28.88
X54.331Y-45.999
X55.143Y-43.028
X55.601Y-45.999
X55.702Y-69.825
X56.007Y-28.88
X56.642Y-41.834
X57.556Y-44.831
X57.861Y-46.99
X58.395Y-56.718
X58.547Y-28.88
X58.547Y-68.91
X59.817Y-42.824
X59.893Y-53.086
X60.935Y-67.843
X61.011Y-38.151
X62.992Y-38.989
X63.627Y-66.269
X66.269Y-65.126
X66.853Y-40.361
X66.98Y-34.976
X67.335Y-30.505
X67.869Y-52.857
X69.494Y-64.516
X70.383Y-39.218
X70.409Y-33.503
X70.409Y-36.652
X72.619Y-42.494
X74.346Y-47.777
X75.159Y-45.06
X75.463Y-42.545
X75.514Y-39.243
X76.175Y-50.216
X76.403Y-42.52
X77.978Y-49.53
X78.207Y-47.295
X78.283Y-54.204
X78.842Y-49.936
X78.943Y-45.085
X80.239Y-55.016
X80.518Y-53.492
X80.543Y-45.771
X81.255Y-53.416
X81.585Y-49.098
X82.931Y-43.282
X83.566Y-42.647
X83.591Y-46.076
X83.617Y-44.399
X83.922Y-39.116
X84.023Y-30.429
X84.303Y-47.955
X84.639Y-30.429
X84.836Y-55.804
X84.912Y-43.942
X85.319Y-49.555
X86.081Y-39.065
X86.131Y-34.315
X86.182Y-36.576
X86.822Y-34.295
X87.859Y-43.663
X88.341Y-26.797
X88.392Y-48.311
X89.002Y-32.258
X89.249Y-50.318
X89.484Y-47.498
X89.509Y-48.234
X89.532Y-38.63
X89.637Y-43.891
X89.764Y-44.856
X90.145Y-41.199
X90.269Y-36.725
X90.297Y-28.169
X90.373Y-43.053
X90.399Y-29.083
X90.526Y-29.997
X90.856Y-26.797
X90.856Y-42.52
X91.378Y-25.121
X91.4Y-43.078
X91.745Y-43.688
X91.821Y-30.607
X92.092Y-44.314
X92.126Y-28.219
X92.177Y-26.467
X92.278Y-38.735
X92.304Y-35.89
X92.481Y-46.558
X92.913Y-40.234
X93.038Y-26.461
X93.066Y-47.269
X93.32Y-56.185
X93.574Y-43.451
X93.802Y-46.609
X93.955Y-21.082
X94.336Y-31.598
X95.299Y-36.984
X95.352Y-48.87
X95.544Y-43.413
X95.58Y-26.619
X95.86Y-49.479
X95.961Y-46.279
X96.139Y-36.093
X96.545Y-45.669
X97.409Y-27.965
X98.704Y-26.213
X98.781Y-49.733
X98.857Y-47.269
X98.857Y-51.435
X98.933Y-40.462
X99.314Y-27.965
X99.365Y-36.627
X100.533Y-35.408
X100.673Y-43.658
X101.702Y-43.459
X102.09Y-39.107
X102.286Y-46.997
X102.54Y-43.815
X102.745Y-35.111
X102.87Y-36.271
X103.243Y-40.411
X103.276Y-49.022
X103.454Y-41.377
X104.191Y-50.927
X104.216Y-45.796
X104.826Y-52.07
X104.953Y-45.796
X105.088Y-35.789
X105.41Y-34.678
X105.664Y-37.948
X106.604Y-55.118
X107.239Y-54.407
X107.391Y-36.144
X107.518Y-48.336
X107.772Y-39.573
X107.848Y-38.075
X107.925Y-38.811
X107.975Y-36.982
X107.975Y-58.217
X108.204Y-41.148
X108.458Y-48.311
X108.56Y-42.672
X108.636Y-43.485
X109.144Y-44.221
X111.354Y-45.771
X111.455Y-50.622
X112.141Y-40.361
X112.598Y-38.354
X113.665Y-42.647
X113.69Y-41.656
X115.189Y-38.786
X116.103Y-56.54
X116.307Y-64.592
X116.535Y-54.508
X116.662Y-42.901
X117.323Y-42.139
X117.526Y-58.776
X117.551Y-57.734
X117.704Y-38.583
X117.704Y-41.046
X118.821Y-65.075
X118.847Y-41.199
X118.999Y-54.712
X120.498Y-58.725
X121.285Y-58.191
X121.463Y-54.381
X121.463Y-66.218
X121.539Y-56.515
X124.155Y-67.793
X124.993Y-64.033
X126.543Y-68.859
X126.594Y-56.185
X127.305Y-53.95
X127.508Y-28.88
X127.66Y-35.839
X127.813Y-63.195
X128.626Y-33.96
X129.108Y-55.905
X129.388Y-69.774
X129.515Y-38.125
X129.565Y-36.982
X129.883Y-65.215
X130.048Y-28.88
X131.039Y-34.239
X132.055Y-51.841
X132.359Y-70.333
X132.41Y-49.962
X132.461Y-37.211
X132.512Y-38.278
X132.588Y-28.88
X132.944Y-61.925
X133.35Y-54.229
X133.426Y-53.315
X133.452Y-33.198
X133.528Y-35.314
X134.899Y-50.165
X135.026Y-70.536
X135.077Y-64.084
X135.128Y-28.88
X136.246Y-50.927
X136.347Y-54.051
X136.5Y-53.137
X137.516Y-51.791
X137.668Y-28.88
X137.795Y-70.485
X137.871Y-61.9
X139.497Y-37.516
X140.157Y-70.18
X140.208Y-28.88
X140.703Y-63.182
X142.367Y-69.723
X142.748Y-28.88
X143.332Y-61.899
X144.653Y-69.063
X145.085Y-35.814
X145.288Y-28.88
X145.44Y-34.036
X146.317Y-63.055
X146.431Y-36.982
X146.431Y-38.075
X146.888Y-68.148
X147.828Y-28.88
X147.955Y-35.509
X148.641Y-67.208
X149.073Y-51.765
X149.352Y-49.733
X149.377Y-37.236
X149.428Y-38.202
X149.504Y-34.874
X150.266Y-53.188
X150.292Y-54.178
X150.368Y-28.88
X150.495Y-36.601
X150.571Y-66.015
X152.197Y-64.795
X152.908Y-28.88
X153.162Y-50.952
X153.238Y-53.289
X153.238Y-54.204
X153.518Y-63.703
X154.153Y-49.733
X154.381Y-52.019
X154.686Y-38.659
X154.737Y-62.408
X155.448Y-28.88
X156.134Y-60.935
X157.074Y-59.639
X157.15Y-35.992
X157.963Y-58.369
X158.928Y-56.642
X159.664Y-55.169
X160.452Y-53.34
T3
X89.803Y-22.694
X90.203Y-21.994
X91.003Y-21.994
X91.403Y-22.694
X91.803Y-21.994
X92.203Y-22.694
X93.003Y-22.694
X93.403Y-21.994
X93.803Y-22.694
X94.203Y-21.994
X95.003Y-21.994
X95.403Y-22.694
T4
X65.847Y-50.824
X67.097Y-50.824
T5
X108.864Y-27.432
X110.864Y-27.432
X112.864Y-27.432
X114.864Y-27.432
T4
G00X88.113Y-17.404
M15
G01X88.113Y-18.004
M16
G05
G00X88.473Y-21.804
M15
G01X88.473Y-22.404
M16
G05
G00X96.733Y-21.804
M15
G01X96.733Y-22.404
M16
G05
G00X97.093Y-17.404
M15
G01X97.093Y-18.004
M16
G05
M30
