%TF.GenerationSoftware,KiCad,Pcbnew,9.0.6-rc2*%
%TF.CreationDate,2025-11-20T00:57:41-08:00*%
%TF.ProjectId,LatteJr_Main_Board,4c617474-654a-4725-9f4d-61696e5f426f,rev?*%
%TF.SameCoordinates,Original*%
%TF.FileFunction,Paste,Top*%
%TF.FilePolarity,Positive*%
%FSLAX46Y46*%
G04 Gerber Fmt 4.6, Leading zero omitted, Abs format (unit mm)*
G04 Created by KiCad (PCBNEW 9.0.6-rc2) date 2025-11-20 00:57:41*
%MOMM*%
%LPD*%
G01*
G04 APERTURE LIST*
G04 Aperture macros list*
%AMRoundRect*
0 Rectangle with rounded corners*
0 $1 Rounding radius*
0 $2 $3 $4 $5 $6 $7 $8 $9 X,Y pos of 4 corners*
0 Add a 4 corners polygon primitive as box body*
4,1,4,$2,$3,$4,$5,$6,$7,$8,$9,$2,$3,0*
0 Add four circle primitives for the rounded corners*
1,1,$1+$1,$2,$3*
1,1,$1+$1,$4,$5*
1,1,$1+$1,$6,$7*
1,1,$1+$1,$8,$9*
0 Add four rect primitives between the rounded corners*
20,1,$1+$1,$2,$3,$4,$5,0*
20,1,$1+$1,$4,$5,$6,$7,0*
20,1,$1+$1,$6,$7,$8,$9,0*
20,1,$1+$1,$8,$9,$2,$3,0*%
%AMFreePoly0*
4,1,18,-0.437500,0.050000,-0.433694,0.069134,-0.422855,0.085355,-0.406634,0.096194,-0.387500,0.100000,0.387500,0.100000,0.437500,0.050000,0.437500,-0.050000,0.433694,-0.069134,0.422855,-0.085355,0.406634,-0.096194,0.387500,-0.100000,-0.387500,-0.100000,-0.406634,-0.096194,-0.422855,-0.085355,-0.433694,-0.069134,-0.437500,-0.050000,-0.437500,0.050000,-0.437500,0.050000,$1*%
%AMFreePoly1*
4,1,18,-0.437500,0.050000,-0.433694,0.069134,-0.422855,0.085355,-0.406634,0.096194,-0.387500,0.100000,0.387500,0.100000,0.406634,0.096194,0.422855,0.085355,0.433694,0.069134,0.437500,0.050000,0.437500,-0.050000,0.387500,-0.100000,-0.387500,-0.100000,-0.406634,-0.096194,-0.422855,-0.085355,-0.433694,-0.069134,-0.437500,-0.050000,-0.437500,0.050000,-0.437500,0.050000,$1*%
%AMFreePoly2*
4,1,18,-0.100000,0.387500,-0.050000,0.437500,0.050000,0.437500,0.069134,0.433694,0.085355,0.422855,0.096194,0.406634,0.100000,0.387500,0.100000,-0.387500,0.096194,-0.406634,0.085355,-0.422855,0.069134,-0.433694,0.050000,-0.437500,-0.050000,-0.437500,-0.069134,-0.433694,-0.085355,-0.422855,-0.096194,-0.406634,-0.100000,-0.387500,-0.100000,0.387500,-0.100000,0.387500,$1*%
%AMFreePoly3*
4,1,18,-0.100000,0.387500,-0.096194,0.406634,-0.085355,0.422855,-0.069134,0.433694,-0.050000,0.437500,0.050000,0.437500,0.100000,0.387500,0.100000,-0.387500,0.096194,-0.406634,0.085355,-0.422855,0.069134,-0.433694,0.050000,-0.437500,-0.050000,-0.437500,-0.069134,-0.433694,-0.085355,-0.422855,-0.096194,-0.406634,-0.100000,-0.387500,-0.100000,0.387500,-0.100000,0.387500,$1*%
%AMFreePoly4*
4,1,18,-0.437500,0.050000,-0.433694,0.069134,-0.422855,0.085355,-0.406634,0.096194,-0.387500,0.100000,0.387500,0.100000,0.406634,0.096194,0.422855,0.085355,0.433694,0.069134,0.437500,0.050000,0.437500,-0.050000,0.433694,-0.069134,0.422855,-0.085355,0.406634,-0.096194,0.387500,-0.100000,-0.387500,-0.100000,-0.437500,-0.050000,-0.437500,0.050000,-0.437500,0.050000,$1*%
%AMFreePoly5*
4,1,18,-0.437500,0.050000,-0.387500,0.100000,0.387500,0.100000,0.406634,0.096194,0.422855,0.085355,0.433694,0.069134,0.437500,0.050000,0.437500,-0.050000,0.433694,-0.069134,0.422855,-0.085355,0.406634,-0.096194,0.387500,-0.100000,-0.387500,-0.100000,-0.406634,-0.096194,-0.422855,-0.085355,-0.433694,-0.069134,-0.437500,-0.050000,-0.437500,0.050000,-0.437500,0.050000,$1*%
%AMFreePoly6*
4,1,18,-0.100000,0.387500,-0.096194,0.406634,-0.085355,0.422855,-0.069134,0.433694,-0.050000,0.437500,0.050000,0.437500,0.069134,0.433694,0.085355,0.422855,0.096194,0.406634,0.100000,0.387500,0.100000,-0.387500,0.050000,-0.437500,-0.050000,-0.437500,-0.069134,-0.433694,-0.085355,-0.422855,-0.096194,-0.406634,-0.100000,-0.387500,-0.100000,0.387500,-0.100000,0.387500,$1*%
%AMFreePoly7*
4,1,18,-0.100000,0.387500,-0.096194,0.406634,-0.085355,0.422855,-0.069134,0.433694,-0.050000,0.437500,0.050000,0.437500,0.069134,0.433694,0.085355,0.422855,0.096194,0.406634,0.100000,0.387500,0.100000,-0.387500,0.096194,-0.406634,0.085355,-0.422855,0.069134,-0.433694,0.050000,-0.437500,-0.050000,-0.437500,-0.100000,-0.387500,-0.100000,0.387500,-0.100000,0.387500,$1*%
G04 Aperture macros list end*
%ADD10C,0.010000*%
%ADD11RoundRect,0.137500X-0.137500X0.525000X-0.137500X-0.525000X0.137500X-0.525000X0.137500X0.525000X0*%
%ADD12RoundRect,0.093750X0.093750X-0.156250X0.093750X0.156250X-0.093750X0.156250X-0.093750X-0.156250X0*%
%ADD13RoundRect,0.075000X0.075000X-0.250000X0.075000X0.250000X-0.075000X0.250000X-0.075000X-0.250000X0*%
%ADD14R,0.370000X0.370000*%
%ADD15RoundRect,0.079500X0.100500X-0.079500X0.100500X0.079500X-0.100500X0.079500X-0.100500X-0.079500X0*%
%ADD16RoundRect,0.079500X-0.079500X-0.100500X0.079500X-0.100500X0.079500X0.100500X-0.079500X0.100500X0*%
%ADD17RoundRect,0.218750X-0.256250X0.218750X-0.256250X-0.218750X0.256250X-0.218750X0.256250X0.218750X0*%
%ADD18RoundRect,0.137500X-0.525000X-0.137500X0.525000X-0.137500X0.525000X0.137500X-0.525000X0.137500X0*%
%ADD19RoundRect,0.079500X-0.100500X0.079500X-0.100500X-0.079500X0.100500X-0.079500X0.100500X0.079500X0*%
%ADD20RoundRect,0.079500X0.079500X0.100500X-0.079500X0.100500X-0.079500X-0.100500X0.079500X-0.100500X0*%
%ADD21RoundRect,0.140000X-0.140000X-0.170000X0.140000X-0.170000X0.140000X0.170000X-0.140000X0.170000X0*%
%ADD22RoundRect,0.250000X-0.375000X-0.850000X0.375000X-0.850000X0.375000X0.850000X-0.375000X0.850000X0*%
%ADD23RoundRect,0.250000X0.445000X-0.457500X0.445000X0.457500X-0.445000X0.457500X-0.445000X-0.457500X0*%
%ADD24RoundRect,0.250000X0.250000X-0.250000X0.250000X0.250000X-0.250000X0.250000X-0.250000X-0.250000X0*%
%ADD25R,2.000000X1.000000*%
%ADD26R,1.000000X2.000000*%
%ADD27RoundRect,0.150000X1.250000X0.350000X-1.250000X0.350000X-1.250000X-0.350000X1.250000X-0.350000X0*%
%ADD28R,0.700000X1.700000*%
%ADD29R,0.550000X0.500000*%
%ADD30RoundRect,0.140000X0.140000X0.170000X-0.140000X0.170000X-0.140000X-0.170000X0.140000X-0.170000X0*%
%ADD31RoundRect,0.007200X-0.112800X0.292800X-0.112800X-0.292800X0.112800X-0.292800X0.112800X0.292800X0*%
%ADD32RoundRect,0.093750X0.156250X0.093750X-0.156250X0.093750X-0.156250X-0.093750X0.156250X-0.093750X0*%
%ADD33RoundRect,0.075000X0.250000X0.075000X-0.250000X0.075000X-0.250000X-0.075000X0.250000X-0.075000X0*%
%ADD34RoundRect,0.250000X-0.350000X0.450000X-0.350000X-0.450000X0.350000X-0.450000X0.350000X0.450000X0*%
%ADD35RoundRect,0.250000X-0.250000X-0.250000X0.250000X-0.250000X0.250000X0.250000X-0.250000X0.250000X0*%
%ADD36RoundRect,0.140000X-0.170000X0.140000X-0.170000X-0.140000X0.170000X-0.140000X0.170000X0.140000X0*%
%ADD37RoundRect,0.100000X0.225000X0.100000X-0.225000X0.100000X-0.225000X-0.100000X0.225000X-0.100000X0*%
%ADD38RoundRect,0.140000X0.170000X-0.140000X0.170000X0.140000X-0.170000X0.140000X-0.170000X-0.140000X0*%
%ADD39RoundRect,0.250000X0.475000X-0.250000X0.475000X0.250000X-0.475000X0.250000X-0.475000X-0.250000X0*%
%ADD40RoundRect,0.250000X-0.350000X-0.350000X0.350000X-0.350000X0.350000X0.350000X-0.350000X0.350000X0*%
%ADD41FreePoly0,0.000000*%
%ADD42RoundRect,0.050000X-0.387500X-0.050000X0.387500X-0.050000X0.387500X0.050000X-0.387500X0.050000X0*%
%ADD43FreePoly1,0.000000*%
%ADD44FreePoly2,0.000000*%
%ADD45RoundRect,0.050000X-0.050000X-0.387500X0.050000X-0.387500X0.050000X0.387500X-0.050000X0.387500X0*%
%ADD46FreePoly3,0.000000*%
%ADD47FreePoly4,0.000000*%
%ADD48FreePoly5,0.000000*%
%ADD49FreePoly6,0.000000*%
%ADD50FreePoly7,0.000000*%
G04 APERTURE END LIST*
D10*
%TO.C,U4*%
X86495399Y-45659610D02*
X86495399Y-45909610D01*
X86155399Y-45909610D01*
X86155399Y-45659609D01*
X86495399Y-45659610D01*
G36*
X86495399Y-45659610D02*
G01*
X86495399Y-45909610D01*
X86155399Y-45909610D01*
X86155399Y-45659609D01*
X86495399Y-45659610D01*
G37*
X86495399Y-46409610D02*
X86155399Y-46409611D01*
X86155399Y-46159610D01*
X86495399Y-46159610D01*
X86495399Y-46409610D01*
G36*
X86495399Y-46409610D02*
G01*
X86155399Y-46409611D01*
X86155399Y-46159610D01*
X86495399Y-46159610D01*
X86495399Y-46409610D01*
G37*
X87755399Y-46784610D02*
X86695399Y-46784610D01*
X86695399Y-45284610D01*
X87755399Y-45284610D01*
X87755399Y-46784610D01*
G36*
X87755399Y-46784610D02*
G01*
X86695399Y-46784610D01*
X86695399Y-45284610D01*
X87755399Y-45284610D01*
X87755399Y-46784610D01*
G37*
X89015399Y-46784610D02*
X87955399Y-46784610D01*
X87955399Y-45284610D01*
X89015399Y-45284610D01*
X89015399Y-46784610D01*
G36*
X89015399Y-46784610D02*
G01*
X87955399Y-46784610D01*
X87955399Y-45284610D01*
X89015399Y-45284610D01*
X89015399Y-46784610D01*
G37*
X89555399Y-45909610D02*
X89215399Y-45909610D01*
X89215399Y-45659610D01*
X89555399Y-45659609D01*
X89555399Y-45909610D01*
G36*
X89555399Y-45909610D02*
G01*
X89215399Y-45909610D01*
X89215399Y-45659610D01*
X89555399Y-45659609D01*
X89555399Y-45909610D01*
G37*
X89555399Y-46409611D02*
X89215399Y-46409610D01*
X89215399Y-46159610D01*
X89555399Y-46159610D01*
X89555399Y-46409611D01*
G36*
X89555399Y-46409611D02*
G01*
X89215399Y-46409610D01*
X89215399Y-46159610D01*
X89555399Y-46159610D01*
X89555399Y-46409611D01*
G37*
%TD*%
D11*
%TO.C,U12*%
X40225406Y-45660364D03*
X42025406Y-45660364D03*
X42025406Y-43385364D03*
X41125406Y-43385364D03*
X40225406Y-43385364D03*
%TD*%
%TO.C,U14*%
X56441185Y-45660364D03*
X58241185Y-45660364D03*
X58241185Y-43385364D03*
X57341185Y-43385364D03*
X56441185Y-43385364D03*
%TD*%
D12*
%TO.C,U7*%
X88514900Y-33006400D03*
D13*
X89052400Y-33081400D03*
D12*
X89589900Y-33006400D03*
X89589900Y-31306400D03*
D13*
X89052400Y-31231400D03*
D12*
X88514900Y-31306400D03*
%TD*%
D14*
%TO.C,RGB13*%
X138942305Y-62710883D03*
X139612305Y-62710883D03*
X139612305Y-62040883D03*
X138942305Y-62040883D03*
%TD*%
%TO.C,RGB14*%
X144522504Y-62569210D03*
X145192504Y-62569210D03*
X145192504Y-61899210D03*
X144522504Y-61899210D03*
%TD*%
D15*
%TO.C,R33*%
X94297098Y-35887098D03*
X94297098Y-35197098D03*
%TD*%
D16*
%TO.C,C15*%
X106004800Y-36906200D03*
X106694800Y-36906200D03*
%TD*%
D17*
%TO.C,L2*%
X84378800Y-36347299D03*
X84378800Y-37922301D03*
%TD*%
D18*
%TO.C,U11*%
X116280175Y-40344746D03*
X116280175Y-38544746D03*
X114005175Y-38544746D03*
X114005175Y-39444746D03*
X114005175Y-40344746D03*
%TD*%
D16*
%TO.C,R30*%
X86029899Y-48405210D03*
X86719899Y-48405210D03*
%TD*%
D19*
%TO.C,C17*%
X97891600Y-48372200D03*
X97891600Y-49062200D03*
%TD*%
D20*
%TO.C,C32*%
X51754600Y-54762400D03*
X51064600Y-54762400D03*
%TD*%
D21*
%TO.C,C1*%
X103465300Y-36220400D03*
X104425300Y-36220400D03*
%TD*%
D20*
%TO.C,R1*%
X106449300Y-36144200D03*
X105759300Y-36144200D03*
%TD*%
D18*
%TO.C,U16*%
X152899592Y-51862961D03*
X152899592Y-50062961D03*
X150624592Y-50062961D03*
X150624592Y-50962961D03*
X150624592Y-51862961D03*
%TD*%
D16*
%TO.C,R29*%
X75956600Y-45057400D03*
X76646600Y-45057400D03*
%TD*%
D15*
%TO.C,C12*%
X100152200Y-36641600D03*
X100152200Y-35951600D03*
%TD*%
%TO.C,C35*%
X154228800Y-51297400D03*
X154228800Y-50607400D03*
%TD*%
%TO.C,C28*%
X121437400Y-55844000D03*
X121437400Y-55154000D03*
%TD*%
D14*
%TO.C,RGB4*%
X54456185Y-44857864D03*
X55126185Y-44857864D03*
X55126185Y-44187864D03*
X54456185Y-44187864D03*
%TD*%
D21*
%TO.C,C2*%
X103465300Y-35306000D03*
X104425300Y-35306000D03*
%TD*%
D20*
%TO.C,R24*%
X78119800Y-45057399D03*
X77429800Y-45057399D03*
%TD*%
D22*
%TO.C,L3*%
X86798499Y-42233010D03*
X88948499Y-42233010D03*
%TD*%
D18*
%TO.C,U2*%
X136000737Y-51803183D03*
X136000737Y-50003183D03*
X133725737Y-50003183D03*
X133725737Y-50903183D03*
X133725737Y-51803183D03*
%TD*%
D14*
%TO.C,RGB3*%
X48898296Y-50415754D03*
X49568296Y-50415754D03*
X49568296Y-49745754D03*
X48898296Y-49745754D03*
%TD*%
D18*
%TO.C,U9*%
X120133166Y-56407211D03*
X120133166Y-54607211D03*
X117858166Y-54607211D03*
X117858166Y-55507211D03*
X117858166Y-56407211D03*
%TD*%
D23*
%TO.C,C24*%
X86131400Y-33178700D03*
X86131400Y-30473700D03*
%TD*%
D24*
%TO.C,D1*%
X86156800Y-37871400D03*
X86156800Y-35371402D03*
%TD*%
D20*
%TO.C,R10*%
X95391800Y-41300400D03*
X94701800Y-41300400D03*
%TD*%
D25*
%TO.C,P1*%
X68767000Y-30492400D03*
X68767000Y-31992400D03*
X68767000Y-33492400D03*
X68767000Y-34992400D03*
X68767000Y-36492400D03*
X68767000Y-37992400D03*
X68767000Y-39492400D03*
D26*
X71017000Y-40792400D03*
X72517000Y-40792400D03*
X74017000Y-40792400D03*
X75517000Y-40792400D03*
X77017000Y-40792400D03*
X78517000Y-40792400D03*
X80017000Y-40792400D03*
D25*
X82267000Y-39492400D03*
X82267000Y-37992400D03*
X82267000Y-36492400D03*
X82267000Y-34992400D03*
X82267000Y-33492400D03*
X82267000Y-31992400D03*
X82267000Y-30492400D03*
%TD*%
D20*
%TO.C,C20*%
X75808401Y-49532200D03*
X75118401Y-49532200D03*
%TD*%
D16*
%TO.C,R19*%
X106385800Y-43408600D03*
X107075800Y-43408600D03*
%TD*%
%TO.C,C33*%
X56398600Y-46990000D03*
X57088600Y-46990000D03*
%TD*%
D20*
%TO.C,C21*%
X77205400Y-49530000D03*
X76515400Y-49530000D03*
%TD*%
D27*
%TO.C,SW6*%
X90776272Y-57200886D03*
X84976272Y-57200886D03*
X90776272Y-53200886D03*
X84976272Y-53200886D03*
%TD*%
D18*
%TO.C,U13*%
X50370796Y-53530754D03*
X50370796Y-51730754D03*
X48095796Y-51730754D03*
X48095796Y-52630754D03*
X48095796Y-53530754D03*
%TD*%
D15*
%TO.C,R21*%
X64414400Y-40096000D03*
X64414400Y-39406000D03*
%TD*%
D14*
%TO.C,RGB7*%
X147574101Y-37985498D03*
X148244101Y-37985498D03*
X148244101Y-37315498D03*
X147574101Y-37315498D03*
%TD*%
D20*
%TO.C,R11*%
X59984200Y-56591200D03*
X59294200Y-56591200D03*
%TD*%
D15*
%TO.C,C30*%
X117678200Y-40121400D03*
X117678200Y-39431400D03*
%TD*%
D28*
%TO.C,L1*%
X102836300Y-33756600D03*
X104236300Y-33756600D03*
%TD*%
D29*
%TO.C,SW9*%
X96998400Y-30791200D03*
X96998400Y-31591200D03*
X99648400Y-30791200D03*
X99648400Y-31591200D03*
%TD*%
D15*
%TO.C,C29*%
X133451600Y-34609600D03*
X133451600Y-33919600D03*
%TD*%
D16*
%TO.C,R2*%
X100780900Y-46887200D03*
X101470900Y-46887200D03*
%TD*%
%TO.C,R18*%
X106385800Y-42672000D03*
X107075800Y-42672000D03*
%TD*%
D15*
%TO.C,C18*%
X137337800Y-51155200D03*
X137337800Y-50465200D03*
%TD*%
D30*
%TO.C,C6*%
X106381100Y-35280600D03*
X105421100Y-35280600D03*
%TD*%
D31*
%TO.C,U4*%
X88855399Y-44634610D03*
X88355399Y-44634610D03*
X87855399Y-44634611D03*
X87355399Y-44634610D03*
X86855399Y-44634610D03*
X86855399Y-47434610D03*
X87355399Y-47434610D03*
X87855399Y-47434609D03*
X88355399Y-47434610D03*
X88855399Y-47434610D03*
%TD*%
D27*
%TO.C,SW2*%
X104776272Y-57200886D03*
X98976272Y-57200886D03*
X104776272Y-53200886D03*
X98976272Y-53200886D03*
%TD*%
D14*
%TO.C,RGB9*%
X134528237Y-53988183D03*
X135198237Y-53988183D03*
X135198237Y-53318183D03*
X134528237Y-53318183D03*
%TD*%
D19*
%TO.C,R5*%
X78867000Y-47407000D03*
X78867000Y-48097000D03*
%TD*%
D15*
%TO.C,C34*%
X150368000Y-35752600D03*
X150368000Y-35062600D03*
%TD*%
%TO.C,R34*%
X90273699Y-38285101D03*
X90273699Y-37595101D03*
%TD*%
D18*
%TO.C,U3*%
X48095796Y-37314975D03*
X48095796Y-36414975D03*
X48095796Y-35514975D03*
X50370796Y-35514975D03*
X50370796Y-37314975D03*
%TD*%
D14*
%TO.C,RGB6*%
X130675247Y-37925718D03*
X131345247Y-37925718D03*
X131345247Y-37255718D03*
X130675247Y-37255718D03*
%TD*%
D16*
%TO.C,C14*%
X106004800Y-37642800D03*
X106694800Y-37642800D03*
%TD*%
D20*
%TO.C,R22*%
X96185400Y-39065200D03*
X95495400Y-39065200D03*
%TD*%
D27*
%TO.C,SW5*%
X77151271Y-57200886D03*
X71351271Y-57200886D03*
X77151271Y-53200886D03*
X71351271Y-53200886D03*
%TD*%
D16*
%TO.C,C26*%
X86029899Y-49167210D03*
X86719899Y-49167210D03*
%TD*%
%TO.C,C22*%
X82233601Y-44453200D03*
X82923601Y-44453200D03*
%TD*%
D32*
%TO.C,U6*%
X98259000Y-28502000D03*
D33*
X98334000Y-27964500D03*
D32*
X98259000Y-27427000D03*
X96559000Y-27427000D03*
D33*
X96484000Y-27964500D03*
D32*
X96559000Y-28502000D03*
%TD*%
D15*
%TO.C,R31*%
X94312298Y-38335900D03*
X94312298Y-37645900D03*
%TD*%
D34*
%TO.C,Y1*%
X100174300Y-48301800D03*
X100174300Y-50501800D03*
X101874300Y-50501800D03*
X101874300Y-48301800D03*
%TD*%
D35*
%TO.C,D3*%
X91053600Y-41198800D03*
X93553600Y-41198800D03*
%TD*%
D20*
%TO.C,C9*%
X94934600Y-43408600D03*
X94244600Y-43408600D03*
%TD*%
D19*
%TO.C,R17*%
X108077000Y-46883800D03*
X108077000Y-47573800D03*
%TD*%
%TO.C,R6*%
X101151300Y-33386200D03*
X101151300Y-34076200D03*
%TD*%
D14*
%TO.C,RGB11*%
X128019171Y-64924156D03*
X128689171Y-64924156D03*
X128689171Y-64254156D03*
X128019171Y-64254156D03*
%TD*%
D36*
%TO.C,C3*%
X98763700Y-48116800D03*
X98763700Y-49076800D03*
%TD*%
D27*
%TO.C,SW8*%
X95526272Y-63700886D03*
X89726272Y-63700886D03*
X95526272Y-59700886D03*
X89726272Y-59700886D03*
%TD*%
D16*
%TO.C,C31*%
X39990200Y-46990000D03*
X40680200Y-46990000D03*
%TD*%
D19*
%TO.C,R15*%
X95275400Y-47559400D03*
X95275400Y-48249400D03*
%TD*%
D15*
%TO.C,C13*%
X100914200Y-36641600D03*
X100914200Y-35951600D03*
%TD*%
D14*
%TO.C,RGB10*%
X118660666Y-58592211D03*
X119330666Y-58592211D03*
X119330666Y-57922211D03*
X118660666Y-57922211D03*
%TD*%
D19*
%TO.C,R4*%
X79832200Y-44359000D03*
X79832200Y-45049000D03*
%TD*%
D20*
%TO.C,R9*%
X96185400Y-38354000D03*
X95495400Y-38354000D03*
%TD*%
D16*
%TO.C,C16*%
X104176000Y-46431200D03*
X104866000Y-46431200D03*
%TD*%
D21*
%TO.C,C7*%
X101297800Y-45999400D03*
X102257800Y-45999400D03*
%TD*%
D27*
%TO.C,SW7*%
X81901273Y-63700886D03*
X76101273Y-63700886D03*
X81901273Y-59700886D03*
X76101273Y-59700886D03*
%TD*%
D15*
%TO.C,R37*%
X91338400Y-28208800D03*
X91338400Y-27518800D03*
%TD*%
D12*
%TO.C,U8*%
X90775500Y-33006400D03*
D13*
X91313000Y-33081400D03*
D12*
X91850500Y-33006400D03*
X91850500Y-31306400D03*
D13*
X91313000Y-31231400D03*
D12*
X90775500Y-31306400D03*
%TD*%
D19*
%TO.C,R35*%
X90273699Y-39068300D03*
X90273699Y-39758300D03*
%TD*%
D16*
%TO.C,R27*%
X81878000Y-47399600D03*
X82568000Y-47399600D03*
%TD*%
D15*
%TO.C,C19*%
X52019200Y-36133600D03*
X52019200Y-35443600D03*
%TD*%
D18*
%TO.C,U15*%
X149046601Y-35800498D03*
X149046601Y-34000498D03*
X146771601Y-34000498D03*
X146771601Y-34900498D03*
X146771601Y-35800498D03*
%TD*%
D20*
%TO.C,R23*%
X96185400Y-39776400D03*
X95495400Y-39776400D03*
%TD*%
D37*
%TO.C,Q1*%
X93230298Y-39377500D03*
X93230297Y-38727500D03*
X93230298Y-38077500D03*
X91330298Y-38077500D03*
X91330299Y-38727500D03*
X91330298Y-39377500D03*
%TD*%
D19*
%TO.C,R3*%
X104165400Y-49007200D03*
X104165400Y-49697200D03*
%TD*%
D14*
%TO.C,RGB2*%
X43340406Y-44857864D03*
X44010406Y-44857864D03*
X44010406Y-44187864D03*
X43340406Y-44187864D03*
%TD*%
D38*
%TO.C,C4*%
X103284900Y-50746600D03*
X103284900Y-49786600D03*
%TD*%
D19*
%TO.C,R38*%
X99466400Y-25436000D03*
X99466400Y-26126000D03*
%TD*%
D18*
%TO.C,U10*%
X132147747Y-35740718D03*
X132147747Y-33940718D03*
X129872747Y-33940718D03*
X129872747Y-34840718D03*
X129872747Y-35740718D03*
%TD*%
D16*
%TO.C,R26*%
X73873800Y-42519600D03*
X74563800Y-42519600D03*
%TD*%
%TO.C,R20*%
X106030200Y-41910000D03*
X106720200Y-41910000D03*
%TD*%
D14*
%TO.C,RGB8*%
X151427092Y-54047961D03*
X152097092Y-54047961D03*
X152097092Y-53377961D03*
X151427092Y-53377961D03*
%TD*%
D37*
%TO.C,Q2*%
X93225298Y-36511898D03*
X93225297Y-35861898D03*
X93225298Y-35211898D03*
X91325298Y-35211898D03*
X91325299Y-35861898D03*
X91325298Y-36511898D03*
%TD*%
D16*
%TO.C,C10*%
X106802800Y-41173400D03*
X107492800Y-41173400D03*
%TD*%
D35*
%TO.C,D4*%
X80622800Y-48771200D03*
X83122798Y-48771200D03*
%TD*%
D15*
%TO.C,C11*%
X96113600Y-37556000D03*
X96113600Y-36866000D03*
%TD*%
D19*
%TO.C,R16*%
X107315000Y-46899000D03*
X107315000Y-47589000D03*
%TD*%
D14*
%TO.C,RGB12*%
X133416283Y-63499420D03*
X134086283Y-63499420D03*
X134086283Y-62829420D03*
X133416283Y-62829420D03*
%TD*%
%TO.C,RGB5*%
X114807675Y-42529746D03*
X115477675Y-42529746D03*
X115477675Y-41859746D03*
X114807675Y-41859746D03*
%TD*%
D39*
%TO.C,C25*%
X84876299Y-46739009D03*
X84876299Y-44839011D03*
%TD*%
D19*
%TO.C,R7*%
X101862500Y-33386200D03*
X101862500Y-34076200D03*
%TD*%
D39*
%TO.C,C27*%
X90845299Y-47221609D03*
X90845299Y-45321611D03*
%TD*%
D20*
%TO.C,C8*%
X95391800Y-40538400D03*
X94701800Y-40538400D03*
%TD*%
D19*
%TO.C,R12*%
X93268800Y-45095600D03*
X93268800Y-45785600D03*
%TD*%
D14*
%TO.C,RGB1*%
X48898296Y-39299975D03*
X49568296Y-39299975D03*
X49568296Y-38629975D03*
X48898296Y-38629975D03*
%TD*%
D16*
%TO.C,C5*%
X106792200Y-40411400D03*
X107482200Y-40411400D03*
%TD*%
D19*
%TO.C,R14*%
X96037400Y-47559400D03*
X96037400Y-48249400D03*
%TD*%
%TO.C,R32*%
X94312298Y-39103900D03*
X94312298Y-39793900D03*
%TD*%
%TO.C,R13*%
X92506800Y-45095600D03*
X92506800Y-45785600D03*
%TD*%
D40*
%TO.C,U1*%
X100442800Y-40530800D03*
X100442800Y-41930800D03*
X101842800Y-40530800D03*
X101842800Y-41930800D03*
D41*
X97705300Y-38430800D03*
D42*
X97705300Y-38830800D03*
X97705300Y-39230800D03*
X97705300Y-39630800D03*
X97705300Y-40030800D03*
X97705300Y-40430800D03*
X97705300Y-40830800D03*
X97705300Y-41230800D03*
X97705300Y-41630800D03*
X97705300Y-42030800D03*
X97705300Y-42430800D03*
X97705300Y-42830800D03*
X97705300Y-43230800D03*
X97705300Y-43630800D03*
D43*
X97705300Y-44030800D03*
D44*
X98342800Y-44668300D03*
D45*
X98742800Y-44668300D03*
X99142800Y-44668300D03*
X99542800Y-44668300D03*
X99942800Y-44668300D03*
X100342800Y-44668300D03*
X100742800Y-44668300D03*
X101142800Y-44668300D03*
X101542800Y-44668300D03*
X101942800Y-44668300D03*
X102342800Y-44668300D03*
X102742800Y-44668300D03*
X103142800Y-44668300D03*
X103542800Y-44668300D03*
D46*
X103942800Y-44668300D03*
D47*
X104580300Y-44030800D03*
D42*
X104580300Y-43630800D03*
X104580300Y-43230800D03*
X104580300Y-42830800D03*
X104580300Y-42430800D03*
X104580300Y-42030800D03*
X104580300Y-41630800D03*
X104580300Y-41230800D03*
X104580300Y-40830800D03*
X104580300Y-40430800D03*
X104580300Y-40030800D03*
X104580300Y-39630800D03*
X104580300Y-39230800D03*
X104580300Y-38830800D03*
D48*
X104580300Y-38430800D03*
D49*
X103942800Y-37793300D03*
D45*
X103542800Y-37793300D03*
X103142800Y-37793300D03*
X102742800Y-37793300D03*
X102342800Y-37793300D03*
X101942800Y-37793300D03*
X101542800Y-37793300D03*
X101142800Y-37793300D03*
X100742800Y-37793300D03*
X100342800Y-37793300D03*
X99942800Y-37793300D03*
X99542800Y-37793300D03*
X99142800Y-37793300D03*
X98742800Y-37793300D03*
D50*
X98342800Y-37793300D03*
%TD*%
D16*
%TO.C,R25*%
X76718600Y-44295400D03*
X77408600Y-44295400D03*
%TD*%
D19*
%TO.C,R28*%
X66979800Y-36469800D03*
X66979800Y-37159800D03*
%TD*%
D15*
%TO.C,R36*%
X90258498Y-35887099D03*
X90258498Y-35197099D03*
%TD*%
M02*
