%TF.GenerationSoftware,KiCad,Pcbnew,9.0.6-rc2*%
%TF.CreationDate,2025-11-20T00:57:41-08:00*%
%TF.ProjectId,LatteJr_Main_Board,4c617474-654a-4725-9f4d-61696e5f426f,rev?*%
%TF.SameCoordinates,Original*%
%TF.FileFunction,Profile,NP*%
%FSLAX46Y46*%
G04 Gerber Fmt 4.6, Leading zero omitted, Abs format (unit mm)*
G04 Created by KiCad (PCBNEW 9.0.6-rc2) date 2025-11-20 00:57:41*
%MOMM*%
%LPD*%
G01*
G04 APERTURE LIST*
%TA.AperFunction,Profile*%
%ADD10C,0.050000*%
%TD*%
%ADD11C,0.050000*%
G04 APERTURE END LIST*
D10*
X125117105Y-28956441D02*
G75*
G02*
X122693252Y-29700462I-2423905J3576341D01*
G01*
X105696589Y-62218857D02*
X105696589Y-64214121D01*
X115761293Y-24717570D02*
X102014998Y-24717570D01*
X142013339Y-42598349D02*
G75*
G02*
X139813339Y-42598349I-1100000J0D01*
G01*
X139813339Y-42598349D02*
G75*
G02*
X142013339Y-42598349I1100000J0D01*
G01*
D11*
X115281199Y-65214123D02*
X115311710Y-65214163D01*
X115342221Y-65214283D01*
X115372732Y-65214483D01*
X115403241Y-65214763D01*
X115433750Y-65215123D01*
X115464258Y-65215563D01*
X115494764Y-65216083D01*
X115525269Y-65216683D01*
X115555772Y-65217363D01*
X115586273Y-65218123D01*
X115616772Y-65218963D01*
X115647269Y-65219882D01*
X115677763Y-65220882D01*
X115708254Y-65221962D01*
X115738743Y-65223121D01*
X115769228Y-65224361D01*
X115799710Y-65225680D01*
X115830188Y-65227080D01*
X115860662Y-65228559D01*
X115891133Y-65230118D01*
X115921599Y-65231758D01*
X115952061Y-65233476D01*
X115982518Y-65235275D01*
X116012970Y-65237154D01*
X116043417Y-65239113D01*
X116073859Y-65241151D01*
X116104296Y-65243269D01*
X116134727Y-65245467D01*
X116165152Y-65247745D01*
X116195570Y-65250102D01*
X116225983Y-65252539D01*
X116256389Y-65255056D01*
X116286788Y-65257653D01*
X116317181Y-65260329D01*
X116347566Y-65263085D01*
X116377944Y-65265921D01*
X116408314Y-65268837D01*
X116438677Y-65271832D01*
X116469032Y-65274906D01*
X116499378Y-65278060D01*
X116529716Y-65281294D01*
X116560046Y-65284607D01*
X116590366Y-65288000D01*
X116620678Y-65291472D01*
X116650980Y-65295024D01*
X116681273Y-65298655D01*
X116711557Y-65302366D01*
X116741830Y-65306156D01*
X116772094Y-65310025D01*
X116802347Y-65313974D01*
X116832590Y-65318002D01*
X116862822Y-65322109D01*
X116893043Y-65326295D01*
X116923253Y-65330561D01*
X116938354Y-65332724D01*
X116953452Y-65334906D01*
X116968547Y-65337108D01*
X116983639Y-65339330D01*
X116998728Y-65341572D01*
X117013814Y-65343833D01*
X117028898Y-65346115D01*
X117043978Y-65348416D01*
X117059055Y-65350737D01*
X117074129Y-65353077D01*
X117089200Y-65355437D01*
X117104268Y-65357818D01*
X117119333Y-65360217D01*
X117134395Y-65362637D01*
X117149453Y-65365076D01*
X117164509Y-65367535D01*
X117179561Y-65370014D01*
X117194609Y-65372513D01*
X117209655Y-65375031D01*
X117224697Y-65377569D01*
X117239736Y-65380127D01*
X117254771Y-65382704D01*
X117269803Y-65385301D01*
X117284832Y-65387918D01*
X117299857Y-65390555D01*
X117314879Y-65393211D01*
X117329897Y-65395887D01*
X117344911Y-65398583D01*
X117359922Y-65401298D01*
X117374930Y-65404033D01*
X117389934Y-65406788D01*
X117404934Y-65409562D01*
X117419931Y-65412356D01*
X117434924Y-65415170D01*
X117449913Y-65418003D01*
X117464898Y-65420856D01*
X117479880Y-65423728D01*
X117494858Y-65426621D01*
X117509832Y-65429533D01*
X117524803Y-65432464D01*
X117539769Y-65435415D01*
X117554731Y-65438386D01*
X117569690Y-65441376D01*
X117584645Y-65444386D01*
X117599595Y-65447416D01*
X117614542Y-65450465D01*
X117629485Y-65453534D01*
X117644424Y-65456622D01*
X117659358Y-65459730D01*
X117674289Y-65462858D01*
X117689215Y-65466005D01*
X117704137Y-65469171D01*
X117719055Y-65472358D01*
X117733969Y-65475563D01*
X117748879Y-65478789D01*
X117763784Y-65482034D01*
X117778685Y-65485298D01*
X117793582Y-65488582D01*
X117808475Y-65491885D01*
X117823363Y-65495208D01*
X117838247Y-65498551D01*
X117853126Y-65501913D01*
X117868001Y-65505294D01*
X117882872Y-65508695D01*
X117897738Y-65512116D01*
X117912599Y-65515556D01*
X117927456Y-65519015D01*
X117942309Y-65522494D01*
X117957156Y-65525993D01*
X117972000Y-65529511D01*
X117986838Y-65533048D01*
X118001673Y-65536605D01*
X118016502Y-65540181D01*
X118031326Y-65543777D01*
X118046146Y-65547392D01*
X118060962Y-65551026D01*
X118075772Y-65554680D01*
X118090577Y-65558354D01*
X118105378Y-65562047D01*
X118120174Y-65565759D01*
X118134965Y-65569490D01*
X118149751Y-65573241D01*
X118164532Y-65577012D01*
X118179308Y-65580802D01*
X118194079Y-65584611D01*
X118208846Y-65588439D01*
X118223607Y-65592287D01*
X118238363Y-65596154D01*
X118253114Y-65600041D01*
X118267860Y-65603947D01*
X118282601Y-65607872D01*
X118297337Y-65611816D01*
X118312067Y-65615780D01*
X118326792Y-65619763D01*
X118341512Y-65623766D01*
X118356227Y-65627788D01*
X118370936Y-65631829D01*
X118385641Y-65635889D01*
X118400339Y-65639969D01*
X118415033Y-65644068D01*
X118429721Y-65648186D01*
X118444404Y-65652323D01*
X118459081Y-65656480D01*
X118473753Y-65660656D01*
X118488419Y-65664851D01*
X118503080Y-65669065D01*
X118517735Y-65673299D01*
X118532386Y-65677552D01*
X118554530Y-65684020D01*
D10*
X57470572Y-28138453D02*
X30124100Y-28138452D01*
X23719846Y-36413008D02*
G75*
G02*
X26767388Y-29963014I25512954J-8109592D01*
G01*
X41242447Y-35368689D02*
G75*
G02*
X39042447Y-35368689I-1100000J0D01*
G01*
X39042447Y-35368689D02*
G75*
G02*
X41242447Y-35368689I1100000J0D01*
G01*
X69581985Y-54177885D02*
G75*
G02*
X68281983Y-54177885I-650001J0D01*
G01*
X68281983Y-54177885D02*
G75*
G02*
X69581985Y-54177885I650001J0D01*
G01*
X62559271Y-29700434D02*
G75*
G02*
X60135451Y-28956424I29J4320234D01*
G01*
X158485150Y-29963018D02*
G75*
G02*
X161532688Y-36413011I-22465850J-14559782D01*
G01*
X69971345Y-65214123D02*
X97055951Y-65214122D01*
X161113681Y-46008039D02*
G75*
G02*
X162603154Y-47685224I19J-1499961D01*
G01*
X98055955Y-62218855D02*
G75*
G02*
X105696585Y-62218857I3820315J-5D01*
G01*
X98055955Y-64214121D02*
X98055955Y-62218855D01*
X159671414Y-46008039D02*
G75*
G02*
X159671414Y-38367361I-14J3820339D01*
G01*
X86237548Y-21717574D02*
G75*
G02*
X83237554Y-24717548I-2999948J-26D01*
G01*
X161113681Y-46008039D02*
X159671414Y-46008039D01*
X25149372Y-38367404D02*
X25581132Y-38367403D01*
X99014996Y-21717567D02*
X99014996Y-17251501D01*
X25581132Y-46008039D02*
X24129545Y-46008039D01*
X119761292Y-29700434D02*
G75*
G02*
X117761266Y-27700430I8J2000034D01*
G01*
X57470572Y-28138453D02*
G75*
G02*
X60135439Y-28956441I28J-4749747D01*
G01*
X67491254Y-26717470D02*
G75*
G02*
X69491152Y-24717554I1999946J-30D01*
G01*
X25581132Y-38367403D02*
G75*
G02*
X25581132Y-46008037I-2J-3820317D01*
G01*
X106696592Y-65214124D02*
X115281199Y-65214123D01*
X121970427Y-46733353D02*
G75*
G02*
X119770425Y-46733353I-1100001J0D01*
G01*
X119770425Y-46733353D02*
G75*
G02*
X121970427Y-46733353I1100001J0D01*
G01*
X155128442Y-28138452D02*
X127782021Y-28138452D01*
X122693252Y-29700433D02*
X119761292Y-29700434D01*
X102014998Y-24717570D02*
G75*
G02*
X99015030Y-21717567I2J2999970D01*
G01*
X98055955Y-64214121D02*
G75*
G02*
X97055951Y-65214055I-999955J21D01*
G01*
X67491254Y-27700401D02*
G75*
G02*
X65485556Y-29700446I-2000054J1D01*
G01*
X63688713Y-67056101D02*
G75*
G02*
X22649366Y-47685227I-14455417J22533238D01*
G01*
X159671414Y-38367404D02*
X160103179Y-38367404D01*
D11*
X118554530Y-65684020D02*
X118583793Y-65692640D01*
X118613033Y-65701338D01*
X118642250Y-65710112D01*
X118671444Y-65718962D01*
X118700615Y-65727889D01*
X118729762Y-65736892D01*
X118758886Y-65745972D01*
X118787986Y-65755128D01*
X118817062Y-65764361D01*
X118846113Y-65773669D01*
X118875140Y-65783054D01*
X118904142Y-65792515D01*
X118933120Y-65802052D01*
X118962072Y-65811665D01*
X118990999Y-65821354D01*
X119019901Y-65831118D01*
X119048777Y-65840959D01*
X119077627Y-65850875D01*
X119106451Y-65860867D01*
X119135249Y-65870934D01*
X119164020Y-65881077D01*
X119192765Y-65891295D01*
X119221483Y-65901589D01*
X119250174Y-65911958D01*
X119278837Y-65922402D01*
X119307474Y-65932921D01*
X119336082Y-65943515D01*
X119364663Y-65954185D01*
X119393216Y-65964929D01*
X119421741Y-65975748D01*
X119450237Y-65986642D01*
X119478704Y-65997611D01*
X119507143Y-66008654D01*
X119535553Y-66019772D01*
X119563934Y-66030964D01*
X119592285Y-66042231D01*
X119620607Y-66053572D01*
X119648899Y-66064988D01*
X119677161Y-66076477D01*
X119705393Y-66088041D01*
X119733595Y-66099679D01*
X119761766Y-66111390D01*
X119789906Y-66123176D01*
X119818015Y-66135035D01*
X119846094Y-66146968D01*
X119874141Y-66158974D01*
X119902156Y-66171054D01*
X119930140Y-66183208D01*
X119958092Y-66195435D01*
X119986011Y-66207735D01*
X120013899Y-66220108D01*
X120041754Y-66232555D01*
X120069576Y-66245074D01*
X120097366Y-66257667D01*
X120125122Y-66270332D01*
X120138988Y-66276692D01*
X120152845Y-66283070D01*
X120166695Y-66289467D01*
X120180535Y-66295881D01*
X120194368Y-66302314D01*
X120208191Y-66308764D01*
X120222007Y-66315233D01*
X120235814Y-66321720D01*
X120249612Y-66328225D01*
X120263402Y-66334748D01*
X120277183Y-66341290D01*
X120290956Y-66347849D01*
X120304720Y-66354426D01*
X120318476Y-66361022D01*
X120332223Y-66367635D01*
X120345961Y-66374267D01*
X120359691Y-66380916D01*
X120373412Y-66387584D01*
X120387124Y-66394269D01*
X120400827Y-66400973D01*
X120414522Y-66407694D01*
X120428208Y-66414434D01*
X120441884Y-66421191D01*
X120455553Y-66427966D01*
X120469212Y-66434760D01*
X120482862Y-66441571D01*
X120496503Y-66448400D01*
X120510136Y-66455247D01*
X120523759Y-66462111D01*
X120537374Y-66468994D01*
X120550979Y-66475895D01*
X120564576Y-66482813D01*
X120578163Y-66489749D01*
X120591741Y-66496703D01*
X120605310Y-66503675D01*
X120618870Y-66510664D01*
X120632421Y-66517672D01*
X120645963Y-66524697D01*
X120659495Y-66531740D01*
X120673018Y-66538800D01*
X120686532Y-66545879D01*
X120700037Y-66552975D01*
X120713532Y-66560089D01*
X120727018Y-66567220D01*
X120740495Y-66574369D01*
X120753962Y-66581536D01*
X120767420Y-66588720D01*
X120780869Y-66595923D01*
X120794308Y-66603142D01*
X120807738Y-66610380D01*
X120821158Y-66617635D01*
X120834568Y-66624907D01*
X120847969Y-66632197D01*
X120861361Y-66639505D01*
X120874743Y-66646830D01*
X120888115Y-66654173D01*
X120901478Y-66661534D01*
X120914831Y-66668912D01*
X120928174Y-66676307D01*
X120941508Y-66683720D01*
X120954832Y-66691150D01*
X120968147Y-66698598D01*
X120981451Y-66706063D01*
X120994746Y-66713546D01*
X121008031Y-66721046D01*
X121021306Y-66728564D01*
X121034571Y-66736099D01*
X121047827Y-66743652D01*
X121061072Y-66751221D01*
X121074308Y-66758809D01*
X121087533Y-66766413D01*
X121100749Y-66774035D01*
X121113954Y-66781674D01*
X121127150Y-66789331D01*
X121140336Y-66797004D01*
X121153512Y-66804696D01*
X121166677Y-66812404D01*
X121179832Y-66820130D01*
X121192978Y-66827872D01*
X121206113Y-66835633D01*
X121219238Y-66843410D01*
X121232353Y-66851205D01*
X121245457Y-66859016D01*
X121258552Y-66866845D01*
X121271635Y-66874691D01*
X121284709Y-66882555D01*
X121297773Y-66890435D01*
X121310826Y-66898333D01*
X121323869Y-66906247D01*
X121336902Y-66914179D01*
X121349923Y-66922128D01*
X121362935Y-66930094D01*
X121375936Y-66938077D01*
X121388927Y-66946077D01*
X121401907Y-66954094D01*
X121414878Y-66962128D01*
X121427837Y-66970179D01*
X121440786Y-66978248D01*
X121453724Y-66986333D01*
X121466651Y-66994435D01*
X121479568Y-67002554D01*
X121492475Y-67010690D01*
X121505370Y-67018843D01*
X121518256Y-67027013D01*
X121531130Y-67035200D01*
X121543994Y-67043403D01*
X121563831Y-67056101D01*
D10*
X117761291Y-27700430D02*
X117761291Y-26717567D01*
X22649366Y-47685227D02*
G75*
G02*
X24129545Y-46008041I1489504J177207D01*
G01*
X41232715Y-53400524D02*
G75*
G02*
X39032715Y-53400524I-1100000J0D01*
G01*
X39032715Y-53400524D02*
G75*
G02*
X41232715Y-53400524I1100000J0D01*
G01*
D11*
X63688713Y-67056101D02*
X63714415Y-67039660D01*
X63740161Y-67023287D01*
X63765949Y-67006981D01*
X63791780Y-66990743D01*
X63817653Y-66974572D01*
X63843568Y-66958470D01*
X63869525Y-66942435D01*
X63895525Y-66926469D01*
X63921566Y-66910571D01*
X63947649Y-66894741D01*
X63973773Y-66878980D01*
X63999938Y-66863288D01*
X64026144Y-66847664D01*
X64052391Y-66832109D01*
X64078679Y-66816622D01*
X64105007Y-66801205D01*
X64131376Y-66785857D01*
X64157784Y-66770578D01*
X64184233Y-66755368D01*
X64210721Y-66740228D01*
X64237249Y-66725157D01*
X64263817Y-66710156D01*
X64290423Y-66695225D01*
X64317069Y-66680363D01*
X64343753Y-66665571D01*
X64370477Y-66650850D01*
X64397238Y-66636198D01*
X64424038Y-66621617D01*
X64450876Y-66607106D01*
X64477752Y-66592665D01*
X64504666Y-66578295D01*
X64531618Y-66563996D01*
X64558607Y-66549767D01*
X64585633Y-66535609D01*
X64612696Y-66521522D01*
X64639795Y-66507506D01*
X64666932Y-66493561D01*
X64694105Y-66479688D01*
X64721314Y-66465885D01*
X64748560Y-66452154D01*
X64775841Y-66438495D01*
X64803158Y-66424907D01*
X64830510Y-66411391D01*
X64857898Y-66397947D01*
X64885321Y-66384574D01*
X64912779Y-66371273D01*
X64940272Y-66358045D01*
X64967799Y-66344888D01*
X64995361Y-66331804D01*
X65022957Y-66318792D01*
X65050587Y-66305853D01*
X65078250Y-66292986D01*
X65105948Y-66280192D01*
X65133679Y-66267470D01*
X65147556Y-66261136D01*
X65161443Y-66254821D01*
X65175337Y-66248524D01*
X65189240Y-66242245D01*
X65203151Y-66235984D01*
X65217070Y-66229742D01*
X65230997Y-66223517D01*
X65244932Y-66217311D01*
X65258876Y-66211124D01*
X65272828Y-66204954D01*
X65286787Y-66198803D01*
X65300755Y-66192671D01*
X65314731Y-66186556D01*
X65328715Y-66180460D01*
X65342706Y-66174382D01*
X65356706Y-66168323D01*
X65370714Y-66162282D01*
X65384729Y-66156259D01*
X65398752Y-66150255D01*
X65412784Y-66144269D01*
X65426823Y-66138301D01*
X65440870Y-66132352D01*
X65454924Y-66126422D01*
X65468987Y-66120509D01*
X65483057Y-66114616D01*
X65497135Y-66108740D01*
X65511220Y-66102884D01*
X65525314Y-66097045D01*
X65539415Y-66091225D01*
X65553523Y-66085424D01*
X65567639Y-66079641D01*
X65581763Y-66073876D01*
X65595894Y-66068131D01*
X65610033Y-66062403D01*
X65624179Y-66056695D01*
X65638333Y-66051004D01*
X65652494Y-66045333D01*
X65666662Y-66039679D01*
X65680838Y-66034045D01*
X65695021Y-66028429D01*
X65709212Y-66022832D01*
X65723410Y-66017253D01*
X65737615Y-66011693D01*
X65751828Y-66006151D01*
X65766047Y-66000629D01*
X65780274Y-65995124D01*
X65794509Y-65989639D01*
X65808750Y-65984172D01*
X65822998Y-65978724D01*
X65837254Y-65973295D01*
X65851517Y-65967884D01*
X65865787Y-65962492D01*
X65880064Y-65957118D01*
X65894348Y-65951764D01*
X65908638Y-65946428D01*
X65922936Y-65941111D01*
X65937241Y-65935812D01*
X65951553Y-65930533D01*
X65965872Y-65925272D01*
X65980197Y-65920030D01*
X65994530Y-65914806D01*
X66008869Y-65909602D01*
X66023215Y-65904416D01*
X66037568Y-65899249D01*
X66051927Y-65894101D01*
X66066294Y-65888972D01*
X66080667Y-65883862D01*
X66095047Y-65878770D01*
X66109433Y-65873698D01*
X66123826Y-65868644D01*
X66138226Y-65863609D01*
X66152632Y-65858593D01*
X66167045Y-65853596D01*
X66181464Y-65848617D01*
X66195890Y-65843658D01*
X66210322Y-65838718D01*
X66224761Y-65833796D01*
X66239207Y-65828894D01*
X66253658Y-65824010D01*
X66268116Y-65819145D01*
X66282580Y-65814300D01*
X66297051Y-65809473D01*
X66311528Y-65804665D01*
X66326012Y-65799877D01*
X66340501Y-65795107D01*
X66354998Y-65790356D01*
X66369499Y-65785624D01*
X66384008Y-65780912D01*
X66398522Y-65776218D01*
X66413043Y-65771543D01*
X66427570Y-65766888D01*
X66442103Y-65762251D01*
X66456641Y-65757633D01*
X66471187Y-65753035D01*
X66485737Y-65748456D01*
X66500295Y-65743895D01*
X66514857Y-65739354D01*
X66529427Y-65734832D01*
X66544001Y-65730329D01*
X66558582Y-65725845D01*
X66573168Y-65721380D01*
X66587761Y-65716935D01*
X66602359Y-65712508D01*
X66616964Y-65708101D01*
X66631573Y-65703712D01*
X66646189Y-65699343D01*
X66660810Y-65694993D01*
X66675438Y-65690663D01*
X66697469Y-65684179D01*
D10*
X155128442Y-28138452D02*
G75*
G02*
X158485139Y-29963025I-42J-4000048D01*
G01*
X96696458Y-56350988D02*
G75*
G02*
X94730458Y-56350988I-983000J0D01*
G01*
X94730458Y-56350988D02*
G75*
G02*
X96696458Y-56350988I983000J0D01*
G01*
X146501743Y-43979136D02*
G75*
G02*
X144301743Y-43979136I-1100000J0D01*
G01*
X144301743Y-43979136D02*
G75*
G02*
X146501743Y-43979136I1100000J0D01*
G01*
X106696592Y-65214124D02*
G75*
G02*
X105696576Y-64214121I8J1000024D01*
G01*
X125117105Y-28956441D02*
G75*
G02*
X127782021Y-28138456I2664895J-3931959D01*
G01*
X161532698Y-36413008D02*
G75*
G02*
X160103179Y-38367379I-1429498J-454392D01*
G01*
X65485556Y-29700434D02*
X62559271Y-29700434D01*
X115761293Y-24717570D02*
G75*
G02*
X117761330Y-26717567I7J-2000030D01*
G01*
X162603178Y-47685227D02*
G75*
G02*
X121563834Y-67056096I-26583928J3162367D01*
G01*
D11*
X66697469Y-65684179D02*
X66726754Y-65675634D01*
X66756062Y-65667165D01*
X66785391Y-65658774D01*
X66814743Y-65650459D01*
X66844116Y-65642222D01*
X66873511Y-65634061D01*
X66902927Y-65625978D01*
X66932364Y-65617972D01*
X66961822Y-65610043D01*
X66991300Y-65602191D01*
X67020800Y-65594416D01*
X67050319Y-65586719D01*
X67079859Y-65579100D01*
X67109419Y-65571557D01*
X67138998Y-65564093D01*
X67168597Y-65556706D01*
X67198215Y-65549396D01*
X67227853Y-65542164D01*
X67257509Y-65535010D01*
X67287184Y-65527934D01*
X67316877Y-65520935D01*
X67346589Y-65514015D01*
X67376319Y-65507172D01*
X67406067Y-65500407D01*
X67435832Y-65493721D01*
X67465615Y-65487112D01*
X67495416Y-65480581D01*
X67525233Y-65474129D01*
X67555068Y-65467755D01*
X67584919Y-65461459D01*
X67614786Y-65455241D01*
X67644670Y-65449102D01*
X67674570Y-65443041D01*
X67704485Y-65437058D01*
X67734417Y-65431154D01*
X67764363Y-65425328D01*
X67794326Y-65419581D01*
X67824303Y-65413913D01*
X67854295Y-65408323D01*
X67884301Y-65402811D01*
X67914322Y-65397379D01*
X67944357Y-65392025D01*
X67974407Y-65386750D01*
X68004470Y-65381553D01*
X68034546Y-65376436D01*
X68064636Y-65371397D01*
X68094740Y-65366438D01*
X68124856Y-65361557D01*
X68154985Y-65356755D01*
X68185126Y-65352032D01*
X68215280Y-65347388D01*
X68245446Y-65342824D01*
X68275624Y-65338338D01*
X68305814Y-65333932D01*
X68336015Y-65329604D01*
X68351120Y-65327470D01*
X68366228Y-65325356D01*
X68381338Y-65323262D01*
X68396451Y-65321187D01*
X68411567Y-65319133D01*
X68426686Y-65317098D01*
X68441807Y-65315083D01*
X68456931Y-65313087D01*
X68472058Y-65311112D01*
X68487187Y-65309156D01*
X68502319Y-65307221D01*
X68517453Y-65305305D01*
X68532590Y-65303409D01*
X68547729Y-65301532D01*
X68562871Y-65299676D01*
X68578015Y-65297839D01*
X68593161Y-65296023D01*
X68608310Y-65294226D01*
X68623462Y-65292449D01*
X68638615Y-65290692D01*
X68653771Y-65288955D01*
X68668930Y-65287237D01*
X68684090Y-65285540D01*
X68699253Y-65283862D01*
X68714418Y-65282204D01*
X68729585Y-65280567D01*
X68744754Y-65278949D01*
X68759926Y-65277351D01*
X68775099Y-65275772D01*
X68790275Y-65274214D01*
X68805452Y-65272676D01*
X68820632Y-65271157D01*
X68835814Y-65269659D01*
X68850997Y-65268180D01*
X68866183Y-65266721D01*
X68881370Y-65265282D01*
X68896559Y-65263863D01*
X68911751Y-65262464D01*
X68926944Y-65261085D01*
X68942139Y-65259726D01*
X68957335Y-65258386D01*
X68972534Y-65257067D01*
X68987734Y-65255768D01*
X69002936Y-65254488D01*
X69018139Y-65253228D01*
X69033344Y-65251989D01*
X69048551Y-65250769D01*
X69063760Y-65249569D01*
X69078969Y-65248389D01*
X69094181Y-65247229D01*
X69109394Y-65246089D01*
X69124609Y-65244969D01*
X69139825Y-65243869D01*
X69155042Y-65242789D01*
X69170261Y-65241729D01*
X69185481Y-65240689D01*
X69200703Y-65239668D01*
X69215926Y-65238668D01*
X69231150Y-65237688D01*
X69246376Y-65236727D01*
X69261603Y-65235787D01*
X69276831Y-65234866D01*
X69292060Y-65233966D01*
X69307291Y-65233085D01*
X69322522Y-65232225D01*
X69337755Y-65231384D01*
X69352989Y-65230563D01*
X69368224Y-65229763D01*
X69383460Y-65228982D01*
X69398697Y-65228221D01*
X69413935Y-65227481D01*
X69429174Y-65226760D01*
X69444414Y-65226059D01*
X69459655Y-65225378D01*
X69474897Y-65224717D01*
X69490140Y-65224077D01*
X69505383Y-65223456D01*
X69520628Y-65222855D01*
X69535873Y-65222274D01*
X69551119Y-65221713D01*
X69566365Y-65221172D01*
X69581613Y-65220651D01*
X69596861Y-65220150D01*
X69612110Y-65219669D01*
X69627359Y-65219208D01*
X69642609Y-65218767D01*
X69657860Y-65218346D01*
X69673111Y-65217945D01*
X69688363Y-65217564D01*
X69703615Y-65217203D01*
X69718868Y-65216862D01*
X69734121Y-65216541D01*
X69749374Y-65216240D01*
X69764629Y-65215959D01*
X69779883Y-65215698D01*
X69795138Y-65215457D01*
X69810393Y-65215236D01*
X69825648Y-65215035D01*
X69840904Y-65214854D01*
X69856160Y-65214693D01*
X69871416Y-65214552D01*
X69886673Y-65214431D01*
X69901929Y-65214330D01*
X69917186Y-65214249D01*
X69932442Y-65214188D01*
X69947700Y-65214147D01*
X69971345Y-65214123D01*
D10*
X86913207Y-61567132D02*
G75*
G02*
X84713207Y-61567132I-1100000J0D01*
G01*
X84713207Y-61567132D02*
G75*
G02*
X86913207Y-61567132I1100000J0D01*
G01*
X86237548Y-17251501D02*
X86237548Y-21717574D01*
X67491254Y-26717470D02*
X67491254Y-27700401D01*
X93226287Y-20759218D02*
G75*
G02*
X92026257Y-20759218I-600015J0D01*
G01*
X92026257Y-20759218D02*
G75*
G02*
X93226287Y-20759218I600015J0D01*
G01*
X83237554Y-24717570D02*
X69491152Y-24717570D01*
X26767394Y-29963018D02*
G75*
G02*
X30124100Y-28138453I3356706J-2175432D01*
G01*
X110470518Y-51677740D02*
G75*
G02*
X109170520Y-51677740I-649999J0D01*
G01*
X109170520Y-51677740D02*
G75*
G02*
X110470518Y-51677740I649999J0D01*
G01*
X59162846Y-53400506D02*
G75*
G02*
X56962846Y-53400506I-1100000J0D01*
G01*
X56962846Y-53400506D02*
G75*
G02*
X59162846Y-53400506I1100000J0D01*
G01*
X99014996Y-17251501D02*
X86237548Y-17251501D01*
X25149372Y-38367404D02*
G75*
G02*
X23719873Y-36413017I28J1500004D01*
G01*
M02*
