%TF.GenerationSoftware,KiCad,Pcbnew,9.0.6-rc2*%
%TF.CreationDate,2025-11-20T00:57:41-08:00*%
%TF.ProjectId,LatteJr_Main_Board,4c617474-654a-4725-9f4d-61696e5f426f,rev?*%
%TF.SameCoordinates,Original*%
%TF.FileFunction,Soldermask,Bot*%
%TF.FilePolarity,Negative*%
%FSLAX46Y46*%
G04 Gerber Fmt 4.6, Leading zero omitted, Abs format (unit mm)*
G04 Created by KiCad (PCBNEW 9.0.6-rc2) date 2025-11-20 00:57:41*
%MOMM*%
%LPD*%
G01*
G04 APERTURE LIST*
G04 Aperture macros list*
%AMRoundRect*
0 Rectangle with rounded corners*
0 $1 Rounding radius*
0 $2 $3 $4 $5 $6 $7 $8 $9 X,Y pos of 4 corners*
0 Add a 4 corners polygon primitive as box body*
4,1,4,$2,$3,$4,$5,$6,$7,$8,$9,$2,$3,0*
0 Add four circle primitives for the rounded corners*
1,1,$1+$1,$2,$3*
1,1,$1+$1,$4,$5*
1,1,$1+$1,$6,$7*
1,1,$1+$1,$8,$9*
0 Add four rect primitives between the rounded corners*
20,1,$1+$1,$2,$3,$4,$5,0*
20,1,$1+$1,$4,$5,$6,$7,0*
20,1,$1+$1,$6,$7,$8,$9,0*
20,1,$1+$1,$8,$9,$2,$3,0*%
G04 Aperture macros list end*
%ADD10R,1.350000X1.350000*%
%ADD11C,1.350000*%
%ADD12R,0.300000X1.000000*%
%ADD13R,2.000000X1.300000*%
%ADD14RoundRect,0.150000X-0.636396X-1.131371X1.131371X0.636396X0.636396X1.131371X-1.131371X-0.636396X0*%
%ADD15RoundRect,0.200000X-0.200000X-0.450000X0.200000X-0.450000X0.200000X0.450000X-0.200000X0.450000X0*%
%ADD16O,0.800000X1.300000*%
%ADD17RoundRect,0.150000X-1.250000X-0.350000X1.250000X-0.350000X1.250000X0.350000X-1.250000X0.350000X0*%
%ADD18C,0.650000*%
%ADD19O,0.950000X0.650000*%
%ADD20R,0.300000X0.900000*%
%ADD21C,0.600000*%
%ADD22O,0.800000X1.400000*%
%ADD23RoundRect,0.150000X-1.131371X0.636396X0.636396X-1.131371X1.131371X-0.636396X-0.636396X1.131371X0*%
G04 APERTURE END LIST*
D10*
%TO.C,J1*%
X114864400Y-27432000D03*
D11*
X112864399Y-27432000D03*
X110864400Y-27432000D03*
X108864400Y-27432000D03*
%TD*%
D12*
%TO.C,J5*%
X28508800Y-37066201D03*
X29008800Y-37066200D03*
X29508800Y-37066200D03*
X30008800Y-37066201D03*
D13*
X26208800Y-34366200D03*
X32308800Y-34366200D03*
%TD*%
D12*
%TO.C,J4*%
X155333000Y-37066201D03*
X155833000Y-37066200D03*
X156333000Y-37066200D03*
X156833000Y-37066201D03*
D13*
X153033000Y-34366200D03*
X159133000Y-34366200D03*
%TD*%
D14*
%TO.C,SW3*%
X126397863Y-64478711D03*
X130499082Y-60377492D03*
X123569436Y-61650284D03*
X127670655Y-57549065D03*
%TD*%
D15*
%TO.C,J6*%
X65846800Y-50823600D03*
D16*
X67096799Y-50823600D03*
%TD*%
D17*
%TO.C,SW1*%
X108026200Y-64008000D03*
X113826200Y-64008000D03*
X108026200Y-60008000D03*
X113826200Y-60008000D03*
%TD*%
D18*
%TO.C,J3*%
X89002599Y-23343800D03*
D19*
X96202599Y-23343800D03*
D20*
X89852599Y-23903800D03*
X90352599Y-23903800D03*
X90852599Y-23903800D03*
X91352599Y-23903801D03*
X91852599Y-23903800D03*
X92352599Y-23903800D03*
X92852599Y-23903800D03*
X93352599Y-23903800D03*
X93852599Y-23903801D03*
X94352599Y-23903800D03*
X94852599Y-23903800D03*
X95352599Y-23903800D03*
D21*
X95402599Y-22693800D03*
X95002599Y-21993800D03*
X94202599Y-21993800D03*
X93802599Y-22693800D03*
X93402599Y-21993801D03*
X93002599Y-22693800D03*
X92202599Y-22693800D03*
X91802599Y-21993801D03*
X91402599Y-22693800D03*
X91002599Y-21993800D03*
X90202599Y-21993800D03*
X89802599Y-22693800D03*
D22*
X88472599Y-22103800D03*
X96732599Y-22103800D03*
X97092598Y-17703800D03*
X88112600Y-17703800D03*
%TD*%
D23*
%TO.C,SW4*%
X54753462Y-60377492D03*
X58854681Y-64478711D03*
X57581889Y-57549065D03*
X61683108Y-61650284D03*
%TD*%
M02*
