%TF.GenerationSoftware,KiCad,Pcbnew,9.0.6-rc2*%
%TF.CreationDate,2025-11-20T00:57:41-08:00*%
%TF.ProjectId,LatteJr_Main_Board,4c617474-654a-4725-9f4d-61696e5f426f,rev?*%
%TF.SameCoordinates,Original*%
%TF.FileFunction,Soldermask,Top*%
%TF.FilePolarity,Negative*%
%FSLAX46Y46*%
G04 Gerber Fmt 4.6, Leading zero omitted, Abs format (unit mm)*
G04 Created by KiCad (PCBNEW 9.0.6-rc2) date 2025-11-20 00:57:41*
%MOMM*%
%LPD*%
G01*
G04 APERTURE LIST*
G04 Aperture macros list*
%AMRoundRect*
0 Rectangle with rounded corners*
0 $1 Rounding radius*
0 $2 $3 $4 $5 $6 $7 $8 $9 X,Y pos of 4 corners*
0 Add a 4 corners polygon primitive as box body*
4,1,4,$2,$3,$4,$5,$6,$7,$8,$9,$2,$3,0*
0 Add four circle primitives for the rounded corners*
1,1,$1+$1,$2,$3*
1,1,$1+$1,$4,$5*
1,1,$1+$1,$6,$7*
1,1,$1+$1,$8,$9*
0 Add four rect primitives between the rounded corners*
20,1,$1+$1,$2,$3,$4,$5,0*
20,1,$1+$1,$4,$5,$6,$7,0*
20,1,$1+$1,$6,$7,$8,$9,0*
20,1,$1+$1,$8,$9,$2,$3,0*%
%AMFreePoly0*
4,1,18,-0.437500,0.050000,-0.433694,0.069134,-0.422855,0.085355,-0.406634,0.096194,-0.387500,0.100000,0.387500,0.100000,0.437500,0.050000,0.437500,-0.050000,0.433694,-0.069134,0.422855,-0.085355,0.406634,-0.096194,0.387500,-0.100000,-0.387500,-0.100000,-0.406634,-0.096194,-0.422855,-0.085355,-0.433694,-0.069134,-0.437500,-0.050000,-0.437500,0.050000,-0.437500,0.050000,$1*%
%AMFreePoly1*
4,1,18,-0.437500,0.050000,-0.433694,0.069134,-0.422855,0.085355,-0.406634,0.096194,-0.387500,0.100000,0.387500,0.100000,0.406634,0.096194,0.422855,0.085355,0.433694,0.069134,0.437500,0.050000,0.437500,-0.050000,0.387500,-0.100000,-0.387500,-0.100000,-0.406634,-0.096194,-0.422855,-0.085355,-0.433694,-0.069134,-0.437500,-0.050000,-0.437500,0.050000,-0.437500,0.050000,$1*%
%AMFreePoly2*
4,1,18,-0.100000,0.387500,-0.050000,0.437500,0.050000,0.437500,0.069134,0.433694,0.085355,0.422855,0.096194,0.406634,0.100000,0.387500,0.100000,-0.387500,0.096194,-0.406634,0.085355,-0.422855,0.069134,-0.433694,0.050000,-0.437500,-0.050000,-0.437500,-0.069134,-0.433694,-0.085355,-0.422855,-0.096194,-0.406634,-0.100000,-0.387500,-0.100000,0.387500,-0.100000,0.387500,$1*%
%AMFreePoly3*
4,1,18,-0.100000,0.387500,-0.096194,0.406634,-0.085355,0.422855,-0.069134,0.433694,-0.050000,0.437500,0.050000,0.437500,0.100000,0.387500,0.100000,-0.387500,0.096194,-0.406634,0.085355,-0.422855,0.069134,-0.433694,0.050000,-0.437500,-0.050000,-0.437500,-0.069134,-0.433694,-0.085355,-0.422855,-0.096194,-0.406634,-0.100000,-0.387500,-0.100000,0.387500,-0.100000,0.387500,$1*%
%AMFreePoly4*
4,1,18,-0.437500,0.050000,-0.433694,0.069134,-0.422855,0.085355,-0.406634,0.096194,-0.387500,0.100000,0.387500,0.100000,0.406634,0.096194,0.422855,0.085355,0.433694,0.069134,0.437500,0.050000,0.437500,-0.050000,0.433694,-0.069134,0.422855,-0.085355,0.406634,-0.096194,0.387500,-0.100000,-0.387500,-0.100000,-0.437500,-0.050000,-0.437500,0.050000,-0.437500,0.050000,$1*%
%AMFreePoly5*
4,1,18,-0.437500,0.050000,-0.387500,0.100000,0.387500,0.100000,0.406634,0.096194,0.422855,0.085355,0.433694,0.069134,0.437500,0.050000,0.437500,-0.050000,0.433694,-0.069134,0.422855,-0.085355,0.406634,-0.096194,0.387500,-0.100000,-0.387500,-0.100000,-0.406634,-0.096194,-0.422855,-0.085355,-0.433694,-0.069134,-0.437500,-0.050000,-0.437500,0.050000,-0.437500,0.050000,$1*%
%AMFreePoly6*
4,1,18,-0.100000,0.387500,-0.096194,0.406634,-0.085355,0.422855,-0.069134,0.433694,-0.050000,0.437500,0.050000,0.437500,0.069134,0.433694,0.085355,0.422855,0.096194,0.406634,0.100000,0.387500,0.100000,-0.387500,0.050000,-0.437500,-0.050000,-0.437500,-0.069134,-0.433694,-0.085355,-0.422855,-0.096194,-0.406634,-0.100000,-0.387500,-0.100000,0.387500,-0.100000,0.387500,$1*%
%AMFreePoly7*
4,1,18,-0.100000,0.387500,-0.096194,0.406634,-0.085355,0.422855,-0.069134,0.433694,-0.050000,0.437500,0.050000,0.437500,0.069134,0.433694,0.085355,0.422855,0.096194,0.406634,0.100000,0.387500,0.100000,-0.387500,0.096194,-0.406634,0.085355,-0.422855,0.069134,-0.433694,0.050000,-0.437500,-0.050000,-0.437500,-0.100000,-0.387500,-0.100000,0.387500,-0.100000,0.387500,$1*%
G04 Aperture macros list end*
%ADD10C,2.000000*%
%ADD11C,0.000000*%
%ADD12C,0.010000*%
%ADD13C,0.025000*%
%ADD14RoundRect,0.137500X-0.137500X0.525000X-0.137500X-0.525000X0.137500X-0.525000X0.137500X0.525000X0*%
%ADD15RoundRect,0.093750X0.093750X-0.156250X0.093750X0.156250X-0.093750X0.156250X-0.093750X-0.156250X0*%
%ADD16RoundRect,0.075000X0.075000X-0.250000X0.075000X0.250000X-0.075000X0.250000X-0.075000X-0.250000X0*%
%ADD17R,0.370000X0.370000*%
%ADD18RoundRect,0.100000X0.100000X-0.130000X0.100000X0.130000X-0.100000X0.130000X-0.100000X-0.130000X0*%
%ADD19RoundRect,0.100000X-0.130000X-0.100000X0.130000X-0.100000X0.130000X0.100000X-0.130000X0.100000X0*%
%ADD20RoundRect,0.218750X-0.256250X0.218750X-0.256250X-0.218750X0.256250X-0.218750X0.256250X0.218750X0*%
%ADD21RoundRect,0.137500X-0.525000X-0.137500X0.525000X-0.137500X0.525000X0.137500X-0.525000X0.137500X0*%
%ADD22RoundRect,0.100000X-0.100000X0.130000X-0.100000X-0.130000X0.100000X-0.130000X0.100000X0.130000X0*%
%ADD23RoundRect,0.100000X0.130000X0.100000X-0.130000X0.100000X-0.130000X-0.100000X0.130000X-0.100000X0*%
%ADD24RoundRect,0.140000X-0.140000X-0.170000X0.140000X-0.170000X0.140000X0.170000X-0.140000X0.170000X0*%
%ADD25RoundRect,0.250000X-0.375000X-0.850000X0.375000X-0.850000X0.375000X0.850000X-0.375000X0.850000X0*%
%ADD26RoundRect,0.250000X0.445000X-0.457500X0.445000X0.457500X-0.445000X0.457500X-0.445000X-0.457500X0*%
%ADD27RoundRect,0.250000X0.250000X-0.250000X0.250000X0.250000X-0.250000X0.250000X-0.250000X-0.250000X0*%
%ADD28R,2.000000X1.000000*%
%ADD29R,1.000000X2.000000*%
%ADD30C,1.000000*%
%ADD31RoundRect,0.150000X1.250000X0.350000X-1.250000X0.350000X-1.250000X-0.350000X1.250000X-0.350000X0*%
%ADD32C,0.290000*%
%ADD33R,0.700000X1.700000*%
%ADD34R,0.550000X0.500000*%
%ADD35RoundRect,0.140000X0.140000X0.170000X-0.140000X0.170000X-0.140000X-0.170000X0.140000X-0.170000X0*%
%ADD36C,0.230000*%
%ADD37RoundRect,0.093750X0.156250X0.093750X-0.156250X0.093750X-0.156250X-0.093750X0.156250X-0.093750X0*%
%ADD38RoundRect,0.075000X0.250000X0.075000X-0.250000X0.075000X-0.250000X-0.075000X0.250000X-0.075000X0*%
%ADD39RoundRect,0.250000X-0.350000X0.450000X-0.350000X-0.450000X0.350000X-0.450000X0.350000X0.450000X0*%
%ADD40RoundRect,0.250000X-0.250000X-0.250000X0.250000X-0.250000X0.250000X0.250000X-0.250000X0.250000X0*%
%ADD41RoundRect,0.140000X-0.170000X0.140000X-0.170000X-0.140000X0.170000X-0.140000X0.170000X0.140000X0*%
%ADD42RoundRect,0.100000X0.225000X0.100000X-0.225000X0.100000X-0.225000X-0.100000X0.225000X-0.100000X0*%
%ADD43RoundRect,0.140000X0.170000X-0.140000X0.170000X0.140000X-0.170000X0.140000X-0.170000X-0.140000X0*%
%ADD44RoundRect,0.250000X0.475000X-0.250000X0.475000X0.250000X-0.475000X0.250000X-0.475000X-0.250000X0*%
%ADD45R,1.350000X1.350000*%
%ADD46C,1.350000*%
%ADD47FreePoly0,0.000000*%
%ADD48RoundRect,0.050000X-0.387500X-0.050000X0.387500X-0.050000X0.387500X0.050000X-0.387500X0.050000X0*%
%ADD49FreePoly1,0.000000*%
%ADD50FreePoly2,0.000000*%
%ADD51RoundRect,0.050000X-0.050000X-0.387500X0.050000X-0.387500X0.050000X0.387500X-0.050000X0.387500X0*%
%ADD52FreePoly3,0.000000*%
%ADD53FreePoly4,0.000000*%
%ADD54FreePoly5,0.000000*%
%ADD55FreePoly6,0.000000*%
%ADD56FreePoly7,0.000000*%
%ADD57RoundRect,0.153000X1.547000X-1.547000X1.547000X1.547000X-1.547000X1.547000X-1.547000X-1.547000X0*%
%ADD58RoundRect,0.200000X-0.200000X-0.450000X0.200000X-0.450000X0.200000X0.450000X-0.200000X0.450000X0*%
%ADD59O,0.800000X1.300000*%
%ADD60C,0.650000*%
%ADD61O,0.950000X0.650000*%
%ADD62C,0.600000*%
%ADD63O,0.800000X1.400000*%
G04 APERTURE END LIST*
D10*
X117715015Y-27737542D02*
X117715015Y-26754679D01*
X159625138Y-46045151D02*
G75*
G02*
X159625138Y-38404509I2J3820321D01*
G01*
D11*
G36*
X88832779Y-34305288D02*
G01*
X88832779Y-34305288D01*
G75*
G02*
X88832779Y-34305288I534004J0D01*
G01*
X88832779Y-34305288D01*
G37*
D10*
X22603090Y-47722339D02*
G75*
G02*
X24083269Y-46045145I1489510J177209D01*
G01*
X119715016Y-29737546D02*
G75*
G02*
X117715054Y-27737542I-16J1999946D01*
G01*
X63642437Y-67093213D02*
X63668139Y-67076772D01*
X63693885Y-67060399D01*
X63719673Y-67044093D01*
X63745504Y-67027855D01*
X63771377Y-67011684D01*
X63797292Y-66995582D01*
X63823249Y-66979547D01*
X63849249Y-66963581D01*
X63875290Y-66947683D01*
X63901373Y-66931853D01*
X63927497Y-66916092D01*
X63953662Y-66900400D01*
X63979868Y-66884776D01*
X64006115Y-66869221D01*
X64032403Y-66853734D01*
X64058731Y-66838317D01*
X64085100Y-66822969D01*
X64111508Y-66807690D01*
X64137957Y-66792480D01*
X64164445Y-66777340D01*
X64190973Y-66762269D01*
X64217541Y-66747268D01*
X64244147Y-66732337D01*
X64270793Y-66717475D01*
X64297477Y-66702683D01*
X64324201Y-66687962D01*
X64350962Y-66673310D01*
X64377762Y-66658729D01*
X64404600Y-66644218D01*
X64431476Y-66629777D01*
X64458390Y-66615407D01*
X64485342Y-66601108D01*
X64512331Y-66586879D01*
X64539357Y-66572721D01*
X64566420Y-66558634D01*
X64593519Y-66544618D01*
X64620656Y-66530673D01*
X64647829Y-66516800D01*
X64675038Y-66502997D01*
X64702284Y-66489266D01*
X64729565Y-66475607D01*
X64756882Y-66462019D01*
X64784234Y-66448503D01*
X64811622Y-66435059D01*
X64839045Y-66421686D01*
X64866503Y-66408385D01*
X64893996Y-66395157D01*
X64921523Y-66382000D01*
X64949085Y-66368916D01*
X64976681Y-66355904D01*
X65004311Y-66342965D01*
X65031974Y-66330098D01*
X65059672Y-66317304D01*
X65087403Y-66304582D01*
X65101280Y-66298248D01*
X65115167Y-66291933D01*
X65129061Y-66285636D01*
X65142964Y-66279357D01*
X65156875Y-66273096D01*
X65170794Y-66266854D01*
X65184721Y-66260629D01*
X65198656Y-66254423D01*
X65212600Y-66248236D01*
X65226552Y-66242066D01*
X65240511Y-66235915D01*
X65254479Y-66229783D01*
X65268455Y-66223668D01*
X65282439Y-66217572D01*
X65296430Y-66211494D01*
X65310430Y-66205435D01*
X65324438Y-66199394D01*
X65338453Y-66193371D01*
X65352476Y-66187367D01*
X65366508Y-66181381D01*
X65380547Y-66175413D01*
X65394594Y-66169464D01*
X65408648Y-66163534D01*
X65422711Y-66157621D01*
X65436781Y-66151728D01*
X65450859Y-66145852D01*
X65464944Y-66139996D01*
X65479038Y-66134157D01*
X65493139Y-66128337D01*
X65507247Y-66122536D01*
X65521363Y-66116753D01*
X65535487Y-66110988D01*
X65549618Y-66105243D01*
X65563757Y-66099515D01*
X65577903Y-66093807D01*
X65592057Y-66088116D01*
X65606218Y-66082445D01*
X65620386Y-66076791D01*
X65634562Y-66071157D01*
X65648745Y-66065541D01*
X65662936Y-66059944D01*
X65677134Y-66054365D01*
X65691339Y-66048805D01*
X65705552Y-66043263D01*
X65719771Y-66037741D01*
X65733998Y-66032236D01*
X65748233Y-66026751D01*
X65762474Y-66021284D01*
X65776722Y-66015836D01*
X65790978Y-66010407D01*
X65805241Y-66004996D01*
X65819511Y-65999604D01*
X65833788Y-65994230D01*
X65848072Y-65988876D01*
X65862362Y-65983540D01*
X65876660Y-65978223D01*
X65890965Y-65972924D01*
X65905277Y-65967645D01*
X65919596Y-65962384D01*
X65933921Y-65957142D01*
X65948254Y-65951918D01*
X65962593Y-65946714D01*
X65976939Y-65941528D01*
X65991292Y-65936361D01*
X66005651Y-65931213D01*
X66020018Y-65926084D01*
X66034391Y-65920974D01*
X66048771Y-65915882D01*
X66063157Y-65910810D01*
X66077550Y-65905756D01*
X66091950Y-65900721D01*
X66106356Y-65895705D01*
X66120769Y-65890708D01*
X66135188Y-65885729D01*
X66149614Y-65880770D01*
X66164046Y-65875830D01*
X66178485Y-65870908D01*
X66192931Y-65866006D01*
X66207382Y-65861122D01*
X66221840Y-65856257D01*
X66236304Y-65851412D01*
X66250775Y-65846585D01*
X66265252Y-65841777D01*
X66279736Y-65836989D01*
X66294225Y-65832219D01*
X66308722Y-65827468D01*
X66323223Y-65822736D01*
X66337732Y-65818024D01*
X66352246Y-65813330D01*
X66366767Y-65808655D01*
X66381294Y-65804000D01*
X66395827Y-65799363D01*
X66410365Y-65794745D01*
X66424911Y-65790147D01*
X66439461Y-65785568D01*
X66454019Y-65781007D01*
X66468581Y-65776466D01*
X66483151Y-65771944D01*
X66497725Y-65767441D01*
X66512306Y-65762957D01*
X66526892Y-65758492D01*
X66541485Y-65754047D01*
X66556083Y-65749620D01*
X66570688Y-65745213D01*
X66585297Y-65740824D01*
X66599913Y-65736455D01*
X66614534Y-65732105D01*
X66629162Y-65727775D01*
X66651193Y-65721291D01*
X65439280Y-29737546D02*
X62512995Y-29737546D01*
X63642437Y-67093213D02*
G75*
G02*
X22603093Y-47722339I-14455417J22533233D01*
G01*
X161486422Y-36450120D02*
G75*
G02*
X160056903Y-38404498I-1429522J-454380D01*
G01*
X125070829Y-28993553D02*
G75*
G02*
X122646976Y-29737551I-2423929J3576553D01*
G01*
X23673570Y-36450120D02*
G75*
G02*
X26721121Y-30000132I25512830J-8109580D01*
G01*
X122646976Y-29737545D02*
X119715016Y-29737546D01*
X155082166Y-28175564D02*
X127735745Y-28175564D01*
X125070829Y-28993553D02*
G75*
G02*
X127735745Y-28175536I2665071J-3932347D01*
G01*
D11*
G36*
X90407579Y-34229088D02*
G01*
X90407579Y-34229088D01*
G75*
G02*
X90407579Y-34229088I534004J0D01*
G01*
X90407579Y-34229088D01*
G37*
G36*
X93614446Y-27148723D02*
G01*
X93614446Y-27148723D01*
G75*
G02*
X93614446Y-27148723I375027J0D01*
G01*
X93614446Y-27148723D01*
G37*
D10*
X25534856Y-46045151D02*
X24083269Y-46045151D01*
X25534856Y-38404515D02*
G75*
G02*
X25534856Y-46045145I-6J-3820315D01*
G01*
X62512995Y-29737546D02*
G75*
G02*
X60089156Y-28993563I5J4320346D01*
G01*
X106650316Y-65251236D02*
X115234923Y-65251235D01*
X57424296Y-28175565D02*
G75*
G02*
X60089174Y-28993537I4J-4749935D01*
G01*
D11*
G36*
X149327304Y-60614606D02*
G01*
X149327304Y-60614606D01*
G75*
G02*
X149327304Y-60614606I534004J0D01*
G01*
X149327304Y-60614606D01*
G37*
D10*
X25103096Y-38404516D02*
X25534856Y-38404515D01*
X115715017Y-24754682D02*
G75*
G02*
X117715018Y-26754679I-17J-2000018D01*
G01*
X161067405Y-46045151D02*
X159625138Y-46045151D01*
X161067405Y-46045151D02*
G75*
G02*
X162556952Y-47722345I-5J-1500049D01*
G01*
D11*
G36*
X87475884Y-35788600D02*
G01*
X87475884Y-35788600D01*
G75*
G02*
X87475884Y-35788600I534004J0D01*
G01*
X87475884Y-35788600D01*
G37*
D10*
X115715017Y-24754682D02*
X101968722Y-24754682D01*
X162556902Y-47722339D02*
G75*
G02*
X121517555Y-67093212I-26583932J3162369D01*
G01*
X66651193Y-65721291D02*
X66680478Y-65712746D01*
X66709786Y-65704277D01*
X66739115Y-65695886D01*
X66768467Y-65687571D01*
X66797840Y-65679334D01*
X66827235Y-65671173D01*
X66856651Y-65663090D01*
X66886088Y-65655084D01*
X66915546Y-65647155D01*
X66945024Y-65639303D01*
X66974524Y-65631528D01*
X67004043Y-65623831D01*
X67033583Y-65616212D01*
X67063143Y-65608669D01*
X67092722Y-65601205D01*
X67122321Y-65593818D01*
X67151939Y-65586508D01*
X67181577Y-65579276D01*
X67211233Y-65572122D01*
X67240908Y-65565046D01*
X67270601Y-65558047D01*
X67300313Y-65551127D01*
X67330043Y-65544284D01*
X67359791Y-65537519D01*
X67389556Y-65530833D01*
X67419339Y-65524224D01*
X67449140Y-65517693D01*
X67478957Y-65511241D01*
X67508792Y-65504867D01*
X67538643Y-65498571D01*
X67568510Y-65492353D01*
X67598394Y-65486214D01*
X67628294Y-65480153D01*
X67658209Y-65474170D01*
X67688141Y-65468266D01*
X67718087Y-65462440D01*
X67748050Y-65456693D01*
X67778027Y-65451025D01*
X67808019Y-65445435D01*
X67838025Y-65439923D01*
X67868046Y-65434491D01*
X67898081Y-65429137D01*
X67928131Y-65423862D01*
X67958194Y-65418665D01*
X67988270Y-65413548D01*
X68018360Y-65408509D01*
X68048464Y-65403550D01*
X68078580Y-65398669D01*
X68108709Y-65393867D01*
X68138850Y-65389144D01*
X68169004Y-65384500D01*
X68199170Y-65379936D01*
X68229348Y-65375450D01*
X68259538Y-65371044D01*
X68289739Y-65366716D01*
X68304844Y-65364582D01*
X68319952Y-65362468D01*
X68335062Y-65360374D01*
X68350175Y-65358299D01*
X68365291Y-65356245D01*
X68380410Y-65354210D01*
X68395531Y-65352195D01*
X68410655Y-65350199D01*
X68425782Y-65348224D01*
X68440911Y-65346268D01*
X68456043Y-65344333D01*
X68471177Y-65342417D01*
X68486314Y-65340521D01*
X68501453Y-65338644D01*
X68516595Y-65336788D01*
X68531739Y-65334951D01*
X68546885Y-65333135D01*
X68562034Y-65331338D01*
X68577186Y-65329561D01*
X68592339Y-65327804D01*
X68607495Y-65326067D01*
X68622654Y-65324349D01*
X68637814Y-65322652D01*
X68652977Y-65320974D01*
X68668142Y-65319316D01*
X68683309Y-65317679D01*
X68698478Y-65316061D01*
X68713650Y-65314463D01*
X68728823Y-65312884D01*
X68743999Y-65311326D01*
X68759176Y-65309788D01*
X68774356Y-65308269D01*
X68789538Y-65306771D01*
X68804721Y-65305292D01*
X68819907Y-65303833D01*
X68835094Y-65302394D01*
X68850283Y-65300975D01*
X68865475Y-65299576D01*
X68880668Y-65298197D01*
X68895863Y-65296838D01*
X68911059Y-65295498D01*
X68926258Y-65294179D01*
X68941458Y-65292880D01*
X68956660Y-65291600D01*
X68971863Y-65290340D01*
X68987068Y-65289101D01*
X69002275Y-65287881D01*
X69017484Y-65286681D01*
X69032693Y-65285501D01*
X69047905Y-65284341D01*
X69063118Y-65283201D01*
X69078333Y-65282081D01*
X69093549Y-65280981D01*
X69108766Y-65279901D01*
X69123985Y-65278841D01*
X69139205Y-65277801D01*
X69154427Y-65276780D01*
X69169650Y-65275780D01*
X69184874Y-65274800D01*
X69200100Y-65273839D01*
X69215327Y-65272899D01*
X69230555Y-65271978D01*
X69245784Y-65271078D01*
X69261015Y-65270197D01*
X69276246Y-65269337D01*
X69291479Y-65268496D01*
X69306713Y-65267675D01*
X69321948Y-65266875D01*
X69337184Y-65266094D01*
X69352421Y-65265333D01*
X69367659Y-65264593D01*
X69382898Y-65263872D01*
X69398138Y-65263171D01*
X69413379Y-65262490D01*
X69428621Y-65261829D01*
X69443864Y-65261189D01*
X69459107Y-65260568D01*
X69474352Y-65259967D01*
X69489597Y-65259386D01*
X69504843Y-65258825D01*
X69520089Y-65258284D01*
X69535337Y-65257763D01*
X69550585Y-65257262D01*
X69565834Y-65256781D01*
X69581083Y-65256320D01*
X69596333Y-65255879D01*
X69611584Y-65255458D01*
X69626835Y-65255057D01*
X69642087Y-65254676D01*
X69657339Y-65254315D01*
X69672592Y-65253974D01*
X69687845Y-65253653D01*
X69703098Y-65253352D01*
X69718353Y-65253071D01*
X69733607Y-65252810D01*
X69748862Y-65252569D01*
X69764117Y-65252348D01*
X69779372Y-65252147D01*
X69794628Y-65251966D01*
X69809884Y-65251805D01*
X69825140Y-65251664D01*
X69840397Y-65251543D01*
X69855653Y-65251442D01*
X69870910Y-65251361D01*
X69886166Y-65251300D01*
X69901424Y-65251259D01*
X69925069Y-65251235D01*
D11*
G36*
X92772302Y-28153184D02*
G01*
X92772302Y-28153184D01*
G75*
G02*
X92772302Y-28153184I375027J0D01*
G01*
X92772302Y-28153184D01*
G37*
D10*
X26721118Y-30000130D02*
G75*
G02*
X30077824Y-28175564I3356782J-2175570D01*
G01*
X155082166Y-28175564D02*
G75*
G02*
X158438835Y-30000155I34J-3999836D01*
G01*
X115234923Y-65251235D02*
X115265434Y-65251275D01*
X115295945Y-65251395D01*
X115326456Y-65251595D01*
X115356965Y-65251875D01*
X115387474Y-65252235D01*
X115417982Y-65252675D01*
X115448488Y-65253195D01*
X115478993Y-65253795D01*
X115509496Y-65254475D01*
X115539997Y-65255235D01*
X115570496Y-65256075D01*
X115600993Y-65256994D01*
X115631487Y-65257994D01*
X115661978Y-65259074D01*
X115692467Y-65260233D01*
X115722952Y-65261473D01*
X115753434Y-65262792D01*
X115783912Y-65264192D01*
X115814386Y-65265671D01*
X115844857Y-65267230D01*
X115875323Y-65268870D01*
X115905785Y-65270588D01*
X115936242Y-65272387D01*
X115966694Y-65274266D01*
X115997141Y-65276225D01*
X116027583Y-65278263D01*
X116058020Y-65280381D01*
X116088451Y-65282579D01*
X116118876Y-65284857D01*
X116149294Y-65287214D01*
X116179707Y-65289651D01*
X116210113Y-65292168D01*
X116240512Y-65294765D01*
X116270905Y-65297441D01*
X116301290Y-65300197D01*
X116331668Y-65303033D01*
X116362038Y-65305949D01*
X116392401Y-65308944D01*
X116422756Y-65312018D01*
X116453102Y-65315172D01*
X116483440Y-65318406D01*
X116513770Y-65321719D01*
X116544090Y-65325112D01*
X116574402Y-65328584D01*
X116604704Y-65332136D01*
X116634997Y-65335767D01*
X116665281Y-65339478D01*
X116695554Y-65343268D01*
X116725818Y-65347137D01*
X116756071Y-65351086D01*
X116786314Y-65355114D01*
X116816546Y-65359221D01*
X116846767Y-65363407D01*
X116876977Y-65367673D01*
X116892078Y-65369836D01*
X116907176Y-65372018D01*
X116922271Y-65374220D01*
X116937363Y-65376442D01*
X116952452Y-65378684D01*
X116967538Y-65380945D01*
X116982622Y-65383227D01*
X116997702Y-65385528D01*
X117012779Y-65387849D01*
X117027853Y-65390189D01*
X117042924Y-65392549D01*
X117057992Y-65394930D01*
X117073057Y-65397329D01*
X117088119Y-65399749D01*
X117103177Y-65402188D01*
X117118233Y-65404647D01*
X117133285Y-65407126D01*
X117148333Y-65409625D01*
X117163379Y-65412143D01*
X117178421Y-65414681D01*
X117193460Y-65417239D01*
X117208495Y-65419816D01*
X117223527Y-65422413D01*
X117238556Y-65425030D01*
X117253581Y-65427667D01*
X117268603Y-65430323D01*
X117283621Y-65432999D01*
X117298635Y-65435695D01*
X117313646Y-65438410D01*
X117328654Y-65441145D01*
X117343658Y-65443900D01*
X117358658Y-65446674D01*
X117373655Y-65449468D01*
X117388648Y-65452282D01*
X117403637Y-65455115D01*
X117418622Y-65457968D01*
X117433604Y-65460840D01*
X117448582Y-65463733D01*
X117463556Y-65466645D01*
X117478527Y-65469576D01*
X117493493Y-65472527D01*
X117508455Y-65475498D01*
X117523414Y-65478488D01*
X117538369Y-65481498D01*
X117553319Y-65484528D01*
X117568266Y-65487577D01*
X117583209Y-65490646D01*
X117598148Y-65493734D01*
X117613082Y-65496842D01*
X117628013Y-65499970D01*
X117642939Y-65503117D01*
X117657861Y-65506283D01*
X117672779Y-65509470D01*
X117687693Y-65512675D01*
X117702603Y-65515901D01*
X117717508Y-65519146D01*
X117732409Y-65522410D01*
X117747306Y-65525694D01*
X117762199Y-65528997D01*
X117777087Y-65532320D01*
X117791971Y-65535663D01*
X117806850Y-65539025D01*
X117821725Y-65542406D01*
X117836596Y-65545807D01*
X117851462Y-65549228D01*
X117866323Y-65552668D01*
X117881180Y-65556127D01*
X117896033Y-65559606D01*
X117910880Y-65563105D01*
X117925724Y-65566623D01*
X117940562Y-65570160D01*
X117955397Y-65573717D01*
X117970226Y-65577293D01*
X117985050Y-65580889D01*
X117999870Y-65584504D01*
X118014686Y-65588138D01*
X118029496Y-65591792D01*
X118044301Y-65595466D01*
X118059102Y-65599159D01*
X118073898Y-65602871D01*
X118088689Y-65606602D01*
X118103475Y-65610353D01*
X118118256Y-65614124D01*
X118133032Y-65617914D01*
X118147803Y-65621723D01*
X118162570Y-65625551D01*
X118177331Y-65629399D01*
X118192087Y-65633266D01*
X118206838Y-65637153D01*
X118221584Y-65641059D01*
X118236325Y-65644984D01*
X118251061Y-65648928D01*
X118265791Y-65652892D01*
X118280516Y-65656875D01*
X118295236Y-65660878D01*
X118309951Y-65664900D01*
X118324660Y-65668941D01*
X118339365Y-65673001D01*
X118354063Y-65677081D01*
X118368757Y-65681180D01*
X118383445Y-65685298D01*
X118398128Y-65689435D01*
X118412805Y-65693592D01*
X118427477Y-65697768D01*
X118442143Y-65701963D01*
X118456804Y-65706177D01*
X118471459Y-65710411D01*
X118486110Y-65714664D01*
X118508254Y-65721132D01*
X158438874Y-30000130D02*
G75*
G02*
X161486428Y-36450118I-22465474J-14559670D01*
G01*
X25103096Y-38404516D02*
G75*
G02*
X23673560Y-36450117I4J1500016D01*
G01*
X159625138Y-38404516D02*
X160056903Y-38404516D01*
X57424296Y-28175565D02*
X30077824Y-28175564D01*
X118508254Y-65721132D02*
X118537517Y-65729752D01*
X118566757Y-65738450D01*
X118595974Y-65747224D01*
X118625168Y-65756074D01*
X118654339Y-65765001D01*
X118683486Y-65774004D01*
X118712610Y-65783084D01*
X118741710Y-65792240D01*
X118770786Y-65801473D01*
X118799837Y-65810781D01*
X118828864Y-65820166D01*
X118857866Y-65829627D01*
X118886844Y-65839164D01*
X118915796Y-65848777D01*
X118944723Y-65858466D01*
X118973625Y-65868230D01*
X119002501Y-65878071D01*
X119031351Y-65887987D01*
X119060175Y-65897979D01*
X119088973Y-65908046D01*
X119117744Y-65918189D01*
X119146489Y-65928407D01*
X119175207Y-65938701D01*
X119203898Y-65949070D01*
X119232561Y-65959514D01*
X119261198Y-65970033D01*
X119289806Y-65980627D01*
X119318387Y-65991297D01*
X119346940Y-66002041D01*
X119375465Y-66012860D01*
X119403961Y-66023754D01*
X119432428Y-66034723D01*
X119460867Y-66045766D01*
X119489277Y-66056884D01*
X119517658Y-66068076D01*
X119546009Y-66079343D01*
X119574331Y-66090684D01*
X119602623Y-66102100D01*
X119630885Y-66113589D01*
X119659117Y-66125153D01*
X119687319Y-66136791D01*
X119715490Y-66148502D01*
X119743630Y-66160288D01*
X119771739Y-66172147D01*
X119799818Y-66184080D01*
X119827865Y-66196086D01*
X119855880Y-66208166D01*
X119883864Y-66220320D01*
X119911816Y-66232547D01*
X119939735Y-66244847D01*
X119967623Y-66257220D01*
X119995478Y-66269667D01*
X120023300Y-66282186D01*
X120051090Y-66294779D01*
X120078846Y-66307444D01*
X120092712Y-66313804D01*
X120106569Y-66320182D01*
X120120419Y-66326579D01*
X120134259Y-66332993D01*
X120148092Y-66339426D01*
X120161915Y-66345876D01*
X120175731Y-66352345D01*
X120189538Y-66358832D01*
X120203336Y-66365337D01*
X120217126Y-66371860D01*
X120230907Y-66378402D01*
X120244680Y-66384961D01*
X120258444Y-66391538D01*
X120272200Y-66398134D01*
X120285947Y-66404747D01*
X120299685Y-66411379D01*
X120313415Y-66418028D01*
X120327136Y-66424696D01*
X120340848Y-66431381D01*
X120354551Y-66438085D01*
X120368246Y-66444806D01*
X120381932Y-66451546D01*
X120395608Y-66458303D01*
X120409277Y-66465078D01*
X120422936Y-66471872D01*
X120436586Y-66478683D01*
X120450227Y-66485512D01*
X120463860Y-66492359D01*
X120477483Y-66499223D01*
X120491098Y-66506106D01*
X120504703Y-66513007D01*
X120518300Y-66519925D01*
X120531887Y-66526861D01*
X120545465Y-66533815D01*
X120559034Y-66540787D01*
X120572594Y-66547776D01*
X120586145Y-66554784D01*
X120599687Y-66561809D01*
X120613219Y-66568852D01*
X120626742Y-66575912D01*
X120640256Y-66582991D01*
X120653761Y-66590087D01*
X120667256Y-66597201D01*
X120680742Y-66604332D01*
X120694219Y-66611481D01*
X120707686Y-66618648D01*
X120721144Y-66625832D01*
X120734593Y-66633035D01*
X120748032Y-66640254D01*
X120761462Y-66647492D01*
X120774882Y-66654747D01*
X120788292Y-66662019D01*
X120801693Y-66669309D01*
X120815085Y-66676617D01*
X120828467Y-66683942D01*
X120841839Y-66691285D01*
X120855202Y-66698646D01*
X120868555Y-66706024D01*
X120881898Y-66713419D01*
X120895232Y-66720832D01*
X120908556Y-66728262D01*
X120921871Y-66735710D01*
X120935175Y-66743175D01*
X120948470Y-66750658D01*
X120961755Y-66758158D01*
X120975030Y-66765676D01*
X120988295Y-66773211D01*
X121001551Y-66780764D01*
X121014796Y-66788333D01*
X121028032Y-66795921D01*
X121041257Y-66803525D01*
X121054473Y-66811147D01*
X121067678Y-66818786D01*
X121080874Y-66826443D01*
X121094060Y-66834116D01*
X121107236Y-66841808D01*
X121120401Y-66849516D01*
X121133556Y-66857242D01*
X121146702Y-66864984D01*
X121159837Y-66872745D01*
X121172962Y-66880522D01*
X121186077Y-66888317D01*
X121199181Y-66896128D01*
X121212276Y-66903957D01*
X121225359Y-66911803D01*
X121238433Y-66919667D01*
X121251497Y-66927547D01*
X121264550Y-66935445D01*
X121277593Y-66943359D01*
X121290626Y-66951291D01*
X121303647Y-66959240D01*
X121316659Y-66967206D01*
X121329660Y-66975189D01*
X121342651Y-66983189D01*
X121355631Y-66991206D01*
X121368602Y-66999240D01*
X121381561Y-67007291D01*
X121394510Y-67015360D01*
X121407448Y-67023445D01*
X121420375Y-67031547D01*
X121433292Y-67039666D01*
X121446199Y-67047802D01*
X121459094Y-67055955D01*
X121471980Y-67064125D01*
X121484854Y-67072312D01*
X121497718Y-67080515D01*
X121517555Y-67093213D01*
D12*
%TO.C,U4*%
X87045400Y-47804610D02*
X86665399Y-47804610D01*
X86665399Y-47064610D01*
X87045399Y-47064609D01*
X87045400Y-47804610D01*
G36*
X87045400Y-47804610D02*
G01*
X86665399Y-47804610D01*
X86665399Y-47064610D01*
X87045399Y-47064609D01*
X87045400Y-47804610D01*
G37*
X87045399Y-45004611D02*
X86665399Y-45004610D01*
X86665399Y-44264610D01*
X87045400Y-44264610D01*
X87045399Y-45004611D01*
G36*
X87045399Y-45004611D02*
G01*
X86665399Y-45004610D01*
X86665399Y-44264610D01*
X87045400Y-44264610D01*
X87045399Y-45004611D01*
G37*
X87545399Y-45004610D02*
X87165399Y-45004610D01*
X87165399Y-44264610D01*
X87545399Y-44264610D01*
X87545399Y-45004610D01*
G36*
X87545399Y-45004610D02*
G01*
X87165399Y-45004610D01*
X87165399Y-44264610D01*
X87545399Y-44264610D01*
X87545399Y-45004610D01*
G37*
X87545399Y-47804610D02*
X87165399Y-47804610D01*
X87165399Y-47064610D01*
X87545399Y-47064610D01*
X87545399Y-47804610D01*
G36*
X87545399Y-47804610D02*
G01*
X87165399Y-47804610D01*
X87165399Y-47064610D01*
X87545399Y-47064610D01*
X87545399Y-47804610D01*
G37*
X88045399Y-45004610D02*
X87665399Y-45004610D01*
X87665399Y-44264610D01*
X88045399Y-44264610D01*
X88045399Y-45004610D01*
G36*
X88045399Y-45004610D02*
G01*
X87665399Y-45004610D01*
X87665399Y-44264610D01*
X88045399Y-44264610D01*
X88045399Y-45004610D01*
G37*
X88045399Y-47804610D02*
X87665399Y-47804610D01*
X87665399Y-47064610D01*
X88045399Y-47064610D01*
X88045399Y-47804610D01*
G36*
X88045399Y-47804610D02*
G01*
X87665399Y-47804610D01*
X87665399Y-47064610D01*
X88045399Y-47064610D01*
X88045399Y-47804610D01*
G37*
X88545399Y-45004610D02*
X88165399Y-45004610D01*
X88165399Y-44264610D01*
X88545399Y-44264610D01*
X88545399Y-45004610D01*
G36*
X88545399Y-45004610D02*
G01*
X88165399Y-45004610D01*
X88165399Y-44264610D01*
X88545399Y-44264610D01*
X88545399Y-45004610D01*
G37*
X88545399Y-47804610D02*
X88165399Y-47804610D01*
X88165399Y-47064610D01*
X88545399Y-47064610D01*
X88545399Y-47804610D01*
G36*
X88545399Y-47804610D02*
G01*
X88165399Y-47804610D01*
X88165399Y-47064610D01*
X88545399Y-47064610D01*
X88545399Y-47804610D01*
G37*
X89045399Y-45004610D02*
X88665399Y-45004611D01*
X88665398Y-44264610D01*
X89045399Y-44264610D01*
X89045399Y-45004610D01*
G36*
X89045399Y-45004610D02*
G01*
X88665399Y-45004611D01*
X88665398Y-44264610D01*
X89045399Y-44264610D01*
X89045399Y-45004610D01*
G37*
X89045399Y-47064610D02*
X89045399Y-47804610D01*
X88665398Y-47804610D01*
X88665399Y-47064609D01*
X89045399Y-47064610D01*
G36*
X89045399Y-47064610D02*
G01*
X89045399Y-47804610D01*
X88665398Y-47804610D01*
X88665399Y-47064609D01*
X89045399Y-47064610D01*
G37*
X89125399Y-45589610D02*
X89625399Y-45589609D01*
X89625399Y-45979610D01*
X89125399Y-45979611D01*
X89125399Y-46089609D01*
X89625399Y-46089610D01*
X89625399Y-46479611D01*
X89125399Y-46479610D01*
X89125399Y-46929610D01*
X86585399Y-46929610D01*
X86585399Y-46479610D01*
X86085399Y-46479611D01*
X86085399Y-46089610D01*
X86585399Y-46089609D01*
X86585399Y-45979611D01*
X86085399Y-45979610D01*
X86085399Y-45589609D01*
X86585399Y-45589610D01*
X86585399Y-45139610D01*
X89125399Y-45139610D01*
X89125399Y-45589610D01*
G36*
X89125399Y-45589610D02*
G01*
X89625399Y-45589609D01*
X89625399Y-45979610D01*
X89125399Y-45979611D01*
X89125399Y-46089609D01*
X89625399Y-46089610D01*
X89625399Y-46479611D01*
X89125399Y-46479610D01*
X89125399Y-46929610D01*
X86585399Y-46929610D01*
X86585399Y-46479610D01*
X86085399Y-46479611D01*
X86085399Y-46089610D01*
X86585399Y-46089609D01*
X86585399Y-45979611D01*
X86085399Y-45979610D01*
X86085399Y-45589609D01*
X86585399Y-45589610D01*
X86585399Y-45139610D01*
X89125399Y-45139610D01*
X89125399Y-45589610D01*
G37*
D13*
%TO.C,REF\u002A\u002A*%
X49689470Y-61194838D02*
X50643425Y-61194838D01*
X50643425Y-61864207D01*
X49056811Y-61864207D01*
X49056811Y-59311035D01*
X49689470Y-59311035D01*
X49689470Y-61194838D01*
G36*
X49689470Y-61194838D02*
G01*
X50643425Y-61194838D01*
X50643425Y-61864207D01*
X49056811Y-61864207D01*
X49056811Y-59311035D01*
X49689470Y-59311035D01*
X49689470Y-61194838D01*
G37*
X46923336Y-61864207D02*
X46242475Y-61864207D01*
X46242475Y-60896085D01*
X46002819Y-60896085D01*
X46002819Y-61864207D01*
X45317519Y-61864207D01*
X45317519Y-59311555D01*
X46000533Y-59311035D01*
X46000533Y-60233837D01*
X46242475Y-60233837D01*
X46242475Y-59311035D01*
X46923336Y-59311035D01*
X46923336Y-61864207D01*
G36*
X46923336Y-61864207D02*
G01*
X46242475Y-61864207D01*
X46242475Y-60896085D01*
X46002819Y-60896085D01*
X46002819Y-61864207D01*
X45317519Y-61864207D01*
X45317519Y-59311555D01*
X46000533Y-59311035D01*
X46000533Y-60233837D01*
X46242475Y-60233837D01*
X46242475Y-59311035D01*
X46923336Y-59311035D01*
X46923336Y-61864207D01*
G37*
X48773336Y-61864207D02*
X48092475Y-61864207D01*
X48092475Y-60896085D01*
X47852819Y-60896085D01*
X47852819Y-61864207D01*
X47167519Y-61864207D01*
X47167519Y-59311555D01*
X47850533Y-59311035D01*
X47850533Y-60233837D01*
X48092475Y-60233837D01*
X48092475Y-59311035D01*
X48773336Y-59311035D01*
X48773336Y-61864207D01*
G36*
X48773336Y-61864207D02*
G01*
X48092475Y-61864207D01*
X48092475Y-60896085D01*
X47852819Y-60896085D01*
X47852819Y-61864207D01*
X47167519Y-61864207D01*
X47167519Y-59311555D01*
X47850533Y-59311035D01*
X47850533Y-60233837D01*
X48092475Y-60233837D01*
X48092475Y-59311035D01*
X48773336Y-59311035D01*
X48773336Y-61864207D01*
G37*
%TD*%
D14*
%TO.C,U12*%
X40225406Y-45660364D03*
X42025406Y-45660364D03*
X42025406Y-43385364D03*
X41125406Y-43385364D03*
X40225406Y-43385364D03*
%TD*%
%TO.C,U14*%
X56441185Y-45660364D03*
X58241185Y-45660364D03*
X58241185Y-43385364D03*
X57341185Y-43385364D03*
X56441185Y-43385364D03*
%TD*%
D15*
%TO.C,U7*%
X88514900Y-33006400D03*
D16*
X89052400Y-33081400D03*
D15*
X89589900Y-33006400D03*
X89589900Y-31306400D03*
D16*
X89052400Y-31231400D03*
D15*
X88514900Y-31306400D03*
%TD*%
D17*
%TO.C,RGB13*%
X138942305Y-62710883D03*
X139612305Y-62710883D03*
X139612305Y-62040883D03*
X138942305Y-62040883D03*
%TD*%
%TO.C,RGB14*%
X144522504Y-62569210D03*
X145192504Y-62569210D03*
X145192504Y-61899210D03*
X144522504Y-61899210D03*
%TD*%
D18*
%TO.C,R33*%
X94297098Y-35862098D03*
X94297098Y-35222098D03*
%TD*%
D19*
%TO.C,C15*%
X106029800Y-36906200D03*
X106669800Y-36906200D03*
%TD*%
D20*
%TO.C,L2*%
X84378800Y-36347299D03*
X84378800Y-37922301D03*
%TD*%
D21*
%TO.C,U11*%
X116280175Y-40344746D03*
X116280175Y-38544746D03*
X114005175Y-38544746D03*
X114005175Y-39444746D03*
X114005175Y-40344746D03*
%TD*%
D19*
%TO.C,R30*%
X86054899Y-48405210D03*
X86694899Y-48405210D03*
%TD*%
D22*
%TO.C,C17*%
X97891600Y-48397200D03*
X97891600Y-49037200D03*
%TD*%
D23*
%TO.C,C32*%
X51729600Y-54762400D03*
X51089600Y-54762400D03*
%TD*%
D24*
%TO.C,C1*%
X103465300Y-36220400D03*
X104425300Y-36220400D03*
%TD*%
D23*
%TO.C,R1*%
X106424300Y-36144200D03*
X105784300Y-36144200D03*
%TD*%
D21*
%TO.C,U16*%
X152899592Y-51862961D03*
X152899592Y-50062961D03*
X150624592Y-50062961D03*
X150624592Y-50962961D03*
X150624592Y-51862961D03*
%TD*%
D19*
%TO.C,R29*%
X75981600Y-45057400D03*
X76621600Y-45057400D03*
%TD*%
D18*
%TO.C,C12*%
X100152200Y-36616600D03*
X100152200Y-35976600D03*
%TD*%
%TO.C,C35*%
X154228800Y-51272400D03*
X154228800Y-50632400D03*
%TD*%
%TO.C,C28*%
X121437400Y-55819000D03*
X121437400Y-55179000D03*
%TD*%
D17*
%TO.C,RGB4*%
X54456185Y-44857864D03*
X55126185Y-44857864D03*
X55126185Y-44187864D03*
X54456185Y-44187864D03*
%TD*%
D24*
%TO.C,C2*%
X103465300Y-35306000D03*
X104425300Y-35306000D03*
%TD*%
D23*
%TO.C,R24*%
X78094800Y-45057399D03*
X77454800Y-45057399D03*
%TD*%
D25*
%TO.C,L3*%
X86798499Y-42233010D03*
X88948499Y-42233010D03*
%TD*%
D21*
%TO.C,U2*%
X136000737Y-51803183D03*
X136000737Y-50003183D03*
X133725737Y-50003183D03*
X133725737Y-50903183D03*
X133725737Y-51803183D03*
%TD*%
D17*
%TO.C,RGB3*%
X48898296Y-50415754D03*
X49568296Y-50415754D03*
X49568296Y-49745754D03*
X48898296Y-49745754D03*
%TD*%
D21*
%TO.C,U9*%
X120133166Y-56407211D03*
X120133166Y-54607211D03*
X117858166Y-54607211D03*
X117858166Y-55507211D03*
X117858166Y-56407211D03*
%TD*%
D26*
%TO.C,C24*%
X86131400Y-33178700D03*
X86131400Y-30473700D03*
%TD*%
D27*
%TO.C,D1*%
X86156800Y-37871400D03*
X86156800Y-35371402D03*
%TD*%
D23*
%TO.C,R10*%
X95366800Y-41300400D03*
X94726800Y-41300400D03*
%TD*%
D28*
%TO.C,P1*%
X68767000Y-30492400D03*
X68767000Y-31992400D03*
X68767000Y-33492400D03*
X68767000Y-34992400D03*
X68767000Y-36492400D03*
X68767000Y-37992400D03*
X68767000Y-39492400D03*
D29*
X71017000Y-40792400D03*
X72517000Y-40792400D03*
X74017000Y-40792400D03*
X75517000Y-40792400D03*
X77017000Y-40792400D03*
X78517000Y-40792400D03*
X80017000Y-40792400D03*
D28*
X82267000Y-39492400D03*
X82267000Y-37992400D03*
X82267000Y-36492400D03*
X82267000Y-34992400D03*
X82267000Y-33492400D03*
X82267000Y-31992400D03*
X82267000Y-30492400D03*
%TD*%
D23*
%TO.C,C20*%
X75783401Y-49532200D03*
X75143401Y-49532200D03*
%TD*%
D19*
%TO.C,R19*%
X106410800Y-43408600D03*
X107050800Y-43408600D03*
%TD*%
D30*
%TO.C,TP2*%
X88163188Y-26761414D03*
%TD*%
D19*
%TO.C,C33*%
X56423600Y-46990000D03*
X57063600Y-46990000D03*
%TD*%
D23*
%TO.C,C21*%
X77180400Y-49530000D03*
X76540400Y-49530000D03*
%TD*%
D31*
%TO.C,SW6*%
X90776272Y-57200886D03*
X84976272Y-57200886D03*
X90776272Y-53200886D03*
X84976272Y-53200886D03*
%TD*%
D32*
%TO.C,IC1*%
X77096900Y-46788600D03*
X77096899Y-47288600D03*
X77096900Y-47788600D03*
X76596900Y-46788601D03*
X76596900Y-47288600D03*
X76596900Y-47788599D03*
X76096900Y-46788600D03*
X76096901Y-47288600D03*
X76096900Y-47788600D03*
%TD*%
D21*
%TO.C,U13*%
X50370796Y-53530754D03*
X50370796Y-51730754D03*
X48095796Y-51730754D03*
X48095796Y-52630754D03*
X48095796Y-53530754D03*
%TD*%
D18*
%TO.C,R21*%
X64414400Y-40071000D03*
X64414400Y-39431000D03*
%TD*%
D17*
%TO.C,RGB7*%
X147574101Y-37985498D03*
X148244101Y-37985498D03*
X148244101Y-37315498D03*
X147574101Y-37315498D03*
%TD*%
D23*
%TO.C,R11*%
X59959200Y-56591200D03*
X59319200Y-56591200D03*
%TD*%
D18*
%TO.C,C30*%
X117678200Y-40096400D03*
X117678200Y-39456400D03*
%TD*%
D33*
%TO.C,L1*%
X102836300Y-33756600D03*
X104236300Y-33756600D03*
%TD*%
D34*
%TO.C,SW9*%
X96998400Y-30791200D03*
X96998400Y-31591200D03*
X99648400Y-30791200D03*
X99648400Y-31591200D03*
%TD*%
D18*
%TO.C,C29*%
X133451600Y-34584600D03*
X133451600Y-33944600D03*
%TD*%
D19*
%TO.C,R2*%
X100805900Y-46887200D03*
X101445900Y-46887200D03*
%TD*%
%TO.C,R18*%
X106410800Y-42672000D03*
X107050800Y-42672000D03*
%TD*%
D18*
%TO.C,C18*%
X137337800Y-51130200D03*
X137337800Y-50490200D03*
%TD*%
D35*
%TO.C,C6*%
X106381100Y-35280600D03*
X105421100Y-35280600D03*
%TD*%
D31*
%TO.C,SW2*%
X104776272Y-57200886D03*
X98976272Y-57200886D03*
X104776272Y-53200886D03*
X98976272Y-53200886D03*
%TD*%
D17*
%TO.C,RGB9*%
X134528237Y-53988183D03*
X135198237Y-53988183D03*
X135198237Y-53318183D03*
X134528237Y-53318183D03*
%TD*%
D22*
%TO.C,R5*%
X78867000Y-47432000D03*
X78867000Y-48072000D03*
%TD*%
D36*
%TO.C,U5*%
X81870601Y-45326401D03*
X82270599Y-45326401D03*
X81870600Y-45726401D03*
X82270600Y-45726401D03*
X81870600Y-46126401D03*
X82270600Y-46126401D03*
X81870601Y-46526401D03*
X82270599Y-46526401D03*
%TD*%
D18*
%TO.C,C34*%
X150368000Y-35727600D03*
X150368000Y-35087600D03*
%TD*%
%TO.C,R34*%
X90273699Y-38260101D03*
X90273699Y-37620101D03*
%TD*%
D21*
%TO.C,U3*%
X48095796Y-37314975D03*
X48095796Y-36414975D03*
X48095796Y-35514975D03*
X50370796Y-35514975D03*
X50370796Y-37314975D03*
%TD*%
D17*
%TO.C,RGB6*%
X130675247Y-37925718D03*
X131345247Y-37925718D03*
X131345247Y-37255718D03*
X130675247Y-37255718D03*
%TD*%
D19*
%TO.C,C14*%
X106029800Y-37642800D03*
X106669800Y-37642800D03*
%TD*%
D23*
%TO.C,R22*%
X96160400Y-39065200D03*
X95520400Y-39065200D03*
%TD*%
D31*
%TO.C,SW5*%
X77151271Y-57200886D03*
X71351271Y-57200886D03*
X77151271Y-53200886D03*
X71351271Y-53200886D03*
%TD*%
D19*
%TO.C,C26*%
X86054899Y-49167210D03*
X86694899Y-49167210D03*
%TD*%
%TO.C,C22*%
X82258601Y-44453200D03*
X82898601Y-44453200D03*
%TD*%
D37*
%TO.C,U6*%
X98259000Y-28502000D03*
D38*
X98334000Y-27964500D03*
D37*
X98259000Y-27427000D03*
X96559000Y-27427000D03*
D38*
X96484000Y-27964500D03*
D37*
X96559000Y-28502000D03*
%TD*%
D18*
%TO.C,R31*%
X94312298Y-38310900D03*
X94312298Y-37670900D03*
%TD*%
D39*
%TO.C,Y1*%
X100174300Y-48301800D03*
X100174300Y-50501800D03*
X101874300Y-50501800D03*
X101874300Y-48301800D03*
%TD*%
D40*
%TO.C,D3*%
X91053600Y-41198800D03*
X93553600Y-41198800D03*
%TD*%
D23*
%TO.C,C9*%
X94909600Y-43408600D03*
X94269600Y-43408600D03*
%TD*%
D22*
%TO.C,R17*%
X108077000Y-46908800D03*
X108077000Y-47548800D03*
%TD*%
%TO.C,R6*%
X101151300Y-33411200D03*
X101151300Y-34051200D03*
%TD*%
D17*
%TO.C,RGB11*%
X128019171Y-64924156D03*
X128689171Y-64924156D03*
X128689171Y-64254156D03*
X128019171Y-64254156D03*
%TD*%
D41*
%TO.C,C3*%
X98763700Y-48116800D03*
X98763700Y-49076800D03*
%TD*%
D31*
%TO.C,SW8*%
X95526272Y-63700886D03*
X89726272Y-63700886D03*
X95526272Y-59700886D03*
X89726272Y-59700886D03*
%TD*%
D19*
%TO.C,C31*%
X40015200Y-46990000D03*
X40655200Y-46990000D03*
%TD*%
D22*
%TO.C,R15*%
X95275400Y-47584400D03*
X95275400Y-48224400D03*
%TD*%
D18*
%TO.C,C13*%
X100914200Y-36616600D03*
X100914200Y-35976600D03*
%TD*%
D17*
%TO.C,RGB10*%
X118660666Y-58592211D03*
X119330666Y-58592211D03*
X119330666Y-57922211D03*
X118660666Y-57922211D03*
%TD*%
D22*
%TO.C,R4*%
X79832200Y-44384000D03*
X79832200Y-45024000D03*
%TD*%
D23*
%TO.C,R9*%
X96160400Y-38354000D03*
X95520400Y-38354000D03*
%TD*%
D19*
%TO.C,C16*%
X104201000Y-46431200D03*
X104841000Y-46431200D03*
%TD*%
D30*
%TO.C,TP1*%
X94335600Y-31597600D03*
%TD*%
D24*
%TO.C,C7*%
X101297800Y-45999400D03*
X102257800Y-45999400D03*
%TD*%
D31*
%TO.C,SW7*%
X81901273Y-63700886D03*
X76101273Y-63700886D03*
X81901273Y-59700886D03*
X76101273Y-59700886D03*
%TD*%
D18*
%TO.C,R37*%
X91338400Y-28183800D03*
X91338400Y-27543800D03*
%TD*%
D15*
%TO.C,U8*%
X90775500Y-33006400D03*
D16*
X91313000Y-33081400D03*
D15*
X91850500Y-33006400D03*
X91850500Y-31306400D03*
D16*
X91313000Y-31231400D03*
D15*
X90775500Y-31306400D03*
%TD*%
D22*
%TO.C,R35*%
X90273699Y-39093300D03*
X90273699Y-39733300D03*
%TD*%
D19*
%TO.C,R27*%
X81903000Y-47399600D03*
X82543000Y-47399600D03*
%TD*%
D18*
%TO.C,C19*%
X52019200Y-36108600D03*
X52019200Y-35468600D03*
%TD*%
D21*
%TO.C,U15*%
X149046601Y-35800498D03*
X149046601Y-34000498D03*
X146771601Y-34000498D03*
X146771601Y-34900498D03*
X146771601Y-35800498D03*
%TD*%
D23*
%TO.C,R23*%
X96160400Y-39776400D03*
X95520400Y-39776400D03*
%TD*%
D42*
%TO.C,Q1*%
X93230298Y-39377500D03*
X93230297Y-38727500D03*
X93230298Y-38077500D03*
X91330298Y-38077500D03*
X91330299Y-38727500D03*
X91330298Y-39377500D03*
%TD*%
D22*
%TO.C,R3*%
X104165400Y-49032200D03*
X104165400Y-49672200D03*
%TD*%
D17*
%TO.C,RGB2*%
X43340406Y-44857864D03*
X44010406Y-44857864D03*
X44010406Y-44187864D03*
X43340406Y-44187864D03*
%TD*%
D43*
%TO.C,C4*%
X103284900Y-50746600D03*
X103284900Y-49786600D03*
%TD*%
D22*
%TO.C,R38*%
X99466400Y-25461000D03*
X99466400Y-26101000D03*
%TD*%
D21*
%TO.C,U10*%
X132147747Y-35740718D03*
X132147747Y-33940718D03*
X129872747Y-33940718D03*
X129872747Y-34840718D03*
X129872747Y-35740718D03*
%TD*%
D19*
%TO.C,R26*%
X73898800Y-42519600D03*
X74538800Y-42519600D03*
%TD*%
%TO.C,R20*%
X106055200Y-41910000D03*
X106695200Y-41910000D03*
%TD*%
D17*
%TO.C,RGB8*%
X151427092Y-54047961D03*
X152097092Y-54047961D03*
X152097092Y-53377961D03*
X151427092Y-53377961D03*
%TD*%
D42*
%TO.C,Q2*%
X93225298Y-36511898D03*
X93225297Y-35861898D03*
X93225298Y-35211898D03*
X91325298Y-35211898D03*
X91325299Y-35861898D03*
X91325298Y-36511898D03*
%TD*%
D19*
%TO.C,C10*%
X106827800Y-41173400D03*
X107467800Y-41173400D03*
%TD*%
D40*
%TO.C,D4*%
X80622800Y-48771200D03*
X83122798Y-48771200D03*
%TD*%
D18*
%TO.C,C11*%
X96113600Y-37531000D03*
X96113600Y-36891000D03*
%TD*%
D22*
%TO.C,R16*%
X107315000Y-46924000D03*
X107315000Y-47564000D03*
%TD*%
D17*
%TO.C,RGB12*%
X133416283Y-63499420D03*
X134086283Y-63499420D03*
X134086283Y-62829420D03*
X133416283Y-62829420D03*
%TD*%
%TO.C,RGB5*%
X114807675Y-42529746D03*
X115477675Y-42529746D03*
X115477675Y-41859746D03*
X114807675Y-41859746D03*
%TD*%
D44*
%TO.C,C25*%
X84876299Y-46739009D03*
X84876299Y-44839011D03*
%TD*%
D22*
%TO.C,R7*%
X101862500Y-33411200D03*
X101862500Y-34051200D03*
%TD*%
D44*
%TO.C,C27*%
X90845299Y-47221609D03*
X90845299Y-45321611D03*
%TD*%
D23*
%TO.C,C8*%
X95366800Y-40538400D03*
X94726800Y-40538400D03*
%TD*%
D22*
%TO.C,R12*%
X93268800Y-45120600D03*
X93268800Y-45760600D03*
%TD*%
D17*
%TO.C,RGB1*%
X48898296Y-39299975D03*
X49568296Y-39299975D03*
X49568296Y-38629975D03*
X48898296Y-38629975D03*
%TD*%
D19*
%TO.C,C5*%
X106817200Y-40411400D03*
X107457200Y-40411400D03*
%TD*%
D22*
%TO.C,R14*%
X96037400Y-47584400D03*
X96037400Y-48224400D03*
%TD*%
%TO.C,R32*%
X94312298Y-39128900D03*
X94312298Y-39768900D03*
%TD*%
%TO.C,R13*%
X92506800Y-45120600D03*
X92506800Y-45760600D03*
%TD*%
D45*
%TO.C,J1*%
X114864400Y-27432000D03*
D46*
X112864399Y-27432000D03*
X110864400Y-27432000D03*
X108864400Y-27432000D03*
%TD*%
D47*
%TO.C,U1*%
X97705300Y-38430800D03*
D48*
X97705300Y-38830800D03*
X97705300Y-39230800D03*
X97705300Y-39630800D03*
X97705300Y-40030800D03*
X97705300Y-40430800D03*
X97705300Y-40830800D03*
X97705300Y-41230800D03*
X97705300Y-41630800D03*
X97705300Y-42030800D03*
X97705300Y-42430800D03*
X97705300Y-42830800D03*
X97705300Y-43230800D03*
X97705300Y-43630800D03*
D49*
X97705300Y-44030800D03*
D50*
X98342800Y-44668300D03*
D51*
X98742800Y-44668300D03*
X99142800Y-44668300D03*
X99542800Y-44668300D03*
X99942800Y-44668300D03*
X100342800Y-44668300D03*
X100742800Y-44668300D03*
X101142800Y-44668300D03*
X101542800Y-44668300D03*
X101942800Y-44668300D03*
X102342800Y-44668300D03*
X102742800Y-44668300D03*
X103142800Y-44668300D03*
X103542800Y-44668300D03*
D52*
X103942800Y-44668300D03*
D53*
X104580300Y-44030800D03*
D48*
X104580300Y-43630800D03*
X104580300Y-43230800D03*
X104580300Y-42830800D03*
X104580300Y-42430800D03*
X104580300Y-42030800D03*
X104580300Y-41630800D03*
X104580300Y-41230800D03*
X104580300Y-40830800D03*
X104580300Y-40430800D03*
X104580300Y-40030800D03*
X104580300Y-39630800D03*
X104580300Y-39230800D03*
X104580300Y-38830800D03*
D54*
X104580300Y-38430800D03*
D55*
X103942800Y-37793300D03*
D51*
X103542800Y-37793300D03*
X103142800Y-37793300D03*
X102742800Y-37793300D03*
X102342800Y-37793300D03*
X101942800Y-37793300D03*
X101542800Y-37793300D03*
X101142800Y-37793300D03*
X100742800Y-37793300D03*
X100342800Y-37793300D03*
X99942800Y-37793300D03*
X99542800Y-37793300D03*
X99142800Y-37793300D03*
X98742800Y-37793300D03*
D56*
X98342800Y-37793300D03*
D57*
X101142800Y-41230800D03*
%TD*%
D19*
%TO.C,R25*%
X76743600Y-44295400D03*
X77383600Y-44295400D03*
%TD*%
D22*
%TO.C,R28*%
X66979800Y-36494800D03*
X66979800Y-37134800D03*
%TD*%
D18*
%TO.C,R36*%
X90258498Y-35862099D03*
X90258498Y-35222099D03*
%TD*%
D58*
%TO.C,J6*%
X65846800Y-50823600D03*
D59*
X67096799Y-50823600D03*
%TD*%
D60*
%TO.C,J3*%
X89002599Y-23343800D03*
D61*
X96202599Y-23343800D03*
D62*
X95402599Y-22693800D03*
X95002599Y-21993800D03*
X94202599Y-21993800D03*
X93802599Y-22693800D03*
X93402599Y-21993801D03*
X93002599Y-22693800D03*
X92202599Y-22693800D03*
X91802599Y-21993801D03*
X91402599Y-22693800D03*
X91002599Y-21993800D03*
X90202599Y-21993800D03*
X89802599Y-22693800D03*
D63*
X88472599Y-22103800D03*
X96732599Y-22103800D03*
X97092598Y-17703800D03*
X88112600Y-17703800D03*
%TD*%
M02*
