%TF.GenerationSoftware,KiCad,Pcbnew,9.0.6-rc2*%
%TF.CreationDate,2026-01-04T16:19:21-08:00*%
%TF.ProjectId,FPCJr_Trigger_Board,4650434a-725f-4547-9269-676765725f42,rev?*%
%TF.SameCoordinates,Original*%
%TF.FileFunction,Copper,L2,Bot*%
%TF.FilePolarity,Positive*%
%FSLAX46Y46*%
G04 Gerber Fmt 4.6, Leading zero omitted, Abs format (unit mm)*
G04 Created by KiCad (PCBNEW 9.0.6-rc2) date 2026-01-04 16:19:21*
%MOMM*%
%LPD*%
G01*
G04 APERTURE LIST*
G04 Aperture macros list*
%AMRoundRect*
0 Rectangle with rounded corners*
0 $1 Rounding radius*
0 $2 $3 $4 $5 $6 $7 $8 $9 X,Y pos of 4 corners*
0 Add a 4 corners polygon primitive as box body*
4,1,4,$2,$3,$4,$5,$6,$7,$8,$9,$2,$3,0*
0 Add four circle primitives for the rounded corners*
1,1,$1+$1,$2,$3*
1,1,$1+$1,$4,$5*
1,1,$1+$1,$6,$7*
1,1,$1+$1,$8,$9*
0 Add four rect primitives between the rounded corners*
20,1,$1+$1,$2,$3,$4,$5,0*
20,1,$1+$1,$4,$5,$6,$7,0*
20,1,$1+$1,$6,$7,$8,$9,0*
20,1,$1+$1,$8,$9,$2,$3,0*%
G04 Aperture macros list end*
%TA.AperFunction,SMDPad,CuDef*%
%ADD10RoundRect,0.015000X0.135000X-1.985000X0.135000X1.985000X-0.135000X1.985000X-0.135000X-1.985000X0*%
%TD*%
%TA.AperFunction,ViaPad*%
%ADD11C,0.600000*%
%TD*%
%TA.AperFunction,Conductor*%
%ADD12C,0.200000*%
%TD*%
G04 APERTURE END LIST*
D10*
%TO.P,J2,1,Pin_1*%
%TO.N,+3V3L*%
X277645650Y-162361127D03*
%TO.P,J2,2,Pin_2*%
%TO.N,TRIGGER_EN_L*%
X277145650Y-162361127D03*
%TO.P,J2,3,Pin_3*%
%TO.N,ADC_0*%
X276645650Y-162361127D03*
%TO.P,J2,4,Pin_4*%
%TO.N,GNDL*%
X276145650Y-162361127D03*
%TD*%
%TO.P,J1,1,Pin_1*%
%TO.N,+3V3*%
X217617666Y-162373240D03*
%TO.P,J1,2,Pin_2*%
%TO.N,TRIGGER_EN_R*%
X217117666Y-162373240D03*
%TO.P,J1,3,Pin_3*%
%TO.N,ADC_1*%
X216617666Y-162373240D03*
%TO.P,J1,4,Pin_4*%
%TO.N,GND*%
X216117666Y-162373240D03*
%TD*%
D11*
%TO.N,GND*%
X234460000Y-147030000D03*
X216364800Y-157276800D03*
X245390000Y-150570000D03*
X242247400Y-158496000D03*
X234670000Y-150130000D03*
X240610000Y-150280000D03*
%TO.N,TRIGGER_EN_L*%
X252930000Y-148590000D03*
%TO.N,+3V3*%
X243400000Y-147800000D03*
%TO.N,ADC_0*%
X248440000Y-147310000D03*
%TO.N,ADC_1*%
X241170000Y-149370000D03*
%TO.N,TRIGGER_EN_R*%
X241790000Y-147360000D03*
%TO.N,+3V3L*%
X253510000Y-147950000D03*
%TO.N,GNDL*%
X258340000Y-149200000D03*
X277579800Y-157112287D03*
X251595600Y-158509287D03*
X253340000Y-146720000D03*
X256750000Y-147550000D03*
X250380000Y-150310000D03*
%TD*%
D12*
%TO.N,GND*%
X216117666Y-162373240D02*
X216117666Y-158565334D01*
X216745800Y-157937200D02*
X217457000Y-157226000D01*
X240723400Y-157226000D02*
X240850400Y-157099000D01*
X217990400Y-157226000D02*
X240723400Y-157226000D01*
X216117666Y-158565334D02*
X216745800Y-157937200D01*
X240850400Y-157099000D02*
X241053600Y-156895800D01*
X241053600Y-156895800D02*
X241053600Y-156032200D01*
X217457000Y-157226000D02*
X217990400Y-157226000D01*
X241053600Y-156032200D02*
X241053600Y-150723600D01*
X241053600Y-150723600D02*
X240610000Y-150280000D01*
%TO.N,TRIGGER_EN_L*%
X252459200Y-150914687D02*
X252459200Y-149060800D01*
X276284400Y-157569487D02*
X252814800Y-157569487D01*
X277145650Y-162361127D02*
X277145650Y-158430737D01*
X252459200Y-149060800D02*
X252930000Y-148590000D01*
X277145650Y-158430737D02*
X276284400Y-157569487D01*
X252459200Y-157213887D02*
X252459200Y-150914687D01*
X252814800Y-157569487D02*
X252459200Y-157213887D01*
%TO.N,+3V3*%
X217617666Y-158741734D02*
X217617666Y-162373240D01*
X243400000Y-147800000D02*
X242560000Y-147800000D01*
X217965000Y-158394400D02*
X217617666Y-158741734D01*
X242196600Y-148163400D02*
X242196600Y-157454600D01*
X242196600Y-157454600D02*
X241256800Y-158394400D01*
X241256800Y-158394400D02*
X217965000Y-158394400D01*
X242560000Y-147800000D02*
X242196600Y-148163400D01*
%TO.N,ADC_0*%
X252078200Y-149408200D02*
X251800000Y-149130000D01*
X251540000Y-148870000D02*
X249610000Y-148870000D01*
X248440000Y-148190000D02*
X248440000Y-147310000D01*
X252078200Y-150228887D02*
X252078200Y-157569487D01*
X276030400Y-158026687D02*
X276645650Y-158641937D01*
X248780000Y-148530000D02*
X248440000Y-148190000D01*
X252078200Y-150228887D02*
X252078200Y-149408200D01*
X251800000Y-149130000D02*
X251540000Y-148870000D01*
X252535400Y-158026687D02*
X276030400Y-158026687D01*
X249610000Y-148870000D02*
X249120000Y-148870000D01*
X276645650Y-158641937D02*
X276645650Y-162361127D01*
X249120000Y-148870000D02*
X248780000Y-148530000D01*
X252078200Y-157569487D02*
X252535400Y-158026687D01*
%TO.N,ADC_1*%
X241434600Y-149634600D02*
X241170000Y-149370000D01*
X216617666Y-162373240D02*
X216617666Y-158649534D01*
X217634800Y-157632400D02*
X240952000Y-157632400D01*
X240952000Y-157632400D02*
X241434600Y-157149800D01*
X216617666Y-158649534D02*
X217634800Y-157632400D01*
X241434600Y-157149800D02*
X241434600Y-149634600D01*
%TO.N,TRIGGER_EN_R*%
X241079000Y-158013400D02*
X241815600Y-157276800D01*
X217117666Y-162373240D02*
X217117666Y-158708334D01*
X241815600Y-157276800D02*
X241815600Y-147385600D01*
X217117666Y-158708334D02*
X217812600Y-158013400D01*
X241815600Y-147385600D02*
X241790000Y-147360000D01*
X217812600Y-158013400D02*
X241079000Y-158013400D01*
%TO.N,+3V3L*%
X253510000Y-149000000D02*
X252891000Y-149619000D01*
X253094200Y-157086887D02*
X276538400Y-157086887D01*
X277645650Y-158194137D02*
X277645650Y-162361127D01*
X252891000Y-149619000D02*
X252891000Y-156883687D01*
X253510000Y-147950000D02*
X253510000Y-149000000D01*
X276538400Y-157086887D02*
X277645650Y-158194137D01*
X252891000Y-156883687D02*
X253094200Y-157086887D01*
%TO.N,GNDL*%
X251697200Y-157772687D02*
X252433800Y-158509287D01*
X275928800Y-158509287D02*
X276145650Y-158726137D01*
X276145650Y-158726137D02*
X276145650Y-162361127D01*
X252433800Y-158509287D02*
X275928800Y-158509287D01*
X251697200Y-150051087D02*
X251697200Y-157772687D01*
%TD*%
%TA.AperFunction,Conductor*%
%TO.N,GND*%
G36*
X246012339Y-146300184D02*
G01*
X246058094Y-146352988D01*
X246069300Y-146404499D01*
X246069300Y-148077717D01*
X246100885Y-148153969D01*
X246107436Y-148169785D01*
X246177903Y-148240252D01*
X246269972Y-148278388D01*
X246269974Y-148278388D01*
X246334059Y-148278388D01*
X246401098Y-148298073D01*
X246446853Y-148350877D01*
X246458054Y-148401384D01*
X246458306Y-148432451D01*
X246460084Y-148652385D01*
X246440942Y-148719581D01*
X246388510Y-148765761D01*
X246336088Y-148777387D01*
X246269970Y-148777387D01*
X246177902Y-148815523D01*
X246107436Y-148885989D01*
X246069300Y-148978057D01*
X246069300Y-150755500D01*
X246049615Y-150822539D01*
X245996811Y-150868294D01*
X245945300Y-150879500D01*
X242679970Y-150879500D01*
X242668549Y-150884231D01*
X242599079Y-150891697D01*
X242536601Y-150860420D01*
X242500951Y-150800330D01*
X242497100Y-150769668D01*
X242497100Y-150480559D01*
X242770100Y-150480559D01*
X242770100Y-150606500D01*
X243354095Y-150606500D01*
X243411965Y-150548630D01*
X243764104Y-150548630D01*
X243821974Y-150606500D01*
X244416170Y-150606500D01*
X244474040Y-150548630D01*
X244119072Y-150193662D01*
X243764104Y-150548630D01*
X243411965Y-150548630D01*
X243056997Y-150193662D01*
X242770100Y-150480559D01*
X242497100Y-150480559D01*
X242497100Y-150017592D01*
X243233065Y-150017592D01*
X243588034Y-150372561D01*
X243943002Y-150017592D01*
X244295140Y-150017592D01*
X244650109Y-150372561D01*
X245005077Y-150017592D01*
X245357214Y-150017592D01*
X245360622Y-150021000D01*
X245445952Y-150021000D01*
X245478045Y-150025225D01*
X245586137Y-150054188D01*
X245616045Y-150066576D01*
X245712957Y-150122529D01*
X245738637Y-150142235D01*
X245796300Y-150199898D01*
X245796300Y-149746741D01*
X245712183Y-149662624D01*
X245357214Y-150017592D01*
X245005077Y-150017592D01*
X244650109Y-149662624D01*
X244295140Y-150017592D01*
X243943002Y-150017592D01*
X243588034Y-149662624D01*
X243233065Y-150017592D01*
X242497100Y-150017592D01*
X242497100Y-149418484D01*
X242770100Y-149418484D01*
X242770100Y-149554626D01*
X243056997Y-149841523D01*
X243411965Y-149486555D01*
X243764104Y-149486555D01*
X244119072Y-149841523D01*
X244474040Y-149486555D01*
X244826178Y-149486555D01*
X245181146Y-149841523D01*
X245536114Y-149486555D01*
X245181146Y-149131587D01*
X244826178Y-149486555D01*
X244474040Y-149486555D01*
X244119072Y-149131587D01*
X243764104Y-149486555D01*
X243411965Y-149486555D01*
X243056997Y-149131587D01*
X242770100Y-149418484D01*
X242497100Y-149418484D01*
X242497100Y-148955518D01*
X243233066Y-148955518D01*
X243588034Y-149310486D01*
X243943002Y-148955518D01*
X244295141Y-148955518D01*
X244650109Y-149310486D01*
X245005077Y-148955518D01*
X245357215Y-148955518D01*
X245712183Y-149310486D01*
X245796300Y-149226369D01*
X245796300Y-148964618D01*
X245796898Y-148952454D01*
X245797139Y-148950009D01*
X245798923Y-148937983D01*
X245804167Y-148911618D01*
X245807126Y-148899806D01*
X245807839Y-148897456D01*
X245811937Y-148886005D01*
X245860361Y-148769099D01*
X245865569Y-148758089D01*
X245866727Y-148755923D01*
X245867037Y-148755404D01*
X245712183Y-148600550D01*
X245357215Y-148955518D01*
X245005077Y-148955518D01*
X244650109Y-148600550D01*
X244295141Y-148955518D01*
X243943002Y-148955518D01*
X243588034Y-148600549D01*
X243233066Y-148955518D01*
X242497100Y-148955518D01*
X242497100Y-148400951D01*
X242770100Y-148400951D01*
X242770100Y-148492552D01*
X243056997Y-148779449D01*
X243270389Y-148566056D01*
X243127515Y-148527774D01*
X243119738Y-148525414D01*
X243118189Y-148524888D01*
X243110615Y-148522037D01*
X243094084Y-148515191D01*
X243086681Y-148511837D01*
X243085213Y-148511113D01*
X243078060Y-148507290D01*
X242998830Y-148461546D01*
X243801169Y-148461546D01*
X244119072Y-148779449D01*
X244474040Y-148424481D01*
X244826178Y-148424481D01*
X245181146Y-148779449D01*
X245536114Y-148424481D01*
X245181146Y-148069513D01*
X244826178Y-148424481D01*
X244474040Y-148424481D01*
X244126439Y-148076880D01*
X244125414Y-148080262D01*
X244124888Y-148081811D01*
X244122037Y-148089385D01*
X244115191Y-148105916D01*
X244111837Y-148113319D01*
X244111113Y-148114787D01*
X244107290Y-148121940D01*
X244032451Y-148251563D01*
X244028180Y-148258432D01*
X244027271Y-148259793D01*
X244022529Y-148266412D01*
X244011637Y-148280606D01*
X244006479Y-148286890D01*
X244005400Y-148288120D01*
X243999865Y-148294028D01*
X243894028Y-148399865D01*
X243888120Y-148405400D01*
X243886890Y-148406479D01*
X243880606Y-148411637D01*
X243866412Y-148422529D01*
X243859793Y-148427271D01*
X243858432Y-148428180D01*
X243851563Y-148432451D01*
X243801169Y-148461546D01*
X242998830Y-148461546D01*
X242948437Y-148432451D01*
X242941568Y-148428180D01*
X242940207Y-148427271D01*
X242933588Y-148422529D01*
X242919394Y-148411637D01*
X242913110Y-148406479D01*
X242911880Y-148405400D01*
X242905972Y-148399866D01*
X242879606Y-148373500D01*
X242797551Y-148373500D01*
X242770100Y-148400951D01*
X242497100Y-148400951D01*
X242497100Y-148339233D01*
X242516785Y-148272194D01*
X242533419Y-148251552D01*
X242648152Y-148136819D01*
X242709475Y-148103334D01*
X242735833Y-148100500D01*
X242941324Y-148100500D01*
X243008363Y-148120185D01*
X243029005Y-148136819D01*
X243092686Y-148200500D01*
X243206814Y-148266392D01*
X243334108Y-148300500D01*
X243334110Y-148300500D01*
X243465890Y-148300500D01*
X243465892Y-148300500D01*
X243593186Y-148266392D01*
X243707314Y-148200500D01*
X243800500Y-148107314D01*
X243866392Y-147993186D01*
X243893118Y-147893444D01*
X244295141Y-147893444D01*
X244650109Y-148248412D01*
X245005077Y-147893444D01*
X245357215Y-147893444D01*
X245712182Y-148248411D01*
X245806625Y-148153969D01*
X245804167Y-148144157D01*
X245798923Y-148117792D01*
X245797139Y-148105766D01*
X245796898Y-148103321D01*
X245796300Y-148091157D01*
X245796300Y-147622593D01*
X245712183Y-147538476D01*
X245357215Y-147893444D01*
X245005077Y-147893444D01*
X244650109Y-147538476D01*
X244295141Y-147893444D01*
X243893118Y-147893444D01*
X243900500Y-147865892D01*
X243900500Y-147734108D01*
X243866392Y-147606814D01*
X243800500Y-147492686D01*
X243707314Y-147399500D01*
X243643067Y-147362407D01*
X243593187Y-147333608D01*
X243529539Y-147316554D01*
X243465892Y-147299500D01*
X243334108Y-147299500D01*
X243206812Y-147333608D01*
X243092686Y-147399500D01*
X243092683Y-147399502D01*
X243029005Y-147463181D01*
X242967682Y-147496666D01*
X242941324Y-147499500D01*
X242520438Y-147499500D01*
X242446594Y-147519287D01*
X242376744Y-147517624D01*
X242318881Y-147478462D01*
X242291377Y-147414233D01*
X242290500Y-147399512D01*
X242290500Y-147294110D01*
X242290500Y-147294108D01*
X242272385Y-147226500D01*
X242837936Y-147226500D01*
X242879606Y-147226500D01*
X242889798Y-147216308D01*
X243910201Y-147216308D01*
X243999865Y-147305972D01*
X244005400Y-147311880D01*
X244006479Y-147313110D01*
X244011637Y-147319394D01*
X244022529Y-147333588D01*
X244027271Y-147340207D01*
X244028180Y-147341568D01*
X244032451Y-147348437D01*
X244107290Y-147478060D01*
X244111113Y-147485213D01*
X244111837Y-147486681D01*
X244115191Y-147494084D01*
X244122037Y-147510615D01*
X244124888Y-147518189D01*
X244125414Y-147519738D01*
X244127774Y-147527515D01*
X244166057Y-147670389D01*
X244474040Y-147362407D01*
X244826178Y-147362407D01*
X245181146Y-147717375D01*
X245536114Y-147362407D01*
X245181146Y-147007439D01*
X244826178Y-147362407D01*
X244474040Y-147362407D01*
X244119071Y-147007438D01*
X243910201Y-147216308D01*
X242889798Y-147216308D01*
X242905972Y-147200134D01*
X242911880Y-147194600D01*
X242913110Y-147193521D01*
X242919394Y-147188363D01*
X242933588Y-147177471D01*
X242940207Y-147172729D01*
X242941568Y-147171820D01*
X242948437Y-147167549D01*
X243078060Y-147092710D01*
X243085213Y-147088887D01*
X243086681Y-147088163D01*
X243094084Y-147084809D01*
X243110615Y-147077963D01*
X243118189Y-147075112D01*
X243119738Y-147074586D01*
X243123118Y-147073560D01*
X243056997Y-147007439D01*
X242837936Y-147226500D01*
X242272385Y-147226500D01*
X242256392Y-147166814D01*
X242190500Y-147052686D01*
X242097314Y-146959500D01*
X242008871Y-146908437D01*
X241983187Y-146893608D01*
X241919539Y-146876554D01*
X241855892Y-146859500D01*
X241724108Y-146859500D01*
X241596812Y-146893608D01*
X241482686Y-146959500D01*
X241482683Y-146959502D01*
X241389502Y-147052683D01*
X241389500Y-147052686D01*
X241323608Y-147166812D01*
X241291897Y-147285162D01*
X241289500Y-147294108D01*
X241289500Y-147425892D01*
X241301426Y-147470399D01*
X241323608Y-147553187D01*
X241349134Y-147597398D01*
X241389500Y-147667314D01*
X241389502Y-147667316D01*
X241478781Y-147756595D01*
X241512266Y-147817918D01*
X241515100Y-147844276D01*
X241515100Y-148782713D01*
X241495415Y-148849752D01*
X241442611Y-148895507D01*
X241373453Y-148905451D01*
X241359007Y-148902488D01*
X241297430Y-148885989D01*
X241235892Y-148869500D01*
X241104108Y-148869500D01*
X240976812Y-148903608D01*
X240862686Y-148969500D01*
X240862683Y-148969502D01*
X240769502Y-149062683D01*
X240769500Y-149062686D01*
X240703608Y-149176812D01*
X240669500Y-149304108D01*
X240669500Y-149435891D01*
X240703608Y-149563187D01*
X240733054Y-149614188D01*
X240769500Y-149677314D01*
X240862686Y-149770500D01*
X240976814Y-149836392D01*
X241042194Y-149853910D01*
X241101853Y-149890273D01*
X241132383Y-149953120D01*
X241134100Y-149973684D01*
X241134100Y-156973967D01*
X241114415Y-157041006D01*
X241097781Y-157061648D01*
X240863848Y-157295581D01*
X240802525Y-157329066D01*
X240776167Y-157331900D01*
X217595238Y-157331900D01*
X217518810Y-157352378D01*
X217450289Y-157391940D01*
X217450286Y-157391942D01*
X216377207Y-158465021D01*
X216377201Y-158465029D01*
X216337648Y-158533538D01*
X216337645Y-158533543D01*
X216317166Y-158609973D01*
X216317166Y-160124600D01*
X216297481Y-160191639D01*
X216244677Y-160237394D01*
X216193166Y-160248600D01*
X215992109Y-160248600D01*
X215925070Y-160228915D01*
X215879315Y-160176111D01*
X215868109Y-160124628D01*
X215867886Y-159136147D01*
X215867627Y-157983149D01*
X216150169Y-157983149D01*
X216311584Y-158144564D01*
X216666552Y-157789596D01*
X216632899Y-157755943D01*
X216590845Y-157780224D01*
X216560937Y-157792612D01*
X216452845Y-157821575D01*
X216420752Y-157825800D01*
X216308848Y-157825800D01*
X216307673Y-157825645D01*
X216150169Y-157983149D01*
X215867627Y-157983149D01*
X215867538Y-157589245D01*
X216818339Y-157589245D01*
X216842622Y-157613528D01*
X217197590Y-157258560D01*
X217036174Y-157097144D01*
X216913645Y-157219673D01*
X216913800Y-157220848D01*
X216913800Y-157332752D01*
X216909575Y-157364845D01*
X216880612Y-157472937D01*
X216868224Y-157502845D01*
X216818339Y-157589245D01*
X215867538Y-157589245D01*
X215867427Y-157093882D01*
X215867418Y-157053500D01*
X217344668Y-157053500D01*
X217398291Y-157107123D01*
X217398679Y-157106933D01*
X217406082Y-157103579D01*
X217422613Y-157096733D01*
X217430187Y-157093882D01*
X217431736Y-157093356D01*
X217439513Y-157090996D01*
X217533221Y-157065887D01*
X217541142Y-157064041D01*
X217542747Y-157063722D01*
X217550731Y-157062404D01*
X217568470Y-157060068D01*
X217576551Y-157059272D01*
X217578184Y-157059165D01*
X217586292Y-157058900D01*
X217784356Y-157058900D01*
X217789756Y-157053500D01*
X218406742Y-157053500D01*
X218412142Y-157058900D01*
X218846431Y-157058900D01*
X218851831Y-157053500D01*
X219468817Y-157053500D01*
X219474217Y-157058900D01*
X219908505Y-157058900D01*
X219913905Y-157053500D01*
X220530891Y-157053500D01*
X220536291Y-157058900D01*
X220970579Y-157058900D01*
X220975979Y-157053500D01*
X221592965Y-157053500D01*
X221598365Y-157058900D01*
X222032654Y-157058900D01*
X222038054Y-157053500D01*
X222655040Y-157053500D01*
X222660440Y-157058900D01*
X223094728Y-157058900D01*
X223100128Y-157053500D01*
X223717114Y-157053500D01*
X223722514Y-157058900D01*
X224156802Y-157058900D01*
X224162202Y-157053500D01*
X224779189Y-157053500D01*
X224784589Y-157058900D01*
X225218877Y-157058900D01*
X225224277Y-157053500D01*
X225841263Y-157053500D01*
X225846663Y-157058900D01*
X226280951Y-157058900D01*
X226286351Y-157053500D01*
X226903337Y-157053500D01*
X226908737Y-157058900D01*
X227343026Y-157058900D01*
X227348426Y-157053500D01*
X227965412Y-157053500D01*
X227970812Y-157058900D01*
X228405100Y-157058900D01*
X228410500Y-157053500D01*
X229027486Y-157053500D01*
X229032886Y-157058900D01*
X229467174Y-157058900D01*
X229472574Y-157053500D01*
X230089561Y-157053500D01*
X230094961Y-157058900D01*
X230529249Y-157058900D01*
X230534649Y-157053500D01*
X231151635Y-157053500D01*
X231157035Y-157058900D01*
X231591323Y-157058900D01*
X231596723Y-157053500D01*
X232213709Y-157053500D01*
X232219109Y-157058900D01*
X232653398Y-157058900D01*
X232658798Y-157053500D01*
X233275784Y-157053500D01*
X233281184Y-157058900D01*
X233715472Y-157058900D01*
X233720872Y-157053500D01*
X234337858Y-157053500D01*
X234343258Y-157058900D01*
X234777546Y-157058900D01*
X234782946Y-157053500D01*
X235399933Y-157053500D01*
X235405333Y-157058900D01*
X235839621Y-157058900D01*
X235845021Y-157053500D01*
X236462007Y-157053500D01*
X236467407Y-157058900D01*
X236901695Y-157058900D01*
X236907095Y-157053500D01*
X237524081Y-157053500D01*
X237529481Y-157058900D01*
X237963769Y-157058900D01*
X237969169Y-157053500D01*
X238586156Y-157053500D01*
X238591556Y-157058900D01*
X239025844Y-157058900D01*
X239031244Y-157053500D01*
X239648230Y-157053500D01*
X239653630Y-157058900D01*
X240087918Y-157058900D01*
X240101115Y-157045702D01*
X240089469Y-157048361D01*
X240082634Y-157049720D01*
X240081250Y-157049955D01*
X240074364Y-157050927D01*
X240064312Y-157052058D01*
X240062808Y-157052324D01*
X240059917Y-157052662D01*
X240045487Y-157053501D01*
X240041521Y-157053500D01*
X240041517Y-157053501D01*
X239908054Y-157053501D01*
X239908046Y-157053500D01*
X239648230Y-157053500D01*
X239031244Y-157053500D01*
X238586156Y-157053500D01*
X237969169Y-157053500D01*
X237524081Y-157053500D01*
X236907095Y-157053500D01*
X236462007Y-157053500D01*
X235845021Y-157053500D01*
X235399933Y-157053500D01*
X234782946Y-157053500D01*
X234337858Y-157053500D01*
X233720872Y-157053500D01*
X233275784Y-157053500D01*
X232658798Y-157053500D01*
X232213709Y-157053500D01*
X231596723Y-157053500D01*
X231151635Y-157053500D01*
X230534649Y-157053500D01*
X230089561Y-157053500D01*
X229472574Y-157053500D01*
X229027486Y-157053500D01*
X228410500Y-157053500D01*
X227965412Y-157053500D01*
X227348426Y-157053500D01*
X226903337Y-157053500D01*
X226286351Y-157053500D01*
X225841263Y-157053500D01*
X225224277Y-157053500D01*
X224779189Y-157053500D01*
X224162202Y-157053500D01*
X223717114Y-157053500D01*
X223100128Y-157053500D01*
X222655040Y-157053500D01*
X222038054Y-157053500D01*
X221592965Y-157053500D01*
X220975979Y-157053500D01*
X220530891Y-157053500D01*
X219913905Y-157053500D01*
X219468817Y-157053500D01*
X218851831Y-157053500D01*
X218406742Y-157053500D01*
X217789756Y-157053500D01*
X217344668Y-157053500D01*
X215867418Y-157053500D01*
X215867388Y-156921076D01*
X240577880Y-156921076D01*
X240715076Y-157058272D01*
X240861100Y-156912249D01*
X240861100Y-156637856D01*
X240577880Y-156921076D01*
X215867388Y-156921076D01*
X215867384Y-156904528D01*
X215887053Y-156837484D01*
X215939847Y-156791717D01*
X215991384Y-156780500D01*
X239910963Y-156780500D01*
X239910967Y-156780501D01*
X240031162Y-156780501D01*
X240031162Y-156780502D01*
X240031172Y-156780500D01*
X240036193Y-156780500D01*
X240146150Y-156755403D01*
X240247766Y-156706467D01*
X240335946Y-156636147D01*
X240406266Y-156547968D01*
X240455202Y-156446352D01*
X240480300Y-156336395D01*
X240480300Y-156280002D01*
X240480300Y-156235832D01*
X240480300Y-155683582D01*
X240753300Y-155683582D01*
X240753300Y-156034421D01*
X240861100Y-156142221D01*
X240861100Y-155575782D01*
X240753300Y-155683582D01*
X240480300Y-155683582D01*
X240480300Y-154621507D01*
X240753300Y-154621507D01*
X240753300Y-154972346D01*
X240861100Y-155080146D01*
X240861100Y-154513707D01*
X240753300Y-154621507D01*
X240480300Y-154621507D01*
X240480300Y-153559433D01*
X240753300Y-153559433D01*
X240753300Y-153910272D01*
X240861100Y-154018072D01*
X240861100Y-153451633D01*
X240753300Y-153559433D01*
X240480300Y-153559433D01*
X240480300Y-152497359D01*
X240753300Y-152497359D01*
X240753300Y-152848198D01*
X240861100Y-152955998D01*
X240861100Y-152389559D01*
X240753300Y-152497359D01*
X240480300Y-152497359D01*
X240480300Y-151435284D01*
X240753300Y-151435284D01*
X240753300Y-151786123D01*
X240861100Y-151893923D01*
X240861100Y-151327484D01*
X240753300Y-151435284D01*
X240480300Y-151435284D01*
X240480300Y-151430172D01*
X240480300Y-151412340D01*
X240480299Y-151412338D01*
X240480299Y-151412333D01*
X240450191Y-151280419D01*
X240450189Y-151280416D01*
X240450189Y-151280412D01*
X240391475Y-151158493D01*
X240355426Y-151113289D01*
X240307105Y-151052694D01*
X240201304Y-150968323D01*
X240079388Y-150909611D01*
X240079380Y-150909608D01*
X239947466Y-150879500D01*
X239947460Y-150879500D01*
X239929628Y-150879500D01*
X233420300Y-150879500D01*
X233353261Y-150859815D01*
X233307506Y-150807011D01*
X233305858Y-150799435D01*
X240427384Y-150799435D01*
X240483309Y-150844032D01*
X240488637Y-150848531D01*
X240489683Y-150849466D01*
X240494725Y-150854234D01*
X240505566Y-150865075D01*
X240510334Y-150870117D01*
X240511269Y-150871163D01*
X240515768Y-150876491D01*
X240609695Y-150994275D01*
X240613865Y-150999814D01*
X240614677Y-151000958D01*
X240618552Y-151006757D01*
X240626708Y-151019737D01*
X240630231Y-151025708D01*
X240630910Y-151026936D01*
X240634114Y-151033137D01*
X240689109Y-151147336D01*
X240756778Y-151079666D01*
X240494541Y-150817429D01*
X240427384Y-150799435D01*
X233305858Y-150799435D01*
X233296300Y-150755500D01*
X233296300Y-150606500D01*
X233569300Y-150606500D01*
X233795426Y-150606500D01*
X233853296Y-150548630D01*
X233853295Y-150548629D01*
X234205433Y-150548629D01*
X234263304Y-150606500D01*
X234397322Y-150606500D01*
X234347043Y-150577471D01*
X234321363Y-150557765D01*
X234312228Y-150548630D01*
X235267509Y-150548630D01*
X235325379Y-150606500D01*
X235919575Y-150606500D01*
X235977445Y-150548630D01*
X236329583Y-150548630D01*
X236387453Y-150606500D01*
X236981649Y-150606500D01*
X237039519Y-150548630D01*
X237391657Y-150548630D01*
X237449527Y-150606500D01*
X238043723Y-150606500D01*
X238101593Y-150548630D01*
X238453732Y-150548630D01*
X238511602Y-150606500D01*
X239105798Y-150606500D01*
X239163668Y-150548630D01*
X239515806Y-150548630D01*
X239573676Y-150606500D01*
X239955125Y-150606500D01*
X239962106Y-150606697D01*
X239963507Y-150606776D01*
X239970407Y-150607358D01*
X239985640Y-150609074D01*
X239992531Y-150610047D01*
X239993914Y-150610282D01*
X240000734Y-150611639D01*
X240132628Y-150641742D01*
X240166386Y-150607983D01*
X240162529Y-150602957D01*
X240106576Y-150506045D01*
X240094188Y-150476137D01*
X240072570Y-150395458D01*
X239870774Y-150193662D01*
X239515806Y-150548630D01*
X239163668Y-150548630D01*
X238808700Y-150193662D01*
X238453732Y-150548630D01*
X238101593Y-150548630D01*
X237746625Y-150193662D01*
X237391657Y-150548630D01*
X237039519Y-150548630D01*
X236684551Y-150193662D01*
X236329583Y-150548630D01*
X235977445Y-150548630D01*
X235622477Y-150193662D01*
X235267509Y-150548630D01*
X234312228Y-150548630D01*
X234258830Y-150495232D01*
X234205433Y-150548629D01*
X233853295Y-150548629D01*
X233569300Y-150264634D01*
X233569300Y-150606500D01*
X233296300Y-150606500D01*
X233296300Y-150017592D01*
X233674396Y-150017592D01*
X234029364Y-150372560D01*
X234137620Y-150264304D01*
X234125225Y-150218045D01*
X234121000Y-150185952D01*
X234121000Y-150074048D01*
X234125225Y-150041955D01*
X234154188Y-149933863D01*
X234166576Y-149903955D01*
X234204686Y-149837945D01*
X234085571Y-149718830D01*
X235035232Y-149718830D01*
X235097765Y-149781363D01*
X235117471Y-149807043D01*
X235173424Y-149903955D01*
X235185812Y-149933863D01*
X235214775Y-150041955D01*
X235219000Y-150074048D01*
X235219000Y-150185952D01*
X235214775Y-150218045D01*
X235203362Y-150260637D01*
X235446407Y-150017592D01*
X235798545Y-150017592D01*
X236153514Y-150372561D01*
X236508482Y-150017592D01*
X236860619Y-150017592D01*
X237215588Y-150372561D01*
X237570556Y-150017592D01*
X237922694Y-150017592D01*
X238277662Y-150372561D01*
X238632631Y-150017592D01*
X238984768Y-150017592D01*
X239339737Y-150372561D01*
X239694705Y-150017592D01*
X240046842Y-150017592D01*
X240099730Y-150070480D01*
X240106576Y-150053955D01*
X240162529Y-149957043D01*
X240182235Y-149931363D01*
X240261363Y-149852235D01*
X240287043Y-149832529D01*
X240383955Y-149776576D01*
X240413863Y-149764188D01*
X240484458Y-149745271D01*
X240401811Y-149662624D01*
X240046842Y-150017592D01*
X239694705Y-150017592D01*
X239339737Y-149662624D01*
X238984768Y-150017592D01*
X238632631Y-150017592D01*
X238277662Y-149662624D01*
X237922694Y-150017592D01*
X237570556Y-150017592D01*
X237215588Y-149662624D01*
X236860619Y-150017592D01*
X236508482Y-150017592D01*
X236153514Y-149662624D01*
X235798545Y-150017592D01*
X235446407Y-150017592D01*
X235091438Y-149662623D01*
X235035232Y-149718830D01*
X234085571Y-149718830D01*
X234029365Y-149662624D01*
X233674396Y-150017592D01*
X233296300Y-150017592D01*
X233296300Y-149770551D01*
X233569300Y-149770551D01*
X233853296Y-149486555D01*
X234205434Y-149486555D01*
X234381508Y-149662629D01*
X234443955Y-149626576D01*
X234473863Y-149614188D01*
X234581955Y-149585225D01*
X234614048Y-149581000D01*
X234725952Y-149581000D01*
X234758045Y-149585225D01*
X234804304Y-149597620D01*
X234915368Y-149486555D01*
X235267509Y-149486555D01*
X235622477Y-149841523D01*
X235977445Y-149486555D01*
X236329583Y-149486555D01*
X236684551Y-149841523D01*
X237039519Y-149486555D01*
X237391657Y-149486555D01*
X237746625Y-149841523D01*
X238101593Y-149486555D01*
X238453732Y-149486555D01*
X238808700Y-149841523D01*
X239163668Y-149486555D01*
X239515806Y-149486555D01*
X239870774Y-149841523D01*
X240225742Y-149486555D01*
X239870774Y-149131587D01*
X239515806Y-149486555D01*
X239163668Y-149486555D01*
X238808700Y-149131587D01*
X238453732Y-149486555D01*
X238101593Y-149486555D01*
X237746625Y-149131587D01*
X237391657Y-149486555D01*
X237039519Y-149486555D01*
X236684551Y-149131587D01*
X236329583Y-149486555D01*
X235977445Y-149486555D01*
X235622477Y-149131587D01*
X235267509Y-149486555D01*
X234915368Y-149486555D01*
X234915369Y-149486554D01*
X234560402Y-149131587D01*
X234205434Y-149486555D01*
X233853296Y-149486555D01*
X233569300Y-149202559D01*
X233569300Y-149770551D01*
X233296300Y-149770551D01*
X233296300Y-148955518D01*
X233674397Y-148955518D01*
X234029365Y-149310486D01*
X234384333Y-148955518D01*
X234736471Y-148955518D01*
X235091439Y-149310486D01*
X235446407Y-148955518D01*
X235798546Y-148955518D01*
X236153514Y-149310486D01*
X236508482Y-148955518D01*
X236860620Y-148955518D01*
X237215588Y-149310486D01*
X237570556Y-148955518D01*
X237922694Y-148955518D01*
X238277662Y-149310486D01*
X238632631Y-148955518D01*
X238984769Y-148955518D01*
X239339737Y-149310486D01*
X239694705Y-148955518D01*
X240046843Y-148955518D01*
X240396500Y-149305175D01*
X240396500Y-149295162D01*
X240396765Y-149287054D01*
X240396872Y-149285421D01*
X240397668Y-149277340D01*
X240400004Y-149259601D01*
X240401322Y-149251617D01*
X240401641Y-149250012D01*
X240403487Y-149242091D01*
X240442226Y-149097515D01*
X240444586Y-149089738D01*
X240445112Y-149088189D01*
X240447963Y-149080615D01*
X240454809Y-149064084D01*
X240458163Y-149056681D01*
X240458887Y-149055213D01*
X240462710Y-149048060D01*
X240537549Y-148918437D01*
X240541820Y-148911568D01*
X240542729Y-148910207D01*
X240547471Y-148903588D01*
X240558363Y-148889394D01*
X240563521Y-148883110D01*
X240564600Y-148881880D01*
X240570135Y-148875972D01*
X240623684Y-148822423D01*
X240401811Y-148600550D01*
X240046843Y-148955518D01*
X239694705Y-148955518D01*
X239339737Y-148600550D01*
X238984769Y-148955518D01*
X238632631Y-148955518D01*
X238277662Y-148600549D01*
X237922694Y-148955518D01*
X237570556Y-148955518D01*
X237215588Y-148600550D01*
X236860620Y-148955518D01*
X236508482Y-148955518D01*
X236153514Y-148600550D01*
X235798546Y-148955518D01*
X235446407Y-148955518D01*
X235091439Y-148600550D01*
X234736471Y-148955518D01*
X234384333Y-148955518D01*
X234029365Y-148600550D01*
X233674397Y-148955518D01*
X233296300Y-148955518D01*
X233296300Y-148708477D01*
X233569300Y-148708477D01*
X233853296Y-148424481D01*
X234205434Y-148424481D01*
X234560402Y-148779449D01*
X234915370Y-148424481D01*
X235267509Y-148424481D01*
X235622477Y-148779449D01*
X235977445Y-148424481D01*
X236329583Y-148424481D01*
X236684551Y-148779449D01*
X237039519Y-148424481D01*
X237391657Y-148424481D01*
X237746625Y-148779449D01*
X238101593Y-148424481D01*
X238453732Y-148424481D01*
X238808700Y-148779449D01*
X239163668Y-148424481D01*
X239515806Y-148424481D01*
X239870774Y-148779449D01*
X240225742Y-148424481D01*
X240225741Y-148424480D01*
X240577880Y-148424480D01*
X240827804Y-148674404D01*
X240848061Y-148662710D01*
X240855213Y-148658887D01*
X240856681Y-148658163D01*
X240864084Y-148654809D01*
X240880615Y-148647963D01*
X240888189Y-148645112D01*
X240889738Y-148644586D01*
X240897515Y-148642226D01*
X241042091Y-148603487D01*
X241050012Y-148601641D01*
X241051617Y-148601322D01*
X241059601Y-148600004D01*
X241077340Y-148597668D01*
X241085421Y-148596872D01*
X241087054Y-148596765D01*
X241095162Y-148596500D01*
X241115798Y-148596500D01*
X241242100Y-148470198D01*
X241242100Y-148378764D01*
X240932848Y-148069512D01*
X240577880Y-148424480D01*
X240225741Y-148424480D01*
X239870774Y-148069513D01*
X239515806Y-148424481D01*
X239163668Y-148424481D01*
X238808700Y-148069513D01*
X238453732Y-148424481D01*
X238101593Y-148424481D01*
X237746625Y-148069513D01*
X237391657Y-148424481D01*
X237039519Y-148424481D01*
X236684551Y-148069513D01*
X236329583Y-148424481D01*
X235977445Y-148424481D01*
X235622477Y-148069513D01*
X235267509Y-148424481D01*
X234915370Y-148424481D01*
X234560402Y-148069513D01*
X234205434Y-148424481D01*
X233853296Y-148424481D01*
X233569300Y-148140485D01*
X233569300Y-148708477D01*
X233296300Y-148708477D01*
X233296300Y-147893444D01*
X233674397Y-147893444D01*
X234029365Y-148248412D01*
X234384333Y-147893444D01*
X234736471Y-147893444D01*
X235091439Y-148248412D01*
X235446407Y-147893444D01*
X235798546Y-147893444D01*
X236153514Y-148248412D01*
X236508482Y-147893444D01*
X236860620Y-147893444D01*
X237215588Y-148248412D01*
X237570556Y-147893444D01*
X237922694Y-147893444D01*
X238277662Y-148248412D01*
X238632631Y-147893444D01*
X238984769Y-147893444D01*
X239339737Y-148248412D01*
X239694705Y-147893444D01*
X240046843Y-147893444D01*
X240401811Y-148248412D01*
X240756779Y-147893444D01*
X240401811Y-147538476D01*
X240046843Y-147893444D01*
X239694705Y-147893444D01*
X239339737Y-147538476D01*
X238984769Y-147893444D01*
X238632631Y-147893444D01*
X238277662Y-147538475D01*
X237922694Y-147893444D01*
X237570556Y-147893444D01*
X237215588Y-147538476D01*
X236860620Y-147893444D01*
X236508482Y-147893444D01*
X236153514Y-147538476D01*
X235798546Y-147893444D01*
X235446407Y-147893444D01*
X235091439Y-147538476D01*
X234736471Y-147893444D01*
X234384333Y-147893444D01*
X234069889Y-147579000D01*
X234422027Y-147579000D01*
X234560402Y-147717375D01*
X234915370Y-147362407D01*
X235267509Y-147362407D01*
X235622477Y-147717375D01*
X235977445Y-147362407D01*
X236329583Y-147362407D01*
X236684551Y-147717375D01*
X237039519Y-147362407D01*
X237391657Y-147362407D01*
X237746625Y-147717375D01*
X238101593Y-147362407D01*
X238453732Y-147362407D01*
X238808700Y-147717375D01*
X239163668Y-147362407D01*
X239515806Y-147362407D01*
X239870774Y-147717375D01*
X240225742Y-147362407D01*
X240577880Y-147362407D01*
X240932848Y-147717374D01*
X241052824Y-147597398D01*
X241023487Y-147487909D01*
X241021641Y-147479988D01*
X241021322Y-147478383D01*
X241020004Y-147470399D01*
X241017668Y-147452660D01*
X241016872Y-147444579D01*
X241016765Y-147442946D01*
X241016500Y-147434838D01*
X241016500Y-147285162D01*
X241016765Y-147277054D01*
X241016872Y-147275421D01*
X241017668Y-147267340D01*
X241020004Y-147249601D01*
X241021322Y-147241617D01*
X241021641Y-147240012D01*
X241023487Y-147232091D01*
X241051807Y-147126397D01*
X240932848Y-147007438D01*
X240577880Y-147362407D01*
X240225742Y-147362407D01*
X239870774Y-147007439D01*
X239515806Y-147362407D01*
X239163668Y-147362407D01*
X238808700Y-147007439D01*
X238453732Y-147362407D01*
X238101593Y-147362407D01*
X237746625Y-147007439D01*
X237391657Y-147362407D01*
X237039519Y-147362407D01*
X236684551Y-147007439D01*
X236329583Y-147362407D01*
X235977445Y-147362407D01*
X235622477Y-147007439D01*
X235267509Y-147362407D01*
X234915370Y-147362407D01*
X234906797Y-147353834D01*
X234887765Y-147378637D01*
X234808637Y-147457765D01*
X234782957Y-147477471D01*
X234686045Y-147533424D01*
X234656137Y-147545812D01*
X234548045Y-147574775D01*
X234515952Y-147579000D01*
X234422027Y-147579000D01*
X234069889Y-147579000D01*
X234029365Y-147538476D01*
X233674397Y-147893444D01*
X233296300Y-147893444D01*
X233296300Y-147646403D01*
X233569300Y-147646403D01*
X233853296Y-147362407D01*
X233569300Y-147078411D01*
X233569300Y-147646403D01*
X233296300Y-147646403D01*
X233296300Y-146831369D01*
X233674397Y-146831369D01*
X233911000Y-147067972D01*
X233911000Y-146974048D01*
X233915225Y-146941955D01*
X233944188Y-146833863D01*
X233956576Y-146803955D01*
X234012529Y-146707043D01*
X234032235Y-146681363D01*
X234032880Y-146680718D01*
X234887120Y-146680718D01*
X234887765Y-146681363D01*
X234907471Y-146707043D01*
X234963424Y-146803955D01*
X234975812Y-146833863D01*
X235004775Y-146941955D01*
X235009000Y-146974048D01*
X235009000Y-147085952D01*
X235006911Y-147101809D01*
X235091439Y-147186337D01*
X235446407Y-146831369D01*
X235798546Y-146831369D01*
X236153514Y-147186337D01*
X236508482Y-146831369D01*
X236860620Y-146831369D01*
X237215588Y-147186337D01*
X237570556Y-146831369D01*
X237922694Y-146831369D01*
X238277662Y-147186337D01*
X238632631Y-146831369D01*
X238984769Y-146831369D01*
X239339737Y-147186337D01*
X239694705Y-146831369D01*
X240046843Y-146831369D01*
X240401811Y-147186337D01*
X240756779Y-146831369D01*
X241108918Y-146831369D01*
X241169062Y-146891513D01*
X241178363Y-146879394D01*
X241183521Y-146873110D01*
X241184600Y-146871880D01*
X241190135Y-146865972D01*
X241295972Y-146760135D01*
X241301880Y-146754600D01*
X241303110Y-146753521D01*
X241309394Y-146748363D01*
X241318792Y-146741151D01*
X242261208Y-146741151D01*
X242270606Y-146748363D01*
X242276890Y-146753521D01*
X242278120Y-146754600D01*
X242284028Y-146760135D01*
X242389865Y-146865972D01*
X242395400Y-146871880D01*
X242396479Y-146873110D01*
X242401637Y-146879394D01*
X242412529Y-146893588D01*
X242417271Y-146900207D01*
X242418180Y-146901568D01*
X242422451Y-146908437D01*
X242497290Y-147038060D01*
X242501113Y-147045213D01*
X242501837Y-147046681D01*
X242505191Y-147054084D01*
X242512037Y-147070615D01*
X242514888Y-147078189D01*
X242515414Y-147079738D01*
X242517774Y-147087515D01*
X242540387Y-147171909D01*
X242880928Y-146831369D01*
X243233066Y-146831369D01*
X243428197Y-147026500D01*
X243474838Y-147026500D01*
X243482946Y-147026765D01*
X243484579Y-147026872D01*
X243492660Y-147027668D01*
X243510399Y-147030004D01*
X243518383Y-147031322D01*
X243519988Y-147031641D01*
X243527909Y-147033487D01*
X243672485Y-147072226D01*
X243680262Y-147074586D01*
X243681811Y-147075112D01*
X243689385Y-147077963D01*
X243694350Y-147080019D01*
X243943001Y-146831369D01*
X244295141Y-146831369D01*
X244650109Y-147186337D01*
X245005077Y-146831369D01*
X245357215Y-146831369D01*
X245712183Y-147186337D01*
X245796300Y-147102220D01*
X245796300Y-146560518D01*
X245789281Y-146553499D01*
X245635085Y-146553499D01*
X245357215Y-146831369D01*
X245005077Y-146831369D01*
X244727207Y-146553499D01*
X244573011Y-146553499D01*
X244295141Y-146831369D01*
X243943001Y-146831369D01*
X243943002Y-146831368D01*
X243665132Y-146553499D01*
X243510936Y-146553499D01*
X243233066Y-146831369D01*
X242880928Y-146831369D01*
X242603058Y-146553499D01*
X242448862Y-146553499D01*
X242261208Y-146741151D01*
X241318792Y-146741151D01*
X241323588Y-146737471D01*
X241330207Y-146732729D01*
X241331568Y-146731820D01*
X241338437Y-146727549D01*
X241468060Y-146652710D01*
X241475213Y-146648887D01*
X241476681Y-146648163D01*
X241484084Y-146644809D01*
X241500615Y-146637963D01*
X241508189Y-146635112D01*
X241509738Y-146634586D01*
X241517515Y-146632226D01*
X241598114Y-146610629D01*
X241540984Y-146553499D01*
X241386788Y-146553499D01*
X241108918Y-146831369D01*
X240756779Y-146831369D01*
X240478909Y-146553499D01*
X240324713Y-146553499D01*
X240046843Y-146831369D01*
X239694705Y-146831369D01*
X239416835Y-146553499D01*
X239262639Y-146553499D01*
X238984769Y-146831369D01*
X238632631Y-146831369D01*
X238354761Y-146553499D01*
X238200565Y-146553499D01*
X237922694Y-146831369D01*
X237570556Y-146831369D01*
X237292686Y-146553499D01*
X237138490Y-146553499D01*
X236860620Y-146831369D01*
X236508482Y-146831369D01*
X236230612Y-146553499D01*
X236076416Y-146553499D01*
X235798546Y-146831369D01*
X235446407Y-146831369D01*
X235168537Y-146553499D01*
X235014341Y-146553499D01*
X234887120Y-146680718D01*
X234032880Y-146680718D01*
X234111363Y-146602235D01*
X234136165Y-146583201D01*
X234106463Y-146553499D01*
X233952267Y-146553499D01*
X233674397Y-146831369D01*
X233296300Y-146831369D01*
X233296300Y-146404499D01*
X233315985Y-146337460D01*
X233368789Y-146291705D01*
X233420300Y-146280499D01*
X245945300Y-146280499D01*
X246012339Y-146300184D01*
G37*
%TD.AperFunction*%
%TA.AperFunction,Conductor*%
G36*
X242581076Y-157602101D02*
G01*
X242617873Y-157617278D01*
X242672343Y-157661037D01*
X242694507Y-157727298D01*
X242694590Y-157731039D01*
X242696836Y-158050900D01*
X242677623Y-158118076D01*
X242625141Y-158164201D01*
X242620296Y-158166330D01*
X242587894Y-158179752D01*
X242587601Y-158179948D01*
X242587593Y-158179955D01*
X242587593Y-158179956D01*
X242552410Y-158215241D01*
X242552410Y-158215242D01*
X242517433Y-158250218D01*
X242517232Y-158250517D01*
X242498417Y-158296130D01*
X242498349Y-158296295D01*
X242479298Y-158342288D01*
X242479289Y-158342339D01*
X242479227Y-158342646D01*
X242479300Y-158392134D01*
X242479300Y-158655500D01*
X242459615Y-158722539D01*
X242406811Y-158768294D01*
X242355300Y-158779500D01*
X241596033Y-158779500D01*
X241528994Y-158759815D01*
X241483239Y-158707011D01*
X241473295Y-158637853D01*
X241502320Y-158574297D01*
X241508352Y-158567819D01*
X242442807Y-157633364D01*
X242444247Y-157634804D01*
X242491836Y-157600048D01*
X242561581Y-157595886D01*
X242581076Y-157602101D01*
G37*
%TD.AperFunction*%
%TD*%
%TA.AperFunction,Conductor*%
%TO.N,GNDL*%
G36*
X260406539Y-146288072D02*
G01*
X260452294Y-146340876D01*
X260463500Y-146392387D01*
X260463501Y-150743387D01*
X260443816Y-150810426D01*
X260391012Y-150856181D01*
X260339501Y-150867387D01*
X253818030Y-150867387D01*
X253817909Y-150867399D01*
X253812334Y-150867399D01*
X253680414Y-150897508D01*
X253558496Y-150956220D01*
X253452705Y-151040583D01*
X253412446Y-151091065D01*
X253355256Y-151131204D01*
X253285445Y-151134053D01*
X253225176Y-151098706D01*
X253193584Y-151036386D01*
X253191500Y-151013750D01*
X253191500Y-150476418D01*
X253464500Y-150476418D01*
X253464500Y-150698480D01*
X253568872Y-150648218D01*
X253575282Y-150645351D01*
X253576578Y-150644815D01*
X253583009Y-150642362D01*
X253597479Y-150637298D01*
X253604140Y-150635176D01*
X253605488Y-150634788D01*
X253612195Y-150633059D01*
X253759066Y-150599538D01*
X253765886Y-150598181D01*
X253767269Y-150597946D01*
X253774161Y-150596973D01*
X253789395Y-150595257D01*
X253796294Y-150594675D01*
X253797695Y-150594596D01*
X253799622Y-150594541D01*
X253799468Y-150594387D01*
X254408606Y-150594387D01*
X254861542Y-150594387D01*
X255470680Y-150594387D01*
X255923616Y-150594387D01*
X256532755Y-150594387D01*
X256985691Y-150594387D01*
X257594829Y-150594387D01*
X258047765Y-150594387D01*
X258656903Y-150594387D01*
X259109840Y-150594387D01*
X259718978Y-150594387D01*
X260171914Y-150594387D01*
X259945446Y-150367919D01*
X259718978Y-150594387D01*
X259109840Y-150594387D01*
X258883371Y-150367918D01*
X258656903Y-150594387D01*
X258047765Y-150594387D01*
X257821297Y-150367919D01*
X257594829Y-150594387D01*
X256985691Y-150594387D01*
X256759223Y-150367919D01*
X256532755Y-150594387D01*
X255923616Y-150594387D01*
X255697148Y-150367919D01*
X255470680Y-150594387D01*
X254861542Y-150594387D01*
X254635074Y-150367919D01*
X254408606Y-150594387D01*
X253799468Y-150594387D01*
X253572999Y-150367918D01*
X253464500Y-150476418D01*
X253191500Y-150476418D01*
X253191500Y-150191850D01*
X253749069Y-150191850D01*
X254104037Y-150546818D01*
X254459005Y-150191850D01*
X254811143Y-150191850D01*
X255166111Y-150546818D01*
X255521079Y-150191850D01*
X255521078Y-150191849D01*
X255873217Y-150191849D01*
X256228185Y-150546818D01*
X256583154Y-150191850D01*
X256935292Y-150191850D01*
X257290260Y-150546818D01*
X257645228Y-150191850D01*
X257997366Y-150191850D01*
X258352334Y-150546818D01*
X258707302Y-150191850D01*
X259059441Y-150191850D01*
X259414409Y-150546818D01*
X259769377Y-150191850D01*
X259414409Y-149836882D01*
X259059441Y-150191850D01*
X258707302Y-150191850D01*
X258352334Y-149836882D01*
X257997366Y-150191850D01*
X257645228Y-150191850D01*
X257290260Y-149836882D01*
X256935292Y-150191850D01*
X256583154Y-150191850D01*
X256228185Y-149836881D01*
X255873217Y-150191849D01*
X255521078Y-150191849D01*
X255166111Y-149836882D01*
X254811143Y-150191850D01*
X254459005Y-150191850D01*
X254104037Y-149836882D01*
X253749069Y-150191850D01*
X253191500Y-150191850D01*
X253191500Y-149856549D01*
X253464500Y-149856549D01*
X253464500Y-149907281D01*
X253573000Y-150015781D01*
X253927968Y-149660813D01*
X254280106Y-149660813D01*
X254635074Y-150015781D01*
X254990042Y-149660813D01*
X255342180Y-149660813D01*
X255697148Y-150015781D01*
X256052116Y-149660813D01*
X256404255Y-149660813D01*
X256759223Y-150015781D01*
X257114191Y-149660813D01*
X257466329Y-149660813D01*
X257821297Y-150015781D01*
X258127884Y-149709193D01*
X258113955Y-149703424D01*
X258110804Y-149701605D01*
X258569195Y-149701605D01*
X258883371Y-150015781D01*
X259238339Y-149660813D01*
X259590478Y-149660813D01*
X259945445Y-150015780D01*
X260190500Y-149770726D01*
X260190500Y-149550899D01*
X259945446Y-149305845D01*
X259590478Y-149660813D01*
X259238339Y-149660813D01*
X258883371Y-149305844D01*
X258878773Y-149310442D01*
X258855812Y-149396137D01*
X258843424Y-149426045D01*
X258787471Y-149522957D01*
X258767765Y-149548637D01*
X258688637Y-149627765D01*
X258662957Y-149647471D01*
X258569195Y-149701605D01*
X258110804Y-149701605D01*
X258017043Y-149647471D01*
X257991363Y-149627765D01*
X257912235Y-149548637D01*
X257892529Y-149522957D01*
X257836576Y-149426045D01*
X257824188Y-149396137D01*
X257804496Y-149322645D01*
X257466329Y-149660813D01*
X257114191Y-149660813D01*
X256759223Y-149305845D01*
X256404255Y-149660813D01*
X256052116Y-149660813D01*
X255697148Y-149305845D01*
X255342180Y-149660813D01*
X254990042Y-149660813D01*
X254635074Y-149305845D01*
X254280106Y-149660813D01*
X253927968Y-149660813D01*
X253794102Y-149526947D01*
X253464500Y-149856549D01*
X253191500Y-149856549D01*
X253191500Y-149794833D01*
X253211185Y-149727794D01*
X253227819Y-149707152D01*
X253487098Y-149447873D01*
X253585938Y-149349033D01*
X253968326Y-149349033D01*
X254104036Y-149484743D01*
X254459005Y-149129775D01*
X254811142Y-149129775D01*
X255166111Y-149484743D01*
X255521079Y-149129775D01*
X255873217Y-149129775D01*
X256228185Y-149484743D01*
X256583154Y-149129775D01*
X256935291Y-149129775D01*
X257290260Y-149484743D01*
X257645228Y-149129775D01*
X259059440Y-149129775D01*
X259414409Y-149484743D01*
X259769377Y-149129775D01*
X259414409Y-148774807D01*
X259059440Y-149129775D01*
X257645228Y-149129775D01*
X257290260Y-148774807D01*
X256935291Y-149129775D01*
X256583154Y-149129775D01*
X256228185Y-148774806D01*
X255873217Y-149129775D01*
X255521079Y-149129775D01*
X255166111Y-148774807D01*
X254811142Y-149129775D01*
X254459005Y-149129775D01*
X254104037Y-148774807D01*
X254083500Y-148795344D01*
X254083500Y-149048509D01*
X254083235Y-149056617D01*
X254083128Y-149058250D01*
X254082332Y-149066331D01*
X254079996Y-149084070D01*
X254078678Y-149092054D01*
X254078359Y-149093659D01*
X254076513Y-149101580D01*
X254051403Y-149195289D01*
X254049051Y-149203043D01*
X254048525Y-149204593D01*
X254045664Y-149212195D01*
X254038818Y-149228724D01*
X254035481Y-149236092D01*
X254034757Y-149237561D01*
X254030916Y-149244748D01*
X253999227Y-149299627D01*
X253999216Y-149299653D01*
X253982410Y-149328760D01*
X253978141Y-149335627D01*
X253977232Y-149336988D01*
X253972493Y-149343604D01*
X253968326Y-149349033D01*
X253585938Y-149349033D01*
X253750460Y-149184511D01*
X253758549Y-149170500D01*
X253790021Y-149115989D01*
X253810500Y-149039562D01*
X253810500Y-148598738D01*
X254280106Y-148598738D01*
X254635074Y-148953706D01*
X254990042Y-148598738D01*
X255342180Y-148598738D01*
X255697148Y-148953706D01*
X256052116Y-148598738D01*
X256404255Y-148598738D01*
X256759223Y-148953706D01*
X257114191Y-148598738D01*
X257466329Y-148598738D01*
X257821296Y-148953705D01*
X257885112Y-148889889D01*
X257892531Y-148877040D01*
X257912235Y-148851363D01*
X257991363Y-148772235D01*
X258017040Y-148752531D01*
X258029891Y-148745110D01*
X258176263Y-148598738D01*
X258528403Y-148598738D01*
X258883371Y-148953706D01*
X259238339Y-148598738D01*
X259590478Y-148598738D01*
X259945445Y-148953705D01*
X260190500Y-148708651D01*
X260190500Y-148488824D01*
X259945446Y-148243770D01*
X259590478Y-148598738D01*
X259238339Y-148598738D01*
X258883371Y-148243769D01*
X258528403Y-148598738D01*
X258176263Y-148598738D01*
X258176264Y-148598737D01*
X257821297Y-148243770D01*
X257466329Y-148598738D01*
X257114191Y-148598738D01*
X256759223Y-148243770D01*
X256404255Y-148598738D01*
X256052116Y-148598738D01*
X255697148Y-148243770D01*
X255342180Y-148598738D01*
X254990042Y-148598738D01*
X254635074Y-148243770D01*
X254280106Y-148598738D01*
X253810500Y-148598738D01*
X253810500Y-148408676D01*
X253824614Y-148360610D01*
X254166095Y-148360610D01*
X254459005Y-148067701D01*
X254811143Y-148067701D01*
X255166111Y-148422669D01*
X255521079Y-148067701D01*
X255873217Y-148067701D01*
X256228185Y-148422669D01*
X256578453Y-148072401D01*
X256563902Y-148068502D01*
X256936093Y-148068502D01*
X257290260Y-148422669D01*
X257645228Y-148067701D01*
X257997366Y-148067701D01*
X258352334Y-148422669D01*
X258707302Y-148067701D01*
X259059441Y-148067701D01*
X259414409Y-148422669D01*
X259769377Y-148067701D01*
X259414409Y-147712733D01*
X259059441Y-148067701D01*
X258707302Y-148067701D01*
X258352334Y-147712733D01*
X257997366Y-148067701D01*
X257645228Y-148067701D01*
X257290260Y-147712733D01*
X257269089Y-147733903D01*
X257265812Y-147746136D01*
X257253424Y-147776045D01*
X257197471Y-147872957D01*
X257177765Y-147898637D01*
X257098637Y-147977765D01*
X257072957Y-147997471D01*
X256976045Y-148053424D01*
X256946136Y-148065812D01*
X256936093Y-148068502D01*
X256563902Y-148068502D01*
X256553863Y-148065812D01*
X256523955Y-148053424D01*
X256427043Y-147997471D01*
X256401363Y-147977765D01*
X256322235Y-147898637D01*
X256302529Y-147872957D01*
X256246576Y-147776045D01*
X256234188Y-147746138D01*
X256225860Y-147715058D01*
X255873217Y-148067701D01*
X255521079Y-148067701D01*
X255166111Y-147712733D01*
X254811143Y-148067701D01*
X254459005Y-148067701D01*
X254283500Y-147892196D01*
X254283500Y-148024838D01*
X254283235Y-148032946D01*
X254283128Y-148034579D01*
X254282332Y-148042660D01*
X254279996Y-148060399D01*
X254278678Y-148068383D01*
X254278359Y-148069988D01*
X254276513Y-148077909D01*
X254237774Y-148222485D01*
X254235414Y-148230262D01*
X254234888Y-148231811D01*
X254232037Y-148239385D01*
X254225191Y-148255916D01*
X254221837Y-148263319D01*
X254221113Y-148264787D01*
X254217290Y-148271940D01*
X254166095Y-148360610D01*
X253824614Y-148360610D01*
X253830185Y-148341637D01*
X253846819Y-148320995D01*
X253878274Y-148289540D01*
X253910500Y-148257314D01*
X253976392Y-148143186D01*
X254010500Y-148015892D01*
X254010500Y-147884108D01*
X253976392Y-147756814D01*
X253910500Y-147642686D01*
X253817314Y-147549500D01*
X253795081Y-147536664D01*
X254280106Y-147536664D01*
X254635074Y-147891632D01*
X254990042Y-147536664D01*
X255342180Y-147536664D01*
X255697148Y-147891632D01*
X256052116Y-147536664D01*
X257466329Y-147536664D01*
X257821297Y-147891632D01*
X258176265Y-147536664D01*
X258528403Y-147536664D01*
X258883371Y-147891632D01*
X259238339Y-147536664D01*
X259590478Y-147536664D01*
X259945445Y-147891631D01*
X260190500Y-147646577D01*
X260190500Y-147426750D01*
X259945446Y-147181696D01*
X259590478Y-147536664D01*
X259238339Y-147536664D01*
X258883371Y-147181695D01*
X258528403Y-147536664D01*
X258176265Y-147536664D01*
X257821297Y-147181696D01*
X257466329Y-147536664D01*
X256052116Y-147536664D01*
X255697148Y-147181696D01*
X255342180Y-147536664D01*
X254990042Y-147536664D01*
X254635074Y-147181696D01*
X254280106Y-147536664D01*
X253795081Y-147536664D01*
X253737096Y-147503186D01*
X253703187Y-147483608D01*
X253639539Y-147466554D01*
X253575892Y-147449500D01*
X253444108Y-147449500D01*
X253316812Y-147483608D01*
X253202686Y-147549500D01*
X253202683Y-147549502D01*
X253109502Y-147642683D01*
X253109500Y-147642686D01*
X253043608Y-147756812D01*
X253009500Y-147884108D01*
X253009500Y-147965500D01*
X252989815Y-148032539D01*
X252937011Y-148078294D01*
X252885500Y-148089500D01*
X252864108Y-148089500D01*
X252736812Y-148123608D01*
X252622686Y-148189500D01*
X252622683Y-148189502D01*
X252529502Y-148282683D01*
X252529500Y-148282686D01*
X252463608Y-148396812D01*
X252429500Y-148524108D01*
X252429500Y-148614165D01*
X252409815Y-148681204D01*
X252393182Y-148701846D01*
X252274689Y-148820340D01*
X252218738Y-148876290D01*
X252208954Y-148893238D01*
X252158385Y-148941452D01*
X252089778Y-148954673D01*
X252024914Y-148928704D01*
X252013887Y-148918916D01*
X251724512Y-148629541D01*
X251724504Y-148629535D01*
X251655995Y-148589982D01*
X251655990Y-148589979D01*
X251630513Y-148583152D01*
X251579562Y-148569500D01*
X251579560Y-148569500D01*
X249295833Y-148569500D01*
X249228794Y-148549815D01*
X249208152Y-148533181D01*
X248776819Y-148101848D01*
X248758173Y-148067701D01*
X249500771Y-148067701D01*
X249729570Y-148296500D01*
X249981908Y-148296500D01*
X250210707Y-148067701D01*
X250210706Y-148067700D01*
X250562845Y-148067700D01*
X250791645Y-148296500D01*
X251043983Y-148296500D01*
X251272782Y-148067701D01*
X251624920Y-148067701D01*
X251979888Y-148422669D01*
X252334856Y-148067701D01*
X251979888Y-147712733D01*
X251624920Y-148067701D01*
X251272782Y-148067701D01*
X250917813Y-147712732D01*
X250562845Y-148067700D01*
X250210706Y-148067700D01*
X249855739Y-147712733D01*
X249500771Y-148067701D01*
X248758173Y-148067701D01*
X248743334Y-148040525D01*
X248740500Y-148014167D01*
X248740500Y-147768676D01*
X248760185Y-147701637D01*
X248774314Y-147684103D01*
X249117173Y-147684103D01*
X249324702Y-147891632D01*
X249679670Y-147536664D01*
X250031808Y-147536664D01*
X250386776Y-147891632D01*
X250741744Y-147536664D01*
X251093883Y-147536664D01*
X251448851Y-147891632D01*
X251803819Y-147536664D01*
X252155957Y-147536664D01*
X252510924Y-147891631D01*
X252841253Y-147561302D01*
X252859290Y-147530061D01*
X252510925Y-147181696D01*
X252155957Y-147536664D01*
X251803819Y-147536664D01*
X251448851Y-147181696D01*
X251093883Y-147536664D01*
X250741744Y-147536664D01*
X250386776Y-147181696D01*
X250031808Y-147536664D01*
X249679670Y-147536664D01*
X249324702Y-147181696D01*
X249213500Y-147292898D01*
X249213500Y-147384838D01*
X249213235Y-147392946D01*
X249213128Y-147394579D01*
X249212332Y-147402660D01*
X249209996Y-147420399D01*
X249208678Y-147428383D01*
X249208359Y-147429988D01*
X249206513Y-147437909D01*
X249167774Y-147582485D01*
X249165414Y-147590262D01*
X249164888Y-147591811D01*
X249162037Y-147599385D01*
X249155191Y-147615916D01*
X249151837Y-147623319D01*
X249151113Y-147624787D01*
X249147290Y-147631940D01*
X249117173Y-147684103D01*
X248774314Y-147684103D01*
X248776819Y-147680995D01*
X248840500Y-147617314D01*
X248906392Y-147503186D01*
X248940500Y-147375892D01*
X248940500Y-147244108D01*
X248906392Y-147116814D01*
X248842198Y-147005627D01*
X249500771Y-147005627D01*
X249855739Y-147360595D01*
X250210707Y-147005627D01*
X250562845Y-147005627D01*
X250917813Y-147360595D01*
X251272782Y-147005627D01*
X251624920Y-147005627D01*
X251979888Y-147360595D01*
X252334856Y-147005627D01*
X252334855Y-147005626D01*
X252686993Y-147005626D01*
X253024086Y-147342719D01*
X253029394Y-147338363D01*
X253043588Y-147327471D01*
X253050207Y-147322729D01*
X253051568Y-147321820D01*
X253058437Y-147317550D01*
X253121302Y-147281253D01*
X253161908Y-147240647D01*
X253143863Y-147235812D01*
X253113955Y-147223424D01*
X253017043Y-147167471D01*
X252991363Y-147147765D01*
X252912235Y-147068637D01*
X252892994Y-147043563D01*
X253787005Y-147043563D01*
X254104037Y-147360595D01*
X254459005Y-147005627D01*
X254811143Y-147005627D01*
X255166111Y-147360595D01*
X255521079Y-147005627D01*
X255873217Y-147005627D01*
X256228185Y-147360594D01*
X256233922Y-147354857D01*
X256234189Y-147353861D01*
X256246576Y-147323955D01*
X256302529Y-147227043D01*
X256322235Y-147201363D01*
X256401363Y-147122235D01*
X256427043Y-147102529D01*
X256523955Y-147046576D01*
X256553861Y-147034189D01*
X256554857Y-147033922D01*
X256583152Y-147005627D01*
X256935292Y-147005627D01*
X256976508Y-147046843D01*
X257072957Y-147102529D01*
X257098637Y-147122235D01*
X257177765Y-147201363D01*
X257197471Y-147227043D01*
X257253156Y-147323491D01*
X257290260Y-147360595D01*
X257645228Y-147005627D01*
X257997366Y-147005627D01*
X258352334Y-147360595D01*
X258707302Y-147005627D01*
X259059441Y-147005627D01*
X259414409Y-147360595D01*
X259769377Y-147005627D01*
X259414409Y-146650659D01*
X259059441Y-147005627D01*
X258707302Y-147005627D01*
X258352334Y-146650659D01*
X257997366Y-147005627D01*
X257645228Y-147005627D01*
X257290260Y-146650659D01*
X256935292Y-147005627D01*
X256583152Y-147005627D01*
X256583153Y-147005626D01*
X256228185Y-146650658D01*
X255873217Y-147005627D01*
X255521079Y-147005627D01*
X255166111Y-146650659D01*
X254811143Y-147005627D01*
X254459005Y-147005627D01*
X254104036Y-146650658D01*
X253862126Y-146892568D01*
X253855812Y-146916136D01*
X253843424Y-146946045D01*
X253787471Y-147042957D01*
X253787005Y-147043563D01*
X252892994Y-147043563D01*
X252892529Y-147042957D01*
X252836576Y-146946045D01*
X252824188Y-146916137D01*
X252814106Y-146878513D01*
X252686993Y-147005626D01*
X252334855Y-147005626D01*
X251979888Y-146650659D01*
X251624920Y-147005627D01*
X251272782Y-147005627D01*
X250917813Y-146650658D01*
X250562845Y-147005627D01*
X250210707Y-147005627D01*
X249855739Y-146650659D01*
X249500771Y-147005627D01*
X248842198Y-147005627D01*
X248840500Y-147002686D01*
X248747314Y-146909500D01*
X248690250Y-146876554D01*
X248633187Y-146843608D01*
X248569539Y-146826554D01*
X248505892Y-146809500D01*
X248374108Y-146809500D01*
X248246812Y-146843608D01*
X248132686Y-146909500D01*
X248132683Y-146909502D01*
X248039502Y-147002683D01*
X248039500Y-147002686D01*
X247973608Y-147116812D01*
X247941723Y-147235812D01*
X247939500Y-147244108D01*
X247939500Y-147375892D01*
X247951426Y-147420399D01*
X247973608Y-147503187D01*
X248000347Y-147549500D01*
X248039500Y-147617314D01*
X248039502Y-147617316D01*
X248103181Y-147680995D01*
X248136666Y-147742318D01*
X248139500Y-147768676D01*
X248139500Y-148229562D01*
X248148939Y-148264787D01*
X248159979Y-148305990D01*
X248159982Y-148305995D01*
X248199535Y-148374504D01*
X248199539Y-148374509D01*
X248199540Y-148374511D01*
X248539540Y-148714511D01*
X248935489Y-149110460D01*
X249004012Y-149150022D01*
X249080438Y-149170500D01*
X249159562Y-149170500D01*
X249570438Y-149170500D01*
X251364167Y-149170500D01*
X251431206Y-149190185D01*
X251451848Y-149206819D01*
X251741381Y-149496352D01*
X251774866Y-149557675D01*
X251777700Y-149584033D01*
X251777700Y-150189325D01*
X251777700Y-157609049D01*
X251786827Y-157643110D01*
X251798179Y-157685477D01*
X251816607Y-157717395D01*
X251833507Y-157746666D01*
X251837740Y-157753998D01*
X252294940Y-158211198D01*
X252350889Y-158267147D01*
X252350891Y-158267148D01*
X252350895Y-158267151D01*
X252419404Y-158306704D01*
X252419411Y-158306708D01*
X252495838Y-158327187D01*
X252574962Y-158327187D01*
X275854567Y-158327187D01*
X275921606Y-158346872D01*
X275942248Y-158363506D01*
X276308831Y-158730089D01*
X276342316Y-158791412D01*
X276345150Y-158817770D01*
X276345150Y-160087087D01*
X276325465Y-160154126D01*
X276272661Y-160199881D01*
X276221150Y-160211087D01*
X276019610Y-160211087D01*
X275952571Y-160191402D01*
X275906816Y-160138598D01*
X275895610Y-160087332D01*
X275894998Y-159777570D01*
X275894106Y-159325559D01*
X275894109Y-159325536D01*
X275894095Y-159318355D01*
X275894108Y-159318307D01*
X275893967Y-159243289D01*
X275893906Y-159210564D01*
X275868649Y-159100786D01*
X275819626Y-158999367D01*
X275749290Y-158911379D01*
X275661158Y-158841224D01*
X275661156Y-158841223D01*
X275661155Y-158841222D01*
X275559640Y-158792409D01*
X275486418Y-158775721D01*
X275449809Y-158767377D01*
X275449808Y-158767377D01*
X275449807Y-158767377D01*
X275393486Y-158767387D01*
X251404500Y-158767387D01*
X251337461Y-158747702D01*
X251291706Y-158694898D01*
X251280500Y-158643387D01*
X251280500Y-158442011D01*
X251280590Y-158441095D01*
X251280500Y-158379633D01*
X251280500Y-158330168D01*
X251280428Y-158329808D01*
X251270820Y-158306708D01*
X251261291Y-158283796D01*
X251242364Y-158238102D01*
X251242362Y-158238100D01*
X251242361Y-158238097D01*
X251242158Y-158237793D01*
X251206872Y-158202610D01*
X251206743Y-158202481D01*
X251171896Y-158167633D01*
X251171594Y-158167431D01*
X251171587Y-158167428D01*
X251125860Y-158148565D01*
X251125716Y-158148449D01*
X251125697Y-158148497D01*
X251108452Y-158141354D01*
X251054048Y-158097514D01*
X251031983Y-158031220D01*
X251031905Y-158027381D01*
X251030981Y-157821305D01*
X251429985Y-157821305D01*
X251430720Y-157985099D01*
X251507555Y-157964512D01*
X251539648Y-157960287D01*
X251606698Y-157960287D01*
X251448851Y-157802440D01*
X251429985Y-157821305D01*
X251030981Y-157821305D01*
X251030591Y-157734332D01*
X251049975Y-157667208D01*
X251102573Y-157621217D01*
X251106938Y-157619301D01*
X251117925Y-157614730D01*
X251125686Y-157611503D01*
X251125855Y-157611433D01*
X251142849Y-157604393D01*
X251171897Y-157592362D01*
X251171900Y-157592358D01*
X251172215Y-157592148D01*
X251172215Y-157592147D01*
X251172217Y-157592147D01*
X251207065Y-157557193D01*
X251242364Y-157521895D01*
X251242365Y-157521892D01*
X251242575Y-157521577D01*
X251242578Y-157521574D01*
X251261514Y-157475662D01*
X251280500Y-157429826D01*
X251280500Y-157429821D01*
X251280573Y-157429451D01*
X251280575Y-157429448D01*
X251280500Y-157379949D01*
X251280500Y-154942010D01*
X251280590Y-154941094D01*
X251280500Y-154879632D01*
X251280500Y-154830167D01*
X251280428Y-154829807D01*
X251261291Y-154783795D01*
X251261222Y-154783629D01*
X251242364Y-154738101D01*
X251242362Y-154738099D01*
X251242361Y-154738096D01*
X251242158Y-154737792D01*
X251206872Y-154702609D01*
X251206743Y-154702480D01*
X251171896Y-154667632D01*
X251171594Y-154667430D01*
X251171587Y-154667427D01*
X251125860Y-154648564D01*
X251125715Y-154648448D01*
X251125696Y-154648496D01*
X251092730Y-154634841D01*
X251038327Y-154591000D01*
X251016262Y-154524706D01*
X251016185Y-154520886D01*
X251014929Y-154240846D01*
X251017257Y-154232783D01*
X251417556Y-154232783D01*
X251448851Y-154264078D01*
X251504700Y-154208229D01*
X251504700Y-154102038D01*
X251489750Y-154138281D01*
X251484494Y-154149419D01*
X251483321Y-154151615D01*
X251476963Y-154162209D01*
X251469537Y-154173291D01*
X251469538Y-154173292D01*
X251462167Y-154184378D01*
X251454843Y-154194287D01*
X251453269Y-154196209D01*
X251445014Y-154205326D01*
X251417556Y-154232783D01*
X251017257Y-154232783D01*
X251034312Y-154173725D01*
X251086910Y-154127734D01*
X251091309Y-154125804D01*
X251126204Y-154111291D01*
X251126211Y-154111310D01*
X251126361Y-154111224D01*
X251171897Y-154092364D01*
X251171901Y-154092359D01*
X251172041Y-154092267D01*
X251172199Y-154092160D01*
X251172207Y-154092157D01*
X251207389Y-154056872D01*
X251242364Y-154021897D01*
X251242366Y-154021890D01*
X251242490Y-154021706D01*
X251242564Y-154021593D01*
X251242571Y-154021587D01*
X251261571Y-153975526D01*
X251261572Y-153975526D01*
X251261602Y-153975449D01*
X251280500Y-153929828D01*
X251280500Y-153929823D01*
X251280571Y-153929465D01*
X251280573Y-153929462D01*
X251280500Y-153879634D01*
X251280500Y-151068059D01*
X251242364Y-150975990D01*
X251171897Y-150905523D01*
X251079829Y-150867387D01*
X251079828Y-150867387D01*
X247814500Y-150867387D01*
X247747461Y-150847702D01*
X247701706Y-150794898D01*
X247690500Y-150743387D01*
X247690500Y-150620235D01*
X251196534Y-150620235D01*
X251288788Y-150658448D01*
X251299798Y-150663656D01*
X251301964Y-150664814D01*
X251312393Y-150671066D01*
X251334744Y-150686001D01*
X251344503Y-150693237D01*
X251346402Y-150694795D01*
X251355432Y-150702979D01*
X251444908Y-150792455D01*
X251453092Y-150801485D01*
X251454650Y-150803384D01*
X251461886Y-150813143D01*
X251476821Y-150835494D01*
X251483073Y-150845923D01*
X251484231Y-150848089D01*
X251489439Y-150859099D01*
X251504700Y-150895942D01*
X251504700Y-150423768D01*
X251448851Y-150367919D01*
X251196534Y-150620235D01*
X247690500Y-150620235D01*
X247690500Y-150594387D01*
X248036160Y-150594387D01*
X248489096Y-150594387D01*
X249098234Y-150594387D01*
X249551170Y-150594387D01*
X249324702Y-150367919D01*
X249098234Y-150594387D01*
X248489096Y-150594387D01*
X248262628Y-150367919D01*
X248036160Y-150594387D01*
X247690500Y-150594387D01*
X247690500Y-150314908D01*
X247963500Y-150314908D01*
X248086557Y-150191850D01*
X248438697Y-150191850D01*
X248793665Y-150546818D01*
X249148633Y-150191850D01*
X249500771Y-150191850D01*
X249855738Y-150546817D01*
X249873627Y-150528927D01*
X249864188Y-150506137D01*
X249835225Y-150398045D01*
X249831000Y-150365952D01*
X249831000Y-150254048D01*
X249835225Y-150221955D01*
X249864188Y-150113863D01*
X249876576Y-150083955D01*
X249932529Y-149987043D01*
X249952235Y-149961363D01*
X249959451Y-149954146D01*
X250800548Y-149954146D01*
X250807765Y-149961363D01*
X250827471Y-149987043D01*
X250883424Y-150083955D01*
X250895812Y-150113863D01*
X250924775Y-150221955D01*
X250929000Y-150254048D01*
X250929000Y-150365952D01*
X250924775Y-150398045D01*
X250895812Y-150506137D01*
X250890340Y-150519344D01*
X250917814Y-150546818D01*
X251272782Y-150191850D01*
X250917814Y-149836882D01*
X250800548Y-149954146D01*
X249959451Y-149954146D01*
X249966227Y-149947370D01*
X249855739Y-149836882D01*
X249500771Y-150191850D01*
X249148633Y-150191850D01*
X248793665Y-149836882D01*
X248438697Y-150191850D01*
X248086557Y-150191850D01*
X248086558Y-150191849D01*
X247963500Y-150068791D01*
X247963500Y-150314908D01*
X247690500Y-150314908D01*
X247690500Y-149604973D01*
X247963500Y-149604973D01*
X247963500Y-149716653D01*
X248262628Y-150015781D01*
X248617596Y-149660813D01*
X248969734Y-149660813D01*
X249324702Y-150015781D01*
X249679670Y-149660813D01*
X250031808Y-149660813D01*
X250170654Y-149799659D01*
X250183863Y-149794188D01*
X250291955Y-149765225D01*
X250324048Y-149761000D01*
X250435952Y-149761000D01*
X250468045Y-149765225D01*
X250576137Y-149794188D01*
X250598928Y-149803628D01*
X250741742Y-149660813D01*
X251093883Y-149660813D01*
X251448851Y-150015781D01*
X251504700Y-149959932D01*
X251504700Y-149645751D01*
X251306822Y-149447873D01*
X251093883Y-149660813D01*
X250741742Y-149660813D01*
X250741743Y-149660812D01*
X250524431Y-149443500D01*
X250249121Y-149443500D01*
X250031808Y-149660813D01*
X249679670Y-149660813D01*
X249462357Y-149443500D01*
X249187047Y-149443500D01*
X248969734Y-149660813D01*
X248617596Y-149660813D01*
X248262628Y-149305845D01*
X247963500Y-149604973D01*
X247690500Y-149604973D01*
X247690500Y-149252834D01*
X247963500Y-149252834D01*
X248086558Y-149129775D01*
X248438696Y-149129775D01*
X248793664Y-149484743D01*
X248883251Y-149395157D01*
X248882411Y-149394743D01*
X248875258Y-149390919D01*
X248791240Y-149342410D01*
X248784371Y-149338140D01*
X248783010Y-149337231D01*
X248776391Y-149332489D01*
X248762197Y-149321597D01*
X248755913Y-149316439D01*
X248754683Y-149315360D01*
X248748775Y-149309825D01*
X248503711Y-149064761D01*
X248438696Y-149129775D01*
X248086558Y-149129775D01*
X247963500Y-149006716D01*
X247963500Y-149252834D01*
X247690500Y-149252834D01*
X247690500Y-148978060D01*
X247690499Y-148978057D01*
X247680813Y-148954673D01*
X247652364Y-148885990D01*
X247581897Y-148815523D01*
X247489829Y-148777387D01*
X247477851Y-148775005D01*
X247478244Y-148773025D01*
X247426059Y-148757702D01*
X247380304Y-148704898D01*
X247369134Y-148650404D01*
X247370377Y-148598737D01*
X247907659Y-148598737D01*
X248262628Y-148953706D01*
X248327642Y-148888692D01*
X248000175Y-148561225D01*
X247994640Y-148555317D01*
X247993561Y-148554087D01*
X247988404Y-148547804D01*
X247977511Y-148533609D01*
X247975539Y-148530857D01*
X247907659Y-148598737D01*
X247370377Y-148598737D01*
X247375174Y-148399405D01*
X247396466Y-148332858D01*
X247450355Y-148288387D01*
X247478229Y-148282673D01*
X247477851Y-148280770D01*
X247489824Y-148278388D01*
X247489828Y-148278388D01*
X247581897Y-148240252D01*
X247652364Y-148169785D01*
X247690500Y-148077716D01*
X247690500Y-146541387D01*
X247974458Y-146541387D01*
X248065897Y-146632826D01*
X248118060Y-146602710D01*
X248125213Y-146598887D01*
X248126681Y-146598163D01*
X248134084Y-146594809D01*
X248150615Y-146587963D01*
X248158189Y-146585112D01*
X248159738Y-146584586D01*
X248167515Y-146582226D01*
X248312091Y-146543487D01*
X248320012Y-146541641D01*
X248321290Y-146541387D01*
X249036532Y-146541387D01*
X249324702Y-146829557D01*
X249612872Y-146541387D01*
X250098606Y-146541387D01*
X250386776Y-146829557D01*
X250674946Y-146541387D01*
X251160681Y-146541387D01*
X251448851Y-146829557D01*
X251737021Y-146541387D01*
X252222755Y-146541387D01*
X252510924Y-146829557D01*
X252799095Y-146541387D01*
X254346904Y-146541387D01*
X254635074Y-146829557D01*
X254923244Y-146541387D01*
X255408978Y-146541387D01*
X255697148Y-146829557D01*
X255985318Y-146541387D01*
X256471053Y-146541387D01*
X256759223Y-146829557D01*
X257047393Y-146541387D01*
X257533127Y-146541387D01*
X257821297Y-146829557D01*
X258109467Y-146541387D01*
X258595201Y-146541387D01*
X258883371Y-146829557D01*
X259171542Y-146541387D01*
X259657276Y-146541387D01*
X259945445Y-146829557D01*
X260190500Y-146584503D01*
X260190500Y-146541387D01*
X259657276Y-146541387D01*
X259171542Y-146541387D01*
X258595201Y-146541387D01*
X258109467Y-146541387D01*
X257533127Y-146541387D01*
X257047393Y-146541387D01*
X256471053Y-146541387D01*
X255985318Y-146541387D01*
X255408978Y-146541387D01*
X254923244Y-146541387D01*
X254346904Y-146541387D01*
X252799095Y-146541387D01*
X252222755Y-146541387D01*
X251737021Y-146541387D01*
X251160681Y-146541387D01*
X250674946Y-146541387D01*
X250098606Y-146541387D01*
X249612872Y-146541387D01*
X249036532Y-146541387D01*
X248321290Y-146541387D01*
X247974458Y-146541387D01*
X247690500Y-146541387D01*
X247690500Y-146392387D01*
X247710185Y-146325348D01*
X247762989Y-146279593D01*
X247814500Y-146268387D01*
X260339500Y-146268387D01*
X260406539Y-146288072D01*
G37*
%TD.AperFunction*%
%TA.AperFunction,Conductor*%
G36*
X277835797Y-156788072D02*
G01*
X277881552Y-156840876D01*
X277892757Y-156892299D01*
X277892930Y-157142111D01*
X277893326Y-157717395D01*
X277873688Y-157784448D01*
X277820915Y-157830239D01*
X277751763Y-157840230D01*
X277688188Y-157811249D01*
X277681645Y-157805161D01*
X276856553Y-156980068D01*
X276823068Y-156918745D01*
X276828052Y-156849053D01*
X276869924Y-156793120D01*
X276935388Y-156768703D01*
X276944234Y-156768387D01*
X277768758Y-156768387D01*
X277835797Y-156788072D01*
G37*
%TD.AperFunction*%
%TD*%
M02*
