%TF.GenerationSoftware,KiCad,Pcbnew,9.0.6-rc2*%
%TF.CreationDate,2025-11-19T20:35:16-08:00*%
%TF.ProjectId,FPCJr_Trigger_Board,4650434a-725f-4547-9269-676765725f42,rev?*%
%TF.SameCoordinates,Original*%
%TF.FileFunction,Copper,L2,Bot*%
%TF.FilePolarity,Positive*%
%FSLAX46Y46*%
G04 Gerber Fmt 4.6, Leading zero omitted, Abs format (unit mm)*
G04 Created by KiCad (PCBNEW 9.0.6-rc2) date 2025-11-19 20:35:16*
%MOMM*%
%LPD*%
G01*
G04 APERTURE LIST*
G04 Aperture macros list*
%AMRoundRect*
0 Rectangle with rounded corners*
0 $1 Rounding radius*
0 $2 $3 $4 $5 $6 $7 $8 $9 X,Y pos of 4 corners*
0 Add a 4 corners polygon primitive as box body*
4,1,4,$2,$3,$4,$5,$6,$7,$8,$9,$2,$3,0*
0 Add four circle primitives for the rounded corners*
1,1,$1+$1,$2,$3*
1,1,$1+$1,$4,$5*
1,1,$1+$1,$6,$7*
1,1,$1+$1,$8,$9*
0 Add four rect primitives between the rounded corners*
20,1,$1+$1,$2,$3,$4,$5,0*
20,1,$1+$1,$4,$5,$6,$7,0*
20,1,$1+$1,$6,$7,$8,$9,0*
20,1,$1+$1,$8,$9,$2,$3,0*%
G04 Aperture macros list end*
%TA.AperFunction,SMDPad,CuDef*%
%ADD10RoundRect,0.015000X0.135000X-1.985000X0.135000X1.985000X-0.135000X1.985000X-0.135000X-1.985000X0*%
%TD*%
%TA.AperFunction,ViaPad*%
%ADD11C,0.600000*%
%TD*%
%TA.AperFunction,Conductor*%
%ADD12C,0.200000*%
%TD*%
G04 APERTURE END LIST*
D10*
%TO.P,J2,1,Pin_1*%
%TO.N,+3V3L*%
X281345450Y-162373240D03*
%TO.P,J2,2,Pin_2*%
%TO.N,TRIGGER_EN_L*%
X280845450Y-162373240D03*
%TO.P,J2,3,Pin_3*%
%TO.N,ADC_0*%
X280345450Y-162373240D03*
%TO.P,J2,4,Pin_4*%
%TO.N,GNDL*%
X279845450Y-162373240D03*
%TD*%
%TO.P,J1,1,Pin_1*%
%TO.N,+3V3*%
X227617666Y-162373240D03*
%TO.P,J1,2,Pin_2*%
%TO.N,TRIGGER_EN_R*%
X227117666Y-162373240D03*
%TO.P,J1,3,Pin_3*%
%TO.N,ADC_1*%
X226617666Y-162373240D03*
%TO.P,J1,4,Pin_4*%
%TO.N,GND*%
X226117666Y-162373240D03*
%TD*%
D11*
%TO.N,GND*%
X226364800Y-157276800D03*
X252247400Y-158496000D03*
X247269000Y-149987000D03*
%TO.N,TRIGGER_EN_L*%
X266242800Y-149707600D03*
%TO.N,+3V3*%
X246507000Y-148361400D03*
%TO.N,ADC_0*%
X256184400Y-150088600D03*
%TO.N,ADC_1*%
X245668800Y-149885400D03*
%TO.N,TRIGGER_EN_R*%
X245770400Y-148945600D03*
%TO.N,+3V3L*%
X259384800Y-150368000D03*
%TO.N,GNDL*%
X262153400Y-148996400D03*
X281279600Y-157124400D03*
X255295400Y-158521400D03*
%TD*%
D12*
%TO.N,GND*%
X226117666Y-162373240D02*
X226117666Y-158565334D01*
X250850400Y-150317200D02*
X249326400Y-150317200D01*
X250901200Y-150368000D02*
X250850400Y-150317200D01*
X249326400Y-150317200D02*
X247599200Y-150317200D01*
X226745800Y-157937200D02*
X227457000Y-157226000D01*
X250723400Y-157226000D02*
X250850400Y-157099000D01*
X251053600Y-156032200D02*
X251053600Y-150520400D01*
X227990400Y-157226000D02*
X250723400Y-157226000D01*
X226117666Y-158565334D02*
X226745800Y-157937200D01*
X250850400Y-157099000D02*
X251053600Y-156895800D01*
X251053600Y-156895800D02*
X251053600Y-156032200D01*
X247599200Y-150317200D02*
X247269000Y-149987000D01*
X227457000Y-157226000D02*
X227990400Y-157226000D01*
X251053600Y-150520400D02*
X250901200Y-150368000D01*
%TO.N,TRIGGER_EN_L*%
X256159000Y-150926800D02*
X257378200Y-149707600D01*
X279984200Y-157581600D02*
X256514600Y-157581600D01*
X280845450Y-162373240D02*
X280845450Y-158442850D01*
X257378200Y-149707600D02*
X266242800Y-149707600D01*
X280845450Y-158442850D02*
X279984200Y-157581600D01*
X256159000Y-157226000D02*
X256159000Y-150926800D01*
X256514600Y-157581600D02*
X256159000Y-157226000D01*
%TO.N,+3V3*%
X251383800Y-148971000D02*
X252196600Y-149783800D01*
X248564400Y-148971000D02*
X251383800Y-148971000D01*
X247954800Y-148361400D02*
X248564400Y-148971000D01*
X252196600Y-149783800D02*
X252196600Y-157454600D01*
X252196600Y-157454600D02*
X251256800Y-158394400D01*
X227965000Y-158394400D02*
X227617666Y-158741734D01*
X246507000Y-148361400D02*
X247954800Y-148361400D01*
X227617666Y-158741734D02*
X227617666Y-162373240D01*
X251256800Y-158394400D02*
X227965000Y-158394400D01*
%TO.N,ADC_0*%
X256235200Y-150037800D02*
X256235200Y-149860000D01*
X256184400Y-150088600D02*
X256235200Y-150037800D01*
X255778000Y-150241000D02*
X255778000Y-157581600D01*
X279730200Y-158038800D02*
X280345450Y-158654050D01*
X256235200Y-158038800D02*
X279730200Y-158038800D01*
X280345450Y-158654050D02*
X280345450Y-162373240D01*
X255778000Y-157581600D02*
X256235200Y-158038800D01*
X255930400Y-150088600D02*
X255778000Y-150241000D01*
X256184400Y-150088600D02*
X255930400Y-150088600D01*
%TO.N,ADC_1*%
X251434600Y-150317200D02*
X251053600Y-149936200D01*
X226617666Y-162373240D02*
X226617666Y-158649534D01*
X247548400Y-149377400D02*
X246176800Y-149377400D01*
X246176800Y-149377400D02*
X245668800Y-149885400D01*
X227634800Y-157632400D02*
X250952000Y-157632400D01*
X251053600Y-149936200D02*
X248107200Y-149936200D01*
X248107200Y-149936200D02*
X247548400Y-149377400D01*
X250952000Y-157632400D02*
X251434600Y-157149800D01*
X251434600Y-157149800D02*
X251434600Y-150317200D01*
X226617666Y-158649534D02*
X227634800Y-157632400D01*
%TO.N,TRIGGER_EN_R*%
X251079000Y-158013400D02*
X251815600Y-157276800D01*
X227117666Y-162373240D02*
X227117666Y-158708334D01*
X251815600Y-157276800D02*
X251815600Y-149936200D01*
X227117666Y-158708334D02*
X227812600Y-158013400D01*
X251307600Y-149428200D02*
X248310400Y-149428200D01*
X247827800Y-148945600D02*
X245770400Y-148945600D01*
X251815600Y-149936200D02*
X251307600Y-149428200D01*
X248310400Y-149428200D02*
X247827800Y-148945600D01*
X227812600Y-158013400D02*
X251079000Y-158013400D01*
%TO.N,+3V3L*%
X281345450Y-158206250D02*
X280238200Y-157099000D01*
X259308600Y-150291800D02*
X259384800Y-150368000D01*
X256794000Y-157099000D02*
X256590800Y-156895800D01*
X257327400Y-150291800D02*
X259308600Y-150291800D01*
X256590800Y-151028400D02*
X257327400Y-150291800D01*
X280238200Y-157099000D02*
X256794000Y-157099000D01*
X281345450Y-162373240D02*
X281345450Y-158206250D01*
X256590800Y-156895800D02*
X256590800Y-151028400D01*
%TO.N,GNDL*%
X255397000Y-157784800D02*
X256133600Y-158521400D01*
X279628600Y-158521400D02*
X279845450Y-158738250D01*
X256260600Y-149199600D02*
X255397000Y-150063200D01*
X279845450Y-158738250D02*
X279845450Y-162373240D01*
X256133600Y-158521400D02*
X279628600Y-158521400D01*
X261950200Y-149199600D02*
X256260600Y-149199600D01*
X262153400Y-148996400D02*
X261950200Y-149199600D01*
X255397000Y-150063200D02*
X255397000Y-157784800D01*
%TD*%
%TA.AperFunction,Conductor*%
%TO.N,GND*%
G36*
X249422339Y-146300184D02*
G01*
X249468094Y-146352988D01*
X249479300Y-146404499D01*
X249479300Y-148247666D01*
X249509408Y-148379580D01*
X249509412Y-148379591D01*
X249563882Y-148492699D01*
X249575234Y-148561640D01*
X249547512Y-148625774D01*
X249489516Y-148664740D01*
X249452162Y-148670500D01*
X248740233Y-148670500D01*
X248673194Y-148650815D01*
X248652552Y-148634181D01*
X248255251Y-148236880D01*
X248641331Y-148236880D01*
X248801951Y-148397500D01*
X249136687Y-148397500D01*
X248808699Y-148069512D01*
X248641331Y-148236880D01*
X248255251Y-148236880D01*
X248139312Y-148120941D01*
X248139307Y-148120937D01*
X248129865Y-148115486D01*
X248129864Y-148115486D01*
X248070791Y-148081380D01*
X248070790Y-148081379D01*
X248026505Y-148069513D01*
X247994362Y-148060900D01*
X247994360Y-148060900D01*
X246965676Y-148060900D01*
X246898637Y-148041215D01*
X246877995Y-148024581D01*
X246814316Y-147960902D01*
X246814314Y-147960900D01*
X246746201Y-147921575D01*
X246700187Y-147895008D01*
X246634524Y-147877414D01*
X246572892Y-147860900D01*
X246441108Y-147860900D01*
X246313812Y-147895008D01*
X246199686Y-147960900D01*
X246199683Y-147960902D01*
X246106502Y-148054083D01*
X246106500Y-148054086D01*
X246040608Y-148168212D01*
X246006500Y-148295508D01*
X246006500Y-148329107D01*
X245986815Y-148396146D01*
X245934011Y-148441901D01*
X245864853Y-148451845D01*
X245850409Y-148448882D01*
X245836296Y-148445100D01*
X245836292Y-148445100D01*
X245704508Y-148445100D01*
X245577212Y-148479208D01*
X245463086Y-148545100D01*
X245463083Y-148545102D01*
X245369902Y-148638283D01*
X245369900Y-148638286D01*
X245304008Y-148752412D01*
X245272297Y-148870762D01*
X245269900Y-148879708D01*
X245269900Y-149011492D01*
X245281826Y-149055999D01*
X245304008Y-149138787D01*
X245336954Y-149195850D01*
X245369900Y-149252914D01*
X245369902Y-149252916D01*
X245399625Y-149282639D01*
X245433110Y-149343962D01*
X245428126Y-149413654D01*
X245386254Y-149469587D01*
X245373946Y-149477706D01*
X245361489Y-149484898D01*
X245361483Y-149484902D01*
X245268302Y-149578083D01*
X245268300Y-149578086D01*
X245202408Y-149692212D01*
X245180614Y-149773551D01*
X245168300Y-149819508D01*
X245168300Y-149951292D01*
X245180226Y-149995799D01*
X245202408Y-150078587D01*
X245225805Y-150119111D01*
X245268300Y-150192714D01*
X245361486Y-150285900D01*
X245475614Y-150351792D01*
X245602908Y-150385900D01*
X245602910Y-150385900D01*
X245734690Y-150385900D01*
X245734692Y-150385900D01*
X245861986Y-150351792D01*
X245976114Y-150285900D01*
X246069300Y-150192714D01*
X246111795Y-150119111D01*
X246406963Y-150119111D01*
X246508482Y-150017593D01*
X246442300Y-149951411D01*
X246442300Y-149960238D01*
X246442035Y-149968346D01*
X246441928Y-149969979D01*
X246441132Y-149978060D01*
X246438796Y-149995799D01*
X246437478Y-150003783D01*
X246437159Y-150005388D01*
X246435313Y-150013309D01*
X246406963Y-150119111D01*
X246111795Y-150119111D01*
X246135192Y-150078586D01*
X246169300Y-149951292D01*
X246169300Y-149861233D01*
X246188985Y-149794194D01*
X246205619Y-149773551D01*
X246264953Y-149714218D01*
X246326277Y-149680734D01*
X246352634Y-149677900D01*
X247372567Y-149677900D01*
X247439606Y-149697585D01*
X247460247Y-149714218D01*
X247922689Y-150176660D01*
X247991212Y-150216222D01*
X248067638Y-150236700D01*
X248146762Y-150236700D01*
X250877767Y-150236700D01*
X250944806Y-150256385D01*
X250965448Y-150273019D01*
X251097781Y-150405352D01*
X251131266Y-150466675D01*
X251134100Y-150493033D01*
X251134100Y-156973967D01*
X251114415Y-157041006D01*
X251097781Y-157061648D01*
X250863848Y-157295581D01*
X250802525Y-157329066D01*
X250776167Y-157331900D01*
X227595238Y-157331900D01*
X227518810Y-157352378D01*
X227450289Y-157391940D01*
X227450286Y-157391942D01*
X226377207Y-158465021D01*
X226377201Y-158465029D01*
X226337648Y-158533538D01*
X226337645Y-158533543D01*
X226317166Y-158609973D01*
X226317166Y-160124600D01*
X226297481Y-160191639D01*
X226244677Y-160237394D01*
X226193166Y-160248600D01*
X225992109Y-160248600D01*
X225925070Y-160228915D01*
X225879315Y-160176111D01*
X225868109Y-160124628D01*
X225867886Y-159136147D01*
X225867627Y-157983149D01*
X226150169Y-157983149D01*
X226311584Y-158144564D01*
X226666552Y-157789596D01*
X226632899Y-157755943D01*
X226590845Y-157780224D01*
X226560937Y-157792612D01*
X226452845Y-157821575D01*
X226420752Y-157825800D01*
X226308848Y-157825800D01*
X226307673Y-157825645D01*
X226150169Y-157983149D01*
X225867627Y-157983149D01*
X225867538Y-157589245D01*
X226818339Y-157589245D01*
X226842622Y-157613528D01*
X227197590Y-157258560D01*
X227036174Y-157097144D01*
X226913645Y-157219673D01*
X226913800Y-157220848D01*
X226913800Y-157332752D01*
X226909575Y-157364845D01*
X226880612Y-157472937D01*
X226868224Y-157502845D01*
X226818339Y-157589245D01*
X225867538Y-157589245D01*
X225867427Y-157093882D01*
X225867418Y-157053500D01*
X227344668Y-157053500D01*
X227398291Y-157107123D01*
X227398679Y-157106933D01*
X227406082Y-157103579D01*
X227422613Y-157096733D01*
X227430187Y-157093882D01*
X227431736Y-157093356D01*
X227439513Y-157090996D01*
X227533221Y-157065887D01*
X227541142Y-157064041D01*
X227542747Y-157063722D01*
X227550731Y-157062404D01*
X227568470Y-157060068D01*
X227576551Y-157059272D01*
X227578184Y-157059165D01*
X227586292Y-157058900D01*
X227784356Y-157058900D01*
X227789756Y-157053500D01*
X228406743Y-157053500D01*
X228412143Y-157058900D01*
X228846431Y-157058900D01*
X228851831Y-157053500D01*
X229468817Y-157053500D01*
X229474217Y-157058900D01*
X229908505Y-157058900D01*
X229913905Y-157053500D01*
X230530891Y-157053500D01*
X230536291Y-157058900D01*
X230970580Y-157058900D01*
X230975980Y-157053500D01*
X231592966Y-157053500D01*
X231598366Y-157058900D01*
X232032654Y-157058900D01*
X232038054Y-157053500D01*
X232655040Y-157053500D01*
X232660440Y-157058900D01*
X233094728Y-157058900D01*
X233100128Y-157053500D01*
X233717115Y-157053500D01*
X233722515Y-157058900D01*
X234156803Y-157058900D01*
X234162203Y-157053500D01*
X234779189Y-157053500D01*
X234784589Y-157058900D01*
X235218877Y-157058900D01*
X235224277Y-157053500D01*
X235841263Y-157053500D01*
X235846663Y-157058900D01*
X236280951Y-157058900D01*
X236286351Y-157053500D01*
X236903338Y-157053500D01*
X236908738Y-157058900D01*
X237343026Y-157058900D01*
X237348426Y-157053500D01*
X237965412Y-157053500D01*
X237970812Y-157058900D01*
X238405100Y-157058900D01*
X238410500Y-157053500D01*
X239027486Y-157053500D01*
X239032886Y-157058900D01*
X239467175Y-157058900D01*
X239472575Y-157053500D01*
X240089561Y-157053500D01*
X240094961Y-157058900D01*
X240529249Y-157058900D01*
X240534649Y-157053500D01*
X241151635Y-157053500D01*
X241157035Y-157058900D01*
X241591323Y-157058900D01*
X241596723Y-157053500D01*
X242213710Y-157053500D01*
X242219110Y-157058900D01*
X242653398Y-157058900D01*
X242658798Y-157053500D01*
X243275784Y-157053500D01*
X243281184Y-157058900D01*
X243715472Y-157058900D01*
X243720872Y-157053500D01*
X244337858Y-157053500D01*
X244343258Y-157058900D01*
X244777547Y-157058900D01*
X244782947Y-157053500D01*
X245399933Y-157053500D01*
X245405333Y-157058900D01*
X245839621Y-157058900D01*
X245845021Y-157053500D01*
X246462007Y-157053500D01*
X246467407Y-157058900D01*
X246901695Y-157058900D01*
X246907095Y-157053500D01*
X247524082Y-157053500D01*
X247529482Y-157058900D01*
X247963770Y-157058900D01*
X247969170Y-157053500D01*
X248586156Y-157053500D01*
X248591556Y-157058900D01*
X249025844Y-157058900D01*
X249031244Y-157053500D01*
X249648230Y-157053500D01*
X249653630Y-157058900D01*
X250087918Y-157058900D01*
X250101115Y-157045702D01*
X250089469Y-157048361D01*
X250082634Y-157049720D01*
X250081250Y-157049955D01*
X250074364Y-157050927D01*
X250064312Y-157052058D01*
X250062808Y-157052324D01*
X250059917Y-157052662D01*
X250045487Y-157053501D01*
X250041521Y-157053500D01*
X250041517Y-157053501D01*
X249908054Y-157053501D01*
X249908046Y-157053500D01*
X249648230Y-157053500D01*
X249031244Y-157053500D01*
X248586156Y-157053500D01*
X247969170Y-157053500D01*
X247524082Y-157053500D01*
X246907095Y-157053500D01*
X246462007Y-157053500D01*
X245845021Y-157053500D01*
X245399933Y-157053500D01*
X244782947Y-157053500D01*
X244337858Y-157053500D01*
X243720872Y-157053500D01*
X243275784Y-157053500D01*
X242658798Y-157053500D01*
X242213710Y-157053500D01*
X241596723Y-157053500D01*
X241151635Y-157053500D01*
X240534649Y-157053500D01*
X240089561Y-157053500D01*
X239472575Y-157053500D01*
X239027486Y-157053500D01*
X238410500Y-157053500D01*
X237965412Y-157053500D01*
X237348426Y-157053500D01*
X236903338Y-157053500D01*
X236286351Y-157053500D01*
X235841263Y-157053500D01*
X235224277Y-157053500D01*
X234779189Y-157053500D01*
X234162203Y-157053500D01*
X233717115Y-157053500D01*
X233100128Y-157053500D01*
X232655040Y-157053500D01*
X232038054Y-157053500D01*
X231592966Y-157053500D01*
X230975980Y-157053500D01*
X230530891Y-157053500D01*
X229913905Y-157053500D01*
X229468817Y-157053500D01*
X228851831Y-157053500D01*
X228406743Y-157053500D01*
X227789756Y-157053500D01*
X227344668Y-157053500D01*
X225867418Y-157053500D01*
X225867388Y-156921076D01*
X250577881Y-156921076D01*
X250715077Y-157058272D01*
X250861100Y-156912249D01*
X250861100Y-156637857D01*
X250577881Y-156921076D01*
X225867388Y-156921076D01*
X225867384Y-156904528D01*
X225887053Y-156837484D01*
X225939847Y-156791717D01*
X225991384Y-156780500D01*
X249910963Y-156780500D01*
X249910967Y-156780501D01*
X250031162Y-156780501D01*
X250031162Y-156780502D01*
X250031172Y-156780500D01*
X250036193Y-156780500D01*
X250146150Y-156755403D01*
X250247766Y-156706467D01*
X250335946Y-156636147D01*
X250406266Y-156547968D01*
X250455202Y-156446352D01*
X250480300Y-156336395D01*
X250480300Y-156280002D01*
X250480300Y-156235832D01*
X250480300Y-155683583D01*
X250753300Y-155683583D01*
X250753300Y-156034421D01*
X250861100Y-156142221D01*
X250861100Y-155575783D01*
X250753300Y-155683583D01*
X250480300Y-155683583D01*
X250480300Y-154621508D01*
X250753300Y-154621508D01*
X250753300Y-154972346D01*
X250861100Y-155080146D01*
X250861100Y-154513708D01*
X250753300Y-154621508D01*
X250480300Y-154621508D01*
X250480300Y-153559434D01*
X250753300Y-153559434D01*
X250753300Y-153910272D01*
X250861100Y-154018072D01*
X250861100Y-153451634D01*
X250753300Y-153559434D01*
X250480300Y-153559434D01*
X250480300Y-152497359D01*
X250753300Y-152497359D01*
X250753300Y-152848198D01*
X250861100Y-152955998D01*
X250861100Y-152389559D01*
X250753300Y-152497359D01*
X250480300Y-152497359D01*
X250480300Y-151435284D01*
X250753300Y-151435284D01*
X250753300Y-151786123D01*
X250861100Y-151893923D01*
X250861100Y-151327484D01*
X250753300Y-151435284D01*
X250480300Y-151435284D01*
X250480300Y-151430172D01*
X250480300Y-151412340D01*
X250480299Y-151412338D01*
X250480299Y-151412333D01*
X250450191Y-151280419D01*
X250450189Y-151280416D01*
X250450189Y-151280412D01*
X250391475Y-151158493D01*
X250355426Y-151113289D01*
X250307105Y-151052694D01*
X250201304Y-150968323D01*
X250079388Y-150909611D01*
X250079380Y-150909608D01*
X249947466Y-150879500D01*
X249947460Y-150879500D01*
X249929628Y-150879500D01*
X238420300Y-150879500D01*
X238353261Y-150859815D01*
X238307506Y-150807011D01*
X238296300Y-150755500D01*
X238296300Y-150754932D01*
X250371578Y-150754932D01*
X250483309Y-150844032D01*
X250488637Y-150848531D01*
X250489683Y-150849466D01*
X250494725Y-150854234D01*
X250505566Y-150865075D01*
X250510334Y-150870117D01*
X250511269Y-150871163D01*
X250515768Y-150876491D01*
X250609695Y-150994275D01*
X250613865Y-150999814D01*
X250614677Y-151000958D01*
X250618552Y-151006757D01*
X250626708Y-151019737D01*
X250630231Y-151025708D01*
X250630910Y-151026936D01*
X250634114Y-151033137D01*
X250689109Y-151147337D01*
X250756779Y-151079666D01*
X250401811Y-150724698D01*
X250371578Y-150754932D01*
X238296300Y-150754932D01*
X238296300Y-150548630D01*
X238895062Y-150548630D01*
X238952932Y-150606500D01*
X239547129Y-150606500D01*
X239604999Y-150548630D01*
X239957137Y-150548630D01*
X240015007Y-150606500D01*
X240609203Y-150606500D01*
X240667073Y-150548630D01*
X241019211Y-150548630D01*
X241077081Y-150606500D01*
X241671277Y-150606500D01*
X241729147Y-150548630D01*
X242081286Y-150548630D01*
X242139156Y-150606500D01*
X242733352Y-150606500D01*
X242791222Y-150548630D01*
X243143360Y-150548630D01*
X243201230Y-150606500D01*
X243795426Y-150606500D01*
X243853296Y-150548630D01*
X244205434Y-150548630D01*
X244263304Y-150606500D01*
X244857501Y-150606500D01*
X244915370Y-150548630D01*
X245267509Y-150548630D01*
X245325379Y-150606500D01*
X245377152Y-150606500D01*
X245362884Y-150600591D01*
X245355481Y-150597237D01*
X245354013Y-150596513D01*
X245346860Y-150592690D01*
X245270546Y-150548630D01*
X246329583Y-150548630D01*
X246387453Y-150606500D01*
X246981649Y-150606500D01*
X247039519Y-150548630D01*
X247391658Y-150548630D01*
X247449528Y-150606500D01*
X248043724Y-150606500D01*
X248101594Y-150548630D01*
X248453732Y-150548630D01*
X248511602Y-150606500D01*
X249105798Y-150606500D01*
X249163668Y-150548630D01*
X249515806Y-150548630D01*
X249573676Y-150606500D01*
X249955125Y-150606500D01*
X249962106Y-150606697D01*
X249963507Y-150606776D01*
X249970407Y-150607358D01*
X249985640Y-150609074D01*
X249992531Y-150610047D01*
X249993914Y-150610282D01*
X250000734Y-150611639D01*
X250132628Y-150641742D01*
X250225740Y-150548630D01*
X250577881Y-150548630D01*
X250861100Y-150831849D01*
X250861100Y-150554751D01*
X250816049Y-150509700D01*
X250616811Y-150509700D01*
X250577881Y-150548630D01*
X250225740Y-150548630D01*
X250225741Y-150548629D01*
X250186812Y-150509700D01*
X249554736Y-150509700D01*
X249515806Y-150548630D01*
X249163668Y-150548630D01*
X249124738Y-150509700D01*
X248492662Y-150509700D01*
X248453732Y-150548630D01*
X248101594Y-150548630D01*
X248062664Y-150509700D01*
X248058692Y-150509700D01*
X248050584Y-150509435D01*
X248048951Y-150509328D01*
X248040870Y-150508532D01*
X248023131Y-150506196D01*
X248015147Y-150504878D01*
X248013542Y-150504559D01*
X248005621Y-150502713D01*
X247911913Y-150477604D01*
X247904136Y-150475244D01*
X247902587Y-150474718D01*
X247895013Y-150471867D01*
X247878482Y-150465021D01*
X247871079Y-150461667D01*
X247869611Y-150460943D01*
X247862458Y-150457119D01*
X247778440Y-150408610D01*
X247771571Y-150404340D01*
X247770210Y-150403431D01*
X247763591Y-150398689D01*
X247749397Y-150387797D01*
X247743113Y-150382639D01*
X247741883Y-150381560D01*
X247735975Y-150376025D01*
X247696176Y-150336226D01*
X247617637Y-150414765D01*
X247591957Y-150434471D01*
X247495045Y-150490424D01*
X247465137Y-150502812D01*
X247427351Y-150512936D01*
X247391658Y-150548630D01*
X247039519Y-150548630D01*
X246684551Y-150193662D01*
X246329583Y-150548630D01*
X245270546Y-150548630D01*
X245268620Y-150547518D01*
X245267509Y-150548630D01*
X244915370Y-150548630D01*
X244560402Y-150193661D01*
X244205434Y-150548630D01*
X243853296Y-150548630D01*
X243498328Y-150193662D01*
X243143360Y-150548630D01*
X242791222Y-150548630D01*
X242436254Y-150193662D01*
X242081286Y-150548630D01*
X241729147Y-150548630D01*
X241374179Y-150193662D01*
X241019211Y-150548630D01*
X240667073Y-150548630D01*
X240312105Y-150193662D01*
X239957137Y-150548630D01*
X239604999Y-150548630D01*
X239250030Y-150193661D01*
X238895062Y-150548630D01*
X238296300Y-150548630D01*
X238296300Y-149812317D01*
X238569300Y-149812317D01*
X238569300Y-150222868D01*
X238718993Y-150372561D01*
X239073961Y-150017592D01*
X239426099Y-150017592D01*
X239781068Y-150372561D01*
X240136036Y-150017592D01*
X240488173Y-150017592D01*
X240843142Y-150372561D01*
X241198110Y-150017592D01*
X241550248Y-150017592D01*
X241905216Y-150372561D01*
X242260185Y-150017592D01*
X242612322Y-150017592D01*
X242967291Y-150372561D01*
X243322259Y-150017592D01*
X243674396Y-150017592D01*
X244029365Y-150372561D01*
X244384333Y-150017592D01*
X244736471Y-150017592D01*
X245009720Y-150290841D01*
X244961510Y-150207340D01*
X244957687Y-150200187D01*
X244956963Y-150198719D01*
X244953609Y-150191316D01*
X244946763Y-150174785D01*
X244943912Y-150167211D01*
X244943386Y-150165662D01*
X244941026Y-150157885D01*
X244902287Y-150013309D01*
X244900441Y-150005388D01*
X244900122Y-150003783D01*
X244898804Y-149995799D01*
X244896468Y-149978060D01*
X244895672Y-149969979D01*
X244895565Y-149968346D01*
X244895300Y-149960238D01*
X244895300Y-149858764D01*
X244736471Y-150017592D01*
X244384333Y-150017592D01*
X244029365Y-149662624D01*
X243674396Y-150017592D01*
X243322259Y-150017592D01*
X242967291Y-149662624D01*
X242612322Y-150017592D01*
X242260185Y-150017592D01*
X241905216Y-149662624D01*
X241550248Y-150017592D01*
X241198110Y-150017592D01*
X240843142Y-149662624D01*
X240488173Y-150017592D01*
X240136036Y-150017592D01*
X239781068Y-149662624D01*
X239426099Y-150017592D01*
X239073961Y-150017592D01*
X238718992Y-149662624D01*
X238569300Y-149812317D01*
X238296300Y-149812317D01*
X238296300Y-149486555D01*
X238895062Y-149486555D01*
X239250030Y-149841523D01*
X239604999Y-149486555D01*
X239957137Y-149486555D01*
X240312105Y-149841523D01*
X240667073Y-149486555D01*
X241019211Y-149486555D01*
X241374179Y-149841523D01*
X241729147Y-149486555D01*
X242081286Y-149486555D01*
X242436254Y-149841523D01*
X242791222Y-149486555D01*
X243143360Y-149486555D01*
X243498328Y-149841523D01*
X243853296Y-149486555D01*
X244205434Y-149486555D01*
X244560402Y-149841523D01*
X244915370Y-149486555D01*
X244560402Y-149131586D01*
X244205434Y-149486555D01*
X243853296Y-149486555D01*
X243498328Y-149131587D01*
X243143360Y-149486555D01*
X242791222Y-149486555D01*
X242436254Y-149131587D01*
X242081286Y-149486555D01*
X241729147Y-149486555D01*
X241374179Y-149131587D01*
X241019211Y-149486555D01*
X240667073Y-149486555D01*
X240312105Y-149131587D01*
X239957137Y-149486555D01*
X239604999Y-149486555D01*
X239250030Y-149131586D01*
X238895062Y-149486555D01*
X238296300Y-149486555D01*
X238296300Y-148750243D01*
X238569300Y-148750243D01*
X238569300Y-149160793D01*
X238718993Y-149310486D01*
X239073961Y-148955518D01*
X239426100Y-148955518D01*
X239781068Y-149310486D01*
X240136036Y-148955518D01*
X240488174Y-148955518D01*
X240843142Y-149310486D01*
X241198110Y-148955518D01*
X241550248Y-148955518D01*
X241905216Y-149310486D01*
X242260185Y-148955518D01*
X242612323Y-148955518D01*
X242967291Y-149310486D01*
X243322259Y-148955518D01*
X243674397Y-148955518D01*
X244029365Y-149310486D01*
X244384333Y-148955518D01*
X244736472Y-148955518D01*
X245083076Y-149302122D01*
X245063110Y-149267540D01*
X245059287Y-149260387D01*
X245058563Y-149258919D01*
X245055209Y-149251516D01*
X245048363Y-149234985D01*
X245045512Y-149227411D01*
X245044986Y-149225862D01*
X245042626Y-149218085D01*
X245003887Y-149073509D01*
X245002041Y-149065588D01*
X245001722Y-149063983D01*
X245000404Y-149055999D01*
X244998068Y-149038260D01*
X244997272Y-149030179D01*
X244997165Y-149028546D01*
X244996900Y-149020438D01*
X244996900Y-148870762D01*
X244997165Y-148862654D01*
X244997272Y-148861021D01*
X244998068Y-148852940D01*
X245000404Y-148835201D01*
X245001722Y-148827217D01*
X245002041Y-148825612D01*
X245003887Y-148817691D01*
X245042626Y-148673115D01*
X245044986Y-148665338D01*
X245045512Y-148663789D01*
X245048363Y-148656215D01*
X245055209Y-148639684D01*
X245057613Y-148634376D01*
X244736472Y-148955518D01*
X244384333Y-148955518D01*
X244029365Y-148600550D01*
X243674397Y-148955518D01*
X243322259Y-148955518D01*
X242967291Y-148600550D01*
X242612323Y-148955518D01*
X242260185Y-148955518D01*
X241905216Y-148600549D01*
X241550248Y-148955518D01*
X241198110Y-148955518D01*
X240843142Y-148600550D01*
X240488174Y-148955518D01*
X240136036Y-148955518D01*
X239781068Y-148600550D01*
X239426100Y-148955518D01*
X239073961Y-148955518D01*
X238718993Y-148600550D01*
X238569300Y-148750243D01*
X238296300Y-148750243D01*
X238296300Y-148424481D01*
X238895062Y-148424481D01*
X239250030Y-148779449D01*
X239604999Y-148424481D01*
X239957137Y-148424481D01*
X240312105Y-148779449D01*
X240667073Y-148424481D01*
X241019211Y-148424481D01*
X241374179Y-148779449D01*
X241729147Y-148424481D01*
X242081286Y-148424481D01*
X242436254Y-148779449D01*
X242791222Y-148424481D01*
X243143360Y-148424481D01*
X243498328Y-148779449D01*
X243853296Y-148424481D01*
X244205434Y-148424481D01*
X244560402Y-148779449D01*
X244915370Y-148424481D01*
X244560402Y-148069512D01*
X244205434Y-148424481D01*
X243853296Y-148424481D01*
X243498328Y-148069513D01*
X243143360Y-148424481D01*
X242791222Y-148424481D01*
X242436254Y-148069513D01*
X242081286Y-148424481D01*
X241729147Y-148424481D01*
X241374179Y-148069513D01*
X241019211Y-148424481D01*
X240667073Y-148424481D01*
X240312105Y-148069513D01*
X239957137Y-148424481D01*
X239604999Y-148424481D01*
X239250030Y-148069512D01*
X238895062Y-148424481D01*
X238296300Y-148424481D01*
X238296300Y-147688169D01*
X238569300Y-147688169D01*
X238569300Y-148098719D01*
X238718993Y-148248412D01*
X239073961Y-147893444D01*
X239426100Y-147893444D01*
X239781068Y-148248412D01*
X240136036Y-147893444D01*
X240488174Y-147893444D01*
X240843142Y-148248412D01*
X241198110Y-147893444D01*
X241550248Y-147893444D01*
X241905216Y-148248412D01*
X242260185Y-147893444D01*
X242612323Y-147893444D01*
X242967291Y-148248412D01*
X243322259Y-147893444D01*
X243674397Y-147893444D01*
X244029365Y-148248412D01*
X244384333Y-147893444D01*
X244736472Y-147893444D01*
X245091440Y-148248412D01*
X245107039Y-148232813D01*
X245459176Y-148232813D01*
X245464484Y-148230409D01*
X245481015Y-148223563D01*
X245488589Y-148220712D01*
X245490138Y-148220186D01*
X245497915Y-148217826D01*
X245642491Y-148179087D01*
X245650412Y-148177241D01*
X245652017Y-148176922D01*
X245660001Y-148175604D01*
X245677740Y-148173268D01*
X245685821Y-148172472D01*
X245687454Y-148172365D01*
X245695562Y-148172100D01*
X245725064Y-148172100D01*
X245622477Y-148069513D01*
X245459176Y-148232813D01*
X245107039Y-148232813D01*
X245446408Y-147893444D01*
X245798546Y-147893444D01*
X245852730Y-147947628D01*
X245874549Y-147909837D01*
X245878820Y-147902968D01*
X245879729Y-147901607D01*
X245884471Y-147894988D01*
X245895363Y-147880794D01*
X245900521Y-147874510D01*
X245901600Y-147873280D01*
X245907135Y-147867372D01*
X245984748Y-147789759D01*
X248026379Y-147789759D01*
X248038870Y-147791404D01*
X248046854Y-147792722D01*
X248048459Y-147793041D01*
X248056381Y-147794888D01*
X248150089Y-147819998D01*
X248157842Y-147822349D01*
X248159392Y-147822875D01*
X248166994Y-147825736D01*
X248183523Y-147832582D01*
X248190921Y-147835934D01*
X248192389Y-147836658D01*
X248199540Y-147840480D01*
X248263513Y-147877414D01*
X248263516Y-147877416D01*
X248283559Y-147888988D01*
X248290428Y-147893259D01*
X248291789Y-147894168D01*
X248298409Y-147898911D01*
X248312604Y-147909804D01*
X248318887Y-147914961D01*
X248320117Y-147916040D01*
X248326025Y-147921575D01*
X248465262Y-148060812D01*
X248632629Y-147893444D01*
X248984769Y-147893444D01*
X249206300Y-148114975D01*
X249206300Y-147671913D01*
X248984769Y-147893444D01*
X248632629Y-147893444D01*
X248632630Y-147893443D01*
X248277663Y-147538476D01*
X248026379Y-147789759D01*
X245984748Y-147789759D01*
X246012972Y-147761535D01*
X246017361Y-147757423D01*
X246996639Y-147757423D01*
X247001028Y-147761534D01*
X247027394Y-147787900D01*
X247465013Y-147787900D01*
X247215587Y-147538475D01*
X246996639Y-147757423D01*
X246017361Y-147757423D01*
X246018880Y-147756000D01*
X246020110Y-147754921D01*
X246026394Y-147749763D01*
X246040588Y-147738871D01*
X246047207Y-147734129D01*
X246048568Y-147733220D01*
X246055437Y-147728949D01*
X246185060Y-147654110D01*
X246192213Y-147650287D01*
X246193681Y-147649563D01*
X246201084Y-147646209D01*
X246217615Y-147639363D01*
X246225189Y-147636512D01*
X246226738Y-147635986D01*
X246234515Y-147633626D01*
X246245673Y-147630635D01*
X246153514Y-147538476D01*
X245798546Y-147893444D01*
X245446408Y-147893444D01*
X245091440Y-147538476D01*
X244736472Y-147893444D01*
X244384333Y-147893444D01*
X244029365Y-147538476D01*
X243674397Y-147893444D01*
X243322259Y-147893444D01*
X242967291Y-147538476D01*
X242612323Y-147893444D01*
X242260185Y-147893444D01*
X241905216Y-147538475D01*
X241550248Y-147893444D01*
X241198110Y-147893444D01*
X240843142Y-147538476D01*
X240488174Y-147893444D01*
X240136036Y-147893444D01*
X239781068Y-147538476D01*
X239426100Y-147893444D01*
X239073961Y-147893444D01*
X238718993Y-147538476D01*
X238569300Y-147688169D01*
X238296300Y-147688169D01*
X238296300Y-147362407D01*
X238895062Y-147362407D01*
X239250030Y-147717375D01*
X239604999Y-147362407D01*
X239957137Y-147362407D01*
X240312105Y-147717375D01*
X240667073Y-147362407D01*
X241019211Y-147362407D01*
X241374179Y-147717375D01*
X241729147Y-147362407D01*
X242081286Y-147362407D01*
X242436254Y-147717375D01*
X242791222Y-147362407D01*
X243143360Y-147362407D01*
X243498328Y-147717375D01*
X243853296Y-147362407D01*
X244205434Y-147362407D01*
X244560402Y-147717375D01*
X244915370Y-147362407D01*
X245267509Y-147362407D01*
X245622477Y-147717375D01*
X245977445Y-147362407D01*
X246329583Y-147362407D01*
X246555076Y-147587900D01*
X246581838Y-147587900D01*
X246589946Y-147588165D01*
X246591579Y-147588272D01*
X246599660Y-147589068D01*
X246617399Y-147591404D01*
X246625383Y-147592722D01*
X246626988Y-147593041D01*
X246634909Y-147594887D01*
X246770662Y-147631262D01*
X247039517Y-147362407D01*
X247391658Y-147362407D01*
X247746626Y-147717375D01*
X248101594Y-147362407D01*
X248453732Y-147362407D01*
X248808700Y-147717375D01*
X249163668Y-147362407D01*
X248808700Y-147007439D01*
X248453732Y-147362407D01*
X248101594Y-147362407D01*
X247746626Y-147007439D01*
X247391658Y-147362407D01*
X247039517Y-147362407D01*
X247039518Y-147362406D01*
X246684551Y-147007439D01*
X246329583Y-147362407D01*
X245977445Y-147362407D01*
X245622477Y-147007439D01*
X245267509Y-147362407D01*
X244915370Y-147362407D01*
X244560402Y-147007438D01*
X244205434Y-147362407D01*
X243853296Y-147362407D01*
X243498328Y-147007439D01*
X243143360Y-147362407D01*
X242791222Y-147362407D01*
X242436254Y-147007439D01*
X242081286Y-147362407D01*
X241729147Y-147362407D01*
X241374179Y-147007439D01*
X241019211Y-147362407D01*
X240667073Y-147362407D01*
X240312105Y-147007439D01*
X239957137Y-147362407D01*
X239604999Y-147362407D01*
X239250030Y-147007438D01*
X238895062Y-147362407D01*
X238296300Y-147362407D01*
X238296300Y-146626094D01*
X238569300Y-146626094D01*
X238569300Y-147036644D01*
X238718993Y-147186337D01*
X239073961Y-146831369D01*
X239426100Y-146831369D01*
X239781068Y-147186337D01*
X240136036Y-146831369D01*
X240488174Y-146831369D01*
X240843142Y-147186337D01*
X241198110Y-146831369D01*
X241550248Y-146831369D01*
X241905216Y-147186337D01*
X242260185Y-146831369D01*
X242612323Y-146831369D01*
X242967291Y-147186337D01*
X243322259Y-146831369D01*
X243674397Y-146831369D01*
X244029365Y-147186337D01*
X244384333Y-146831369D01*
X244736472Y-146831369D01*
X245091440Y-147186337D01*
X245446408Y-146831369D01*
X245798546Y-146831369D01*
X246153514Y-147186337D01*
X246508482Y-146831369D01*
X246860620Y-146831369D01*
X247215588Y-147186337D01*
X247570556Y-146831369D01*
X247922695Y-146831369D01*
X248277663Y-147186337D01*
X248632631Y-146831369D01*
X248984769Y-146831369D01*
X249206300Y-147052900D01*
X249206300Y-146609838D01*
X248984769Y-146831369D01*
X248632631Y-146831369D01*
X248354761Y-146553499D01*
X248200565Y-146553499D01*
X247922695Y-146831369D01*
X247570556Y-146831369D01*
X247292686Y-146553499D01*
X247138490Y-146553499D01*
X246860620Y-146831369D01*
X246508482Y-146831369D01*
X246230612Y-146553499D01*
X246076416Y-146553499D01*
X245798546Y-146831369D01*
X245446408Y-146831369D01*
X245168538Y-146553499D01*
X245014342Y-146553499D01*
X244736472Y-146831369D01*
X244384333Y-146831369D01*
X244106463Y-146553499D01*
X243952267Y-146553499D01*
X243674397Y-146831369D01*
X243322259Y-146831369D01*
X243044389Y-146553499D01*
X242890193Y-146553499D01*
X242612323Y-146831369D01*
X242260185Y-146831369D01*
X241982315Y-146553499D01*
X241828119Y-146553499D01*
X241550248Y-146831369D01*
X241198110Y-146831369D01*
X240920240Y-146553499D01*
X240766044Y-146553499D01*
X240488174Y-146831369D01*
X240136036Y-146831369D01*
X239858166Y-146553499D01*
X239703970Y-146553499D01*
X239426100Y-146831369D01*
X239073961Y-146831369D01*
X238796091Y-146553499D01*
X238641895Y-146553499D01*
X238569300Y-146626094D01*
X238296300Y-146626094D01*
X238296300Y-146404499D01*
X238315985Y-146337460D01*
X238368789Y-146291705D01*
X238420300Y-146280499D01*
X249355300Y-146280499D01*
X249422339Y-146300184D01*
G37*
%TD.AperFunction*%
%TA.AperFunction,Conductor*%
G36*
X252581514Y-157601828D02*
G01*
X252587900Y-157604473D01*
X252587903Y-157604476D01*
X252631378Y-157622484D01*
X252685779Y-157666324D01*
X252707843Y-157732618D01*
X252707922Y-157737334D01*
X252707194Y-158047774D01*
X252687352Y-158114767D01*
X252634441Y-158160398D01*
X252630647Y-158162044D01*
X252587902Y-158179749D01*
X252517436Y-158250215D01*
X252479300Y-158342283D01*
X252479300Y-158655500D01*
X252459615Y-158722539D01*
X252406811Y-158768294D01*
X252355300Y-158779500D01*
X251596033Y-158779500D01*
X251528994Y-158759815D01*
X251483239Y-158707011D01*
X251473295Y-158637853D01*
X251502320Y-158574297D01*
X251508352Y-158567819D01*
X252442807Y-157633364D01*
X252444159Y-157634716D01*
X252492101Y-157599704D01*
X252561847Y-157595542D01*
X252581514Y-157601828D01*
G37*
%TD.AperFunction*%
%TD*%
%TA.AperFunction,Conductor*%
%TO.N,GNDL*%
G36*
X269106339Y-146300185D02*
G01*
X269152094Y-146352989D01*
X269163300Y-146404500D01*
X269163301Y-150755500D01*
X269143616Y-150822539D01*
X269090812Y-150868294D01*
X269039301Y-150879500D01*
X259880069Y-150879500D01*
X259813030Y-150859815D01*
X259767275Y-150807011D01*
X259757331Y-150737853D01*
X259781696Y-150680010D01*
X259785291Y-150675322D01*
X259785300Y-150675314D01*
X259825030Y-150606500D01*
X260121680Y-150606500D01*
X260660044Y-150606500D01*
X260672768Y-150593776D01*
X261024906Y-150593776D01*
X261037630Y-150606500D01*
X261722118Y-150606500D01*
X261734842Y-150593776D01*
X262086980Y-150593776D01*
X262099704Y-150606500D01*
X262784193Y-150606500D01*
X262796917Y-150593776D01*
X263149055Y-150593776D01*
X263161779Y-150606500D01*
X263846267Y-150606500D01*
X263858991Y-150593776D01*
X264211129Y-150593776D01*
X264223853Y-150606500D01*
X264908341Y-150606500D01*
X264921065Y-150593776D01*
X265273204Y-150593776D01*
X265285928Y-150606500D01*
X265970416Y-150606500D01*
X265983140Y-150593776D01*
X265983139Y-150593775D01*
X266335277Y-150593775D01*
X266348002Y-150606500D01*
X267032490Y-150606500D01*
X267045214Y-150593776D01*
X267397352Y-150593776D01*
X267410076Y-150606500D01*
X268094565Y-150606500D01*
X268107288Y-150593776D01*
X268459427Y-150593776D01*
X268472151Y-150606500D01*
X268890301Y-150606500D01*
X268890300Y-150314713D01*
X268814395Y-150238808D01*
X268459427Y-150593776D01*
X268107288Y-150593776D01*
X267752320Y-150238807D01*
X267397352Y-150593776D01*
X267045214Y-150593776D01*
X266747865Y-150296427D01*
X266736829Y-150307465D01*
X266730920Y-150313000D01*
X266729690Y-150314079D01*
X266723406Y-150319237D01*
X266709212Y-150330129D01*
X266702593Y-150334871D01*
X266701232Y-150335780D01*
X266694363Y-150340051D01*
X266564740Y-150414890D01*
X266557587Y-150418713D01*
X266556119Y-150419437D01*
X266548716Y-150422791D01*
X266532185Y-150429637D01*
X266524611Y-150432488D01*
X266523062Y-150433014D01*
X266515284Y-150435374D01*
X266485771Y-150443281D01*
X266335277Y-150593775D01*
X265983139Y-150593775D01*
X265670464Y-150281100D01*
X265585880Y-150281100D01*
X265273204Y-150593776D01*
X264921065Y-150593776D01*
X264608389Y-150281100D01*
X264960527Y-150281100D01*
X265097134Y-150417707D01*
X265233742Y-150281100D01*
X264960527Y-150281100D01*
X264608389Y-150281100D01*
X264523805Y-150281100D01*
X264211129Y-150593776D01*
X263858991Y-150593776D01*
X263546315Y-150281100D01*
X263898453Y-150281100D01*
X264035060Y-150417707D01*
X264171667Y-150281100D01*
X263898453Y-150281100D01*
X263546315Y-150281100D01*
X263461731Y-150281100D01*
X263149055Y-150593776D01*
X262796917Y-150593776D01*
X262484241Y-150281100D01*
X262836379Y-150281100D01*
X262972986Y-150417707D01*
X263109593Y-150281100D01*
X262836379Y-150281100D01*
X262484241Y-150281100D01*
X262399657Y-150281100D01*
X262086980Y-150593776D01*
X261734842Y-150593776D01*
X261422166Y-150281100D01*
X261774304Y-150281100D01*
X261910911Y-150417707D01*
X262047518Y-150281100D01*
X261774304Y-150281100D01*
X261422166Y-150281100D01*
X261337582Y-150281100D01*
X261024906Y-150593776D01*
X260672768Y-150593776D01*
X260360092Y-150281100D01*
X260712230Y-150281100D01*
X260848837Y-150417707D01*
X260985444Y-150281100D01*
X260712230Y-150281100D01*
X260360092Y-150281100D01*
X260275508Y-150281100D01*
X260158300Y-150398308D01*
X260158300Y-150442838D01*
X260158035Y-150450946D01*
X260157928Y-150452579D01*
X260157132Y-150460660D01*
X260154796Y-150478399D01*
X260153478Y-150486383D01*
X260153159Y-150487988D01*
X260151313Y-150495909D01*
X260121680Y-150606500D01*
X259825030Y-150606500D01*
X259851192Y-150561186D01*
X259885300Y-150433892D01*
X259885300Y-150302108D01*
X259851192Y-150174814D01*
X259851191Y-150174812D01*
X259849088Y-150166963D01*
X259851723Y-150166256D01*
X259845689Y-150110069D01*
X259876971Y-150047594D01*
X259937064Y-150011948D01*
X259967716Y-150008100D01*
X265784124Y-150008100D01*
X265851163Y-150027785D01*
X265871805Y-150044419D01*
X265935486Y-150108100D01*
X266049614Y-150173992D01*
X266176908Y-150208100D01*
X266176910Y-150208100D01*
X266308690Y-150208100D01*
X266308692Y-150208100D01*
X266435986Y-150173992D01*
X266550114Y-150108100D01*
X266554516Y-150103698D01*
X266907274Y-150103698D01*
X267221283Y-150417707D01*
X267576251Y-150062739D01*
X267928390Y-150062739D01*
X268283358Y-150417707D01*
X268638326Y-150062739D01*
X268283358Y-149707771D01*
X267928390Y-150062739D01*
X267576251Y-150062739D01*
X267221282Y-149707770D01*
X266978481Y-149950571D01*
X266970574Y-149980084D01*
X266968214Y-149987862D01*
X266967688Y-149989411D01*
X266964837Y-149996985D01*
X266957991Y-150013516D01*
X266954637Y-150020919D01*
X266953913Y-150022387D01*
X266950090Y-150029540D01*
X266907274Y-150103698D01*
X266554516Y-150103698D01*
X266643300Y-150014914D01*
X266709192Y-149900786D01*
X266743300Y-149773492D01*
X266743300Y-149641708D01*
X266709192Y-149514414D01*
X266680718Y-149465095D01*
X266978607Y-149465095D01*
X267006758Y-149570157D01*
X267045212Y-149531702D01*
X267397352Y-149531702D01*
X267752320Y-149886670D01*
X268107288Y-149531702D01*
X268459427Y-149531702D01*
X268814394Y-149886669D01*
X268890300Y-149810764D01*
X268890300Y-149252639D01*
X268814395Y-149176734D01*
X268459427Y-149531702D01*
X268107288Y-149531702D01*
X267752320Y-149176733D01*
X267397352Y-149531702D01*
X267045212Y-149531702D01*
X267045213Y-149531701D01*
X266978607Y-149465095D01*
X266680718Y-149465095D01*
X266643300Y-149400286D01*
X266550114Y-149307100D01*
X266493050Y-149274154D01*
X266435987Y-149241208D01*
X266372339Y-149224154D01*
X266308692Y-149207100D01*
X266176908Y-149207100D01*
X266049612Y-149241208D01*
X265935486Y-149307100D01*
X265935483Y-149307102D01*
X265871805Y-149370781D01*
X265810482Y-149404266D01*
X265784124Y-149407100D01*
X257338638Y-149407100D01*
X257287686Y-149420752D01*
X257262210Y-149427579D01*
X257203134Y-149461687D01*
X257203133Y-149461686D01*
X257193692Y-149467137D01*
X257193687Y-149467141D01*
X256807014Y-149853813D01*
X256745691Y-149887298D01*
X256675999Y-149882314D01*
X256620066Y-149840442D01*
X256611953Y-149828143D01*
X256584900Y-149781286D01*
X256491714Y-149688100D01*
X256491711Y-149688098D01*
X256485265Y-149683152D01*
X256485813Y-149682437D01*
X256472023Y-149671852D01*
X256419712Y-149619541D01*
X256419704Y-149619535D01*
X256351195Y-149579982D01*
X256351190Y-149579979D01*
X256325713Y-149573152D01*
X256274762Y-149559500D01*
X256195638Y-149559500D01*
X256148863Y-149572033D01*
X256119206Y-149579980D01*
X256107706Y-149586620D01*
X256077806Y-149599004D01*
X255991215Y-149622207D01*
X255991214Y-149622207D01*
X255877086Y-149688100D01*
X255783901Y-149781284D01*
X255752660Y-149835393D01*
X255732956Y-149861071D01*
X255593489Y-150000540D01*
X255537538Y-150056491D01*
X255537535Y-150056495D01*
X255497982Y-150125004D01*
X255497979Y-150125009D01*
X255493531Y-150141611D01*
X255477500Y-150201438D01*
X255477500Y-157621162D01*
X255483248Y-157642612D01*
X255497979Y-157697590D01*
X255516407Y-157729508D01*
X255533307Y-157758779D01*
X255537540Y-157766111D01*
X255994740Y-158223311D01*
X256050689Y-158279260D01*
X256050691Y-158279261D01*
X256050695Y-158279264D01*
X256119204Y-158318817D01*
X256119211Y-158318821D01*
X256195638Y-158339300D01*
X256274762Y-158339300D01*
X279554367Y-158339300D01*
X279621406Y-158358985D01*
X279642048Y-158375619D01*
X280008631Y-158742202D01*
X280042116Y-158803525D01*
X280044950Y-158829883D01*
X280044950Y-160099200D01*
X280025265Y-160166239D01*
X279972461Y-160211994D01*
X279920950Y-160223200D01*
X279719410Y-160223200D01*
X279652371Y-160203515D01*
X279606616Y-160150711D01*
X279595410Y-160099445D01*
X279593892Y-159330460D01*
X279593897Y-159330441D01*
X279593893Y-159330442D01*
X279593798Y-159279013D01*
X279593799Y-159279013D01*
X279593696Y-159222690D01*
X279568444Y-159112910D01*
X279519424Y-159011488D01*
X279449090Y-158923498D01*
X279360959Y-158853340D01*
X279360957Y-158853339D01*
X279360956Y-158853338D01*
X279259440Y-158804523D01*
X279222829Y-158796179D01*
X279149609Y-158779491D01*
X279149607Y-158779491D01*
X279093286Y-158779500D01*
X255104300Y-158779500D01*
X255037261Y-158759815D01*
X254991506Y-158707011D01*
X254980300Y-158655500D01*
X254980300Y-158342285D01*
X254980299Y-158342282D01*
X254970581Y-158318820D01*
X254942164Y-158250215D01*
X254871697Y-158179748D01*
X254827147Y-158161295D01*
X254810591Y-158154437D01*
X254756188Y-158110595D01*
X254734124Y-158044301D01*
X254734045Y-158040167D01*
X254733605Y-157852343D01*
X254733478Y-157798380D01*
X255132479Y-157798380D01*
X255132944Y-157996563D01*
X255207355Y-157976625D01*
X255239448Y-157972400D01*
X255306499Y-157972400D01*
X255132479Y-157798380D01*
X254733478Y-157798380D01*
X254733353Y-157744921D01*
X254752881Y-157677837D01*
X254805577Y-157631959D01*
X254809874Y-157630082D01*
X254871697Y-157604475D01*
X254942164Y-157534008D01*
X254980300Y-157441939D01*
X254980300Y-157342283D01*
X254980300Y-154842283D01*
X254942164Y-154750214D01*
X254871697Y-154679747D01*
X254802385Y-154651037D01*
X254747982Y-154607195D01*
X254725918Y-154540901D01*
X254725840Y-154536851D01*
X254725164Y-154248314D01*
X254744692Y-154181231D01*
X254797389Y-154135352D01*
X254801686Y-154133476D01*
X254871697Y-154104477D01*
X254942164Y-154034010D01*
X254980300Y-153941941D01*
X254980300Y-153842285D01*
X254980300Y-153842284D01*
X254980300Y-151342284D01*
X254942164Y-151250215D01*
X254871697Y-151179748D01*
X254820383Y-151158493D01*
X254794182Y-151147640D01*
X254739778Y-151103798D01*
X254717714Y-151037504D01*
X254717635Y-151033418D01*
X254716976Y-150751706D01*
X254718553Y-150746288D01*
X255115963Y-150746288D01*
X255116183Y-150839988D01*
X255204500Y-150751672D01*
X255204500Y-150614056D01*
X255189239Y-150650900D01*
X255184031Y-150661910D01*
X255182873Y-150664076D01*
X255176621Y-150674505D01*
X255161686Y-150696856D01*
X255154450Y-150706615D01*
X255152892Y-150708514D01*
X255144708Y-150717545D01*
X255115963Y-150746288D01*
X254718553Y-150746288D01*
X254736504Y-150684622D01*
X254789201Y-150638743D01*
X254793524Y-150636856D01*
X254871697Y-150604476D01*
X254942164Y-150534009D01*
X254980300Y-150441940D01*
X254980300Y-150342284D01*
X254980300Y-150342283D01*
X254980300Y-149992936D01*
X255253300Y-149992936D01*
X255253300Y-150003332D01*
X255257081Y-149996259D01*
X255266785Y-149979450D01*
X255253300Y-149992936D01*
X254980300Y-149992936D01*
X254980300Y-149378478D01*
X255867757Y-149378478D01*
X255869613Y-149377487D01*
X255871081Y-149376763D01*
X255878484Y-149373409D01*
X255895015Y-149366563D01*
X255902589Y-149363712D01*
X255904138Y-149363186D01*
X255911912Y-149360827D01*
X255988204Y-149340382D01*
X255990471Y-149339074D01*
X255997613Y-149335257D01*
X255999081Y-149334533D01*
X256006483Y-149331179D01*
X256023011Y-149324334D01*
X256030586Y-149321483D01*
X256032135Y-149320957D01*
X256039911Y-149318598D01*
X256133619Y-149293488D01*
X256141541Y-149291641D01*
X256143146Y-149291322D01*
X256151130Y-149290004D01*
X256168869Y-149287668D01*
X256176950Y-149286872D01*
X256178583Y-149286765D01*
X256179502Y-149286734D01*
X256069502Y-149176734D01*
X255867757Y-149378478D01*
X254980300Y-149378478D01*
X254980300Y-149070468D01*
X255253300Y-149070468D01*
X255538465Y-149355633D01*
X255840599Y-149053499D01*
X256298405Y-149053499D01*
X256600539Y-149355633D01*
X256753336Y-149202837D01*
X257105473Y-149202837D01*
X257133460Y-149186680D01*
X257138714Y-149183871D01*
X257131577Y-149176734D01*
X257105473Y-149202837D01*
X256753336Y-149202837D01*
X256902673Y-149053500D01*
X257360481Y-149053500D01*
X257441081Y-149134100D01*
X257884147Y-149134100D01*
X258017582Y-149000665D01*
X258369720Y-149000665D01*
X258503155Y-149134100D01*
X258946221Y-149134100D01*
X259079656Y-149000665D01*
X259431795Y-149000665D01*
X259565230Y-149134100D01*
X260008296Y-149134100D01*
X260141731Y-149000665D01*
X260493869Y-149000665D01*
X260627304Y-149134100D01*
X261070370Y-149134100D01*
X261123228Y-149081242D01*
X262698595Y-149081242D01*
X262751453Y-149134100D01*
X263194519Y-149134100D01*
X263327954Y-149000665D01*
X263680092Y-149000665D01*
X263813527Y-149134100D01*
X264256593Y-149134100D01*
X264390028Y-149000665D01*
X264742166Y-149000665D01*
X264875601Y-149134100D01*
X265318668Y-149134100D01*
X265452103Y-149000665D01*
X265804241Y-149000665D01*
X265846701Y-149043125D01*
X265920245Y-149000665D01*
X266866315Y-149000665D01*
X267221283Y-149355633D01*
X267576251Y-149000665D01*
X267928390Y-149000665D01*
X268283358Y-149355633D01*
X268638326Y-149000665D01*
X268283358Y-148645697D01*
X267928390Y-149000665D01*
X267576251Y-149000665D01*
X267221283Y-148645697D01*
X266866315Y-149000665D01*
X265920245Y-149000665D01*
X265920860Y-149000310D01*
X265928013Y-148996487D01*
X265929481Y-148995763D01*
X265936884Y-148992409D01*
X265953415Y-148985563D01*
X265960989Y-148982712D01*
X265962538Y-148982186D01*
X265970315Y-148979826D01*
X266114891Y-148941087D01*
X266122812Y-148939241D01*
X266124417Y-148938922D01*
X266132401Y-148937604D01*
X266150140Y-148935268D01*
X266158221Y-148934472D01*
X266159854Y-148934365D01*
X266167962Y-148934100D01*
X266317638Y-148934100D01*
X266325746Y-148934365D01*
X266327379Y-148934472D01*
X266335460Y-148935268D01*
X266353199Y-148937604D01*
X266361183Y-148938922D01*
X266362788Y-148939241D01*
X266370709Y-148941087D01*
X266485304Y-148971792D01*
X266159209Y-148645697D01*
X265804241Y-149000665D01*
X265452103Y-149000665D01*
X265097134Y-148645696D01*
X264742166Y-149000665D01*
X264390028Y-149000665D01*
X264035060Y-148645697D01*
X263680092Y-149000665D01*
X263327954Y-149000665D01*
X262972985Y-148645696D01*
X262699588Y-148919093D01*
X262702400Y-148940448D01*
X262702400Y-149052352D01*
X262698595Y-149081242D01*
X261123228Y-149081242D01*
X261203805Y-149000665D01*
X260848837Y-148645697D01*
X260493869Y-149000665D01*
X260141731Y-149000665D01*
X259786763Y-148645697D01*
X259431795Y-149000665D01*
X259079656Y-149000665D01*
X258724688Y-148645697D01*
X258369720Y-149000665D01*
X258017582Y-149000665D01*
X257899621Y-148882704D01*
X257865530Y-148909893D01*
X257859988Y-148914065D01*
X257858844Y-148914877D01*
X257853041Y-148918755D01*
X257840060Y-148926911D01*
X257834093Y-148930431D01*
X257832865Y-148931110D01*
X257826665Y-148934314D01*
X257690933Y-148999680D01*
X257684597Y-149002515D01*
X257683301Y-149003052D01*
X257676783Y-149005541D01*
X257662311Y-149010604D01*
X257655685Y-149012715D01*
X257654338Y-149013103D01*
X257647608Y-149014839D01*
X257500734Y-149048361D01*
X257493914Y-149049718D01*
X257492531Y-149049953D01*
X257485640Y-149050926D01*
X257470407Y-149052642D01*
X257463507Y-149053224D01*
X257462106Y-149053303D01*
X257455125Y-149053500D01*
X257360481Y-149053500D01*
X256902673Y-149053500D01*
X256902674Y-149053499D01*
X256298405Y-149053499D01*
X255840599Y-149053499D01*
X255253300Y-149053499D01*
X255253300Y-149070468D01*
X254980300Y-149070468D01*
X254980300Y-148904500D01*
X254999985Y-148837461D01*
X255052789Y-148791706D01*
X255104300Y-148780500D01*
X255175324Y-148780500D01*
X255175333Y-148780499D01*
X257328437Y-148780499D01*
X257328440Y-148780500D01*
X257379800Y-148780500D01*
X257447458Y-148780500D01*
X257447460Y-148780500D01*
X257447462Y-148780499D01*
X257447466Y-148780499D01*
X257579388Y-148750389D01*
X257582916Y-148748690D01*
X257668649Y-148707403D01*
X258076458Y-148707403D01*
X258193651Y-148824596D01*
X258548619Y-148469628D01*
X258900757Y-148469628D01*
X259255725Y-148824596D01*
X259610693Y-148469628D01*
X259962832Y-148469628D01*
X260317800Y-148824596D01*
X260672768Y-148469628D01*
X261024906Y-148469628D01*
X261379874Y-148824596D01*
X261734842Y-148469628D01*
X261712614Y-148447400D01*
X262109208Y-148447400D01*
X262209352Y-148447400D01*
X262241445Y-148451625D01*
X262349537Y-148480588D01*
X262379445Y-148492976D01*
X262476357Y-148548929D01*
X262502037Y-148568635D01*
X262581165Y-148647763D01*
X262597497Y-148669046D01*
X262796915Y-148469628D01*
X263149055Y-148469628D01*
X263504023Y-148824596D01*
X263858991Y-148469628D01*
X264211129Y-148469628D01*
X264566097Y-148824596D01*
X264921065Y-148469628D01*
X265273204Y-148469628D01*
X265628172Y-148824596D01*
X265983140Y-148469628D01*
X266335278Y-148469628D01*
X266690246Y-148824596D01*
X267045214Y-148469628D01*
X267397352Y-148469628D01*
X267752320Y-148824596D01*
X268107288Y-148469628D01*
X268459427Y-148469628D01*
X268814394Y-148824595D01*
X268890300Y-148748690D01*
X268890300Y-148190565D01*
X268814395Y-148114660D01*
X268459427Y-148469628D01*
X268107288Y-148469628D01*
X267752320Y-148114659D01*
X267397352Y-148469628D01*
X267045214Y-148469628D01*
X266690246Y-148114660D01*
X266335278Y-148469628D01*
X265983140Y-148469628D01*
X265628172Y-148114660D01*
X265273204Y-148469628D01*
X264921065Y-148469628D01*
X264566097Y-148114660D01*
X264211129Y-148469628D01*
X263858991Y-148469628D01*
X263504023Y-148114660D01*
X263149055Y-148469628D01*
X262796915Y-148469628D01*
X262796916Y-148469627D01*
X262441948Y-148114659D01*
X262109208Y-148447400D01*
X261712614Y-148447400D01*
X261379874Y-148114660D01*
X261024906Y-148469628D01*
X260672768Y-148469628D01*
X260317800Y-148114660D01*
X259962832Y-148469628D01*
X259610693Y-148469628D01*
X259255725Y-148114660D01*
X258900757Y-148469628D01*
X258548619Y-148469628D01*
X258253300Y-148174309D01*
X258253300Y-148255324D01*
X258253103Y-148262305D01*
X258253024Y-148263706D01*
X258252442Y-148270606D01*
X258250726Y-148285839D01*
X258249753Y-148292730D01*
X258249518Y-148294113D01*
X258248161Y-148300933D01*
X258214639Y-148447806D01*
X258212910Y-148454513D01*
X258212522Y-148455861D01*
X258210400Y-148462522D01*
X258205336Y-148476992D01*
X258202883Y-148483423D01*
X258202347Y-148484719D01*
X258199480Y-148491130D01*
X258134115Y-148626862D01*
X258130911Y-148633062D01*
X258130232Y-148634290D01*
X258126712Y-148640257D01*
X258118556Y-148653238D01*
X258114678Y-148659041D01*
X258113866Y-148660185D01*
X258109695Y-148665726D01*
X258076458Y-148707403D01*
X257668649Y-148707403D01*
X257701308Y-148691675D01*
X257807105Y-148607304D01*
X257891476Y-148501506D01*
X257950189Y-148379586D01*
X257968141Y-148300933D01*
X257980299Y-148247665D01*
X257980300Y-148247657D01*
X257980300Y-148111166D01*
X257980299Y-148111160D01*
X257980299Y-147938590D01*
X258369719Y-147938590D01*
X258724688Y-148293558D01*
X259079656Y-147938590D01*
X259431794Y-147938590D01*
X259786763Y-148293558D01*
X260141731Y-147938590D01*
X260493868Y-147938590D01*
X260848837Y-148293558D01*
X261203805Y-147938590D01*
X261555942Y-147938590D01*
X261910911Y-148293558D01*
X262265879Y-147938590D01*
X262618017Y-147938590D01*
X262972986Y-148293558D01*
X263327954Y-147938590D01*
X263680091Y-147938590D01*
X264035060Y-148293558D01*
X264390028Y-147938590D01*
X264742166Y-147938590D01*
X265097134Y-148293558D01*
X265452103Y-147938590D01*
X265804240Y-147938590D01*
X266159209Y-148293558D01*
X266514177Y-147938590D01*
X266866314Y-147938590D01*
X267221283Y-148293558D01*
X267576251Y-147938590D01*
X267928389Y-147938590D01*
X268283358Y-148293558D01*
X268638326Y-147938590D01*
X268283358Y-147583622D01*
X267928389Y-147938590D01*
X267576251Y-147938590D01*
X267221283Y-147583622D01*
X266866314Y-147938590D01*
X266514177Y-147938590D01*
X266159209Y-147583622D01*
X265804240Y-147938590D01*
X265452103Y-147938590D01*
X265097134Y-147583621D01*
X264742166Y-147938590D01*
X264390028Y-147938590D01*
X264035060Y-147583622D01*
X263680091Y-147938590D01*
X263327954Y-147938590D01*
X262972986Y-147583622D01*
X262618017Y-147938590D01*
X262265879Y-147938590D01*
X261910911Y-147583622D01*
X261555942Y-147938590D01*
X261203805Y-147938590D01*
X260848837Y-147583622D01*
X260493868Y-147938590D01*
X260141731Y-147938590D01*
X259786763Y-147583622D01*
X259431794Y-147938590D01*
X259079656Y-147938590D01*
X258724688Y-147583622D01*
X258369719Y-147938590D01*
X257980299Y-147938590D01*
X257980299Y-147702873D01*
X258253299Y-147702873D01*
X258548619Y-147407553D01*
X258900757Y-147407553D01*
X259255725Y-147762521D01*
X259610693Y-147407553D01*
X259962832Y-147407553D01*
X260317800Y-147762521D01*
X260672768Y-147407553D01*
X261024906Y-147407553D01*
X261379874Y-147762521D01*
X261734842Y-147407553D01*
X262086980Y-147407553D01*
X262441948Y-147762521D01*
X262796917Y-147407553D01*
X263149055Y-147407553D01*
X263504023Y-147762521D01*
X263858991Y-147407553D01*
X264211129Y-147407553D01*
X264566097Y-147762521D01*
X264921065Y-147407553D01*
X265273204Y-147407553D01*
X265628172Y-147762521D01*
X265983140Y-147407553D01*
X266335278Y-147407553D01*
X266690246Y-147762521D01*
X267045214Y-147407553D01*
X267397352Y-147407553D01*
X267752320Y-147762521D01*
X268107288Y-147407553D01*
X268459427Y-147407553D01*
X268814394Y-147762520D01*
X268890300Y-147686615D01*
X268890300Y-147128490D01*
X268814395Y-147052585D01*
X268459427Y-147407553D01*
X268107288Y-147407553D01*
X267752320Y-147052584D01*
X267397352Y-147407553D01*
X267045214Y-147407553D01*
X266690246Y-147052585D01*
X266335278Y-147407553D01*
X265983140Y-147407553D01*
X265628172Y-147052585D01*
X265273204Y-147407553D01*
X264921065Y-147407553D01*
X264566097Y-147052585D01*
X264211129Y-147407553D01*
X263858991Y-147407553D01*
X263504023Y-147052585D01*
X263149055Y-147407553D01*
X262796917Y-147407553D01*
X262441948Y-147052584D01*
X262086980Y-147407553D01*
X261734842Y-147407553D01*
X261379874Y-147052585D01*
X261024906Y-147407553D01*
X260672768Y-147407553D01*
X260317800Y-147052585D01*
X259962832Y-147407553D01*
X259610693Y-147407553D01*
X259255725Y-147052585D01*
X258900757Y-147407553D01*
X258548619Y-147407553D01*
X258253299Y-147112233D01*
X258253299Y-147702873D01*
X257980299Y-147702873D01*
X257980299Y-146876516D01*
X258369720Y-146876516D01*
X258724688Y-147231484D01*
X259079656Y-146876516D01*
X259431795Y-146876516D01*
X259786763Y-147231484D01*
X260141731Y-146876516D01*
X260493869Y-146876516D01*
X260848837Y-147231484D01*
X261203805Y-146876516D01*
X261555943Y-146876516D01*
X261910911Y-147231484D01*
X262265879Y-146876516D01*
X262618018Y-146876516D01*
X262972986Y-147231484D01*
X263327954Y-146876516D01*
X263680092Y-146876516D01*
X264035060Y-147231484D01*
X264390028Y-146876516D01*
X264742166Y-146876516D01*
X265097134Y-147231484D01*
X265452103Y-146876516D01*
X265804241Y-146876516D01*
X266159209Y-147231484D01*
X266514177Y-146876516D01*
X266866315Y-146876516D01*
X267221283Y-147231484D01*
X267576251Y-146876516D01*
X267928390Y-146876516D01*
X268283358Y-147231484D01*
X268638326Y-146876516D01*
X268315310Y-146553500D01*
X268667448Y-146553500D01*
X268814394Y-146700446D01*
X268890300Y-146624541D01*
X268890300Y-146553500D01*
X268667448Y-146553500D01*
X268315310Y-146553500D01*
X268251406Y-146553500D01*
X267928390Y-146876516D01*
X267576251Y-146876516D01*
X267253235Y-146553500D01*
X267605373Y-146553500D01*
X267752320Y-146700447D01*
X267899268Y-146553500D01*
X267605373Y-146553500D01*
X267253235Y-146553500D01*
X267189331Y-146553500D01*
X266866315Y-146876516D01*
X266514177Y-146876516D01*
X266191161Y-146553500D01*
X266543299Y-146553500D01*
X266690246Y-146700447D01*
X266837193Y-146553500D01*
X266543299Y-146553500D01*
X266191161Y-146553500D01*
X266127257Y-146553500D01*
X265804241Y-146876516D01*
X265452103Y-146876516D01*
X265129087Y-146553500D01*
X265481225Y-146553500D01*
X265628172Y-146700447D01*
X265775119Y-146553500D01*
X265481225Y-146553500D01*
X265129087Y-146553500D01*
X265065183Y-146553500D01*
X264742166Y-146876516D01*
X264390028Y-146876516D01*
X264067012Y-146553500D01*
X264419150Y-146553500D01*
X264566097Y-146700447D01*
X264713044Y-146553500D01*
X264419150Y-146553500D01*
X264067012Y-146553500D01*
X264003108Y-146553500D01*
X263680092Y-146876516D01*
X263327954Y-146876516D01*
X263004938Y-146553500D01*
X263357076Y-146553500D01*
X263504023Y-146700447D01*
X263650970Y-146553500D01*
X263357076Y-146553500D01*
X263004938Y-146553500D01*
X262941034Y-146553500D01*
X262618018Y-146876516D01*
X262265879Y-146876516D01*
X261942863Y-146553500D01*
X262295001Y-146553500D01*
X262441948Y-146700447D01*
X262588896Y-146553500D01*
X262295001Y-146553500D01*
X261942863Y-146553500D01*
X261878959Y-146553500D01*
X261555943Y-146876516D01*
X261203805Y-146876516D01*
X260880789Y-146553500D01*
X261232927Y-146553500D01*
X261379874Y-146700447D01*
X261526821Y-146553500D01*
X261232927Y-146553500D01*
X260880789Y-146553500D01*
X260816885Y-146553500D01*
X260493869Y-146876516D01*
X260141731Y-146876516D01*
X259818715Y-146553500D01*
X260170853Y-146553500D01*
X260317800Y-146700447D01*
X260464747Y-146553500D01*
X260170853Y-146553500D01*
X259818715Y-146553500D01*
X259754811Y-146553500D01*
X259431795Y-146876516D01*
X259079656Y-146876516D01*
X258756640Y-146553500D01*
X259108778Y-146553500D01*
X259255725Y-146700447D01*
X259402672Y-146553500D01*
X259108778Y-146553500D01*
X258756640Y-146553500D01*
X258692736Y-146553500D01*
X258369720Y-146876516D01*
X257980299Y-146876516D01*
X257980299Y-146404500D01*
X257999984Y-146337461D01*
X258052788Y-146291706D01*
X258104299Y-146280500D01*
X269039300Y-146280500D01*
X269106339Y-146300185D01*
G37*
%TD.AperFunction*%
%TA.AperFunction,Conductor*%
G36*
X281535597Y-156800185D02*
G01*
X281581352Y-156852989D01*
X281592558Y-156904415D01*
X281593126Y-157729508D01*
X281573488Y-157796561D01*
X281520715Y-157842352D01*
X281451563Y-157852343D01*
X281387988Y-157823362D01*
X281381445Y-157817274D01*
X280556353Y-156992181D01*
X280522868Y-156930858D01*
X280527852Y-156861166D01*
X280569724Y-156805233D01*
X280635188Y-156780816D01*
X280644034Y-156780500D01*
X281468558Y-156780500D01*
X281535597Y-156800185D01*
G37*
%TD.AperFunction*%
%TD*%
M02*
