%TF.GenerationSoftware,KiCad,Pcbnew,9.0.6-rc2*%
%TF.CreationDate,2025-11-19T20:35:16-08:00*%
%TF.ProjectId,FPCJr_Trigger_Board,4650434a-725f-4547-9269-676765725f42,rev?*%
%TF.SameCoordinates,Original*%
%TF.FileFunction,Copper,L1,Top*%
%TF.FilePolarity,Positive*%
%FSLAX46Y46*%
G04 Gerber Fmt 4.6, Leading zero omitted, Abs format (unit mm)*
G04 Created by KiCad (PCBNEW 9.0.6-rc2) date 2025-11-19 20:35:16*
%MOMM*%
%LPD*%
G01*
G04 APERTURE LIST*
G04 Aperture macros list*
%AMRoundRect*
0 Rectangle with rounded corners*
0 $1 Rounding radius*
0 $2 $3 $4 $5 $6 $7 $8 $9 X,Y pos of 4 corners*
0 Add a 4 corners polygon primitive as box body*
4,1,4,$2,$3,$4,$5,$6,$7,$8,$9,$2,$3,0*
0 Add four circle primitives for the rounded corners*
1,1,$1+$1,$2,$3*
1,1,$1+$1,$4,$5*
1,1,$1+$1,$6,$7*
1,1,$1+$1,$8,$9*
0 Add four rect primitives between the rounded corners*
20,1,$1+$1,$2,$3,$4,$5,0*
20,1,$1+$1,$4,$5,$6,$7,0*
20,1,$1+$1,$6,$7,$8,$9,0*
20,1,$1+$1,$8,$9,$2,$3,0*%
G04 Aperture macros list end*
%TA.AperFunction,SMDPad,CuDef*%
%ADD10RoundRect,0.100000X-0.100000X0.130000X-0.100000X-0.130000X0.100000X-0.130000X0.100000X0.130000X0*%
%TD*%
%TA.AperFunction,SMDPad,CuDef*%
%ADD11RoundRect,0.150000X0.150000X-0.512500X0.150000X0.512500X-0.150000X0.512500X-0.150000X-0.512500X0*%
%TD*%
%TA.AperFunction,SMDPad,CuDef*%
%ADD12RoundRect,0.150000X-0.150000X0.512500X-0.150000X-0.512500X0.150000X-0.512500X0.150000X0.512500X0*%
%TD*%
%TA.AperFunction,ViaPad*%
%ADD13C,0.600000*%
%TD*%
%TA.AperFunction,Conductor*%
%ADD14C,0.200000*%
%TD*%
G04 APERTURE END LIST*
D10*
%TO.P,C1,1*%
%TO.N,GNDL*%
X261670800Y-149921000D03*
%TO.P,C1,2*%
%TO.N,+3V3L*%
X261670800Y-150561000D03*
%TD*%
D11*
%TO.P,U1,1,IN*%
%TO.N,+3V3L*%
X263147845Y-150098750D03*
%TO.P,U1,2,GND*%
%TO.N,GNDL*%
X264097844Y-150098750D03*
%TO.P,U1,3,EN*%
%TO.N,TRIGGER_EN_L*%
X265047843Y-150098750D03*
%TO.P,U1,4,NC*%
%TO.N,unconnected-(U1-NC-Pad4)*%
X265047843Y-147823750D03*
%TO.P,U1,5,OUT*%
%TO.N,ADC_0*%
X263147845Y-147823750D03*
%TD*%
D12*
%TO.P,U2,1,IN*%
%TO.N,+3V3*%
X244311755Y-147823750D03*
%TO.P,U2,2,GND*%
%TO.N,GND*%
X243361756Y-147823750D03*
%TO.P,U2,3,EN*%
%TO.N,TRIGGER_EN_R*%
X242411757Y-147823750D03*
%TO.P,U2,4,NC*%
%TO.N,unconnected-(U2-NC-Pad4)*%
X242411757Y-150098750D03*
%TO.P,U2,5,OUT*%
%TO.N,ADC_1*%
X244311755Y-150098750D03*
%TD*%
D10*
%TO.P,C2,1*%
%TO.N,GND*%
X245795800Y-147406400D03*
%TO.P,C2,2*%
%TO.N,+3V3*%
X245795800Y-148046400D03*
%TD*%
D13*
%TO.N,GND*%
X226364800Y-157276800D03*
X252247400Y-158496000D03*
X247269000Y-149987000D03*
%TO.N,TRIGGER_EN_L*%
X266242800Y-149707600D03*
%TO.N,+3V3*%
X246507000Y-148361400D03*
%TO.N,ADC_0*%
X256184400Y-150088600D03*
%TO.N,ADC_1*%
X245668800Y-149885400D03*
%TO.N,TRIGGER_EN_R*%
X245770400Y-148945600D03*
%TO.N,+3V3L*%
X259384800Y-150368000D03*
%TO.N,GNDL*%
X262153400Y-148996400D03*
X281279600Y-157124400D03*
X255295400Y-158521400D03*
%TD*%
D14*
%TO.N,GND*%
X247269000Y-147878800D02*
X246796600Y-147406400D01*
X243361756Y-147036244D02*
X243763800Y-146634200D01*
X243361756Y-147823750D02*
X243361756Y-147036244D01*
X243763800Y-146634200D02*
X245414800Y-146634200D01*
X245414800Y-146634200D02*
X245795800Y-147015200D01*
X245795800Y-147015200D02*
X245795800Y-147406400D01*
X246796600Y-147406400D02*
X245795800Y-147406400D01*
X247269000Y-149987000D02*
X247269000Y-147878800D01*
%TO.N,TRIGGER_EN_L*%
X266077556Y-149542356D02*
X264882351Y-149542356D01*
X266242800Y-149707600D02*
X266077556Y-149542356D01*
%TO.N,+3V3*%
X246507000Y-148361400D02*
X246192000Y-148046400D01*
X246192000Y-148046400D02*
X245795800Y-148046400D01*
X244534405Y-148046400D02*
X245795800Y-148046400D01*
X244311755Y-147823750D02*
X244534405Y-148046400D01*
%TO.N,ADC_0*%
X260583097Y-147264703D02*
X263313789Y-147264703D01*
X257098800Y-149174200D02*
X258673600Y-149174200D01*
X258673600Y-149174200D02*
X260583097Y-147264703D01*
X256184400Y-150088600D02*
X257098800Y-149174200D01*
%TO.N,ADC_1*%
X245455450Y-150098750D02*
X245668800Y-149885400D01*
X245668800Y-149885400D02*
X245668800Y-149961600D01*
X244311755Y-150098750D02*
X245455450Y-150098750D01*
%TO.N,TRIGGER_EN_R*%
X242798600Y-148945600D02*
X245770400Y-148945600D01*
X242411757Y-147823750D02*
X242411757Y-148558757D01*
X242722400Y-148869400D02*
X242798600Y-148945600D01*
X242411757Y-148558757D02*
X242722400Y-148869400D01*
%TO.N,+3V3L*%
X263147845Y-150098750D02*
X263147845Y-150371731D01*
X259384800Y-150368000D02*
X259577800Y-150561000D01*
X263147845Y-150371731D02*
X262958576Y-150561000D01*
X259577800Y-150561000D02*
X261670800Y-150561000D01*
X262958576Y-150561000D02*
X261670800Y-150561000D01*
%TO.N,GNDL*%
X262064500Y-149339300D02*
X261670800Y-149733000D01*
X263829800Y-149072600D02*
X262331200Y-149072600D01*
X264097844Y-149340644D02*
X263829800Y-149072600D01*
X262064500Y-149085300D02*
X262064500Y-149339300D01*
X262153400Y-148996400D02*
X262064500Y-149085300D01*
X264097844Y-150098750D02*
X264097844Y-149340644D01*
X262331200Y-149072600D02*
X262064500Y-149339300D01*
X261670800Y-149733000D02*
X261670800Y-149921000D01*
%TD*%
%TA.AperFunction,Conductor*%
%TO.N,GND*%
G36*
X249422339Y-146300184D02*
G01*
X249468094Y-146352988D01*
X249479300Y-146404499D01*
X249479300Y-148247666D01*
X249509408Y-148379580D01*
X249509411Y-148379588D01*
X249568123Y-148501504D01*
X249652494Y-148607305D01*
X249695396Y-148641517D01*
X249758293Y-148691675D01*
X249880212Y-148750389D01*
X249880216Y-148750389D01*
X249880219Y-148750391D01*
X250012133Y-148780499D01*
X250012138Y-148780499D01*
X250012140Y-148780500D01*
X250012142Y-148780500D01*
X250175324Y-148780500D01*
X250175333Y-148780499D01*
X252355300Y-148780499D01*
X252422339Y-148800184D01*
X252468094Y-148852988D01*
X252479300Y-148904499D01*
X252479300Y-150441940D01*
X252508707Y-150512935D01*
X252517436Y-150534008D01*
X252587903Y-150604475D01*
X252605199Y-150611639D01*
X252647752Y-150629265D01*
X252702156Y-150673106D01*
X252724221Y-150739400D01*
X252724300Y-150744117D01*
X252723604Y-151040975D01*
X252703762Y-151107968D01*
X252650851Y-151153599D01*
X252647058Y-151155244D01*
X252587905Y-151179746D01*
X252587901Y-151179749D01*
X252517436Y-151250214D01*
X252479300Y-151342282D01*
X252479300Y-151342284D01*
X252479300Y-153842284D01*
X252479300Y-153941940D01*
X252517436Y-154034009D01*
X252587903Y-154104476D01*
X252639563Y-154125874D01*
X252693967Y-154169715D01*
X252716032Y-154236009D01*
X252716111Y-154240726D01*
X252715399Y-154544374D01*
X252695557Y-154611367D01*
X252642646Y-154656998D01*
X252638855Y-154658642D01*
X252587906Y-154679747D01*
X252587901Y-154679749D01*
X252517436Y-154750214D01*
X252479300Y-154842282D01*
X252479300Y-157441941D01*
X252517436Y-157534008D01*
X252517436Y-157534009D01*
X252587903Y-157604476D01*
X252631374Y-157622482D01*
X252685778Y-157666323D01*
X252707843Y-157732617D01*
X252707922Y-157737334D01*
X252707194Y-158047774D01*
X252687352Y-158114767D01*
X252634441Y-158160398D01*
X252630647Y-158162044D01*
X252587902Y-158179749D01*
X252517436Y-158250215D01*
X252479300Y-158342283D01*
X252479300Y-158655500D01*
X252459615Y-158722539D01*
X252406811Y-158768294D01*
X252355300Y-158779500D01*
X228422098Y-158779500D01*
X228421997Y-158779491D01*
X228418307Y-158779491D01*
X228418170Y-158779451D01*
X228310510Y-158779471D01*
X228200507Y-158804605D01*
X228098873Y-158853586D01*
X228098872Y-158853587D01*
X228097311Y-158854833D01*
X228010684Y-158923969D01*
X228010683Y-158923970D01*
X228010682Y-158923971D01*
X227940374Y-159012213D01*
X227940369Y-159012221D01*
X227891472Y-159113886D01*
X227891471Y-159113890D01*
X227866427Y-159223907D01*
X227866426Y-159223910D01*
X227866427Y-159224357D01*
X227866425Y-159224404D01*
X227867005Y-160124520D01*
X227847364Y-160191572D01*
X227794589Y-160237361D01*
X227743005Y-160248600D01*
X225992109Y-160248600D01*
X225925070Y-160228915D01*
X225879315Y-160176111D01*
X225868109Y-160124628D01*
X225867943Y-159388135D01*
X226140942Y-159388135D01*
X226141026Y-159764303D01*
X226329067Y-159576262D01*
X226681207Y-159576262D01*
X226954545Y-159849600D01*
X227117805Y-159849600D01*
X227391143Y-159576262D01*
X227036175Y-159221294D01*
X226681207Y-159576262D01*
X226329067Y-159576262D01*
X226329068Y-159576261D01*
X226140942Y-159388135D01*
X225867943Y-159388135D01*
X225867886Y-159136147D01*
X225867866Y-159045224D01*
X226150169Y-159045224D01*
X226505138Y-159400193D01*
X226860106Y-159045225D01*
X227212244Y-159045225D01*
X227567211Y-159400192D01*
X227593521Y-159373882D01*
X227593425Y-159224002D01*
X227593426Y-159223912D01*
X227593424Y-159216347D01*
X227593616Y-159209411D01*
X227593694Y-159208012D01*
X227594274Y-159201101D01*
X227595981Y-159185874D01*
X227596949Y-159178987D01*
X227597183Y-159177605D01*
X227598536Y-159170783D01*
X227626982Y-159045822D01*
X227628727Y-159039046D01*
X227629115Y-159037698D01*
X227631213Y-159031108D01*
X227636270Y-159016630D01*
X227638734Y-159010159D01*
X227639270Y-159008862D01*
X227642123Y-159002477D01*
X227697673Y-158886977D01*
X227700883Y-158880757D01*
X227701562Y-158879528D01*
X227705076Y-158873567D01*
X227713229Y-158860579D01*
X227717063Y-158854833D01*
X227717874Y-158853688D01*
X227722082Y-158848090D01*
X227723395Y-158846440D01*
X227567212Y-158690257D01*
X227212244Y-159045225D01*
X226860106Y-159045225D01*
X226505137Y-158690256D01*
X226150169Y-159045224D01*
X225867866Y-159045224D01*
X225867704Y-158325822D01*
X226140703Y-158325822D01*
X226140788Y-158702467D01*
X226329067Y-158514188D01*
X226681207Y-158514188D01*
X227036175Y-158869156D01*
X227391143Y-158514188D01*
X227743281Y-158514188D01*
X227895613Y-158666520D01*
X227934571Y-158635428D01*
X227940132Y-158631241D01*
X227941277Y-158630428D01*
X227947064Y-158626558D01*
X227960047Y-158618395D01*
X227966010Y-158614875D01*
X227967237Y-158614196D01*
X227973442Y-158610986D01*
X228088899Y-158555344D01*
X228095267Y-158552494D01*
X228096563Y-158551957D01*
X228103048Y-158549480D01*
X228117521Y-158544412D01*
X228124122Y-158542305D01*
X228125470Y-158541916D01*
X228132230Y-158540170D01*
X228257171Y-158511623D01*
X228264019Y-158510260D01*
X228265402Y-158510025D01*
X228272256Y-158509057D01*
X228287492Y-158507336D01*
X228294429Y-158506749D01*
X228295830Y-158506670D01*
X228302787Y-158506473D01*
X228423212Y-158506450D01*
X228423464Y-158506500D01*
X228445530Y-158506500D01*
X228813044Y-158506500D01*
X229507604Y-158506500D01*
X229875118Y-158506500D01*
X230569678Y-158506500D01*
X230937193Y-158506500D01*
X231631753Y-158506500D01*
X231999267Y-158506500D01*
X232693827Y-158506500D01*
X233061341Y-158506500D01*
X233755902Y-158506500D01*
X234123416Y-158506500D01*
X234817976Y-158506500D01*
X235185490Y-158506500D01*
X235880050Y-158506500D01*
X236247564Y-158506500D01*
X236942125Y-158506500D01*
X237309639Y-158506500D01*
X238004199Y-158506500D01*
X238371713Y-158506500D01*
X239066273Y-158506500D01*
X239433788Y-158506500D01*
X240128348Y-158506500D01*
X240495862Y-158506500D01*
X241190422Y-158506500D01*
X241557936Y-158506500D01*
X242252497Y-158506500D01*
X242620011Y-158506500D01*
X243314571Y-158506500D01*
X243682085Y-158506500D01*
X244376645Y-158506500D01*
X244744160Y-158506500D01*
X245438720Y-158506500D01*
X245806234Y-158506500D01*
X246500794Y-158506500D01*
X246868308Y-158506500D01*
X247562869Y-158506500D01*
X247930383Y-158506500D01*
X248624943Y-158506500D01*
X248992457Y-158506500D01*
X249687017Y-158506500D01*
X250054532Y-158506500D01*
X250749092Y-158506500D01*
X251116606Y-158506500D01*
X251698400Y-158506500D01*
X251698400Y-158440048D01*
X251702625Y-158407955D01*
X251704737Y-158400071D01*
X251463886Y-158159220D01*
X251116606Y-158506500D01*
X250749092Y-158506500D01*
X250401812Y-158159220D01*
X250054532Y-158506500D01*
X249687017Y-158506500D01*
X249339737Y-158159220D01*
X248992457Y-158506500D01*
X248624943Y-158506500D01*
X248277663Y-158159220D01*
X247930383Y-158506500D01*
X247562869Y-158506500D01*
X247215588Y-158159219D01*
X246868308Y-158506500D01*
X246500794Y-158506500D01*
X246153514Y-158159220D01*
X245806234Y-158506500D01*
X245438720Y-158506500D01*
X245091440Y-158159220D01*
X244744160Y-158506500D01*
X244376645Y-158506500D01*
X244029365Y-158159220D01*
X243682085Y-158506500D01*
X243314571Y-158506500D01*
X242967291Y-158159220D01*
X242620011Y-158506500D01*
X242252497Y-158506500D01*
X241905216Y-158159219D01*
X241557936Y-158506500D01*
X241190422Y-158506500D01*
X240843142Y-158159220D01*
X240495862Y-158506500D01*
X240128348Y-158506500D01*
X239781068Y-158159220D01*
X239433788Y-158506500D01*
X239066273Y-158506500D01*
X238718993Y-158159220D01*
X238371713Y-158506500D01*
X238004199Y-158506500D01*
X237656919Y-158159220D01*
X237309639Y-158506500D01*
X236942125Y-158506500D01*
X236594844Y-158159219D01*
X236247564Y-158506500D01*
X235880050Y-158506500D01*
X235532770Y-158159220D01*
X235185490Y-158506500D01*
X234817976Y-158506500D01*
X234470696Y-158159220D01*
X234123416Y-158506500D01*
X233755902Y-158506500D01*
X233408621Y-158159219D01*
X233061341Y-158506500D01*
X232693827Y-158506500D01*
X232346547Y-158159220D01*
X231999267Y-158506500D01*
X231631753Y-158506500D01*
X231284473Y-158159220D01*
X230937193Y-158506500D01*
X230569678Y-158506500D01*
X230222398Y-158159220D01*
X229875118Y-158506500D01*
X229507604Y-158506500D01*
X229160324Y-158159220D01*
X228813044Y-158506500D01*
X228445530Y-158506500D01*
X228098249Y-158159219D01*
X227743281Y-158514188D01*
X227391143Y-158514188D01*
X227036175Y-158159220D01*
X226681207Y-158514188D01*
X226329067Y-158514188D01*
X226329068Y-158514187D01*
X226140703Y-158325822D01*
X225867704Y-158325822D01*
X225867627Y-157983149D01*
X226150169Y-157983149D01*
X226505138Y-158338118D01*
X226860106Y-157983150D01*
X227212243Y-157983150D01*
X227567212Y-158338118D01*
X227922180Y-157983150D01*
X228274318Y-157983150D01*
X228629287Y-158338118D01*
X228984255Y-157983150D01*
X229336392Y-157983150D01*
X229691361Y-158338118D01*
X230046329Y-157983150D01*
X230398466Y-157983150D01*
X230753435Y-158338118D01*
X231108403Y-157983150D01*
X231460541Y-157983150D01*
X231815510Y-158338118D01*
X232170478Y-157983150D01*
X232522615Y-157983150D01*
X232877584Y-158338118D01*
X233232552Y-157983150D01*
X233584690Y-157983150D01*
X233939659Y-158338118D01*
X234294627Y-157983150D01*
X234646764Y-157983150D01*
X235001733Y-158338118D01*
X235356701Y-157983150D01*
X235708838Y-157983150D01*
X236063807Y-158338118D01*
X236418775Y-157983150D01*
X236770913Y-157983150D01*
X237125882Y-158338118D01*
X237480850Y-157983150D01*
X237832987Y-157983150D01*
X238187956Y-158338118D01*
X238542924Y-157983150D01*
X238895062Y-157983150D01*
X239250030Y-158338118D01*
X239604999Y-157983150D01*
X239957136Y-157983150D01*
X240312105Y-158338118D01*
X240667073Y-157983150D01*
X241019210Y-157983150D01*
X241374179Y-158338118D01*
X241729147Y-157983150D01*
X242081285Y-157983150D01*
X242436254Y-158338118D01*
X242791222Y-157983150D01*
X243143359Y-157983150D01*
X243498328Y-158338118D01*
X243853296Y-157983150D01*
X244205433Y-157983150D01*
X244560402Y-158338118D01*
X244915370Y-157983150D01*
X245267508Y-157983150D01*
X245622477Y-158338118D01*
X245977445Y-157983150D01*
X246329582Y-157983150D01*
X246684551Y-158338118D01*
X247039519Y-157983150D01*
X247391657Y-157983150D01*
X247746626Y-158338118D01*
X248101594Y-157983150D01*
X248453731Y-157983150D01*
X248808700Y-158338118D01*
X249163668Y-157983150D01*
X249515805Y-157983150D01*
X249870774Y-158338118D01*
X250225742Y-157983150D01*
X250577880Y-157983150D01*
X250932849Y-158338118D01*
X251287817Y-157983150D01*
X251639955Y-157983150D01*
X251812919Y-158156114D01*
X251819635Y-158147363D01*
X251898763Y-158068235D01*
X251924443Y-158048529D01*
X252021355Y-157992576D01*
X252051263Y-157980188D01*
X252159355Y-157951225D01*
X252191448Y-157947000D01*
X252303352Y-157947000D01*
X252308428Y-157947668D01*
X252308442Y-157941701D01*
X251994923Y-157628182D01*
X251639955Y-157983150D01*
X251287817Y-157983150D01*
X250932849Y-157628182D01*
X250577880Y-157983150D01*
X250225742Y-157983150D01*
X249870774Y-157628182D01*
X249515805Y-157983150D01*
X249163668Y-157983150D01*
X248808700Y-157628182D01*
X248453731Y-157983150D01*
X248101594Y-157983150D01*
X247746626Y-157628182D01*
X247391657Y-157983150D01*
X247039519Y-157983150D01*
X246684551Y-157628182D01*
X246329582Y-157983150D01*
X245977445Y-157983150D01*
X245622477Y-157628182D01*
X245267508Y-157983150D01*
X244915370Y-157983150D01*
X244560402Y-157628181D01*
X244205433Y-157983150D01*
X243853296Y-157983150D01*
X243498328Y-157628182D01*
X243143359Y-157983150D01*
X242791222Y-157983150D01*
X242436254Y-157628182D01*
X242081285Y-157983150D01*
X241729147Y-157983150D01*
X241374179Y-157628182D01*
X241019210Y-157983150D01*
X240667073Y-157983150D01*
X240312105Y-157628182D01*
X239957136Y-157983150D01*
X239604999Y-157983150D01*
X239250030Y-157628181D01*
X238895062Y-157983150D01*
X238542924Y-157983150D01*
X238187956Y-157628182D01*
X237832987Y-157983150D01*
X237480850Y-157983150D01*
X237125882Y-157628182D01*
X236770913Y-157983150D01*
X236418775Y-157983150D01*
X236063807Y-157628182D01*
X235708838Y-157983150D01*
X235356701Y-157983150D01*
X235001733Y-157628182D01*
X234646764Y-157983150D01*
X234294627Y-157983150D01*
X233939659Y-157628182D01*
X233584690Y-157983150D01*
X233232552Y-157983150D01*
X232877584Y-157628182D01*
X232522615Y-157983150D01*
X232170478Y-157983150D01*
X231815510Y-157628182D01*
X231460541Y-157983150D01*
X231108403Y-157983150D01*
X230753435Y-157628181D01*
X230398466Y-157983150D01*
X230046329Y-157983150D01*
X229691361Y-157628182D01*
X229336392Y-157983150D01*
X228984255Y-157983150D01*
X228629287Y-157628182D01*
X228274318Y-157983150D01*
X227922180Y-157983150D01*
X227567212Y-157628182D01*
X227212243Y-157983150D01*
X226860106Y-157983150D01*
X226632899Y-157755943D01*
X226590845Y-157780224D01*
X226560937Y-157792612D01*
X226452845Y-157821575D01*
X226420752Y-157825800D01*
X226308848Y-157825800D01*
X226307673Y-157825645D01*
X226150169Y-157983149D01*
X225867627Y-157983149D01*
X225867538Y-157589245D01*
X226818339Y-157589245D01*
X227036175Y-157807081D01*
X227391143Y-157452113D01*
X227743281Y-157452113D01*
X228098249Y-157807081D01*
X228453218Y-157452113D01*
X228805356Y-157452113D01*
X229160324Y-157807081D01*
X229515292Y-157452113D01*
X229867430Y-157452113D01*
X230222398Y-157807081D01*
X230577366Y-157452113D01*
X230929505Y-157452113D01*
X231284473Y-157807081D01*
X231639441Y-157452113D01*
X231991579Y-157452113D01*
X232346547Y-157807081D01*
X232701515Y-157452113D01*
X233053653Y-157452113D01*
X233408621Y-157807081D01*
X233763589Y-157452113D01*
X234115728Y-157452113D01*
X234470696Y-157807081D01*
X234825664Y-157452113D01*
X235177802Y-157452113D01*
X235532770Y-157807081D01*
X235887738Y-157452113D01*
X236239876Y-157452113D01*
X236594844Y-157807081D01*
X236949813Y-157452113D01*
X237301951Y-157452113D01*
X237656919Y-157807081D01*
X238011887Y-157452113D01*
X238364025Y-157452113D01*
X238718993Y-157807081D01*
X239073961Y-157452113D01*
X239426100Y-157452113D01*
X239781068Y-157807081D01*
X240136036Y-157452113D01*
X240488174Y-157452113D01*
X240843142Y-157807081D01*
X241198110Y-157452113D01*
X241550248Y-157452113D01*
X241905216Y-157807081D01*
X242260185Y-157452113D01*
X242612323Y-157452113D01*
X242967291Y-157807081D01*
X243322259Y-157452113D01*
X243674397Y-157452113D01*
X244029365Y-157807081D01*
X244384333Y-157452113D01*
X244736472Y-157452113D01*
X245091440Y-157807081D01*
X245446408Y-157452113D01*
X245798546Y-157452113D01*
X246153514Y-157807081D01*
X246508482Y-157452113D01*
X246860620Y-157452113D01*
X247215588Y-157807081D01*
X247570556Y-157452113D01*
X247922695Y-157452113D01*
X248277663Y-157807081D01*
X248632631Y-157452113D01*
X248984769Y-157452113D01*
X249339737Y-157807081D01*
X249694705Y-157452113D01*
X250046844Y-157452113D01*
X250401812Y-157807081D01*
X250756780Y-157452113D01*
X251108918Y-157452113D01*
X251463886Y-157807081D01*
X251818854Y-157452113D01*
X251463886Y-157097145D01*
X251108918Y-157452113D01*
X250756780Y-157452113D01*
X250401812Y-157097145D01*
X250046844Y-157452113D01*
X249694705Y-157452113D01*
X249339737Y-157097145D01*
X248984769Y-157452113D01*
X248632631Y-157452113D01*
X248277663Y-157097145D01*
X247922695Y-157452113D01*
X247570556Y-157452113D01*
X247215588Y-157097144D01*
X246860620Y-157452113D01*
X246508482Y-157452113D01*
X246153514Y-157097145D01*
X245798546Y-157452113D01*
X245446408Y-157452113D01*
X245091440Y-157097145D01*
X244736472Y-157452113D01*
X244384333Y-157452113D01*
X244029365Y-157097145D01*
X243674397Y-157452113D01*
X243322259Y-157452113D01*
X242967291Y-157097145D01*
X242612323Y-157452113D01*
X242260185Y-157452113D01*
X241905216Y-157097144D01*
X241550248Y-157452113D01*
X241198110Y-157452113D01*
X240843142Y-157097145D01*
X240488174Y-157452113D01*
X240136036Y-157452113D01*
X239781068Y-157097145D01*
X239426100Y-157452113D01*
X239073961Y-157452113D01*
X238718993Y-157097145D01*
X238364025Y-157452113D01*
X238011887Y-157452113D01*
X237656919Y-157097145D01*
X237301951Y-157452113D01*
X236949813Y-157452113D01*
X236594844Y-157097144D01*
X236239876Y-157452113D01*
X235887738Y-157452113D01*
X235532770Y-157097145D01*
X235177802Y-157452113D01*
X234825664Y-157452113D01*
X234470696Y-157097145D01*
X234115728Y-157452113D01*
X233763589Y-157452113D01*
X233408621Y-157097144D01*
X233053653Y-157452113D01*
X232701515Y-157452113D01*
X232346547Y-157097145D01*
X231991579Y-157452113D01*
X231639441Y-157452113D01*
X231284473Y-157097145D01*
X230929505Y-157452113D01*
X230577366Y-157452113D01*
X230222398Y-157097145D01*
X229867430Y-157452113D01*
X229515292Y-157452113D01*
X229160324Y-157097145D01*
X228805356Y-157452113D01*
X228453218Y-157452113D01*
X228098249Y-157097144D01*
X227743281Y-157452113D01*
X227391143Y-157452113D01*
X227036174Y-157097144D01*
X226913645Y-157219673D01*
X226913800Y-157220848D01*
X226913800Y-157332752D01*
X226909575Y-157364845D01*
X226880612Y-157472937D01*
X226868224Y-157502845D01*
X226818339Y-157589245D01*
X225867538Y-157589245D01*
X225867420Y-157064667D01*
X225867417Y-157053500D01*
X227344668Y-157053500D01*
X227567212Y-157276044D01*
X227789756Y-157053500D01*
X228406743Y-157053500D01*
X228629287Y-157276044D01*
X228851831Y-157053500D01*
X229468817Y-157053500D01*
X229691361Y-157276044D01*
X229913905Y-157053500D01*
X230530891Y-157053500D01*
X230753435Y-157276044D01*
X230975980Y-157053500D01*
X231592966Y-157053500D01*
X231815510Y-157276044D01*
X232038054Y-157053500D01*
X232655040Y-157053500D01*
X232877584Y-157276044D01*
X233100128Y-157053500D01*
X233717115Y-157053500D01*
X233939659Y-157276044D01*
X234162203Y-157053500D01*
X234779189Y-157053500D01*
X235001733Y-157276044D01*
X235224277Y-157053500D01*
X235841263Y-157053500D01*
X236063807Y-157276044D01*
X236286351Y-157053500D01*
X236903338Y-157053500D01*
X237125882Y-157276044D01*
X237348426Y-157053500D01*
X237965412Y-157053500D01*
X238187956Y-157276044D01*
X238410500Y-157053500D01*
X239027486Y-157053500D01*
X239250030Y-157276044D01*
X239472575Y-157053500D01*
X240089561Y-157053500D01*
X240312105Y-157276044D01*
X240534649Y-157053500D01*
X241151635Y-157053500D01*
X241374179Y-157276044D01*
X241596723Y-157053500D01*
X242213710Y-157053500D01*
X242436254Y-157276044D01*
X242658798Y-157053500D01*
X243275784Y-157053500D01*
X243498328Y-157276044D01*
X243720872Y-157053500D01*
X244337858Y-157053500D01*
X244560402Y-157276044D01*
X244782947Y-157053500D01*
X245399933Y-157053500D01*
X245622477Y-157276044D01*
X245845021Y-157053500D01*
X246462007Y-157053500D01*
X246684551Y-157276044D01*
X246907095Y-157053500D01*
X247524082Y-157053500D01*
X247746626Y-157276044D01*
X247969170Y-157053500D01*
X248586156Y-157053500D01*
X248808700Y-157276044D01*
X249031244Y-157053500D01*
X249648230Y-157053500D01*
X249870774Y-157276044D01*
X250101115Y-157045702D01*
X250089469Y-157048361D01*
X250082634Y-157049720D01*
X250081250Y-157049955D01*
X250074364Y-157050927D01*
X250064312Y-157052058D01*
X250062808Y-157052324D01*
X250059917Y-157052662D01*
X250045487Y-157053501D01*
X250041521Y-157053500D01*
X250041517Y-157053501D01*
X249908054Y-157053501D01*
X249908046Y-157053500D01*
X249648230Y-157053500D01*
X249031244Y-157053500D01*
X248586156Y-157053500D01*
X247969170Y-157053500D01*
X247524082Y-157053500D01*
X246907095Y-157053500D01*
X246462007Y-157053500D01*
X245845021Y-157053500D01*
X245399933Y-157053500D01*
X244782947Y-157053500D01*
X244337858Y-157053500D01*
X243720872Y-157053500D01*
X243275784Y-157053500D01*
X242658798Y-157053500D01*
X242213710Y-157053500D01*
X241596723Y-157053500D01*
X241151635Y-157053500D01*
X240534649Y-157053500D01*
X240089561Y-157053500D01*
X239472575Y-157053500D01*
X239027486Y-157053500D01*
X238410500Y-157053500D01*
X237965412Y-157053500D01*
X237348426Y-157053500D01*
X236903338Y-157053500D01*
X236286351Y-157053500D01*
X235841263Y-157053500D01*
X235224277Y-157053500D01*
X234779189Y-157053500D01*
X234162203Y-157053500D01*
X233717115Y-157053500D01*
X233100128Y-157053500D01*
X232655040Y-157053500D01*
X232038054Y-157053500D01*
X231592966Y-157053500D01*
X230975980Y-157053500D01*
X230530891Y-157053500D01*
X229913905Y-157053500D01*
X229468817Y-157053500D01*
X228851831Y-157053500D01*
X228406743Y-157053500D01*
X227789756Y-157053500D01*
X227344668Y-157053500D01*
X225867417Y-157053500D01*
X225867388Y-156921076D01*
X250577881Y-156921076D01*
X250932849Y-157276044D01*
X251287817Y-156921076D01*
X251639955Y-156921076D01*
X251994923Y-157276044D01*
X252206300Y-157064667D01*
X252206300Y-156777485D01*
X251994923Y-156566108D01*
X251639955Y-156921076D01*
X251287817Y-156921076D01*
X250932849Y-156566108D01*
X250577881Y-156921076D01*
X225867388Y-156921076D01*
X225867384Y-156904528D01*
X225887053Y-156837484D01*
X225939847Y-156791717D01*
X225991384Y-156780500D01*
X249910963Y-156780500D01*
X249910967Y-156780501D01*
X250031162Y-156780501D01*
X250031162Y-156780502D01*
X250031172Y-156780500D01*
X250036193Y-156780500D01*
X250146150Y-156755403D01*
X250247766Y-156706467D01*
X250335946Y-156636147D01*
X250406266Y-156547968D01*
X250455202Y-156446352D01*
X250468056Y-156390039D01*
X251108918Y-156390039D01*
X251463886Y-156745007D01*
X251818854Y-156390039D01*
X251463886Y-156035071D01*
X251108918Y-156390039D01*
X250468056Y-156390039D01*
X250480300Y-156336395D01*
X250480300Y-156280002D01*
X250480300Y-156235832D01*
X250480300Y-155683583D01*
X250753300Y-155683583D01*
X250753300Y-156034421D01*
X250932849Y-156213970D01*
X251287817Y-155859002D01*
X251639955Y-155859002D01*
X251994923Y-156213970D01*
X252206300Y-156002593D01*
X252206300Y-155715411D01*
X251994923Y-155504034D01*
X251639955Y-155859002D01*
X251287817Y-155859002D01*
X250932849Y-155504034D01*
X250753300Y-155683583D01*
X250480300Y-155683583D01*
X250480300Y-155327964D01*
X251108917Y-155327964D01*
X251463886Y-155682932D01*
X251818854Y-155327964D01*
X251463886Y-154972996D01*
X251108917Y-155327964D01*
X250480300Y-155327964D01*
X250480300Y-154621508D01*
X250753300Y-154621508D01*
X250753300Y-154972346D01*
X250932849Y-155151895D01*
X251287817Y-154796927D01*
X251639955Y-154796927D01*
X251994923Y-155151895D01*
X252206300Y-154940518D01*
X252206300Y-154828843D01*
X252206898Y-154816679D01*
X252207139Y-154814234D01*
X252208923Y-154802208D01*
X252214167Y-154775843D01*
X252217126Y-154764031D01*
X252217839Y-154761681D01*
X252221937Y-154750230D01*
X252245736Y-154692772D01*
X251994923Y-154441959D01*
X251639955Y-154796927D01*
X251287817Y-154796927D01*
X250932849Y-154441959D01*
X250753300Y-154621508D01*
X250480300Y-154621508D01*
X250480300Y-154265890D01*
X251108918Y-154265890D01*
X251463886Y-154620858D01*
X251818854Y-154265890D01*
X252170992Y-154265890D01*
X252316709Y-154411607D01*
X252317159Y-154219811D01*
X252314892Y-154217544D01*
X252306708Y-154208514D01*
X252305150Y-154206615D01*
X252297914Y-154196856D01*
X252282979Y-154174505D01*
X252276727Y-154164076D01*
X252275569Y-154161910D01*
X252275377Y-154161504D01*
X252170992Y-154265890D01*
X251818854Y-154265890D01*
X251463886Y-153910922D01*
X251108918Y-154265890D01*
X250480300Y-154265890D01*
X250480300Y-153559434D01*
X250753300Y-153559434D01*
X250753300Y-153910272D01*
X250932849Y-154089821D01*
X251287817Y-153734853D01*
X251639955Y-153734853D01*
X251994923Y-154089821D01*
X252206300Y-153878444D01*
X252206300Y-153591262D01*
X251994923Y-153379885D01*
X251639955Y-153734853D01*
X251287817Y-153734853D01*
X250932849Y-153379885D01*
X250753300Y-153559434D01*
X250480300Y-153559434D01*
X250480300Y-153203816D01*
X251108918Y-153203816D01*
X251463886Y-153558784D01*
X251818854Y-153203816D01*
X251463886Y-152848848D01*
X251108918Y-153203816D01*
X250480300Y-153203816D01*
X250480300Y-152497359D01*
X250753300Y-152497359D01*
X250753300Y-152848198D01*
X250932849Y-153027747D01*
X251287817Y-152672778D01*
X251639954Y-152672778D01*
X251994923Y-153027747D01*
X252206300Y-152816370D01*
X252206300Y-152529187D01*
X251994923Y-152317810D01*
X251639954Y-152672778D01*
X251287817Y-152672778D01*
X250932848Y-152317810D01*
X250753300Y-152497359D01*
X250480300Y-152497359D01*
X250480300Y-152141741D01*
X251108918Y-152141741D01*
X251463886Y-152496709D01*
X251818854Y-152141741D01*
X251463886Y-151786773D01*
X251108918Y-152141741D01*
X250480300Y-152141741D01*
X250480300Y-151435284D01*
X250753300Y-151435284D01*
X250753300Y-151786123D01*
X250932849Y-151965672D01*
X251287817Y-151610704D01*
X251639955Y-151610704D01*
X251994923Y-151965672D01*
X252206300Y-151754295D01*
X252206300Y-151467113D01*
X251994923Y-151255736D01*
X251639955Y-151610704D01*
X251287817Y-151610704D01*
X250932848Y-151255735D01*
X250753300Y-151435284D01*
X250480300Y-151435284D01*
X250480300Y-151430172D01*
X250480300Y-151412340D01*
X250480299Y-151412338D01*
X250480299Y-151412333D01*
X250450191Y-151280419D01*
X250450189Y-151280416D01*
X250450189Y-151280412D01*
X250391475Y-151158493D01*
X250351183Y-151107968D01*
X250307105Y-151052694D01*
X250201304Y-150968323D01*
X250079388Y-150909611D01*
X250079380Y-150909608D01*
X249947466Y-150879500D01*
X249947460Y-150879500D01*
X249929628Y-150879500D01*
X244918870Y-150879500D01*
X244851831Y-150859815D01*
X244806076Y-150807011D01*
X244798588Y-150754932D01*
X250371578Y-150754932D01*
X250483309Y-150844032D01*
X250488637Y-150848531D01*
X250489683Y-150849466D01*
X250494725Y-150854234D01*
X250505566Y-150865075D01*
X250510334Y-150870117D01*
X250511269Y-150871163D01*
X250515768Y-150876491D01*
X250609695Y-150994275D01*
X250613865Y-150999814D01*
X250614677Y-151000958D01*
X250618552Y-151006757D01*
X250626708Y-151019737D01*
X250630231Y-151025708D01*
X250630910Y-151026936D01*
X250634114Y-151033137D01*
X250689109Y-151147337D01*
X250756778Y-151079667D01*
X251108918Y-151079667D01*
X251463886Y-151434635D01*
X251818854Y-151079667D01*
X252170992Y-151079667D01*
X252256972Y-151165647D01*
X252270361Y-151133324D01*
X252275569Y-151122314D01*
X252276727Y-151120148D01*
X252282979Y-151109719D01*
X252297914Y-151087368D01*
X252305150Y-151077609D01*
X252306708Y-151075710D01*
X252314891Y-151066681D01*
X252324565Y-151057005D01*
X252324873Y-150925785D01*
X252170992Y-151079667D01*
X251818854Y-151079667D01*
X251463886Y-150724699D01*
X251108918Y-151079667D01*
X250756778Y-151079667D01*
X250756779Y-151079666D01*
X250401811Y-150724698D01*
X250371578Y-150754932D01*
X244798588Y-150754932D01*
X244796132Y-150737853D01*
X244800397Y-150718892D01*
X244802325Y-150712648D01*
X244802328Y-150712643D01*
X244812255Y-150644510D01*
X244812255Y-150548630D01*
X246329583Y-150548630D01*
X246387453Y-150606500D01*
X246981649Y-150606500D01*
X247039519Y-150548630D01*
X247391658Y-150548630D01*
X247449528Y-150606500D01*
X248043724Y-150606500D01*
X248101594Y-150548630D01*
X248453732Y-150548630D01*
X248511602Y-150606500D01*
X249105798Y-150606500D01*
X249163668Y-150548630D01*
X249515806Y-150548630D01*
X249573676Y-150606500D01*
X249955125Y-150606500D01*
X249962106Y-150606697D01*
X249963507Y-150606776D01*
X249970407Y-150607358D01*
X249985640Y-150609074D01*
X249992531Y-150610047D01*
X249993914Y-150610282D01*
X250000734Y-150611639D01*
X250132628Y-150641742D01*
X250225740Y-150548630D01*
X250577881Y-150548630D01*
X250932849Y-150903598D01*
X251287817Y-150548630D01*
X251639955Y-150548630D01*
X251994923Y-150903598D01*
X252263700Y-150634820D01*
X252221937Y-150533993D01*
X252217839Y-150522542D01*
X252217126Y-150520192D01*
X252214167Y-150508380D01*
X252208923Y-150482015D01*
X252207139Y-150469989D01*
X252206898Y-150467544D01*
X252206300Y-150455380D01*
X252206300Y-150405039D01*
X251994923Y-150193662D01*
X251639955Y-150548630D01*
X251287817Y-150548630D01*
X250932849Y-150193662D01*
X250577881Y-150548630D01*
X250225740Y-150548630D01*
X250225741Y-150548629D01*
X249870774Y-150193662D01*
X249515806Y-150548630D01*
X249163668Y-150548630D01*
X248808700Y-150193662D01*
X248453732Y-150548630D01*
X248101594Y-150548630D01*
X247770075Y-150217111D01*
X247716471Y-150309957D01*
X247696765Y-150335637D01*
X247617637Y-150414765D01*
X247591957Y-150434471D01*
X247495045Y-150490424D01*
X247465136Y-150502812D01*
X247427352Y-150512935D01*
X247391658Y-150548630D01*
X247039519Y-150548630D01*
X246684551Y-150193662D01*
X246329583Y-150548630D01*
X244812255Y-150548630D01*
X244812255Y-150523250D01*
X244831940Y-150456211D01*
X244884744Y-150410456D01*
X244936255Y-150399250D01*
X245495011Y-150399250D01*
X245495012Y-150399250D01*
X245541777Y-150386719D01*
X245594604Y-150386720D01*
X245594852Y-150384839D01*
X245602906Y-150385899D01*
X245602908Y-150385900D01*
X245602910Y-150385900D01*
X245734690Y-150385900D01*
X245734692Y-150385900D01*
X245861986Y-150351792D01*
X245976114Y-150285900D01*
X246069300Y-150192714D01*
X246111795Y-150119111D01*
X246406963Y-150119111D01*
X246508482Y-150017593D01*
X246508481Y-150017592D01*
X247922694Y-150017592D01*
X248277663Y-150372561D01*
X248632631Y-150017592D01*
X248984768Y-150017592D01*
X249339737Y-150372561D01*
X249694705Y-150017592D01*
X250046843Y-150017592D01*
X250401812Y-150372561D01*
X250756780Y-150017592D01*
X251108917Y-150017592D01*
X251463886Y-150372561D01*
X251818854Y-150017592D01*
X251463886Y-149662624D01*
X251108917Y-150017592D01*
X250756780Y-150017592D01*
X250401812Y-149662624D01*
X250046843Y-150017592D01*
X249694705Y-150017592D01*
X249339737Y-149662624D01*
X248984768Y-150017592D01*
X248632631Y-150017592D01*
X248277663Y-149662624D01*
X247922694Y-150017592D01*
X246508481Y-150017592D01*
X246442300Y-149951411D01*
X246442300Y-149960238D01*
X246442035Y-149968346D01*
X246441928Y-149969979D01*
X246441132Y-149978060D01*
X246438796Y-149995799D01*
X246437478Y-150003783D01*
X246437159Y-150005388D01*
X246435313Y-150013309D01*
X246406963Y-150119111D01*
X246111795Y-150119111D01*
X246135192Y-150078586D01*
X246169300Y-149951292D01*
X246169300Y-149819508D01*
X246135192Y-149692214D01*
X246069300Y-149578086D01*
X246039574Y-149548360D01*
X246006089Y-149487037D01*
X246006219Y-149485219D01*
X246330917Y-149485219D01*
X246334564Y-149491536D01*
X246684550Y-149841522D01*
X246766201Y-149759871D01*
X246821529Y-149664043D01*
X246841235Y-149638363D01*
X246920363Y-149559235D01*
X246946043Y-149539529D01*
X247038888Y-149485924D01*
X247011871Y-149458907D01*
X247419305Y-149458907D01*
X247465137Y-149471188D01*
X247495045Y-149483576D01*
X247591957Y-149539529D01*
X247617637Y-149559235D01*
X247696765Y-149638363D01*
X247716471Y-149664043D01*
X247772424Y-149760955D01*
X247784812Y-149790863D01*
X247787448Y-149800700D01*
X248101594Y-149486555D01*
X248453732Y-149486555D01*
X248808700Y-149841523D01*
X249163668Y-149486555D01*
X249515806Y-149486555D01*
X249870774Y-149841523D01*
X250225742Y-149486555D01*
X250577881Y-149486555D01*
X250932849Y-149841523D01*
X251287817Y-149486555D01*
X251639955Y-149486555D01*
X251994923Y-149841523D01*
X252206300Y-149630146D01*
X252206300Y-149342964D01*
X251994923Y-149131587D01*
X251639955Y-149486555D01*
X251287817Y-149486555D01*
X250932849Y-149131587D01*
X250577881Y-149486555D01*
X250225742Y-149486555D01*
X249870774Y-149131587D01*
X249515806Y-149486555D01*
X249163668Y-149486555D01*
X248808700Y-149131587D01*
X248453732Y-149486555D01*
X248101594Y-149486555D01*
X247746626Y-149131587D01*
X247419305Y-149458907D01*
X247011871Y-149458907D01*
X246684550Y-149131586D01*
X246330917Y-149485219D01*
X246006219Y-149485219D01*
X246011073Y-149417345D01*
X246052945Y-149361412D01*
X246065243Y-149353299D01*
X246077714Y-149346100D01*
X246170900Y-149252914D01*
X246236792Y-149138786D01*
X246269781Y-149015669D01*
X246920771Y-149015669D01*
X247215588Y-149310486D01*
X247570556Y-148955518D01*
X247922695Y-148955518D01*
X248277663Y-149310486D01*
X248632631Y-148955518D01*
X248984769Y-148955518D01*
X249339737Y-149310486D01*
X249596722Y-149053500D01*
X250144826Y-149053500D01*
X250401812Y-149310486D01*
X250658799Y-149053499D01*
X251206899Y-149053499D01*
X251463886Y-149310486D01*
X251720873Y-149053499D01*
X251206899Y-149053499D01*
X250658799Y-149053499D01*
X250180309Y-149053499D01*
X250180305Y-149053500D01*
X250144826Y-149053500D01*
X249596722Y-149053500D01*
X249688939Y-148961283D01*
X249632937Y-148934314D01*
X249626736Y-148931110D01*
X249625508Y-148930431D01*
X249619537Y-148926908D01*
X249606557Y-148918752D01*
X249600758Y-148914877D01*
X249599614Y-148914065D01*
X249594075Y-148909895D01*
X249476291Y-148815968D01*
X249470963Y-148811469D01*
X249469917Y-148810534D01*
X249464875Y-148805766D01*
X249454034Y-148794925D01*
X249449266Y-148789883D01*
X249448331Y-148788837D01*
X249443832Y-148783509D01*
X249349905Y-148665725D01*
X249345735Y-148660186D01*
X249344923Y-148659042D01*
X249341048Y-148653243D01*
X249332892Y-148640263D01*
X249329369Y-148634292D01*
X249328690Y-148633064D01*
X249325486Y-148626864D01*
X249321565Y-148618721D01*
X248984769Y-148955518D01*
X248632631Y-148955518D01*
X248277663Y-148600550D01*
X247922695Y-148955518D01*
X247570556Y-148955518D01*
X247237763Y-148622725D01*
X247234774Y-148633884D01*
X247232414Y-148641662D01*
X247231888Y-148643211D01*
X247229037Y-148650785D01*
X247222191Y-148667316D01*
X247218837Y-148674719D01*
X247218113Y-148676187D01*
X247214290Y-148683340D01*
X247139451Y-148812963D01*
X247135180Y-148819832D01*
X247134271Y-148821193D01*
X247129529Y-148827812D01*
X247118637Y-148842006D01*
X247113479Y-148848290D01*
X247112400Y-148849520D01*
X247106865Y-148855428D01*
X247001028Y-148961265D01*
X246995120Y-148966800D01*
X246993890Y-148967879D01*
X246987606Y-148973037D01*
X246973412Y-148983929D01*
X246966793Y-148988671D01*
X246965432Y-148989580D01*
X246958563Y-148993851D01*
X246920771Y-149015669D01*
X246269781Y-149015669D01*
X246270900Y-149011492D01*
X246270900Y-148977892D01*
X246290585Y-148910853D01*
X246343389Y-148865098D01*
X246412547Y-148855154D01*
X246426984Y-148858115D01*
X246441108Y-148861900D01*
X246441110Y-148861900D01*
X246572890Y-148861900D01*
X246572892Y-148861900D01*
X246700186Y-148827792D01*
X246814314Y-148761900D01*
X246907500Y-148668714D01*
X246973392Y-148554586D01*
X247007500Y-148427292D01*
X247007500Y-148424481D01*
X247391658Y-148424481D01*
X247746626Y-148779449D01*
X248101594Y-148424481D01*
X248453732Y-148424481D01*
X248808700Y-148779449D01*
X249163668Y-148424481D01*
X248808700Y-148069513D01*
X248453732Y-148424481D01*
X248101594Y-148424481D01*
X247746626Y-148069513D01*
X247391658Y-148424481D01*
X247007500Y-148424481D01*
X247007500Y-148295508D01*
X246973392Y-148168214D01*
X246907500Y-148054086D01*
X246814314Y-147960900D01*
X246725871Y-147909837D01*
X246700187Y-147895008D01*
X246644399Y-147880060D01*
X246572892Y-147860900D01*
X246572891Y-147860900D01*
X246565042Y-147858797D01*
X246565854Y-147855765D01*
X246515488Y-147833463D01*
X246477039Y-147775125D01*
X246476835Y-147757423D01*
X246996639Y-147757423D01*
X247001028Y-147761535D01*
X247106865Y-147867372D01*
X247112400Y-147873280D01*
X247113479Y-147874510D01*
X247118637Y-147880794D01*
X247129529Y-147894988D01*
X247134271Y-147901607D01*
X247135180Y-147902968D01*
X247139451Y-147909837D01*
X247214290Y-148039460D01*
X247218113Y-148046613D01*
X247218837Y-148048081D01*
X247222191Y-148055484D01*
X247229037Y-148072015D01*
X247231888Y-148079589D01*
X247232414Y-148081138D01*
X247234774Y-148088915D01*
X247264425Y-148199575D01*
X247570556Y-147893444D01*
X247922695Y-147893444D01*
X248277663Y-148248412D01*
X248632631Y-147893444D01*
X248984769Y-147893444D01*
X249206300Y-148114975D01*
X249206300Y-147671913D01*
X248984769Y-147893444D01*
X248632631Y-147893444D01*
X248277663Y-147538476D01*
X247922695Y-147893444D01*
X247570556Y-147893444D01*
X247215587Y-147538475D01*
X246996639Y-147757423D01*
X246476835Y-147757423D01*
X246476233Y-147705260D01*
X246479969Y-147694470D01*
X246480355Y-147693030D01*
X246491761Y-147606400D01*
X245099841Y-147606400D01*
X245099600Y-147606673D01*
X245088982Y-147674753D01*
X245042601Y-147727007D01*
X244976810Y-147745900D01*
X244936255Y-147745900D01*
X244869216Y-147726215D01*
X244823461Y-147673411D01*
X244812255Y-147621900D01*
X244812255Y-147406399D01*
X246679474Y-147406399D01*
X246737618Y-147472699D01*
X246763050Y-147518460D01*
X246766185Y-147528794D01*
X246770464Y-147580978D01*
X246764075Y-147629497D01*
X246770662Y-147631262D01*
X247039517Y-147362407D01*
X247391658Y-147362407D01*
X247746626Y-147717375D01*
X248101594Y-147362407D01*
X248453732Y-147362407D01*
X248808700Y-147717375D01*
X249163668Y-147362407D01*
X248808700Y-147007439D01*
X248453732Y-147362407D01*
X248101594Y-147362407D01*
X247746626Y-147007439D01*
X247391658Y-147362407D01*
X247039517Y-147362407D01*
X247039518Y-147362406D01*
X246749353Y-147072241D01*
X246749853Y-147075269D01*
X246770462Y-147231825D01*
X246766183Y-147284007D01*
X246763048Y-147294341D01*
X246737616Y-147340102D01*
X246679474Y-147406399D01*
X244812255Y-147406399D01*
X244812255Y-147277989D01*
X244802328Y-147209858D01*
X244802328Y-147209857D01*
X244800638Y-147206400D01*
X245099838Y-147206400D01*
X245595800Y-147206400D01*
X245995800Y-147206400D01*
X246491759Y-147206400D01*
X246491760Y-147206398D01*
X246480357Y-147119772D01*
X246480355Y-147119766D01*
X246419900Y-146973814D01*
X246323724Y-146848475D01*
X246301431Y-146831369D01*
X246860620Y-146831369D01*
X247215588Y-147186337D01*
X247570556Y-146831369D01*
X247922695Y-146831369D01*
X248277663Y-147186337D01*
X248632631Y-146831369D01*
X248984769Y-146831369D01*
X249206300Y-147052900D01*
X249206300Y-146609838D01*
X248984769Y-146831369D01*
X248632631Y-146831369D01*
X248354761Y-146553499D01*
X248200565Y-146553499D01*
X247922695Y-146831369D01*
X247570556Y-146831369D01*
X247292686Y-146553499D01*
X247138490Y-146553499D01*
X246860620Y-146831369D01*
X246301431Y-146831369D01*
X246198386Y-146752299D01*
X246052431Y-146691844D01*
X245995800Y-146684387D01*
X245995800Y-147206400D01*
X245595800Y-147206400D01*
X245595800Y-146684387D01*
X245539168Y-146691844D01*
X245393213Y-146752299D01*
X245267875Y-146848475D01*
X245171699Y-146973813D01*
X245111245Y-147119765D01*
X245111244Y-147119769D01*
X245099838Y-147206400D01*
X244800638Y-147206400D01*
X244750953Y-147104767D01*
X244750951Y-147104765D01*
X244750951Y-147104764D01*
X244668240Y-147022053D01*
X244563146Y-146970676D01*
X244495016Y-146960750D01*
X244495015Y-146960750D01*
X244129789Y-146960750D01*
X244062750Y-146941065D01*
X244031807Y-146912747D01*
X244029435Y-146909689D01*
X243913317Y-146793571D01*
X243913308Y-146793564D01*
X243886561Y-146777746D01*
X244790094Y-146777746D01*
X244798298Y-146781757D01*
X244807344Y-146786655D01*
X244809120Y-146787714D01*
X244817664Y-146793297D01*
X244836072Y-146806439D01*
X244844181Y-146812751D01*
X244845759Y-146814088D01*
X244853281Y-146821015D01*
X244914246Y-146881980D01*
X244922905Y-146861075D01*
X244926256Y-146853679D01*
X244926980Y-146852211D01*
X244930804Y-146845057D01*
X244939751Y-146829561D01*
X244944021Y-146822693D01*
X244944930Y-146821332D01*
X244949670Y-146814715D01*
X245056735Y-146675186D01*
X245061899Y-146668895D01*
X245062979Y-146667664D01*
X245068510Y-146661761D01*
X245081161Y-146649110D01*
X245087064Y-146643579D01*
X245088295Y-146642499D01*
X245094586Y-146637335D01*
X245183866Y-146568827D01*
X245168538Y-146553499D01*
X245014342Y-146553499D01*
X244790094Y-146777746D01*
X243886561Y-146777746D01*
X243771952Y-146709967D01*
X243771949Y-146709966D01*
X243614250Y-146664150D01*
X243614253Y-146664150D01*
X243611756Y-146663953D01*
X243611756Y-147699750D01*
X243592071Y-147766789D01*
X243539267Y-147812544D01*
X243487756Y-147823750D01*
X243235756Y-147823750D01*
X243168717Y-147804065D01*
X243122962Y-147751261D01*
X243111756Y-147699750D01*
X243111756Y-146663953D01*
X243109259Y-146664150D01*
X242951562Y-146709966D01*
X242951559Y-146709967D01*
X242810203Y-146793564D01*
X242810198Y-146793568D01*
X242694072Y-146909695D01*
X242691700Y-146912754D01*
X242689231Y-146914536D01*
X242688558Y-146915210D01*
X242688449Y-146915101D01*
X242635056Y-146953659D01*
X242593723Y-146960750D01*
X242228496Y-146960750D01*
X242160365Y-146970676D01*
X242055271Y-147022053D01*
X241972560Y-147104764D01*
X241921183Y-147209858D01*
X241911257Y-147277989D01*
X241911257Y-148369510D01*
X241921183Y-148437641D01*
X241972560Y-148542735D01*
X242055273Y-148625448D01*
X242088144Y-148641517D01*
X242139728Y-148688644D01*
X242141081Y-148690932D01*
X242142565Y-148693503D01*
X242171294Y-148743264D01*
X242171298Y-148743269D01*
X242452098Y-149024069D01*
X242485583Y-149085392D01*
X242480599Y-149155084D01*
X242438727Y-149211017D01*
X242373263Y-149235434D01*
X242364417Y-149235750D01*
X242228496Y-149235750D01*
X242160365Y-149245676D01*
X242055271Y-149297053D01*
X241972560Y-149379764D01*
X241921183Y-149484858D01*
X241911257Y-149552989D01*
X241911257Y-150644510D01*
X241921183Y-150712640D01*
X241923115Y-150718892D01*
X241924100Y-150788755D01*
X241887157Y-150848059D01*
X241824017Y-150877977D01*
X241804642Y-150879500D01*
X238420300Y-150879500D01*
X238353261Y-150859815D01*
X238307506Y-150807011D01*
X238296300Y-150755500D01*
X238296300Y-150548630D01*
X238895062Y-150548630D01*
X238952932Y-150606500D01*
X239547129Y-150606500D01*
X239604999Y-150548630D01*
X239957137Y-150548630D01*
X240015007Y-150606500D01*
X240609203Y-150606500D01*
X240667073Y-150548630D01*
X241019211Y-150548630D01*
X241077081Y-150606500D01*
X241638257Y-150606500D01*
X241638257Y-150457740D01*
X241374179Y-150193662D01*
X241019211Y-150548630D01*
X240667073Y-150548630D01*
X240312105Y-150193662D01*
X239957137Y-150548630D01*
X239604999Y-150548630D01*
X239250030Y-150193661D01*
X238895062Y-150548630D01*
X238296300Y-150548630D01*
X238296300Y-149812317D01*
X238569300Y-149812317D01*
X238569300Y-150222868D01*
X238718993Y-150372561D01*
X239073961Y-150017592D01*
X239426099Y-150017592D01*
X239781068Y-150372561D01*
X240136036Y-150017592D01*
X240488173Y-150017592D01*
X240843142Y-150372561D01*
X241198110Y-150017592D01*
X240843142Y-149662624D01*
X240488173Y-150017592D01*
X240136036Y-150017592D01*
X239781068Y-149662624D01*
X239426099Y-150017592D01*
X239073961Y-150017592D01*
X238718992Y-149662624D01*
X238569300Y-149812317D01*
X238296300Y-149812317D01*
X238296300Y-149486555D01*
X238895062Y-149486555D01*
X239250030Y-149841523D01*
X239604999Y-149486555D01*
X239957137Y-149486555D01*
X240312105Y-149841523D01*
X240667073Y-149486555D01*
X241019211Y-149486555D01*
X241374179Y-149841523D01*
X241638257Y-149577445D01*
X241638257Y-149548051D01*
X241638339Y-149543532D01*
X241638372Y-149542627D01*
X241638614Y-149538184D01*
X241639328Y-149528331D01*
X241639736Y-149523841D01*
X241639834Y-149522943D01*
X241640398Y-149518517D01*
X241652565Y-149435009D01*
X241654314Y-149425575D01*
X241654741Y-149423684D01*
X241657171Y-149414579D01*
X241374179Y-149131587D01*
X241019211Y-149486555D01*
X240667073Y-149486555D01*
X240312105Y-149131587D01*
X239957137Y-149486555D01*
X239604999Y-149486555D01*
X239250030Y-149131586D01*
X238895062Y-149486555D01*
X238296300Y-149486555D01*
X238296300Y-148750243D01*
X238569300Y-148750243D01*
X238569300Y-149160793D01*
X238718993Y-149310486D01*
X239073961Y-148955518D01*
X239426100Y-148955518D01*
X239781068Y-149310486D01*
X240136036Y-148955518D01*
X240488174Y-148955518D01*
X240843142Y-149310486D01*
X241198110Y-148955518D01*
X241198109Y-148955517D01*
X241550248Y-148955517D01*
X241780488Y-149185757D01*
X241870231Y-149096015D01*
X241877753Y-149089088D01*
X241879331Y-149087751D01*
X241887440Y-149081439D01*
X241905848Y-149068297D01*
X241914392Y-149062714D01*
X241916168Y-149061655D01*
X241925214Y-149056757D01*
X242041740Y-148999790D01*
X241971932Y-148929982D01*
X241966397Y-148924074D01*
X241965318Y-148922844D01*
X241960161Y-148916561D01*
X241949268Y-148902366D01*
X241944525Y-148895746D01*
X241943616Y-148894385D01*
X241939345Y-148887515D01*
X241927388Y-148866805D01*
X241925217Y-148865744D01*
X241916195Y-148860861D01*
X241914418Y-148859802D01*
X241905848Y-148854203D01*
X241887440Y-148841061D01*
X241879331Y-148834749D01*
X241877753Y-148833412D01*
X241870231Y-148826485D01*
X241774756Y-148731010D01*
X241550248Y-148955517D01*
X241198109Y-148955517D01*
X240843142Y-148600550D01*
X240488174Y-148955518D01*
X240136036Y-148955518D01*
X239781068Y-148600550D01*
X239426100Y-148955518D01*
X239073961Y-148955518D01*
X238718993Y-148600550D01*
X238569300Y-148750243D01*
X238296300Y-148750243D01*
X238296300Y-148424481D01*
X238895062Y-148424481D01*
X239250030Y-148779449D01*
X239604999Y-148424481D01*
X239957137Y-148424481D01*
X240312105Y-148779449D01*
X240667073Y-148424481D01*
X241019211Y-148424481D01*
X241374178Y-148779448D01*
X241654755Y-148498871D01*
X241654741Y-148498816D01*
X241654314Y-148496925D01*
X241652565Y-148487491D01*
X241640398Y-148403983D01*
X241639834Y-148399557D01*
X241639736Y-148398659D01*
X241639328Y-148394169D01*
X241638614Y-148384316D01*
X241638372Y-148379873D01*
X241638339Y-148378968D01*
X241638257Y-148374449D01*
X241638257Y-148333591D01*
X241374179Y-148069513D01*
X241019211Y-148424481D01*
X240667073Y-148424481D01*
X240312105Y-148069513D01*
X239957137Y-148424481D01*
X239604999Y-148424481D01*
X239250030Y-148069512D01*
X238895062Y-148424481D01*
X238296300Y-148424481D01*
X238296300Y-147688169D01*
X238569300Y-147688169D01*
X238569300Y-148098719D01*
X238718993Y-148248412D01*
X239073961Y-147893444D01*
X239426100Y-147893444D01*
X239781068Y-148248412D01*
X240136036Y-147893444D01*
X240488174Y-147893444D01*
X240843142Y-148248412D01*
X241198110Y-147893444D01*
X240843142Y-147538476D01*
X240488174Y-147893444D01*
X240136036Y-147893444D01*
X239781068Y-147538476D01*
X239426100Y-147893444D01*
X239073961Y-147893444D01*
X238718993Y-147538476D01*
X238569300Y-147688169D01*
X238296300Y-147688169D01*
X238296300Y-147362407D01*
X238895062Y-147362407D01*
X239250030Y-147717375D01*
X239604999Y-147362407D01*
X239957137Y-147362407D01*
X240312105Y-147717375D01*
X240667073Y-147362407D01*
X241019211Y-147362407D01*
X241374179Y-147717375D01*
X241638257Y-147453297D01*
X241638257Y-147273051D01*
X241638284Y-147271544D01*
X241374179Y-147007439D01*
X241019211Y-147362407D01*
X240667073Y-147362407D01*
X240312105Y-147007439D01*
X239957137Y-147362407D01*
X239604999Y-147362407D01*
X239250030Y-147007438D01*
X238895062Y-147362407D01*
X238296300Y-147362407D01*
X238296300Y-146626094D01*
X238569300Y-146626094D01*
X238569300Y-147036644D01*
X238718993Y-147186337D01*
X239073961Y-146831369D01*
X239426100Y-146831369D01*
X239781068Y-147186337D01*
X240136036Y-146831369D01*
X240488174Y-146831369D01*
X240843142Y-147186337D01*
X241198110Y-146831369D01*
X241198109Y-146831368D01*
X241550248Y-146831368D01*
X241719564Y-147000684D01*
X241732264Y-146974707D01*
X241737162Y-146965661D01*
X241738221Y-146963885D01*
X241743804Y-146955341D01*
X241756946Y-146936933D01*
X241763258Y-146928824D01*
X241764595Y-146927246D01*
X241771522Y-146919724D01*
X241870231Y-146821015D01*
X241877753Y-146814088D01*
X241879331Y-146812751D01*
X241887440Y-146806439D01*
X241905848Y-146793297D01*
X241914392Y-146787714D01*
X241916168Y-146786655D01*
X241925214Y-146781757D01*
X242049986Y-146720760D01*
X242058769Y-146716880D01*
X242060571Y-146716166D01*
X242069644Y-146712973D01*
X242089899Y-146706715D01*
X242099191Y-146704234D01*
X242101082Y-146703807D01*
X242110516Y-146702058D01*
X242128285Y-146699469D01*
X241982315Y-146553499D01*
X241828119Y-146553499D01*
X241550248Y-146831368D01*
X241198109Y-146831368D01*
X240920240Y-146553499D01*
X240766044Y-146553499D01*
X240488174Y-146831369D01*
X240136036Y-146831369D01*
X239858166Y-146553499D01*
X239703970Y-146553499D01*
X239426100Y-146831369D01*
X239073961Y-146831369D01*
X238796091Y-146553499D01*
X238641895Y-146553499D01*
X238569300Y-146626094D01*
X238296300Y-146626094D01*
X238296300Y-146404499D01*
X238315985Y-146337460D01*
X238368789Y-146291705D01*
X238420300Y-146280499D01*
X249355300Y-146280499D01*
X249422339Y-146300184D01*
G37*
%TD.AperFunction*%
%TD*%
%TA.AperFunction,Conductor*%
%TO.N,GNDL*%
G36*
X269106339Y-146300185D02*
G01*
X269152094Y-146352989D01*
X269163300Y-146404500D01*
X269163301Y-150755500D01*
X269143616Y-150822539D01*
X269090812Y-150868294D01*
X269039301Y-150879500D01*
X265654958Y-150879500D01*
X265587919Y-150859815D01*
X265542164Y-150807011D01*
X265532220Y-150737853D01*
X265536485Y-150718892D01*
X265538413Y-150712648D01*
X265538416Y-150712643D01*
X265548343Y-150644510D01*
X265548343Y-150593775D01*
X266335277Y-150593775D01*
X266348002Y-150606500D01*
X267032490Y-150606500D01*
X267045214Y-150593776D01*
X267397352Y-150593776D01*
X267410076Y-150606500D01*
X268094565Y-150606500D01*
X268107288Y-150593776D01*
X268459427Y-150593776D01*
X268472151Y-150606500D01*
X268890301Y-150606500D01*
X268890300Y-150314713D01*
X268814395Y-150238808D01*
X268459427Y-150593776D01*
X268107288Y-150593776D01*
X267752320Y-150238807D01*
X267397352Y-150593776D01*
X267045214Y-150593776D01*
X266747865Y-150296427D01*
X266736829Y-150307465D01*
X266730920Y-150313000D01*
X266729690Y-150314079D01*
X266723406Y-150319237D01*
X266709212Y-150330129D01*
X266702593Y-150334871D01*
X266701232Y-150335780D01*
X266694363Y-150340051D01*
X266564740Y-150414890D01*
X266557587Y-150418713D01*
X266556119Y-150419437D01*
X266548716Y-150422791D01*
X266532185Y-150429637D01*
X266524611Y-150432488D01*
X266523062Y-150433014D01*
X266515284Y-150435374D01*
X266485771Y-150443281D01*
X266335277Y-150593775D01*
X265548343Y-150593775D01*
X265548343Y-149968539D01*
X265568028Y-149901500D01*
X265620832Y-149855745D01*
X265689990Y-149845801D01*
X265753546Y-149874826D01*
X265779728Y-149906537D01*
X265842300Y-150014914D01*
X265935486Y-150108100D01*
X266049614Y-150173992D01*
X266176908Y-150208100D01*
X266176910Y-150208100D01*
X266308690Y-150208100D01*
X266308692Y-150208100D01*
X266435986Y-150173992D01*
X266550114Y-150108100D01*
X266554516Y-150103698D01*
X266907274Y-150103698D01*
X267221283Y-150417707D01*
X267576251Y-150062739D01*
X267928390Y-150062739D01*
X268283358Y-150417707D01*
X268638326Y-150062739D01*
X268283358Y-149707771D01*
X267928390Y-150062739D01*
X267576251Y-150062739D01*
X267221282Y-149707770D01*
X266978481Y-149950571D01*
X266970574Y-149980084D01*
X266968214Y-149987862D01*
X266967688Y-149989411D01*
X266964837Y-149996985D01*
X266957991Y-150013516D01*
X266954637Y-150020919D01*
X266953913Y-150022387D01*
X266950090Y-150029540D01*
X266907274Y-150103698D01*
X266554516Y-150103698D01*
X266643300Y-150014914D01*
X266709192Y-149900786D01*
X266743300Y-149773492D01*
X266743300Y-149641708D01*
X266709192Y-149514414D01*
X266680718Y-149465095D01*
X266978607Y-149465095D01*
X267006758Y-149570157D01*
X267045212Y-149531702D01*
X267397352Y-149531702D01*
X267752320Y-149886670D01*
X268107288Y-149531702D01*
X268459427Y-149531702D01*
X268814394Y-149886669D01*
X268890300Y-149810764D01*
X268890300Y-149252639D01*
X268814395Y-149176734D01*
X268459427Y-149531702D01*
X268107288Y-149531702D01*
X267752320Y-149176733D01*
X267397352Y-149531702D01*
X267045212Y-149531702D01*
X267045213Y-149531701D01*
X266978607Y-149465095D01*
X266680718Y-149465095D01*
X266643300Y-149400286D01*
X266550114Y-149307100D01*
X266480484Y-149266899D01*
X266435987Y-149241208D01*
X266342150Y-149216065D01*
X266308692Y-149207100D01*
X266176908Y-149207100D01*
X266062962Y-149237631D01*
X266030872Y-149241856D01*
X265281994Y-149241856D01*
X265264116Y-149240560D01*
X265231104Y-149235750D01*
X265231103Y-149235750D01*
X264865877Y-149235750D01*
X264798838Y-149216065D01*
X264767895Y-149187747D01*
X264765523Y-149184689D01*
X264649405Y-149068571D01*
X264649396Y-149068564D01*
X264534584Y-149000665D01*
X266866315Y-149000665D01*
X267221283Y-149355633D01*
X267576251Y-149000665D01*
X267928390Y-149000665D01*
X268283358Y-149355633D01*
X268638326Y-149000665D01*
X268283358Y-148645697D01*
X267928390Y-149000665D01*
X267576251Y-149000665D01*
X267221283Y-148645697D01*
X266866315Y-149000665D01*
X264534584Y-149000665D01*
X264508040Y-148984967D01*
X264508037Y-148984966D01*
X264421243Y-148959750D01*
X264926663Y-148959750D01*
X264929663Y-148962750D01*
X265236042Y-148962750D01*
X265240561Y-148962832D01*
X265241466Y-148962865D01*
X265245909Y-148963107D01*
X265255762Y-148963821D01*
X265260252Y-148964229D01*
X265261150Y-148964327D01*
X265265575Y-148964890D01*
X265292796Y-148968856D01*
X265420294Y-148968856D01*
X265836050Y-148968856D01*
X266011256Y-148968856D01*
X266114891Y-148941087D01*
X266122812Y-148939241D01*
X266124417Y-148938922D01*
X266132401Y-148937604D01*
X266150140Y-148935268D01*
X266158221Y-148934472D01*
X266159854Y-148934365D01*
X266167962Y-148934100D01*
X266317638Y-148934100D01*
X266325746Y-148934365D01*
X266327379Y-148934472D01*
X266335460Y-148935268D01*
X266353199Y-148937604D01*
X266361183Y-148938922D01*
X266362788Y-148939241D01*
X266370709Y-148941087D01*
X266485304Y-148971792D01*
X266159209Y-148645697D01*
X265836050Y-148968856D01*
X265420294Y-148968856D01*
X265386907Y-148935469D01*
X265369701Y-148940785D01*
X265360409Y-148943266D01*
X265358518Y-148943693D01*
X265349084Y-148945442D01*
X265265576Y-148957609D01*
X265261150Y-148958173D01*
X265260252Y-148958271D01*
X265255762Y-148958679D01*
X265245909Y-148959393D01*
X265241466Y-148959635D01*
X265240561Y-148959668D01*
X265236042Y-148959750D01*
X264926663Y-148959750D01*
X264421243Y-148959750D01*
X264350338Y-148939150D01*
X264350341Y-148939150D01*
X264347844Y-148938953D01*
X264347844Y-149974750D01*
X264328159Y-150041789D01*
X264275355Y-150087544D01*
X264223844Y-150098750D01*
X263971844Y-150098750D01*
X263904805Y-150079065D01*
X263859050Y-150026261D01*
X263847844Y-149974750D01*
X263847844Y-148938953D01*
X263845347Y-148939150D01*
X263687650Y-148984966D01*
X263687647Y-148984967D01*
X263546291Y-149068564D01*
X263546286Y-149068568D01*
X263430160Y-149184695D01*
X263427788Y-149187754D01*
X263425319Y-149189536D01*
X263424646Y-149190210D01*
X263424537Y-149190101D01*
X263371144Y-149228659D01*
X263329811Y-149235750D01*
X262964584Y-149235750D01*
X262896453Y-149245676D01*
X262791359Y-149297053D01*
X262708648Y-149379764D01*
X262657271Y-149484858D01*
X262647345Y-149552989D01*
X262647345Y-150136500D01*
X262627660Y-150203539D01*
X262574856Y-150249294D01*
X262523345Y-150260500D01*
X262489791Y-150260500D01*
X262422752Y-150240815D01*
X262376997Y-150188011D01*
X262366994Y-150121265D01*
X262366762Y-150121000D01*
X260974841Y-150121000D01*
X260974600Y-150121273D01*
X260963982Y-150189353D01*
X260917601Y-150241607D01*
X260851810Y-150260500D01*
X259969300Y-150260500D01*
X259902261Y-150240815D01*
X259856506Y-150188011D01*
X259854439Y-150182263D01*
X259854301Y-150182321D01*
X259851193Y-150174819D01*
X259851192Y-150174814D01*
X259785300Y-150060686D01*
X259712114Y-149987500D01*
X260569108Y-149987500D01*
X260728872Y-149987500D01*
X260728984Y-149987298D01*
X260787125Y-149921000D01*
X260728982Y-149854701D01*
X260719310Y-149837297D01*
X260569108Y-149987500D01*
X259712114Y-149987500D01*
X259692114Y-149967500D01*
X259603671Y-149916437D01*
X259577987Y-149901608D01*
X259514339Y-149884554D01*
X259450692Y-149867500D01*
X259318908Y-149867500D01*
X259191612Y-149901608D01*
X259077486Y-149967500D01*
X259077483Y-149967502D01*
X258984302Y-150060683D01*
X258984300Y-150060686D01*
X258918408Y-150174812D01*
X258886697Y-150293162D01*
X258884300Y-150302108D01*
X258884300Y-150433892D01*
X258886457Y-150441941D01*
X258918408Y-150561187D01*
X258934524Y-150589100D01*
X258984300Y-150675314D01*
X258984304Y-150675318D01*
X258987904Y-150680010D01*
X259013101Y-150745179D01*
X258999065Y-150813624D01*
X258950252Y-150863615D01*
X258889531Y-150879500D01*
X257631161Y-150879500D01*
X257631158Y-150879499D01*
X257579798Y-150879499D01*
X257512138Y-150879499D01*
X257512136Y-150879499D01*
X257380206Y-150909612D01*
X257258294Y-150968322D01*
X257152494Y-151052695D01*
X257068120Y-151158496D01*
X257009409Y-151280411D01*
X256979299Y-151412333D01*
X256979299Y-151430172D01*
X256979300Y-156235830D01*
X256979300Y-156336399D01*
X257004396Y-156446350D01*
X257053332Y-156547966D01*
X257053333Y-156547969D01*
X257100213Y-156606753D01*
X257123654Y-156636146D01*
X257160510Y-156665538D01*
X257211830Y-156706466D01*
X257211833Y-156706467D01*
X257313449Y-156755403D01*
X257423400Y-156780499D01*
X257423405Y-156780499D01*
X257423407Y-156780500D01*
X257429972Y-156780500D01*
X281468557Y-156780500D01*
X281535596Y-156800185D01*
X281581351Y-156852989D01*
X281592557Y-156904414D01*
X281594760Y-160099114D01*
X281575122Y-160166168D01*
X281522349Y-160211959D01*
X281470760Y-160223200D01*
X279719410Y-160223200D01*
X279652371Y-160203515D01*
X279606616Y-160150711D01*
X279595410Y-160099445D01*
X279594119Y-159445339D01*
X279593962Y-159365653D01*
X279866962Y-159365653D01*
X279867867Y-159824200D01*
X280118353Y-159824200D01*
X280321144Y-159621409D01*
X280673282Y-159621409D01*
X280876073Y-159824200D01*
X281180427Y-159824200D01*
X281321472Y-159683153D01*
X281321387Y-159559578D01*
X281028250Y-159266441D01*
X280673282Y-159621409D01*
X280321144Y-159621409D01*
X279966175Y-159266440D01*
X279866962Y-159365653D01*
X279593962Y-159365653D01*
X279593892Y-159330458D01*
X279593897Y-159330441D01*
X279593893Y-159330442D01*
X279593798Y-159279013D01*
X279593799Y-159279013D01*
X279593696Y-159222690D01*
X279568444Y-159112910D01*
X279557550Y-159090371D01*
X280142244Y-159090371D01*
X280497213Y-159445339D01*
X280852181Y-159090371D01*
X281204319Y-159090371D01*
X281321144Y-159207196D01*
X281320983Y-158973706D01*
X281204319Y-159090371D01*
X280852181Y-159090371D01*
X280497213Y-158735403D01*
X280142244Y-159090371D01*
X279557550Y-159090371D01*
X279519424Y-159011488D01*
X279449090Y-158923498D01*
X279360959Y-158853340D01*
X279360957Y-158853339D01*
X279360956Y-158853338D01*
X279259440Y-158804523D01*
X279222829Y-158796179D01*
X279149609Y-158779491D01*
X279149607Y-158779491D01*
X279093286Y-158779500D01*
X255104300Y-158779500D01*
X255037261Y-158759815D01*
X254991506Y-158707011D01*
X254980300Y-158655500D01*
X254980300Y-158559334D01*
X279611208Y-158559334D01*
X279966176Y-158914302D01*
X280321144Y-158559334D01*
X280673282Y-158559334D01*
X281028249Y-158914301D01*
X281320740Y-158621810D01*
X281320654Y-158496770D01*
X281028250Y-158204366D01*
X280673282Y-158559334D01*
X280321144Y-158559334D01*
X279966176Y-158204366D01*
X279611208Y-158559334D01*
X254980300Y-158559334D01*
X254980300Y-158506500D01*
X256298405Y-158506500D01*
X256902674Y-158506500D01*
X257360480Y-158506500D01*
X257964748Y-158506500D01*
X258422554Y-158506500D01*
X259026822Y-158506500D01*
X259484629Y-158506500D01*
X260088897Y-158506500D01*
X260546703Y-158506500D01*
X261150971Y-158506500D01*
X261608777Y-158506500D01*
X262213045Y-158506500D01*
X262670852Y-158506500D01*
X263275120Y-158506500D01*
X263732926Y-158506500D01*
X264337194Y-158506500D01*
X264795000Y-158506500D01*
X265399269Y-158506500D01*
X265857075Y-158506500D01*
X266461343Y-158506500D01*
X266919149Y-158506500D01*
X267523417Y-158506500D01*
X267981224Y-158506500D01*
X268585492Y-158506500D01*
X269043298Y-158506500D01*
X269647566Y-158506500D01*
X270105372Y-158506500D01*
X270709641Y-158506500D01*
X271167447Y-158506500D01*
X271771715Y-158506500D01*
X272229521Y-158506500D01*
X272833789Y-158506500D01*
X273291596Y-158506500D01*
X273895864Y-158506500D01*
X274353670Y-158506500D01*
X274957938Y-158506500D01*
X275415744Y-158506500D01*
X276020012Y-158506500D01*
X276477819Y-158506500D01*
X277082087Y-158506500D01*
X277539893Y-158506500D01*
X278144161Y-158506500D01*
X278601967Y-158506500D01*
X279093243Y-158506500D01*
X279157226Y-158506490D01*
X279164143Y-158506682D01*
X279165543Y-158506760D01*
X279172502Y-158507345D01*
X279187726Y-158509057D01*
X279194570Y-158510020D01*
X279195952Y-158510254D01*
X279202806Y-158511614D01*
X279213872Y-158514136D01*
X278904101Y-158204365D01*
X278601967Y-158506500D01*
X278144161Y-158506500D01*
X277842027Y-158204366D01*
X277539893Y-158506500D01*
X277082087Y-158506500D01*
X276779953Y-158204366D01*
X276477819Y-158506500D01*
X276020012Y-158506500D01*
X275717878Y-158204366D01*
X275415744Y-158506500D01*
X274957938Y-158506500D01*
X274655804Y-158204366D01*
X274353670Y-158506500D01*
X273895864Y-158506500D01*
X273593730Y-158204366D01*
X273291596Y-158506500D01*
X272833789Y-158506500D01*
X272531655Y-158204366D01*
X272229521Y-158506500D01*
X271771715Y-158506500D01*
X271469581Y-158204366D01*
X271167447Y-158506500D01*
X270709641Y-158506500D01*
X270407506Y-158204365D01*
X270105372Y-158506500D01*
X269647566Y-158506500D01*
X269345432Y-158204366D01*
X269043298Y-158506500D01*
X268585492Y-158506500D01*
X268283358Y-158204366D01*
X267981224Y-158506500D01*
X267523417Y-158506500D01*
X267221283Y-158204366D01*
X266919149Y-158506500D01*
X266461343Y-158506500D01*
X266159209Y-158204366D01*
X265857075Y-158506500D01*
X265399269Y-158506500D01*
X265097134Y-158204365D01*
X264795000Y-158506500D01*
X264337194Y-158506500D01*
X264035060Y-158204366D01*
X263732926Y-158506500D01*
X263275120Y-158506500D01*
X262972986Y-158204366D01*
X262670852Y-158506500D01*
X262213045Y-158506500D01*
X261910911Y-158204366D01*
X261608777Y-158506500D01*
X261150971Y-158506500D01*
X260848837Y-158204366D01*
X260546703Y-158506500D01*
X260088897Y-158506500D01*
X259786763Y-158204366D01*
X259484629Y-158506500D01*
X259026822Y-158506500D01*
X258724688Y-158204366D01*
X258422554Y-158506500D01*
X257964748Y-158506500D01*
X257662614Y-158204366D01*
X257360480Y-158506500D01*
X256902674Y-158506500D01*
X256600539Y-158204365D01*
X256298405Y-158506500D01*
X254980300Y-158506500D01*
X254980300Y-158342285D01*
X254980299Y-158342282D01*
X254942164Y-158250216D01*
X254942164Y-158250215D01*
X254871697Y-158179748D01*
X254827147Y-158161295D01*
X254810591Y-158154437D01*
X254756188Y-158110595D01*
X254734124Y-158044301D01*
X254734045Y-158040167D01*
X254734017Y-158028297D01*
X255714534Y-158028297D01*
X256069502Y-158383265D01*
X256424470Y-158028297D01*
X256776609Y-158028297D01*
X257131577Y-158383265D01*
X257486545Y-158028297D01*
X257838683Y-158028297D01*
X258193651Y-158383265D01*
X258548619Y-158028297D01*
X258900757Y-158028297D01*
X259255725Y-158383265D01*
X259610693Y-158028297D01*
X259962832Y-158028297D01*
X260317800Y-158383265D01*
X260672768Y-158028297D01*
X261024906Y-158028297D01*
X261379874Y-158383265D01*
X261734842Y-158028297D01*
X262086980Y-158028297D01*
X262441948Y-158383265D01*
X262796917Y-158028297D01*
X263149055Y-158028297D01*
X263504023Y-158383265D01*
X263858991Y-158028297D01*
X264211129Y-158028297D01*
X264566097Y-158383265D01*
X264921065Y-158028297D01*
X265273204Y-158028297D01*
X265628172Y-158383265D01*
X265983140Y-158028297D01*
X266335278Y-158028297D01*
X266690246Y-158383265D01*
X267045214Y-158028297D01*
X267397352Y-158028297D01*
X267752320Y-158383265D01*
X268107288Y-158028297D01*
X268459427Y-158028297D01*
X268814395Y-158383265D01*
X269169363Y-158028297D01*
X269521501Y-158028297D01*
X269876469Y-158383265D01*
X270231437Y-158028297D01*
X270583576Y-158028297D01*
X270938544Y-158383265D01*
X271293512Y-158028297D01*
X271645650Y-158028297D01*
X272000618Y-158383265D01*
X272355586Y-158028297D01*
X272707724Y-158028297D01*
X273062692Y-158383265D01*
X273417660Y-158028297D01*
X273769799Y-158028297D01*
X274124767Y-158383265D01*
X274479735Y-158028297D01*
X274831873Y-158028297D01*
X275186841Y-158383265D01*
X275541809Y-158028297D01*
X275893947Y-158028297D01*
X276248915Y-158383265D01*
X276603884Y-158028297D01*
X276956022Y-158028297D01*
X277310990Y-158383265D01*
X277665958Y-158028297D01*
X278018096Y-158028297D01*
X278373064Y-158383265D01*
X278728032Y-158028297D01*
X279080171Y-158028297D01*
X279435139Y-158383265D01*
X279790107Y-158028297D01*
X280142245Y-158028297D01*
X280497213Y-158383265D01*
X280852181Y-158028297D01*
X280852180Y-158028296D01*
X281204319Y-158028296D01*
X281320411Y-158144388D01*
X281320251Y-157912364D01*
X281204319Y-158028296D01*
X280852180Y-158028296D01*
X280497213Y-157673329D01*
X280142245Y-158028297D01*
X279790107Y-158028297D01*
X279435139Y-157673329D01*
X279080171Y-158028297D01*
X278728032Y-158028297D01*
X278373064Y-157673329D01*
X278018096Y-158028297D01*
X277665958Y-158028297D01*
X277310990Y-157673329D01*
X276956022Y-158028297D01*
X276603884Y-158028297D01*
X276248915Y-157673328D01*
X275893947Y-158028297D01*
X275541809Y-158028297D01*
X275186841Y-157673329D01*
X274831873Y-158028297D01*
X274479735Y-158028297D01*
X274124767Y-157673329D01*
X273769799Y-158028297D01*
X273417660Y-158028297D01*
X273062692Y-157673328D01*
X272707724Y-158028297D01*
X272355586Y-158028297D01*
X272000618Y-157673329D01*
X271645650Y-158028297D01*
X271293512Y-158028297D01*
X270938544Y-157673329D01*
X270583576Y-158028297D01*
X270231437Y-158028297D01*
X269876469Y-157673329D01*
X269521501Y-158028297D01*
X269169363Y-158028297D01*
X268814395Y-157673329D01*
X268459427Y-158028297D01*
X268107288Y-158028297D01*
X267752320Y-157673328D01*
X267397352Y-158028297D01*
X267045214Y-158028297D01*
X266690246Y-157673329D01*
X266335278Y-158028297D01*
X265983140Y-158028297D01*
X265628172Y-157673329D01*
X265273204Y-158028297D01*
X264921065Y-158028297D01*
X264566097Y-157673329D01*
X264211129Y-158028297D01*
X263858991Y-158028297D01*
X263504023Y-157673329D01*
X263149055Y-158028297D01*
X262796917Y-158028297D01*
X262441948Y-157673328D01*
X262086980Y-158028297D01*
X261734842Y-158028297D01*
X261379874Y-157673329D01*
X261024906Y-158028297D01*
X260672768Y-158028297D01*
X260317800Y-157673329D01*
X259962832Y-158028297D01*
X259610693Y-158028297D01*
X259255725Y-157673329D01*
X258900757Y-158028297D01*
X258548619Y-158028297D01*
X258193651Y-157673329D01*
X257838683Y-158028297D01*
X257486545Y-158028297D01*
X257131577Y-157673329D01*
X256776609Y-158028297D01*
X256424470Y-158028297D01*
X256069502Y-157673329D01*
X255714534Y-158028297D01*
X254734017Y-158028297D01*
X254733886Y-157972400D01*
X254733478Y-157798380D01*
X255132479Y-157798380D01*
X255132944Y-157996563D01*
X255207355Y-157976625D01*
X255239448Y-157972400D01*
X255306499Y-157972400D01*
X255132479Y-157798380D01*
X254733478Y-157798380D01*
X254733353Y-157744921D01*
X254752881Y-157677837D01*
X254805577Y-157631959D01*
X254809874Y-157630082D01*
X254871697Y-157604475D01*
X254929853Y-157546319D01*
X255232556Y-157546319D01*
X255538465Y-157852228D01*
X255893433Y-157497260D01*
X256245571Y-157497260D01*
X256600539Y-157852228D01*
X256955507Y-157497260D01*
X257307646Y-157497260D01*
X257662614Y-157852228D01*
X258017582Y-157497260D01*
X258369720Y-157497260D01*
X258724688Y-157852228D01*
X259079656Y-157497260D01*
X259431795Y-157497260D01*
X259786763Y-157852228D01*
X260141731Y-157497260D01*
X260493869Y-157497260D01*
X260848837Y-157852228D01*
X261203805Y-157497260D01*
X261555943Y-157497260D01*
X261910911Y-157852228D01*
X262265879Y-157497260D01*
X262618018Y-157497260D01*
X262972986Y-157852228D01*
X263327954Y-157497260D01*
X263680092Y-157497260D01*
X264035060Y-157852228D01*
X264390028Y-157497260D01*
X264742166Y-157497260D01*
X265097134Y-157852228D01*
X265452103Y-157497260D01*
X265804241Y-157497260D01*
X266159209Y-157852228D01*
X266514177Y-157497260D01*
X266866315Y-157497260D01*
X267221283Y-157852228D01*
X267576251Y-157497260D01*
X267928390Y-157497260D01*
X268283358Y-157852228D01*
X268638326Y-157497260D01*
X268990464Y-157497260D01*
X269345432Y-157852228D01*
X269700400Y-157497260D01*
X270052538Y-157497260D01*
X270407506Y-157852228D01*
X270762474Y-157497260D01*
X271114613Y-157497260D01*
X271469581Y-157852228D01*
X271824549Y-157497260D01*
X272176687Y-157497260D01*
X272531655Y-157852228D01*
X272886623Y-157497260D01*
X273238762Y-157497260D01*
X273593730Y-157852228D01*
X273948698Y-157497260D01*
X274300836Y-157497260D01*
X274655804Y-157852228D01*
X275010772Y-157497260D01*
X275362910Y-157497260D01*
X275717878Y-157852228D01*
X276072846Y-157497260D01*
X276424985Y-157497260D01*
X276779953Y-157852228D01*
X277134921Y-157497260D01*
X277487059Y-157497260D01*
X277842027Y-157852228D01*
X278196995Y-157497260D01*
X278549133Y-157497260D01*
X278904101Y-157852228D01*
X279259070Y-157497260D01*
X279611208Y-157497260D01*
X279966176Y-157852228D01*
X280321144Y-157497260D01*
X280673282Y-157497260D01*
X281028249Y-157852227D01*
X281209005Y-157671472D01*
X281191555Y-157669175D01*
X281083463Y-157640212D01*
X281053555Y-157627824D01*
X280956643Y-157571871D01*
X280930963Y-157552165D01*
X280851835Y-157473037D01*
X280832129Y-157447357D01*
X280792252Y-157378289D01*
X280673282Y-157497260D01*
X280321144Y-157497260D01*
X279966176Y-157142292D01*
X279611208Y-157497260D01*
X279259070Y-157497260D01*
X278904101Y-157142291D01*
X278549133Y-157497260D01*
X278196995Y-157497260D01*
X277842027Y-157142292D01*
X277487059Y-157497260D01*
X277134921Y-157497260D01*
X276779953Y-157142292D01*
X276424985Y-157497260D01*
X276072846Y-157497260D01*
X275717878Y-157142292D01*
X275362910Y-157497260D01*
X275010772Y-157497260D01*
X274655804Y-157142292D01*
X274300836Y-157497260D01*
X273948698Y-157497260D01*
X273593730Y-157142292D01*
X273238762Y-157497260D01*
X272886623Y-157497260D01*
X272531655Y-157142292D01*
X272176687Y-157497260D01*
X271824549Y-157497260D01*
X271469581Y-157142292D01*
X271114613Y-157497260D01*
X270762474Y-157497260D01*
X270407506Y-157142291D01*
X270052538Y-157497260D01*
X269700400Y-157497260D01*
X269345432Y-157142292D01*
X268990464Y-157497260D01*
X268638326Y-157497260D01*
X268283358Y-157142292D01*
X267928390Y-157497260D01*
X267576251Y-157497260D01*
X267221283Y-157142292D01*
X266866315Y-157497260D01*
X266514177Y-157497260D01*
X266159209Y-157142292D01*
X265804241Y-157497260D01*
X265452103Y-157497260D01*
X265097134Y-157142291D01*
X264742166Y-157497260D01*
X264390028Y-157497260D01*
X264035060Y-157142292D01*
X263680092Y-157497260D01*
X263327954Y-157497260D01*
X262972986Y-157142292D01*
X262618018Y-157497260D01*
X262265879Y-157497260D01*
X261910911Y-157142292D01*
X261555943Y-157497260D01*
X261203805Y-157497260D01*
X260848837Y-157142292D01*
X260493869Y-157497260D01*
X260141731Y-157497260D01*
X259786763Y-157142292D01*
X259431795Y-157497260D01*
X259079656Y-157497260D01*
X258724688Y-157142292D01*
X258369720Y-157497260D01*
X258017582Y-157497260D01*
X257662614Y-157142292D01*
X257307646Y-157497260D01*
X256955507Y-157497260D01*
X256600539Y-157142291D01*
X256245571Y-157497260D01*
X255893433Y-157497260D01*
X255538465Y-157142292D01*
X255253300Y-157427457D01*
X255253300Y-157455380D01*
X255252702Y-157467544D01*
X255252461Y-157469989D01*
X255250677Y-157482015D01*
X255245433Y-157508380D01*
X255242474Y-157520192D01*
X255241761Y-157522542D01*
X255237663Y-157533993D01*
X255232556Y-157546319D01*
X254929853Y-157546319D01*
X254942164Y-157534008D01*
X254980300Y-157441939D01*
X254980300Y-157342283D01*
X254980300Y-156966223D01*
X255714534Y-156966223D01*
X256069502Y-157321191D01*
X256424470Y-156966223D01*
X256424469Y-156966222D01*
X256776608Y-156966222D01*
X257131577Y-157321191D01*
X257399267Y-157053500D01*
X257925960Y-157053500D01*
X258193651Y-157321191D01*
X258461342Y-157053500D01*
X258988034Y-157053500D01*
X259255725Y-157321191D01*
X259523416Y-157053500D01*
X260050109Y-157053500D01*
X260317800Y-157321191D01*
X260585491Y-157053500D01*
X261112183Y-157053500D01*
X261379874Y-157321191D01*
X261647565Y-157053500D01*
X262174257Y-157053500D01*
X262441948Y-157321191D01*
X262709640Y-157053500D01*
X263236332Y-157053500D01*
X263504023Y-157321191D01*
X263771714Y-157053500D01*
X264298406Y-157053500D01*
X264566097Y-157321191D01*
X264833788Y-157053500D01*
X265360481Y-157053500D01*
X265628172Y-157321191D01*
X265895863Y-157053500D01*
X266422555Y-157053500D01*
X266690246Y-157321191D01*
X266957937Y-157053500D01*
X267484629Y-157053500D01*
X267752320Y-157321191D01*
X268020012Y-157053500D01*
X268546704Y-157053500D01*
X268814395Y-157321191D01*
X269082086Y-157053500D01*
X269608778Y-157053500D01*
X269876469Y-157321191D01*
X270144160Y-157053500D01*
X270670853Y-157053500D01*
X270938544Y-157321191D01*
X271206235Y-157053500D01*
X271732927Y-157053500D01*
X272000618Y-157321191D01*
X272268309Y-157053500D01*
X272795001Y-157053500D01*
X273062692Y-157321191D01*
X273330384Y-157053500D01*
X273857076Y-157053500D01*
X274124767Y-157321191D01*
X274392458Y-157053500D01*
X274919150Y-157053500D01*
X275186841Y-157321191D01*
X275454532Y-157053500D01*
X275981224Y-157053500D01*
X276248915Y-157321191D01*
X276516607Y-157053500D01*
X277043299Y-157053500D01*
X277310990Y-157321191D01*
X277578681Y-157053500D01*
X278105373Y-157053500D01*
X278373064Y-157321191D01*
X278640755Y-157053500D01*
X279167448Y-157053500D01*
X279435139Y-157321191D01*
X279702830Y-157053500D01*
X280229522Y-157053500D01*
X280497213Y-157321191D01*
X280730600Y-157087804D01*
X280730600Y-157068448D01*
X280732568Y-157053500D01*
X280229522Y-157053500D01*
X279702830Y-157053500D01*
X279167448Y-157053500D01*
X278640755Y-157053500D01*
X278105373Y-157053500D01*
X277578681Y-157053500D01*
X277043299Y-157053500D01*
X276516607Y-157053500D01*
X275981224Y-157053500D01*
X275454532Y-157053500D01*
X274919150Y-157053500D01*
X274392458Y-157053500D01*
X273857076Y-157053500D01*
X273330384Y-157053500D01*
X272795001Y-157053500D01*
X272268309Y-157053500D01*
X271732927Y-157053500D01*
X271206235Y-157053500D01*
X270670853Y-157053500D01*
X270144160Y-157053500D01*
X269608778Y-157053500D01*
X269082086Y-157053500D01*
X268546704Y-157053500D01*
X268020012Y-157053500D01*
X267484629Y-157053500D01*
X266957937Y-157053500D01*
X266422555Y-157053500D01*
X265895863Y-157053500D01*
X265360481Y-157053500D01*
X264833788Y-157053500D01*
X264298406Y-157053500D01*
X263771714Y-157053500D01*
X263236332Y-157053500D01*
X262709640Y-157053500D01*
X262174257Y-157053500D01*
X261647565Y-157053500D01*
X261112183Y-157053500D01*
X260585491Y-157053500D01*
X260050109Y-157053500D01*
X259523416Y-157053500D01*
X258988034Y-157053500D01*
X258461342Y-157053500D01*
X257925960Y-157053500D01*
X257399267Y-157053500D01*
X257400159Y-157052608D01*
X257385227Y-157050926D01*
X257378336Y-157049953D01*
X257376953Y-157049718D01*
X257370133Y-157048361D01*
X257245228Y-157019853D01*
X257238521Y-157018124D01*
X257237173Y-157017736D01*
X257230512Y-157015614D01*
X257216042Y-157010550D01*
X257209611Y-157008097D01*
X257208315Y-157007561D01*
X257201904Y-157004694D01*
X257086476Y-156949106D01*
X257080276Y-156945902D01*
X257079048Y-156945223D01*
X257073081Y-156941703D01*
X257060100Y-156933547D01*
X257054297Y-156929669D01*
X257053153Y-156928857D01*
X257047611Y-156924685D01*
X256947447Y-156844805D01*
X256942172Y-156840352D01*
X256941126Y-156839418D01*
X256936034Y-156834606D01*
X256925194Y-156823766D01*
X256922216Y-156820615D01*
X256776608Y-156966222D01*
X256424469Y-156966222D01*
X256069502Y-156611255D01*
X255714534Y-156966223D01*
X254980300Y-156966223D01*
X254980300Y-156365382D01*
X255253300Y-156365382D01*
X255253300Y-156504989D01*
X255538465Y-156790154D01*
X255893433Y-156435185D01*
X256245570Y-156435185D01*
X256600539Y-156790154D01*
X256780359Y-156610333D01*
X256755106Y-156557896D01*
X256752239Y-156551485D01*
X256751703Y-156550189D01*
X256749250Y-156543758D01*
X256744186Y-156529288D01*
X256742064Y-156522627D01*
X256741676Y-156521279D01*
X256739947Y-156514572D01*
X256711439Y-156389667D01*
X256710082Y-156382847D01*
X256709847Y-156381464D01*
X256708874Y-156374573D01*
X256707158Y-156359340D01*
X256706576Y-156352440D01*
X256706497Y-156351039D01*
X256706300Y-156344058D01*
X256706300Y-156235831D01*
X256706299Y-156185977D01*
X256600539Y-156080217D01*
X256245570Y-156435185D01*
X255893433Y-156435185D01*
X255538464Y-156080217D01*
X255253300Y-156365382D01*
X254980300Y-156365382D01*
X254980300Y-155904148D01*
X255714534Y-155904148D01*
X256069502Y-156259116D01*
X256424470Y-155904148D01*
X256069502Y-155549180D01*
X255714534Y-155904148D01*
X254980300Y-155904148D01*
X254980300Y-155303308D01*
X255253300Y-155303308D01*
X255253300Y-155442914D01*
X255538465Y-155728079D01*
X255893433Y-155373111D01*
X256245571Y-155373111D01*
X256600538Y-155728078D01*
X256706299Y-155622318D01*
X256706299Y-155123903D01*
X256600539Y-155018143D01*
X256245571Y-155373111D01*
X255893433Y-155373111D01*
X255538465Y-155018143D01*
X255253300Y-155303308D01*
X254980300Y-155303308D01*
X254980300Y-154842283D01*
X254942164Y-154750214D01*
X254886035Y-154694085D01*
X255214407Y-154694085D01*
X255237663Y-154750229D01*
X255241761Y-154761680D01*
X255242474Y-154764030D01*
X255245433Y-154775842D01*
X255250677Y-154802207D01*
X255252461Y-154814233D01*
X255252702Y-154816678D01*
X255253300Y-154828842D01*
X255253300Y-154951170D01*
X255362396Y-154842074D01*
X255714534Y-154842074D01*
X256069502Y-155197042D01*
X256424470Y-154842074D01*
X256069502Y-154487106D01*
X255714534Y-154842074D01*
X255362396Y-154842074D01*
X255214407Y-154694085D01*
X254886035Y-154694085D01*
X254871697Y-154679747D01*
X254802385Y-154651037D01*
X254747982Y-154607195D01*
X254725918Y-154540901D01*
X254725840Y-154536851D01*
X254725311Y-154311037D01*
X255183497Y-154311037D01*
X255538465Y-154666005D01*
X255893433Y-154311037D01*
X256245571Y-154311037D01*
X256600538Y-154666004D01*
X256706299Y-154560244D01*
X256706299Y-154061829D01*
X256600539Y-153956069D01*
X256245571Y-154311037D01*
X255893433Y-154311037D01*
X255538465Y-153956069D01*
X255183497Y-154311037D01*
X254725311Y-154311037D01*
X254725164Y-154248314D01*
X254744692Y-154181231D01*
X254797389Y-154135352D01*
X254801686Y-154133476D01*
X254871697Y-154104477D01*
X254942164Y-154034010D01*
X254980300Y-153941941D01*
X254980300Y-153889096D01*
X255253300Y-153889096D01*
X255362396Y-153779999D01*
X255714533Y-153779999D01*
X256069502Y-154134968D01*
X256424470Y-153779999D01*
X256069502Y-153425031D01*
X255714533Y-153779999D01*
X255362396Y-153779999D01*
X255253300Y-153670903D01*
X255253300Y-153889096D01*
X254980300Y-153889096D01*
X254980300Y-153842285D01*
X254980300Y-153842284D01*
X254980300Y-153179159D01*
X255253300Y-153179159D01*
X255253300Y-153318765D01*
X255538465Y-153603930D01*
X255893433Y-153248962D01*
X256245571Y-153248962D01*
X256600538Y-153603929D01*
X256706299Y-153498169D01*
X256706299Y-152999753D01*
X256600539Y-152893993D01*
X256245571Y-153248962D01*
X255893433Y-153248962D01*
X255538465Y-152893994D01*
X255253300Y-153179159D01*
X254980300Y-153179159D01*
X254980300Y-152717925D01*
X255714534Y-152717925D01*
X256069502Y-153072893D01*
X256424470Y-152717925D01*
X256069502Y-152362957D01*
X255714534Y-152717925D01*
X254980300Y-152717925D01*
X254980300Y-152117085D01*
X255253300Y-152117085D01*
X255253300Y-152256691D01*
X255538465Y-152541856D01*
X255893433Y-152186888D01*
X256245571Y-152186888D01*
X256600539Y-152541856D01*
X256706299Y-152436096D01*
X256706299Y-151937679D01*
X256600539Y-151831919D01*
X256245571Y-152186888D01*
X255893433Y-152186888D01*
X255538465Y-151831920D01*
X255253300Y-152117085D01*
X254980300Y-152117085D01*
X254980300Y-151655851D01*
X255714534Y-151655851D01*
X256069502Y-152010819D01*
X256424470Y-151655851D01*
X256069502Y-151300883D01*
X255714534Y-151655851D01*
X254980300Y-151655851D01*
X254980300Y-151342284D01*
X254942164Y-151250215D01*
X254871697Y-151179748D01*
X254860908Y-151175279D01*
X254794182Y-151147640D01*
X254764410Y-151123648D01*
X255184662Y-151123648D01*
X255186753Y-151128070D01*
X255538465Y-151479782D01*
X255893433Y-151124814D01*
X256245571Y-151124814D01*
X256600539Y-151479782D01*
X256709318Y-151371002D01*
X256709846Y-151367269D01*
X256710081Y-151365886D01*
X256711438Y-151359066D01*
X256744960Y-151212192D01*
X256746689Y-151205485D01*
X256747077Y-151204137D01*
X256749199Y-151197476D01*
X256754263Y-151183006D01*
X256756716Y-151176575D01*
X256757252Y-151175279D01*
X256760119Y-151168868D01*
X256825484Y-151033136D01*
X256828688Y-151026936D01*
X256829367Y-151025708D01*
X256832890Y-151019737D01*
X256839658Y-151008964D01*
X256600539Y-150769845D01*
X256245571Y-151124814D01*
X255893433Y-151124814D01*
X255594223Y-150825604D01*
X255946362Y-150825604D01*
X256069502Y-150948744D01*
X256156146Y-150862100D01*
X256109562Y-150862100D01*
X256101454Y-150861835D01*
X256099821Y-150861728D01*
X256091740Y-150860932D01*
X256074001Y-150858596D01*
X256066017Y-150857278D01*
X256064412Y-150856959D01*
X256056491Y-150855113D01*
X255946362Y-150825604D01*
X255594223Y-150825604D01*
X255538464Y-150769845D01*
X255184662Y-151123648D01*
X254764410Y-151123648D01*
X254739778Y-151103798D01*
X254717714Y-151037504D01*
X254717635Y-151033418D01*
X254716976Y-150751706D01*
X254718553Y-150746288D01*
X255115963Y-150746288D01*
X255116183Y-150839988D01*
X255362396Y-150593776D01*
X256776609Y-150593776D01*
X257004427Y-150821594D01*
X257094072Y-150750105D01*
X257099613Y-150745934D01*
X257100757Y-150745122D01*
X257106556Y-150741247D01*
X257119536Y-150733091D01*
X257125507Y-150729568D01*
X257126735Y-150728889D01*
X257132935Y-150725685D01*
X257268666Y-150660320D01*
X257275033Y-150657472D01*
X257276330Y-150656935D01*
X257282820Y-150654458D01*
X257297290Y-150649396D01*
X257303913Y-150647286D01*
X257305260Y-150646898D01*
X257311988Y-150645162D01*
X257458861Y-150611638D01*
X257465683Y-150610281D01*
X257467066Y-150610046D01*
X257470802Y-150609518D01*
X257486545Y-150593776D01*
X257838683Y-150593776D01*
X257851407Y-150606500D01*
X258535895Y-150606500D01*
X258548619Y-150593776D01*
X258193651Y-150238808D01*
X257838683Y-150593776D01*
X257486545Y-150593776D01*
X257131577Y-150238808D01*
X256776609Y-150593776D01*
X255362396Y-150593776D01*
X255250670Y-150482050D01*
X255245433Y-150508381D01*
X255242474Y-150520193D01*
X255241761Y-150522543D01*
X255237663Y-150533994D01*
X255189239Y-150650900D01*
X255184031Y-150661910D01*
X255182873Y-150664076D01*
X255176621Y-150674505D01*
X255161686Y-150696856D01*
X255154450Y-150706615D01*
X255152892Y-150708514D01*
X255144708Y-150717545D01*
X255115963Y-150746288D01*
X254718553Y-150746288D01*
X254736504Y-150684622D01*
X254789201Y-150638743D01*
X254793524Y-150636856D01*
X254871697Y-150604476D01*
X254942164Y-150534009D01*
X254980300Y-150441940D01*
X254980300Y-150342284D01*
X254980300Y-150342283D01*
X254980300Y-149992936D01*
X255253300Y-149992936D01*
X255253300Y-150132542D01*
X255447395Y-150326637D01*
X255417887Y-150216509D01*
X255416041Y-150208588D01*
X255415722Y-150206983D01*
X255414404Y-150198999D01*
X255412068Y-150181260D01*
X255411272Y-150173179D01*
X255411165Y-150171546D01*
X255410900Y-150163438D01*
X255410900Y-150013762D01*
X255411165Y-150005654D01*
X255411272Y-150004021D01*
X255412068Y-149995940D01*
X255414404Y-149978201D01*
X255415722Y-149970217D01*
X255416041Y-149968612D01*
X255417887Y-149960691D01*
X255456626Y-149816115D01*
X255458986Y-149808338D01*
X255459512Y-149806789D01*
X255462363Y-149799215D01*
X255469209Y-149782684D01*
X255472563Y-149775281D01*
X255473287Y-149773813D01*
X255474278Y-149771957D01*
X255253300Y-149992936D01*
X254980300Y-149992936D01*
X254980300Y-149378478D01*
X255867757Y-149378478D01*
X255869613Y-149377487D01*
X255871081Y-149376763D01*
X255878484Y-149373409D01*
X255895015Y-149366563D01*
X255902589Y-149363712D01*
X255904138Y-149363186D01*
X255911915Y-149360826D01*
X256056491Y-149322087D01*
X256064412Y-149320241D01*
X256066017Y-149319922D01*
X256074001Y-149318604D01*
X256091740Y-149316268D01*
X256099821Y-149315472D01*
X256101454Y-149315365D01*
X256109562Y-149315100D01*
X256146848Y-149315100D01*
X256177358Y-149284590D01*
X256069502Y-149176734D01*
X255867757Y-149378478D01*
X254980300Y-149378478D01*
X254980300Y-149070468D01*
X255253300Y-149070468D01*
X255538465Y-149355633D01*
X255840599Y-149053499D01*
X255253300Y-149053499D01*
X255253300Y-149070468D01*
X254980300Y-149070468D01*
X254980300Y-148904500D01*
X254999985Y-148837461D01*
X255052789Y-148791706D01*
X255104300Y-148780500D01*
X255175324Y-148780500D01*
X255175333Y-148780499D01*
X256768168Y-148780499D01*
X256835207Y-148800184D01*
X256880962Y-148852988D01*
X256890906Y-148922146D01*
X256861881Y-148985702D01*
X256855850Y-148992178D01*
X256563438Y-149284590D01*
X256296247Y-149551781D01*
X256234924Y-149585266D01*
X256208566Y-149588100D01*
X256118508Y-149588100D01*
X255991212Y-149622208D01*
X255877086Y-149688100D01*
X255877083Y-149688102D01*
X255783902Y-149781283D01*
X255783900Y-149781286D01*
X255718008Y-149895412D01*
X255686363Y-150013516D01*
X255683900Y-150022708D01*
X255683900Y-150154492D01*
X255691341Y-150182263D01*
X255718008Y-150281787D01*
X255750954Y-150338850D01*
X255783900Y-150395914D01*
X255877086Y-150489100D01*
X255991214Y-150554992D01*
X256118508Y-150589100D01*
X256118510Y-150589100D01*
X256250290Y-150589100D01*
X256250292Y-150589100D01*
X256377586Y-150554992D01*
X256491714Y-150489100D01*
X256584900Y-150395914D01*
X256650792Y-150281786D01*
X256684900Y-150154492D01*
X256684900Y-150064432D01*
X256685397Y-150062739D01*
X257307646Y-150062739D01*
X257662614Y-150417707D01*
X258017582Y-150062739D01*
X258369720Y-150062739D01*
X258611300Y-150304319D01*
X258611300Y-150293162D01*
X258611565Y-150285054D01*
X258611672Y-150283421D01*
X258612468Y-150275340D01*
X258614804Y-150257601D01*
X258616122Y-150249617D01*
X258616441Y-150248012D01*
X258618287Y-150240091D01*
X258657026Y-150095515D01*
X258659386Y-150087738D01*
X258659912Y-150086189D01*
X258662763Y-150078615D01*
X258669609Y-150062084D01*
X258672963Y-150054681D01*
X258673687Y-150053213D01*
X258677510Y-150046060D01*
X258752349Y-149916437D01*
X258756620Y-149909568D01*
X258757529Y-149908207D01*
X258762271Y-149901588D01*
X258773163Y-149887394D01*
X258778321Y-149881110D01*
X258779400Y-149879880D01*
X258784935Y-149873972D01*
X258837912Y-149820995D01*
X258760625Y-149743708D01*
X258757670Y-149744196D01*
X258739931Y-149746532D01*
X258731850Y-149747328D01*
X258730217Y-149747435D01*
X258722109Y-149747700D01*
X258684759Y-149747700D01*
X258369720Y-150062739D01*
X258017582Y-150062739D01*
X257702543Y-149747700D01*
X258054681Y-149747700D01*
X258193651Y-149886670D01*
X258332621Y-149747700D01*
X258054681Y-149747700D01*
X257702543Y-149747700D01*
X257622685Y-149747700D01*
X257307646Y-150062739D01*
X256685397Y-150062739D01*
X256704585Y-149997393D01*
X256721219Y-149976751D01*
X256953775Y-149744196D01*
X257056499Y-149641472D01*
X259010527Y-149641472D01*
X259041878Y-149672823D01*
X259062861Y-149660710D01*
X259070013Y-149656887D01*
X259071481Y-149656163D01*
X259078884Y-149652809D01*
X259095415Y-149645963D01*
X259102989Y-149643112D01*
X259104538Y-149642586D01*
X259112315Y-149640226D01*
X259256891Y-149601487D01*
X259264812Y-149599641D01*
X259266417Y-149599322D01*
X259274401Y-149598004D01*
X259292140Y-149595668D01*
X259300221Y-149594872D01*
X259301854Y-149594765D01*
X259309962Y-149594500D01*
X259459638Y-149594500D01*
X259467746Y-149594765D01*
X259469379Y-149594872D01*
X259477460Y-149595668D01*
X259495199Y-149598004D01*
X259503183Y-149599322D01*
X259504788Y-149599641D01*
X259512708Y-149601487D01*
X259534948Y-149607446D01*
X259610691Y-149531702D01*
X259962832Y-149531702D01*
X260317800Y-149886670D01*
X260483470Y-149721000D01*
X260974838Y-149721000D01*
X261470800Y-149721000D01*
X261870800Y-149721000D01*
X262366759Y-149721000D01*
X262366760Y-149720998D01*
X262355357Y-149634372D01*
X262355355Y-149634366D01*
X262294900Y-149488414D01*
X262198724Y-149363075D01*
X262073386Y-149266899D01*
X261927431Y-149206444D01*
X261870800Y-149198987D01*
X261870800Y-149721000D01*
X261470800Y-149721000D01*
X261470800Y-149198987D01*
X261414168Y-149206444D01*
X261268213Y-149266899D01*
X261142875Y-149363075D01*
X261046699Y-149488413D01*
X260986245Y-149634365D01*
X260986244Y-149634369D01*
X260974838Y-149721000D01*
X260483470Y-149721000D01*
X260672768Y-149531702D01*
X260317800Y-149176734D01*
X259962832Y-149531702D01*
X259610691Y-149531702D01*
X259610692Y-149531701D01*
X259368920Y-149289929D01*
X259044825Y-149614025D01*
X259038917Y-149619560D01*
X259037687Y-149620639D01*
X259031404Y-149625796D01*
X259017209Y-149636689D01*
X259010589Y-149641432D01*
X259010527Y-149641472D01*
X257056499Y-149641472D01*
X257186952Y-149511019D01*
X257248275Y-149477534D01*
X257274633Y-149474700D01*
X258713160Y-149474700D01*
X258713162Y-149474700D01*
X258789589Y-149454221D01*
X258858111Y-149414660D01*
X258914060Y-149358711D01*
X259158911Y-149113860D01*
X259544990Y-149113860D01*
X259786763Y-149355633D01*
X260141731Y-149000665D01*
X260493869Y-149000665D01*
X260823772Y-149330568D01*
X260824670Y-149329315D01*
X260931735Y-149189786D01*
X260936899Y-149183495D01*
X260937979Y-149182264D01*
X260943510Y-149176361D01*
X260956161Y-149163710D01*
X260962064Y-149158179D01*
X260963295Y-149157099D01*
X260969586Y-149151935D01*
X261109115Y-149044870D01*
X261115732Y-149040130D01*
X261117093Y-149039221D01*
X261123961Y-149034951D01*
X261139457Y-149026004D01*
X261146611Y-149022180D01*
X261148079Y-149021456D01*
X261155474Y-149018105D01*
X261201981Y-148998841D01*
X261122233Y-148919093D01*
X262699588Y-148919093D01*
X262702400Y-148940448D01*
X262702400Y-149036665D01*
X262786074Y-148995760D01*
X262794857Y-148991880D01*
X262796659Y-148991166D01*
X262805732Y-148987973D01*
X262825987Y-148981715D01*
X262835279Y-148979234D01*
X262837170Y-148978807D01*
X262846604Y-148977058D01*
X262930112Y-148964891D01*
X262934538Y-148964327D01*
X262935436Y-148964229D01*
X262939926Y-148963821D01*
X262949779Y-148963107D01*
X262954222Y-148962865D01*
X262955127Y-148962832D01*
X262959646Y-148962750D01*
X263266025Y-148962750D01*
X263269025Y-148959750D01*
X262959646Y-148959750D01*
X262955127Y-148959668D01*
X262954222Y-148959635D01*
X262949779Y-148959393D01*
X262939926Y-148958679D01*
X262935436Y-148958271D01*
X262934538Y-148958173D01*
X262930112Y-148957609D01*
X262846604Y-148945442D01*
X262837170Y-148943693D01*
X262835279Y-148943266D01*
X262825987Y-148940785D01*
X262805732Y-148934527D01*
X262796659Y-148931334D01*
X262794857Y-148930620D01*
X262786074Y-148926740D01*
X262722850Y-148895831D01*
X262699588Y-148919093D01*
X261122233Y-148919093D01*
X260848837Y-148645697D01*
X260493869Y-149000665D01*
X260141731Y-149000665D01*
X259899958Y-148758892D01*
X259544990Y-149113860D01*
X259158911Y-149113860D01*
X259689948Y-148582823D01*
X260076027Y-148582823D01*
X260317800Y-148824596D01*
X260672768Y-148469628D01*
X261024906Y-148469628D01*
X261379874Y-148824596D01*
X261508921Y-148695549D01*
X263985207Y-148695549D01*
X263989431Y-148698079D01*
X264076805Y-148778816D01*
X264097844Y-148808368D01*
X264099431Y-148806139D01*
X265609715Y-148806139D01*
X265628172Y-148824596D01*
X265983140Y-148469628D01*
X266335278Y-148469628D01*
X266690246Y-148824596D01*
X267045214Y-148469628D01*
X267397352Y-148469628D01*
X267752320Y-148824596D01*
X268107288Y-148469628D01*
X268459427Y-148469628D01*
X268814394Y-148824595D01*
X268890300Y-148748690D01*
X268890300Y-148190565D01*
X268814395Y-148114660D01*
X268459427Y-148469628D01*
X268107288Y-148469628D01*
X267752320Y-148114659D01*
X267397352Y-148469628D01*
X267045214Y-148469628D01*
X266690246Y-148114660D01*
X266335278Y-148469628D01*
X265983140Y-148469628D01*
X265821343Y-148307831D01*
X265821343Y-148374449D01*
X265821261Y-148378968D01*
X265821228Y-148379873D01*
X265820986Y-148384316D01*
X265820272Y-148394169D01*
X265819864Y-148398659D01*
X265819766Y-148399557D01*
X265819202Y-148403983D01*
X265807035Y-148487491D01*
X265805286Y-148496925D01*
X265804859Y-148498816D01*
X265802378Y-148508108D01*
X265796120Y-148528363D01*
X265792927Y-148537436D01*
X265792213Y-148539238D01*
X265788333Y-148548021D01*
X265727336Y-148672793D01*
X265722438Y-148681839D01*
X265721379Y-148683615D01*
X265715796Y-148692159D01*
X265702654Y-148710567D01*
X265696342Y-148718676D01*
X265695005Y-148720254D01*
X265688078Y-148727776D01*
X265609715Y-148806139D01*
X264099431Y-148806139D01*
X264118883Y-148778816D01*
X264144504Y-148755141D01*
X264035059Y-148645696D01*
X263985207Y-148695549D01*
X261508921Y-148695549D01*
X261734842Y-148469628D01*
X261712614Y-148447400D01*
X262109208Y-148447400D01*
X262209352Y-148447400D01*
X262241445Y-148451625D01*
X262349537Y-148480588D01*
X262379445Y-148492976D01*
X262391060Y-148499682D01*
X262390829Y-148498816D01*
X262390402Y-148496925D01*
X262388653Y-148487491D01*
X262376486Y-148403983D01*
X262375922Y-148399557D01*
X262375824Y-148398659D01*
X262375416Y-148394169D01*
X262374702Y-148384316D01*
X262374460Y-148379873D01*
X262374427Y-148378968D01*
X262374345Y-148374449D01*
X262374345Y-148182263D01*
X262109208Y-148447400D01*
X261712614Y-148447400D01*
X261379874Y-148114660D01*
X261024906Y-148469628D01*
X260672768Y-148469628D01*
X260430995Y-148227855D01*
X260076027Y-148582823D01*
X259689948Y-148582823D01*
X260220985Y-148051786D01*
X260607064Y-148051786D01*
X260848836Y-148293558D01*
X261203805Y-147938590D01*
X261555942Y-147938590D01*
X261910911Y-148293558D01*
X262265879Y-147938590D01*
X262165492Y-147838203D01*
X261656330Y-147838203D01*
X261555942Y-147938590D01*
X261203805Y-147938590D01*
X261103418Y-147838203D01*
X260820648Y-147838203D01*
X260607064Y-148051786D01*
X260220985Y-148051786D01*
X260671249Y-147601522D01*
X260732572Y-147568037D01*
X260758930Y-147565203D01*
X262523345Y-147565203D01*
X262590384Y-147584888D01*
X262636139Y-147637692D01*
X262647345Y-147689203D01*
X262647345Y-148369510D01*
X262657271Y-148437641D01*
X262708648Y-148542735D01*
X262791359Y-148625446D01*
X262791360Y-148625446D01*
X262791362Y-148625448D01*
X262896452Y-148676823D01*
X262921085Y-148680412D01*
X262964584Y-148686750D01*
X262964585Y-148686750D01*
X263331106Y-148686750D01*
X263364811Y-148681839D01*
X263399238Y-148676823D01*
X263504328Y-148625448D01*
X263587043Y-148542733D01*
X263622782Y-148469628D01*
X264211129Y-148469628D01*
X264324407Y-148582906D01*
X264307353Y-148548021D01*
X264303473Y-148539238D01*
X264302759Y-148537436D01*
X264299566Y-148528363D01*
X264293308Y-148508108D01*
X264290827Y-148498816D01*
X264290400Y-148496925D01*
X264288651Y-148487491D01*
X264276520Y-148404236D01*
X264211129Y-148469628D01*
X263622782Y-148469628D01*
X263638418Y-148437643D01*
X263648345Y-148369510D01*
X263648345Y-147697337D01*
X263921345Y-147697337D01*
X263921345Y-148179843D01*
X264035060Y-148293558D01*
X264274343Y-148054275D01*
X264274343Y-147822905D01*
X264035060Y-147583622D01*
X263921345Y-147697337D01*
X263648345Y-147697337D01*
X263648345Y-147277990D01*
X263648345Y-147277989D01*
X264547343Y-147277989D01*
X264547343Y-148369510D01*
X264557269Y-148437641D01*
X264608646Y-148542735D01*
X264691357Y-148625446D01*
X264691358Y-148625446D01*
X264691360Y-148625448D01*
X264796450Y-148676823D01*
X264821083Y-148680412D01*
X264864582Y-148686750D01*
X264864583Y-148686750D01*
X265231104Y-148686750D01*
X265264809Y-148681839D01*
X265299236Y-148676823D01*
X265404326Y-148625448D01*
X265487041Y-148542733D01*
X265538416Y-148437643D01*
X265548343Y-148369510D01*
X265548343Y-147921488D01*
X265821343Y-147921488D01*
X265821343Y-147955692D01*
X266159209Y-148293558D01*
X266514177Y-147938590D01*
X266866314Y-147938590D01*
X267221283Y-148293558D01*
X267576251Y-147938590D01*
X267928389Y-147938590D01*
X268283358Y-148293558D01*
X268638326Y-147938590D01*
X268283358Y-147583622D01*
X267928389Y-147938590D01*
X267576251Y-147938590D01*
X267221283Y-147583622D01*
X266866314Y-147938590D01*
X266514177Y-147938590D01*
X266159209Y-147583622D01*
X265821343Y-147921488D01*
X265548343Y-147921488D01*
X265548343Y-147277990D01*
X265547623Y-147273051D01*
X265543336Y-147243629D01*
X265819216Y-147243629D01*
X265819766Y-147247943D01*
X265819864Y-147248841D01*
X265820272Y-147253331D01*
X265820986Y-147263184D01*
X265821228Y-147267627D01*
X265821261Y-147268532D01*
X265821343Y-147273051D01*
X265821343Y-147569350D01*
X265983140Y-147407553D01*
X266335278Y-147407553D01*
X266690246Y-147762521D01*
X267045214Y-147407553D01*
X267397352Y-147407553D01*
X267752320Y-147762521D01*
X268107288Y-147407553D01*
X268459427Y-147407553D01*
X268814394Y-147762520D01*
X268890300Y-147686615D01*
X268890300Y-147128490D01*
X268814395Y-147052585D01*
X268459427Y-147407553D01*
X268107288Y-147407553D01*
X267752320Y-147052584D01*
X267397352Y-147407553D01*
X267045214Y-147407553D01*
X266690246Y-147052585D01*
X266335278Y-147407553D01*
X265983140Y-147407553D01*
X265819216Y-147243629D01*
X265543336Y-147243629D01*
X265538416Y-147209858D01*
X265498638Y-147128490D01*
X265487041Y-147104767D01*
X265487039Y-147104765D01*
X265487039Y-147104764D01*
X265404328Y-147022053D01*
X265299234Y-146970676D01*
X265231104Y-146960750D01*
X265231103Y-146960750D01*
X264864583Y-146960750D01*
X264864582Y-146960750D01*
X264796451Y-146970676D01*
X264691357Y-147022053D01*
X264608646Y-147104764D01*
X264557269Y-147209858D01*
X264547343Y-147277989D01*
X263648345Y-147277989D01*
X263647625Y-147273051D01*
X263638418Y-147209858D01*
X263598640Y-147128490D01*
X263587043Y-147104767D01*
X263587041Y-147104765D01*
X263587041Y-147104764D01*
X263504328Y-147022051D01*
X263444069Y-146992592D01*
X263436539Y-146988584D01*
X263429782Y-146984683D01*
X263422269Y-146981572D01*
X263422443Y-146981149D01*
X263414807Y-146978288D01*
X263399240Y-146970677D01*
X263379771Y-146967840D01*
X263331105Y-146960750D01*
X262964585Y-146960750D01*
X262949779Y-146962907D01*
X262931903Y-146964203D01*
X260543535Y-146964203D01*
X260467107Y-146984681D01*
X260398586Y-147024243D01*
X260398583Y-147024245D01*
X258585448Y-148837381D01*
X258524125Y-148870866D01*
X258497767Y-148873700D01*
X257827427Y-148873700D01*
X257760388Y-148854015D01*
X257714633Y-148801211D01*
X257704689Y-148732053D01*
X257733714Y-148668497D01*
X257750114Y-148652753D01*
X257758963Y-148645696D01*
X257807105Y-148607304D01*
X257812372Y-148600700D01*
X258146714Y-148600700D01*
X258417547Y-148600700D01*
X258548619Y-148469628D01*
X258253300Y-148174309D01*
X258253300Y-148255324D01*
X258253103Y-148262305D01*
X258253024Y-148263706D01*
X258252442Y-148270606D01*
X258250726Y-148285839D01*
X258249753Y-148292730D01*
X258249518Y-148294113D01*
X258248161Y-148300933D01*
X258214639Y-148447806D01*
X258212910Y-148454513D01*
X258212522Y-148455861D01*
X258210400Y-148462522D01*
X258205336Y-148476992D01*
X258202883Y-148483423D01*
X258202347Y-148484719D01*
X258199480Y-148491130D01*
X258146714Y-148600700D01*
X257812372Y-148600700D01*
X257891476Y-148501506D01*
X257950189Y-148379586D01*
X257966160Y-148309611D01*
X257980299Y-148247665D01*
X257980300Y-148247657D01*
X257980300Y-148111166D01*
X257980299Y-148111160D01*
X257980299Y-147938590D01*
X258369719Y-147938590D01*
X258724688Y-148293558D01*
X259079656Y-147938590D01*
X258724688Y-147583622D01*
X258369719Y-147938590D01*
X257980299Y-147938590D01*
X257980299Y-147702873D01*
X258253299Y-147702873D01*
X258548619Y-147407553D01*
X258900757Y-147407553D01*
X259255725Y-147762521D01*
X259610693Y-147407553D01*
X259255725Y-147052585D01*
X258900757Y-147407553D01*
X258548619Y-147407553D01*
X258253299Y-147112233D01*
X258253299Y-147702873D01*
X257980299Y-147702873D01*
X257980299Y-146876516D01*
X258369720Y-146876516D01*
X258724688Y-147231484D01*
X259079656Y-146876516D01*
X259431795Y-146876516D01*
X259786763Y-147231484D01*
X260141731Y-146876516D01*
X260109339Y-146844124D01*
X263712482Y-146844124D01*
X263788081Y-146919724D01*
X263795007Y-146927246D01*
X263796344Y-146928824D01*
X263802656Y-146936933D01*
X263815798Y-146955341D01*
X263821381Y-146963885D01*
X263822440Y-146965661D01*
X263827338Y-146974707D01*
X263874255Y-147070679D01*
X264035060Y-147231484D01*
X264390028Y-146876516D01*
X265804241Y-146876516D01*
X266159209Y-147231484D01*
X266514177Y-146876516D01*
X266866315Y-146876516D01*
X267221283Y-147231484D01*
X267576251Y-146876516D01*
X267928390Y-146876516D01*
X268283358Y-147231484D01*
X268638326Y-146876516D01*
X268315310Y-146553500D01*
X268667448Y-146553500D01*
X268814394Y-146700446D01*
X268890300Y-146624541D01*
X268890300Y-146553500D01*
X268667448Y-146553500D01*
X268315310Y-146553500D01*
X268251406Y-146553500D01*
X267928390Y-146876516D01*
X267576251Y-146876516D01*
X267253235Y-146553500D01*
X267605373Y-146553500D01*
X267752320Y-146700447D01*
X267899268Y-146553500D01*
X267605373Y-146553500D01*
X267253235Y-146553500D01*
X267189331Y-146553500D01*
X266866315Y-146876516D01*
X266514177Y-146876516D01*
X266191161Y-146553500D01*
X266543299Y-146553500D01*
X266690246Y-146700447D01*
X266837193Y-146553500D01*
X266543299Y-146553500D01*
X266191161Y-146553500D01*
X266127257Y-146553500D01*
X265804241Y-146876516D01*
X264390028Y-146876516D01*
X264067012Y-146553500D01*
X264419150Y-146553500D01*
X264566097Y-146700447D01*
X264578794Y-146687750D01*
X264930933Y-146687750D01*
X265236042Y-146687750D01*
X265240561Y-146687832D01*
X265241466Y-146687865D01*
X265245909Y-146688107D01*
X265255762Y-146688821D01*
X265260252Y-146689229D01*
X265261150Y-146689327D01*
X265265463Y-146689876D01*
X265129087Y-146553500D01*
X265481225Y-146553500D01*
X265628172Y-146700447D01*
X265775119Y-146553500D01*
X265481225Y-146553500D01*
X265129087Y-146553500D01*
X265065183Y-146553500D01*
X264930933Y-146687750D01*
X264578794Y-146687750D01*
X264713044Y-146553500D01*
X264419150Y-146553500D01*
X264067012Y-146553500D01*
X264003108Y-146553500D01*
X263712482Y-146844124D01*
X260109339Y-146844124D01*
X259818715Y-146553500D01*
X260170853Y-146553500D01*
X260317800Y-146700447D01*
X260327044Y-146691203D01*
X260679182Y-146691203D01*
X261018492Y-146691203D01*
X260880789Y-146553500D01*
X261232927Y-146553500D01*
X261370630Y-146691203D01*
X261389118Y-146691203D01*
X261741256Y-146691203D01*
X262080566Y-146691203D01*
X261942863Y-146553500D01*
X262295002Y-146553500D01*
X262432705Y-146691203D01*
X262451193Y-146691203D01*
X262803331Y-146691203D01*
X262921101Y-146691203D01*
X262930113Y-146689890D01*
X262934538Y-146689327D01*
X262935436Y-146689229D01*
X262939926Y-146688821D01*
X262949779Y-146688107D01*
X262954222Y-146687865D01*
X262955127Y-146687832D01*
X262959646Y-146687750D01*
X263139188Y-146687750D01*
X263004938Y-146553500D01*
X263357076Y-146553500D01*
X263504022Y-146700446D01*
X263650970Y-146553500D01*
X263357076Y-146553500D01*
X263004938Y-146553500D01*
X262941034Y-146553500D01*
X262803331Y-146691203D01*
X262451193Y-146691203D01*
X262588896Y-146553500D01*
X262295002Y-146553500D01*
X261942863Y-146553500D01*
X261878959Y-146553500D01*
X261741256Y-146691203D01*
X261389118Y-146691203D01*
X261526821Y-146553500D01*
X261232927Y-146553500D01*
X260880789Y-146553500D01*
X260816885Y-146553500D01*
X260679182Y-146691203D01*
X260327044Y-146691203D01*
X260464747Y-146553500D01*
X260170853Y-146553500D01*
X259818715Y-146553500D01*
X259754811Y-146553500D01*
X259431795Y-146876516D01*
X259079656Y-146876516D01*
X258756640Y-146553500D01*
X259108778Y-146553500D01*
X259255725Y-146700447D01*
X259402672Y-146553500D01*
X259108778Y-146553500D01*
X258756640Y-146553500D01*
X258692736Y-146553500D01*
X258369720Y-146876516D01*
X257980299Y-146876516D01*
X257980299Y-146404500D01*
X257999984Y-146337461D01*
X258052788Y-146291706D01*
X258104299Y-146280500D01*
X269039300Y-146280500D01*
X269106339Y-146300185D01*
G37*
%TD.AperFunction*%
%TD*%
M02*
