%TF.GenerationSoftware,KiCad,Pcbnew,9.0.6-rc2*%
%TF.CreationDate,2025-11-19T20:35:17-08:00*%
%TF.ProjectId,FPCJr_Trigger_Board,4650434a-725f-4547-9269-676765725f42,rev?*%
%TF.SameCoordinates,Original*%
%TF.FileFunction,Profile,NP*%
%FSLAX46Y46*%
G04 Gerber Fmt 4.6, Leading zero omitted, Abs format (unit mm)*
G04 Created by KiCad (PCBNEW 9.0.6-rc2) date 2025-11-19 20:35:17*
%MOMM*%
%LPD*%
G01*
G04 APERTURE LIST*
%TA.AperFunction,Profile*%
%ADD10C,0.050000*%
%TD*%
G04 APERTURE END LIST*
D10*
X250079800Y-148530000D02*
G75*
G02*
X249729800Y-148180000I0J350000D01*
G01*
X228116961Y-159280161D02*
G75*
G02*
X228366961Y-159029961I250039J161D01*
G01*
X254729800Y-148880000D02*
X254729800Y-150392112D01*
X249879800Y-151130000D02*
G75*
G02*
X250229800Y-151480000I0J-350000D01*
G01*
X281592972Y-156530000D02*
G75*
G02*
X281843000Y-156779828I28J-250000D01*
G01*
X254729800Y-154892111D02*
X254729800Y-157392111D01*
X250229800Y-156280001D02*
G75*
G02*
X249979800Y-156530000I-250000J1D01*
G01*
X228117666Y-160373240D02*
X228116961Y-159280161D01*
X269413801Y-151130000D02*
X269413800Y-146030000D01*
X252379800Y-148529999D02*
X250079800Y-148530000D01*
X257479800Y-156530000D02*
G75*
G02*
X257229800Y-156280000I0J250000D01*
G01*
X254729800Y-150392112D02*
X252729800Y-150392111D01*
X249729800Y-148180000D02*
X249729800Y-146030000D01*
X257579799Y-151130000D02*
X269413801Y-151130000D01*
X257729800Y-148179999D02*
G75*
G02*
X257379800Y-148530000I-350000J-1D01*
G01*
X257729799Y-146030000D02*
X257729800Y-148179999D01*
X281845450Y-160373240D02*
X281842972Y-156779828D01*
X225616856Y-156780056D02*
G75*
G02*
X225866856Y-156530056I249944J56D01*
G01*
X257379800Y-148529999D02*
X255079800Y-148530000D01*
X252729800Y-150392111D02*
X252729800Y-148879999D01*
X257229800Y-156280000D02*
X257229799Y-151480000D01*
X225616856Y-156780056D02*
X225617666Y-160373240D01*
X252729800Y-151392112D02*
X254729800Y-151392112D01*
X254729800Y-157392111D02*
X252729800Y-157392112D01*
X252379800Y-148529999D02*
G75*
G02*
X252729801Y-148879999I0J-350001D01*
G01*
X249979800Y-156530001D02*
X225866856Y-156530000D01*
X254729800Y-158392112D02*
X254729800Y-158780000D01*
X252729800Y-158392113D02*
X254729800Y-158392112D01*
X254729800Y-151392112D02*
X254729800Y-153892113D01*
X257229799Y-151480000D02*
G75*
G02*
X257579799Y-151129999I350001J0D01*
G01*
X254729800Y-153892113D02*
X252729800Y-153892112D01*
X252729800Y-157392112D02*
X252729800Y-154892112D01*
X279093293Y-159030000D02*
G75*
G02*
X279343300Y-159279507I7J-250000D01*
G01*
X252729800Y-153892112D02*
X252729800Y-151392112D01*
X249729800Y-146030000D02*
X238045800Y-146029999D01*
X254729800Y-148880000D02*
G75*
G02*
X255079800Y-148530000I350000J0D01*
G01*
X281592972Y-156530000D02*
X257479800Y-156530000D01*
X279343292Y-159279507D02*
X279345450Y-160373240D01*
X238045800Y-151130000D02*
X249879800Y-151130000D01*
X238045800Y-146029999D02*
X238045800Y-151130000D01*
X252729800Y-158780001D02*
X252729800Y-158392113D01*
X269413800Y-146030000D02*
X257729799Y-146030000D01*
X252729800Y-158780001D02*
G75*
G02*
X252479800Y-159030000I-250000J1D01*
G01*
X228366961Y-159030000D02*
X252479800Y-159030001D01*
X254979800Y-159030000D02*
X279093293Y-159030000D01*
X250229800Y-151480000D02*
X250229800Y-156280001D01*
X254979800Y-159030000D02*
G75*
G02*
X254729800Y-158780000I0J250000D01*
G01*
X252729800Y-154892112D02*
X254729800Y-154892111D01*
%TO.C,J2*%
X279345450Y-164173240D02*
X279345450Y-160373240D01*
X281645451Y-164373240D02*
X279545449Y-164373240D01*
X281845450Y-160373240D02*
X281845450Y-164173240D01*
X279545449Y-164373240D02*
G75*
G02*
X279345450Y-164173240I1J200000D01*
G01*
X281845450Y-164173240D02*
G75*
G02*
X281645451Y-164373240I-200000J0D01*
G01*
%TO.C,J1*%
X225617666Y-164173240D02*
X225617666Y-160373240D01*
X227917667Y-164373240D02*
X225817665Y-164373240D01*
X228117666Y-160373240D02*
X228117666Y-164173240D01*
X225817665Y-164373240D02*
G75*
G02*
X225617666Y-164173240I1J200000D01*
G01*
X228117666Y-164173240D02*
G75*
G02*
X227917667Y-164373240I-200000J0D01*
G01*
%TD*%
M02*
