%TF.GenerationSoftware,KiCad,Pcbnew,9.0.6-rc2*%
%TF.CreationDate,2026-01-04T16:19:21-08:00*%
%TF.ProjectId,FPCJr_Trigger_Board,4650434a-725f-4547-9269-676765725f42,rev?*%
%TF.SameCoordinates,Original*%
%TF.FileFunction,Copper,L1,Top*%
%TF.FilePolarity,Positive*%
%FSLAX46Y46*%
G04 Gerber Fmt 4.6, Leading zero omitted, Abs format (unit mm)*
G04 Created by KiCad (PCBNEW 9.0.6-rc2) date 2026-01-04 16:19:21*
%MOMM*%
%LPD*%
G01*
G04 APERTURE LIST*
G04 Aperture macros list*
%AMRoundRect*
0 Rectangle with rounded corners*
0 $1 Rounding radius*
0 $2 $3 $4 $5 $6 $7 $8 $9 X,Y pos of 4 corners*
0 Add a 4 corners polygon primitive as box body*
4,1,4,$2,$3,$4,$5,$6,$7,$8,$9,$2,$3,0*
0 Add four circle primitives for the rounded corners*
1,1,$1+$1,$2,$3*
1,1,$1+$1,$4,$5*
1,1,$1+$1,$6,$7*
1,1,$1+$1,$8,$9*
0 Add four rect primitives between the rounded corners*
20,1,$1+$1,$2,$3,$4,$5,0*
20,1,$1+$1,$4,$5,$6,$7,0*
20,1,$1+$1,$6,$7,$8,$9,0*
20,1,$1+$1,$8,$9,$2,$3,0*%
G04 Aperture macros list end*
%TA.AperFunction,SMDPad,CuDef*%
%ADD10RoundRect,0.137500X-0.137500X0.525000X-0.137500X-0.525000X0.137500X-0.525000X0.137500X0.525000X0*%
%TD*%
%TA.AperFunction,SMDPad,CuDef*%
%ADD11RoundRect,0.100000X-0.100000X0.130000X-0.100000X-0.130000X0.100000X-0.130000X0.100000X0.130000X0*%
%TD*%
%TA.AperFunction,SMDPad,CuDef*%
%ADD12RoundRect,0.137500X0.137500X-0.525000X0.137500X0.525000X-0.137500X0.525000X-0.137500X-0.525000X0*%
%TD*%
%TA.AperFunction,ViaPad*%
%ADD13C,0.600000*%
%TD*%
%TA.AperFunction,Conductor*%
%ADD14C,0.200000*%
%TD*%
G04 APERTURE END LIST*
D10*
%TO.P,U1,1,VCC*%
%TO.N,+3V3L*%
X249498044Y-150086637D03*
%TO.P,U1,2,~{EN}*%
%TO.N,TRIGGER_EN_L*%
X251298044Y-150086637D03*
%TO.P,U1,3,GND*%
%TO.N,GNDL*%
X251298044Y-147811637D03*
%TO.P,U1,4,NC*%
%TO.N,unconnected-(U1-NC-Pad4)*%
X250398044Y-147811637D03*
%TO.P,U1,5,OUT*%
%TO.N,ADC_0*%
X249498044Y-147811637D03*
%TD*%
D11*
%TO.P,C1,1*%
%TO.N,GNDL*%
X248270200Y-149987887D03*
%TO.P,C1,2*%
%TO.N,+3V3L*%
X248270200Y-150627887D03*
%TD*%
%TO.P,C2,1*%
%TO.N,GND*%
X245560000Y-147290000D03*
%TO.P,C2,2*%
%TO.N,+3V3*%
X245560000Y-147930000D03*
%TD*%
D12*
%TO.P,U2,1,VCC*%
%TO.N,+3V3*%
X244261756Y-147823750D03*
%TO.P,U2,2,~{EN}*%
%TO.N,TRIGGER_EN_R*%
X242461756Y-147823750D03*
%TO.P,U2,3,GND*%
%TO.N,GND*%
X242461756Y-150098750D03*
%TO.P,U2,4,NC*%
%TO.N,unconnected-(U2-NC-Pad4)*%
X243361756Y-150098750D03*
%TO.P,U2,5,OUT*%
%TO.N,ADC_1*%
X244261756Y-150098750D03*
%TD*%
D13*
%TO.N,GND*%
X234460000Y-147030000D03*
X216364800Y-157276800D03*
X245390000Y-150570000D03*
X242247400Y-158496000D03*
X234670000Y-150130000D03*
X240610000Y-150280000D03*
%TO.N,TRIGGER_EN_L*%
X252930000Y-148590000D03*
%TO.N,+3V3*%
X243400000Y-147800000D03*
%TO.N,ADC_0*%
X248440000Y-147310000D03*
%TO.N,ADC_1*%
X241170000Y-149370000D03*
%TO.N,TRIGGER_EN_R*%
X241790000Y-147360000D03*
%TO.N,+3V3L*%
X253510000Y-147950000D03*
%TO.N,GNDL*%
X258340000Y-149200000D03*
X277579800Y-157112287D03*
X251595600Y-158509287D03*
X253340000Y-146720000D03*
X256750000Y-147550000D03*
X250380000Y-150310000D03*
%TD*%
D14*
%TO.N,TRIGGER_EN_L*%
X251298044Y-150086637D02*
X251298044Y-149661956D01*
X252190000Y-149330000D02*
X252930000Y-148590000D01*
X251630000Y-149330000D02*
X252190000Y-149330000D01*
X251298044Y-149661956D02*
X251630000Y-149330000D01*
%TO.N,+3V3*%
X244261756Y-147823750D02*
X245453750Y-147823750D01*
X245453750Y-147823750D02*
X245560000Y-147930000D01*
X243423750Y-147823750D02*
X244261756Y-147823750D01*
X243400000Y-147800000D02*
X243423750Y-147823750D01*
%TO.N,ADC_0*%
X248440000Y-147310000D02*
X249240313Y-147310000D01*
X249510237Y-147579924D02*
X249510237Y-147826518D01*
X249240313Y-147310000D02*
X249510237Y-147579924D01*
%TO.N,ADC_1*%
X241590000Y-148950000D02*
X243910000Y-148950000D01*
X244261756Y-149301756D02*
X244261756Y-150098750D01*
X243910000Y-148950000D02*
X244261756Y-149301756D01*
X241170000Y-149370000D02*
X241590000Y-148950000D01*
%TO.N,TRIGGER_EN_R*%
X242280000Y-147280000D02*
X242200000Y-147360000D01*
X242200000Y-147360000D02*
X241790000Y-147360000D01*
X242461756Y-147461756D02*
X242280000Y-147280000D01*
X242461756Y-147823750D02*
X242461756Y-147461756D01*
%TO.N,+3V3L*%
X249498044Y-149151956D02*
X249498044Y-150086637D01*
X248956794Y-150627887D02*
X248270200Y-150627887D01*
X249498044Y-150086637D02*
X248956794Y-150627887D01*
X251660000Y-148930000D02*
X249720000Y-148930000D01*
X252640000Y-147950000D02*
X251660000Y-148930000D01*
X253510000Y-147950000D02*
X252640000Y-147950000D01*
X249720000Y-148930000D02*
X249498044Y-149151956D01*
%TO.N,GNDL*%
X251298044Y-147811637D02*
X251298044Y-146881956D01*
X251460000Y-146720000D02*
X253340000Y-146720000D01*
X251298044Y-146881956D02*
X251400000Y-146780000D01*
X251400000Y-146780000D02*
X251460000Y-146720000D01*
%TD*%
%TA.AperFunction,Conductor*%
%TO.N,GND*%
G36*
X246012339Y-146300184D02*
G01*
X246058094Y-146352988D01*
X246069300Y-146404499D01*
X246069300Y-146494523D01*
X246049615Y-146561562D01*
X245996811Y-146607317D01*
X245927653Y-146617261D01*
X245897848Y-146609085D01*
X245816628Y-146575443D01*
X245760000Y-146567987D01*
X245760000Y-147166000D01*
X245740315Y-147233039D01*
X245687511Y-147278794D01*
X245636000Y-147290000D01*
X245484000Y-147290000D01*
X245416961Y-147270315D01*
X245371206Y-147217511D01*
X245360000Y-147166000D01*
X245360000Y-146567987D01*
X245303368Y-146575444D01*
X245157413Y-146635899D01*
X245032075Y-146732075D01*
X244935899Y-146857413D01*
X244875445Y-147003365D01*
X244875444Y-147003369D01*
X244874112Y-147013488D01*
X244845845Y-147077384D01*
X244787521Y-147115855D01*
X244717656Y-147116686D01*
X244663492Y-147084983D01*
X244596115Y-147017606D01*
X244556710Y-146999231D01*
X244488086Y-146967231D01*
X244488084Y-146967230D01*
X244438869Y-146960751D01*
X244438864Y-146960750D01*
X244438859Y-146960750D01*
X244438852Y-146960750D01*
X244084651Y-146960750D01*
X244035430Y-146967230D01*
X244035422Y-146967232D01*
X243927396Y-147017606D01*
X243843112Y-147101890D01*
X243792736Y-147209921D01*
X243787729Y-147247953D01*
X243759461Y-147311849D01*
X243701136Y-147350319D01*
X243631271Y-147351149D01*
X243602791Y-147339153D01*
X243593188Y-147333608D01*
X243508323Y-147310869D01*
X243465892Y-147299500D01*
X243334108Y-147299500D01*
X243206814Y-147333608D01*
X243206813Y-147333608D01*
X243206811Y-147333609D01*
X243206810Y-147333609D01*
X243123255Y-147381850D01*
X243055355Y-147398323D01*
X242989328Y-147375470D01*
X242946137Y-147320549D01*
X242937255Y-147274463D01*
X242937255Y-147259145D01*
X242931774Y-147217511D01*
X242930775Y-147209920D01*
X242880400Y-147101891D01*
X242796115Y-147017606D01*
X242688086Y-146967231D01*
X242688084Y-146967230D01*
X242638869Y-146960751D01*
X242638864Y-146960750D01*
X242638859Y-146960750D01*
X242638852Y-146960750D01*
X242284651Y-146960750D01*
X242235428Y-146967230D01*
X242235424Y-146967231D01*
X242223975Y-146972570D01*
X242154897Y-146983058D01*
X242105078Y-146962304D01*
X242104352Y-146963564D01*
X242097315Y-146959501D01*
X242097314Y-146959500D01*
X242040861Y-146926907D01*
X241983187Y-146893608D01*
X241919539Y-146876554D01*
X241855892Y-146859500D01*
X241724108Y-146859500D01*
X241596812Y-146893608D01*
X241482686Y-146959500D01*
X241482683Y-146959502D01*
X241389502Y-147052683D01*
X241389500Y-147052686D01*
X241323608Y-147166812D01*
X241293603Y-147278794D01*
X241289500Y-147294108D01*
X241289500Y-147425892D01*
X241298040Y-147457765D01*
X241323608Y-147553187D01*
X241356554Y-147610250D01*
X241389500Y-147667314D01*
X241482686Y-147760500D01*
X241596814Y-147826392D01*
X241724108Y-147860500D01*
X241724110Y-147860500D01*
X241862256Y-147860500D01*
X241929295Y-147880185D01*
X241975050Y-147932989D01*
X241986256Y-147984500D01*
X241986256Y-148388354D01*
X241992736Y-148437575D01*
X241992738Y-148437583D01*
X242009298Y-148473095D01*
X242019790Y-148542172D01*
X241991271Y-148605956D01*
X241932794Y-148644196D01*
X241896916Y-148649500D01*
X241550438Y-148649500D01*
X241474010Y-148669978D01*
X241405489Y-148709540D01*
X241281846Y-148833182D01*
X241220522Y-148866666D01*
X241194165Y-148869500D01*
X241104108Y-148869500D01*
X240976812Y-148903608D01*
X240862686Y-148969500D01*
X240862683Y-148969502D01*
X240769502Y-149062683D01*
X240769500Y-149062686D01*
X240703608Y-149176812D01*
X240672582Y-149292606D01*
X240669500Y-149304108D01*
X240669500Y-149435892D01*
X240671708Y-149444133D01*
X240703608Y-149563187D01*
X240733054Y-149614188D01*
X240769500Y-149677314D01*
X240862686Y-149770500D01*
X240976814Y-149836392D01*
X241104108Y-149870500D01*
X241104110Y-149870500D01*
X241235890Y-149870500D01*
X241235892Y-149870500D01*
X241363186Y-149836392D01*
X241477314Y-149770500D01*
X241477321Y-149770492D01*
X241483760Y-149765553D01*
X241485081Y-149767275D01*
X241536398Y-149739254D01*
X241606090Y-149744238D01*
X241662023Y-149786110D01*
X241684572Y-149846566D01*
X241686756Y-149848750D01*
X242337756Y-149848750D01*
X242404795Y-149868435D01*
X242450550Y-149921239D01*
X242461756Y-149972750D01*
X242461756Y-150098750D01*
X242587756Y-150098750D01*
X242654795Y-150118435D01*
X242700550Y-150171239D01*
X242711756Y-150222750D01*
X242711756Y-150783480D01*
X242692071Y-150850519D01*
X242639267Y-150896274D01*
X242635213Y-150898039D01*
X242607278Y-150909611D01*
X242587901Y-150917637D01*
X242517436Y-150988102D01*
X242479300Y-151080170D01*
X242479300Y-153830189D01*
X242479210Y-153831102D01*
X242479300Y-153892132D01*
X242479300Y-153941951D01*
X242479367Y-153942290D01*
X242479372Y-153942304D01*
X242479373Y-153942305D01*
X242498458Y-153988192D01*
X242498527Y-153988358D01*
X242517439Y-154034016D01*
X242517643Y-154034320D01*
X242552927Y-154069500D01*
X242553057Y-154069630D01*
X242587900Y-154104474D01*
X242588211Y-154104681D01*
X242588213Y-154104683D01*
X242593231Y-154106752D01*
X242647697Y-154150514D01*
X242669857Y-154216777D01*
X242669940Y-154220511D01*
X242672332Y-154561050D01*
X242653119Y-154628226D01*
X242600637Y-154674351D01*
X242595809Y-154676472D01*
X242587903Y-154679748D01*
X242587902Y-154679748D01*
X242587892Y-154679753D01*
X242587601Y-154679947D01*
X242587593Y-154679954D01*
X242587593Y-154679955D01*
X242552410Y-154715240D01*
X242552410Y-154715241D01*
X242517433Y-154750217D01*
X242517232Y-154750516D01*
X242498417Y-154796129D01*
X242498349Y-154796294D01*
X242479298Y-154842287D01*
X242479289Y-154842338D01*
X242479227Y-154842645D01*
X242479300Y-154892133D01*
X242479300Y-157441939D01*
X242479393Y-157442409D01*
X242479530Y-157442740D01*
X242479531Y-157442741D01*
X242503181Y-157499596D01*
X242503218Y-157499781D01*
X242503253Y-157499767D01*
X242503253Y-157499768D01*
X242517436Y-157534009D01*
X242517645Y-157534513D01*
X242517804Y-157534750D01*
X242517805Y-157534751D01*
X242517806Y-157534753D01*
X242588379Y-157605113D01*
X242617872Y-157617277D01*
X242672342Y-157661036D01*
X242694507Y-157727297D01*
X242694590Y-157731039D01*
X242696836Y-158050900D01*
X242677623Y-158118076D01*
X242625141Y-158164201D01*
X242620296Y-158166330D01*
X242587894Y-158179752D01*
X242587601Y-158179948D01*
X242587593Y-158179955D01*
X242587593Y-158179956D01*
X242552410Y-158215241D01*
X242552410Y-158215242D01*
X242517433Y-158250218D01*
X242517232Y-158250517D01*
X242498417Y-158296130D01*
X242498349Y-158296295D01*
X242479298Y-158342288D01*
X242479289Y-158342339D01*
X242479227Y-158342646D01*
X242479300Y-158392134D01*
X242479300Y-158655500D01*
X242459615Y-158722539D01*
X242406811Y-158768294D01*
X242355300Y-158779500D01*
X218311049Y-158779500D01*
X218310603Y-158779550D01*
X218200599Y-158804644D01*
X218200594Y-158804645D01*
X218098935Y-158853602D01*
X218010728Y-158923965D01*
X218010718Y-158923975D01*
X217940403Y-159012196D01*
X217940397Y-159012205D01*
X217891478Y-159113886D01*
X217866428Y-159223903D01*
X217866424Y-159223935D01*
X217867005Y-160124520D01*
X217847364Y-160191572D01*
X217794589Y-160237361D01*
X217743005Y-160248600D01*
X215992109Y-160248600D01*
X215925070Y-160228915D01*
X215879315Y-160176111D01*
X215868109Y-160124628D01*
X215867943Y-159388135D01*
X216140942Y-159388135D01*
X216141026Y-159764302D01*
X216329067Y-159576262D01*
X216681207Y-159576262D01*
X216954545Y-159849600D01*
X217117805Y-159849600D01*
X217391143Y-159576262D01*
X217036175Y-159221294D01*
X216681207Y-159576262D01*
X216329067Y-159576262D01*
X216329068Y-159576261D01*
X216140942Y-159388135D01*
X215867943Y-159388135D01*
X215867904Y-159216335D01*
X215867866Y-159045224D01*
X216150169Y-159045224D01*
X216505138Y-159400193D01*
X216860106Y-159045225D01*
X217212244Y-159045225D01*
X217567211Y-159400192D01*
X217593520Y-159373883D01*
X217593422Y-159221177D01*
X217593426Y-159221026D01*
X217593425Y-159216335D01*
X217593617Y-159209406D01*
X217593695Y-159208007D01*
X217594275Y-159201091D01*
X217595983Y-159185860D01*
X217596949Y-159178993D01*
X217597183Y-159177610D01*
X217598540Y-159170766D01*
X217626996Y-159045796D01*
X217628739Y-159039027D01*
X217629127Y-159037679D01*
X217631225Y-159031087D01*
X217636283Y-159016607D01*
X217638766Y-159010094D01*
X217639303Y-159008796D01*
X217642143Y-159002441D01*
X217697712Y-158886938D01*
X217700899Y-158880763D01*
X217701577Y-158879535D01*
X217705116Y-158873531D01*
X217713273Y-158860540D01*
X217717141Y-158854747D01*
X217717953Y-158853602D01*
X217722132Y-158848047D01*
X217723404Y-158846449D01*
X217567212Y-158690257D01*
X217212244Y-159045225D01*
X216860106Y-159045225D01*
X216505137Y-158690256D01*
X216150169Y-159045224D01*
X215867866Y-159045224D01*
X215867704Y-158325823D01*
X216140703Y-158325823D01*
X216140788Y-158702467D01*
X216329067Y-158514188D01*
X216681207Y-158514188D01*
X217036175Y-158869156D01*
X217391143Y-158514188D01*
X217743281Y-158514188D01*
X217895643Y-158666550D01*
X217934686Y-158635406D01*
X217940241Y-158631224D01*
X217941385Y-158630412D01*
X217947173Y-158626544D01*
X217960161Y-158618381D01*
X217966180Y-158614830D01*
X217967409Y-158614151D01*
X217973571Y-158610968D01*
X218089052Y-158555354D01*
X218095389Y-158552519D01*
X218096685Y-158551982D01*
X218103204Y-158549493D01*
X218117682Y-158544428D01*
X218124272Y-158542327D01*
X218125621Y-158541938D01*
X218132400Y-158540189D01*
X218257361Y-158511683D01*
X218264167Y-158510329D01*
X218265550Y-158510094D01*
X218272452Y-158509120D01*
X218287688Y-158507405D01*
X218294655Y-158506819D01*
X218296054Y-158506741D01*
X218302538Y-158506560D01*
X218303783Y-158506500D01*
X218445529Y-158506500D01*
X218813044Y-158506500D01*
X219507604Y-158506500D01*
X219875118Y-158506500D01*
X220569678Y-158506500D01*
X220937192Y-158506500D01*
X221631752Y-158506500D01*
X221999267Y-158506500D01*
X222693827Y-158506500D01*
X223061341Y-158506500D01*
X223755901Y-158506500D01*
X224123415Y-158506500D01*
X224817976Y-158506500D01*
X225185490Y-158506500D01*
X225880050Y-158506500D01*
X226247564Y-158506500D01*
X226942124Y-158506500D01*
X227309639Y-158506500D01*
X228004199Y-158506500D01*
X228371713Y-158506500D01*
X229066273Y-158506500D01*
X229433787Y-158506500D01*
X230128348Y-158506500D01*
X230495862Y-158506500D01*
X231190422Y-158506500D01*
X231557936Y-158506500D01*
X232252496Y-158506500D01*
X232620011Y-158506500D01*
X233314571Y-158506500D01*
X233682085Y-158506500D01*
X234376645Y-158506500D01*
X234744159Y-158506500D01*
X235438719Y-158506500D01*
X235806234Y-158506500D01*
X236500794Y-158506500D01*
X236868308Y-158506500D01*
X237562868Y-158506500D01*
X237930382Y-158506500D01*
X238624943Y-158506500D01*
X238992457Y-158506500D01*
X239687017Y-158506500D01*
X240054531Y-158506500D01*
X240749091Y-158506500D01*
X241116606Y-158506500D01*
X241698400Y-158506500D01*
X241698400Y-158440048D01*
X241702625Y-158407955D01*
X241704737Y-158400071D01*
X241463886Y-158159220D01*
X241116606Y-158506500D01*
X240749091Y-158506500D01*
X240401811Y-158159220D01*
X240054531Y-158506500D01*
X239687017Y-158506500D01*
X239339737Y-158159220D01*
X238992457Y-158506500D01*
X238624943Y-158506500D01*
X238277662Y-158159219D01*
X237930382Y-158506500D01*
X237562868Y-158506500D01*
X237215588Y-158159220D01*
X236868308Y-158506500D01*
X236500794Y-158506500D01*
X236153514Y-158159220D01*
X235806234Y-158506500D01*
X235438719Y-158506500D01*
X235091439Y-158159220D01*
X234744159Y-158506500D01*
X234376645Y-158506500D01*
X234029365Y-158159220D01*
X233682085Y-158506500D01*
X233314571Y-158506500D01*
X232967291Y-158159220D01*
X232620011Y-158506500D01*
X232252496Y-158506500D01*
X231905216Y-158159220D01*
X231557936Y-158506500D01*
X231190422Y-158506500D01*
X230843142Y-158159220D01*
X230495862Y-158506500D01*
X230128348Y-158506500D01*
X229781067Y-158159219D01*
X229433787Y-158506500D01*
X229066273Y-158506500D01*
X228718993Y-158159220D01*
X228371713Y-158506500D01*
X228004199Y-158506500D01*
X227656919Y-158159220D01*
X227309639Y-158506500D01*
X226942124Y-158506500D01*
X226594844Y-158159220D01*
X226247564Y-158506500D01*
X225880050Y-158506500D01*
X225532770Y-158159220D01*
X225185490Y-158506500D01*
X224817976Y-158506500D01*
X224470695Y-158159219D01*
X224123415Y-158506500D01*
X223755901Y-158506500D01*
X223408621Y-158159220D01*
X223061341Y-158506500D01*
X222693827Y-158506500D01*
X222346547Y-158159220D01*
X221999267Y-158506500D01*
X221631752Y-158506500D01*
X221284472Y-158159220D01*
X220937192Y-158506500D01*
X220569678Y-158506500D01*
X220222398Y-158159220D01*
X219875118Y-158506500D01*
X219507604Y-158506500D01*
X219160324Y-158159220D01*
X218813044Y-158506500D01*
X218445529Y-158506500D01*
X218098249Y-158159220D01*
X217743281Y-158514188D01*
X217391143Y-158514188D01*
X217036175Y-158159220D01*
X216681207Y-158514188D01*
X216329067Y-158514188D01*
X216329068Y-158514187D01*
X216140703Y-158325823D01*
X215867704Y-158325823D01*
X215867627Y-157983149D01*
X216150169Y-157983149D01*
X216505138Y-158338118D01*
X216860106Y-157983150D01*
X217212243Y-157983150D01*
X217567212Y-158338118D01*
X217922180Y-157983150D01*
X218274317Y-157983150D01*
X218629286Y-158338118D01*
X218984254Y-157983150D01*
X219336392Y-157983150D01*
X219691361Y-158338118D01*
X220046329Y-157983150D01*
X220398466Y-157983150D01*
X220753435Y-158338118D01*
X221108403Y-157983150D01*
X221460541Y-157983150D01*
X221815509Y-158338118D01*
X222170478Y-157983150D01*
X222522615Y-157983150D01*
X222877584Y-158338118D01*
X223232552Y-157983150D01*
X223584689Y-157983150D01*
X223939658Y-158338118D01*
X224294626Y-157983150D01*
X224646764Y-157983150D01*
X225001733Y-158338118D01*
X225356701Y-157983150D01*
X225708838Y-157983150D01*
X226063807Y-158338118D01*
X226418775Y-157983150D01*
X226770913Y-157983150D01*
X227125881Y-158338118D01*
X227480850Y-157983150D01*
X227832987Y-157983150D01*
X228187956Y-158338118D01*
X228542924Y-157983150D01*
X228895061Y-157983150D01*
X229250030Y-158338118D01*
X229604998Y-157983150D01*
X229957136Y-157983150D01*
X230312105Y-158338118D01*
X230667073Y-157983150D01*
X231019210Y-157983150D01*
X231374179Y-158338118D01*
X231729147Y-157983150D01*
X232081284Y-157983150D01*
X232436253Y-158338118D01*
X232791221Y-157983150D01*
X233143359Y-157983150D01*
X233498328Y-158338118D01*
X233853296Y-157983150D01*
X234205433Y-157983150D01*
X234560402Y-158338118D01*
X234915370Y-157983150D01*
X235267508Y-157983150D01*
X235622477Y-158338118D01*
X235977445Y-157983150D01*
X236329582Y-157983150D01*
X236684551Y-158338118D01*
X237039519Y-157983150D01*
X237391656Y-157983150D01*
X237746625Y-158338118D01*
X238101593Y-157983150D01*
X238453731Y-157983150D01*
X238808700Y-158338118D01*
X239163668Y-157983150D01*
X239515805Y-157983150D01*
X239870774Y-158338118D01*
X240225742Y-157983150D01*
X240577880Y-157983150D01*
X240932848Y-158338118D01*
X241287817Y-157983150D01*
X241639955Y-157983150D01*
X241812919Y-158156114D01*
X241819635Y-158147363D01*
X241898763Y-158068235D01*
X241924443Y-158048529D01*
X242021355Y-157992576D01*
X242051263Y-157980188D01*
X242159355Y-157951225D01*
X242191448Y-157947000D01*
X242297097Y-157947000D01*
X242296979Y-157930238D01*
X241994923Y-157628182D01*
X241639955Y-157983150D01*
X241287817Y-157983150D01*
X240932848Y-157628181D01*
X240577880Y-157983150D01*
X240225742Y-157983150D01*
X239870774Y-157628182D01*
X239515805Y-157983150D01*
X239163668Y-157983150D01*
X238808700Y-157628182D01*
X238453731Y-157983150D01*
X238101593Y-157983150D01*
X237746625Y-157628182D01*
X237391656Y-157983150D01*
X237039519Y-157983150D01*
X236684551Y-157628182D01*
X236329582Y-157983150D01*
X235977445Y-157983150D01*
X235622477Y-157628182D01*
X235267508Y-157983150D01*
X234915370Y-157983150D01*
X234560402Y-157628182D01*
X234205433Y-157983150D01*
X233853296Y-157983150D01*
X233498328Y-157628182D01*
X233143359Y-157983150D01*
X232791221Y-157983150D01*
X232436253Y-157628181D01*
X232081284Y-157983150D01*
X231729147Y-157983150D01*
X231374179Y-157628182D01*
X231019210Y-157983150D01*
X230667073Y-157983150D01*
X230312105Y-157628182D01*
X229957136Y-157983150D01*
X229604998Y-157983150D01*
X229250030Y-157628182D01*
X228895061Y-157983150D01*
X228542924Y-157983150D01*
X228187956Y-157628182D01*
X227832987Y-157983150D01*
X227480850Y-157983150D01*
X227125881Y-157628181D01*
X226770913Y-157983150D01*
X226418775Y-157983150D01*
X226063807Y-157628182D01*
X225708838Y-157983150D01*
X225356701Y-157983150D01*
X225001733Y-157628182D01*
X224646764Y-157983150D01*
X224294626Y-157983150D01*
X223939658Y-157628182D01*
X223584689Y-157983150D01*
X223232552Y-157983150D01*
X222877584Y-157628182D01*
X222522615Y-157983150D01*
X222170478Y-157983150D01*
X221815509Y-157628181D01*
X221460541Y-157983150D01*
X221108403Y-157983150D01*
X220753435Y-157628182D01*
X220398466Y-157983150D01*
X220046329Y-157983150D01*
X219691361Y-157628182D01*
X219336392Y-157983150D01*
X218984254Y-157983150D01*
X218629286Y-157628181D01*
X218274317Y-157983150D01*
X217922180Y-157983150D01*
X217567212Y-157628182D01*
X217212243Y-157983150D01*
X216860106Y-157983150D01*
X216632899Y-157755943D01*
X216590845Y-157780224D01*
X216560937Y-157792612D01*
X216452845Y-157821575D01*
X216420752Y-157825800D01*
X216308848Y-157825800D01*
X216307673Y-157825645D01*
X216150169Y-157983149D01*
X215867627Y-157983149D01*
X215867538Y-157589245D01*
X216818339Y-157589245D01*
X217036175Y-157807081D01*
X217391143Y-157452113D01*
X217743281Y-157452113D01*
X218098249Y-157807081D01*
X218453217Y-157452113D01*
X218805356Y-157452113D01*
X219160324Y-157807081D01*
X219515292Y-157452113D01*
X219867430Y-157452113D01*
X220222398Y-157807081D01*
X220577366Y-157452113D01*
X220929504Y-157452113D01*
X221284472Y-157807081D01*
X221639440Y-157452113D01*
X221991579Y-157452113D01*
X222346547Y-157807081D01*
X222701515Y-157452113D01*
X223053653Y-157452113D01*
X223408621Y-157807081D01*
X223763589Y-157452113D01*
X224115727Y-157452113D01*
X224470695Y-157807081D01*
X224825664Y-157452113D01*
X225177802Y-157452113D01*
X225532770Y-157807081D01*
X225887738Y-157452113D01*
X226239876Y-157452113D01*
X226594844Y-157807081D01*
X226949812Y-157452113D01*
X227301951Y-157452113D01*
X227656919Y-157807081D01*
X228011887Y-157452113D01*
X228364025Y-157452113D01*
X228718993Y-157807081D01*
X229073961Y-157452113D01*
X229426099Y-157452113D01*
X229781067Y-157807081D01*
X230136035Y-157452113D01*
X230488174Y-157452113D01*
X230843142Y-157807081D01*
X231198110Y-157452113D01*
X231550248Y-157452113D01*
X231905216Y-157807081D01*
X232260184Y-157452113D01*
X232612323Y-157452113D01*
X232967291Y-157807081D01*
X233322259Y-157452113D01*
X233674397Y-157452113D01*
X234029365Y-157807081D01*
X234384333Y-157452113D01*
X234736471Y-157452113D01*
X235091439Y-157807081D01*
X235446407Y-157452113D01*
X235798546Y-157452113D01*
X236153514Y-157807081D01*
X236508482Y-157452113D01*
X236860620Y-157452113D01*
X237215588Y-157807081D01*
X237570556Y-157452113D01*
X237922694Y-157452113D01*
X238277662Y-157807081D01*
X238632631Y-157452113D01*
X238984769Y-157452113D01*
X239339737Y-157807081D01*
X239694705Y-157452113D01*
X240046843Y-157452113D01*
X240401811Y-157807081D01*
X240756779Y-157452113D01*
X241108918Y-157452113D01*
X241463886Y-157807081D01*
X241818854Y-157452113D01*
X241463886Y-157097145D01*
X241108918Y-157452113D01*
X240756779Y-157452113D01*
X240401811Y-157097145D01*
X240046843Y-157452113D01*
X239694705Y-157452113D01*
X239339737Y-157097145D01*
X238984769Y-157452113D01*
X238632631Y-157452113D01*
X238277662Y-157097144D01*
X237922694Y-157452113D01*
X237570556Y-157452113D01*
X237215588Y-157097145D01*
X236860620Y-157452113D01*
X236508482Y-157452113D01*
X236153514Y-157097145D01*
X235798546Y-157452113D01*
X235446407Y-157452113D01*
X235091439Y-157097145D01*
X234736471Y-157452113D01*
X234384333Y-157452113D01*
X234029365Y-157097145D01*
X233674397Y-157452113D01*
X233322259Y-157452113D01*
X232967291Y-157097145D01*
X232612323Y-157452113D01*
X232260184Y-157452113D01*
X231905216Y-157097145D01*
X231550248Y-157452113D01*
X231198110Y-157452113D01*
X230843142Y-157097145D01*
X230488174Y-157452113D01*
X230136035Y-157452113D01*
X229781067Y-157097144D01*
X229426099Y-157452113D01*
X229073961Y-157452113D01*
X228718993Y-157097145D01*
X228364025Y-157452113D01*
X228011887Y-157452113D01*
X227656919Y-157097145D01*
X227301951Y-157452113D01*
X226949812Y-157452113D01*
X226594844Y-157097145D01*
X226239876Y-157452113D01*
X225887738Y-157452113D01*
X225532770Y-157097145D01*
X225177802Y-157452113D01*
X224825664Y-157452113D01*
X224470695Y-157097144D01*
X224115727Y-157452113D01*
X223763589Y-157452113D01*
X223408621Y-157097145D01*
X223053653Y-157452113D01*
X222701515Y-157452113D01*
X222346547Y-157097145D01*
X221991579Y-157452113D01*
X221639440Y-157452113D01*
X221284472Y-157097145D01*
X220929504Y-157452113D01*
X220577366Y-157452113D01*
X220222398Y-157097145D01*
X219867430Y-157452113D01*
X219515292Y-157452113D01*
X219160324Y-157097145D01*
X218805356Y-157452113D01*
X218453217Y-157452113D01*
X218098249Y-157097145D01*
X217743281Y-157452113D01*
X217391143Y-157452113D01*
X217036174Y-157097144D01*
X216913645Y-157219673D01*
X216913800Y-157220848D01*
X216913800Y-157332752D01*
X216909575Y-157364845D01*
X216880612Y-157472937D01*
X216868224Y-157502845D01*
X216818339Y-157589245D01*
X215867538Y-157589245D01*
X215867420Y-157064667D01*
X215867417Y-157053500D01*
X217344668Y-157053500D01*
X217567212Y-157276044D01*
X217789756Y-157053500D01*
X218406742Y-157053500D01*
X218629286Y-157276044D01*
X218851831Y-157053500D01*
X219468817Y-157053500D01*
X219691361Y-157276044D01*
X219913905Y-157053500D01*
X220530891Y-157053500D01*
X220753435Y-157276044D01*
X220975979Y-157053500D01*
X221592965Y-157053500D01*
X221815509Y-157276044D01*
X222038054Y-157053500D01*
X222655040Y-157053500D01*
X222877584Y-157276044D01*
X223100128Y-157053500D01*
X223717114Y-157053500D01*
X223939658Y-157276044D01*
X224162202Y-157053500D01*
X224779189Y-157053500D01*
X225001733Y-157276044D01*
X225224277Y-157053500D01*
X225841263Y-157053500D01*
X226063807Y-157276044D01*
X226286351Y-157053500D01*
X226903337Y-157053500D01*
X227125881Y-157276044D01*
X227348426Y-157053500D01*
X227965412Y-157053500D01*
X228187956Y-157276044D01*
X228410500Y-157053500D01*
X229027486Y-157053500D01*
X229250030Y-157276044D01*
X229472574Y-157053500D01*
X230089561Y-157053500D01*
X230312105Y-157276044D01*
X230534649Y-157053500D01*
X231151635Y-157053500D01*
X231374179Y-157276044D01*
X231596723Y-157053500D01*
X232213709Y-157053500D01*
X232436253Y-157276044D01*
X232658798Y-157053500D01*
X233275784Y-157053500D01*
X233498328Y-157276044D01*
X233720872Y-157053500D01*
X234337858Y-157053500D01*
X234560402Y-157276044D01*
X234782946Y-157053500D01*
X235399933Y-157053500D01*
X235622477Y-157276044D01*
X235845021Y-157053500D01*
X236462007Y-157053500D01*
X236684551Y-157276044D01*
X236907095Y-157053500D01*
X237524081Y-157053500D01*
X237746625Y-157276044D01*
X237969169Y-157053500D01*
X238586156Y-157053500D01*
X238808700Y-157276044D01*
X239031244Y-157053500D01*
X239648230Y-157053500D01*
X239870774Y-157276044D01*
X240101115Y-157045702D01*
X240089469Y-157048361D01*
X240082634Y-157049720D01*
X240081250Y-157049955D01*
X240074364Y-157050927D01*
X240064312Y-157052058D01*
X240062808Y-157052324D01*
X240059917Y-157052662D01*
X240045487Y-157053501D01*
X240041521Y-157053500D01*
X240041517Y-157053501D01*
X239908054Y-157053501D01*
X239908046Y-157053500D01*
X239648230Y-157053500D01*
X239031244Y-157053500D01*
X238586156Y-157053500D01*
X237969169Y-157053500D01*
X237524081Y-157053500D01*
X236907095Y-157053500D01*
X236462007Y-157053500D01*
X235845021Y-157053500D01*
X235399933Y-157053500D01*
X234782946Y-157053500D01*
X234337858Y-157053500D01*
X233720872Y-157053500D01*
X233275784Y-157053500D01*
X232658798Y-157053500D01*
X232213709Y-157053500D01*
X231596723Y-157053500D01*
X231151635Y-157053500D01*
X230534649Y-157053500D01*
X230089561Y-157053500D01*
X229472574Y-157053500D01*
X229027486Y-157053500D01*
X228410500Y-157053500D01*
X227965412Y-157053500D01*
X227348426Y-157053500D01*
X226903337Y-157053500D01*
X226286351Y-157053500D01*
X225841263Y-157053500D01*
X225224277Y-157053500D01*
X224779189Y-157053500D01*
X224162202Y-157053500D01*
X223717114Y-157053500D01*
X223100128Y-157053500D01*
X222655040Y-157053500D01*
X222038054Y-157053500D01*
X221592965Y-157053500D01*
X220975979Y-157053500D01*
X220530891Y-157053500D01*
X219913905Y-157053500D01*
X219468817Y-157053500D01*
X218851831Y-157053500D01*
X218406742Y-157053500D01*
X217789756Y-157053500D01*
X217344668Y-157053500D01*
X215867417Y-157053500D01*
X215867388Y-156921076D01*
X240577880Y-156921076D01*
X240932848Y-157276044D01*
X241287817Y-156921076D01*
X241639955Y-156921076D01*
X241994923Y-157276044D01*
X242206300Y-157064667D01*
X242206300Y-156777485D01*
X241994923Y-156566108D01*
X241639955Y-156921076D01*
X241287817Y-156921076D01*
X240932848Y-156566107D01*
X240577880Y-156921076D01*
X215867388Y-156921076D01*
X215867384Y-156904528D01*
X215887053Y-156837484D01*
X215939847Y-156791717D01*
X215991384Y-156780500D01*
X239910963Y-156780500D01*
X239910967Y-156780501D01*
X240031162Y-156780501D01*
X240031162Y-156780502D01*
X240031172Y-156780500D01*
X240036193Y-156780500D01*
X240146150Y-156755403D01*
X240247766Y-156706467D01*
X240335946Y-156636147D01*
X240406266Y-156547968D01*
X240455202Y-156446352D01*
X240468056Y-156390039D01*
X241108918Y-156390039D01*
X241463886Y-156745007D01*
X241818854Y-156390039D01*
X241463886Y-156035071D01*
X241108918Y-156390039D01*
X240468056Y-156390039D01*
X240480300Y-156336395D01*
X240480300Y-156280002D01*
X240480300Y-156235832D01*
X240480300Y-155683582D01*
X240753300Y-155683582D01*
X240753300Y-156034421D01*
X240932849Y-156213970D01*
X241287817Y-155859002D01*
X241639955Y-155859002D01*
X241994923Y-156213970D01*
X242206300Y-156002593D01*
X242206300Y-155715411D01*
X241994923Y-155504034D01*
X241639955Y-155859002D01*
X241287817Y-155859002D01*
X240932848Y-155504033D01*
X240753300Y-155683582D01*
X240480300Y-155683582D01*
X240480300Y-155327964D01*
X241108917Y-155327964D01*
X241463886Y-155682932D01*
X241818854Y-155327964D01*
X241463886Y-154972996D01*
X241108917Y-155327964D01*
X240480300Y-155327964D01*
X240480300Y-154621507D01*
X240753300Y-154621507D01*
X240753300Y-154972346D01*
X240932849Y-155151895D01*
X241287817Y-154796927D01*
X241639955Y-154796927D01*
X241994923Y-155151895D01*
X242206300Y-154940518D01*
X242206300Y-154892531D01*
X242206208Y-154829638D01*
X242206784Y-154817514D01*
X242207020Y-154815075D01*
X242207130Y-154814318D01*
X242207142Y-154814205D01*
X242207530Y-154811590D01*
X242208776Y-154803083D01*
X242208848Y-154802717D01*
X242208922Y-154802218D01*
X242211488Y-154789309D01*
X242213963Y-154776746D01*
X242214096Y-154776205D01*
X242214095Y-154776205D01*
X242214183Y-154775764D01*
X242215837Y-154769173D01*
X242216828Y-154765172D01*
X242216901Y-154764928D01*
X242216903Y-154764928D01*
X242217140Y-154763985D01*
X242217853Y-154761638D01*
X242221937Y-154750232D01*
X242245736Y-154692772D01*
X241994923Y-154441959D01*
X241639955Y-154796927D01*
X241287817Y-154796927D01*
X240932848Y-154441958D01*
X240753300Y-154621507D01*
X240480300Y-154621507D01*
X240480300Y-154265890D01*
X241108918Y-154265890D01*
X241463886Y-154620858D01*
X241818854Y-154265890D01*
X241463886Y-153910922D01*
X241108918Y-154265890D01*
X240480300Y-154265890D01*
X240480300Y-153559433D01*
X240753300Y-153559433D01*
X240753300Y-153910272D01*
X240932849Y-154089821D01*
X241287817Y-153734853D01*
X241639955Y-153734853D01*
X241994923Y-154089821D01*
X242206279Y-153878464D01*
X242206208Y-153829638D01*
X242206300Y-153827702D01*
X242206300Y-153591262D01*
X241994923Y-153379885D01*
X241639955Y-153734853D01*
X241287817Y-153734853D01*
X240932848Y-153379884D01*
X240753300Y-153559433D01*
X240480300Y-153559433D01*
X240480300Y-153203816D01*
X241108918Y-153203816D01*
X241463886Y-153558784D01*
X241818854Y-153203816D01*
X241463886Y-152848848D01*
X241108918Y-153203816D01*
X240480300Y-153203816D01*
X240480300Y-152497359D01*
X240753300Y-152497359D01*
X240753300Y-152848198D01*
X240932849Y-153027747D01*
X241287817Y-152672778D01*
X241639954Y-152672778D01*
X241994923Y-153027747D01*
X242206300Y-152816370D01*
X242206300Y-152529187D01*
X241994923Y-152317810D01*
X241639954Y-152672778D01*
X241287817Y-152672778D01*
X240932848Y-152317810D01*
X240753300Y-152497359D01*
X240480300Y-152497359D01*
X240480300Y-152141741D01*
X241108918Y-152141741D01*
X241463886Y-152496709D01*
X241818854Y-152141741D01*
X241463886Y-151786773D01*
X241108918Y-152141741D01*
X240480300Y-152141741D01*
X240480300Y-151435284D01*
X240753300Y-151435284D01*
X240753300Y-151786123D01*
X240932849Y-151965672D01*
X241287817Y-151610704D01*
X241287816Y-151610703D01*
X241639954Y-151610703D01*
X241994923Y-151965672D01*
X242206300Y-151754295D01*
X242206300Y-151536299D01*
X242200754Y-151536016D01*
X241984652Y-151473233D01*
X241977277Y-151470838D01*
X241975798Y-151470306D01*
X241968521Y-151467426D01*
X241952759Y-151460605D01*
X241945670Y-151457268D01*
X241944270Y-151456554D01*
X241937486Y-151452822D01*
X241849732Y-151400925D01*
X241639954Y-151610703D01*
X241287816Y-151610703D01*
X240932849Y-151255736D01*
X240753300Y-151435284D01*
X240480300Y-151435284D01*
X240480300Y-151430172D01*
X240480300Y-151412340D01*
X240480299Y-151412338D01*
X240480299Y-151412333D01*
X240450191Y-151280419D01*
X240450189Y-151280416D01*
X240450189Y-151280412D01*
X240391475Y-151158493D01*
X240329017Y-151080172D01*
X240307105Y-151052694D01*
X240206177Y-150972209D01*
X240201307Y-150968325D01*
X240201305Y-150968324D01*
X240201304Y-150968323D01*
X240079388Y-150909611D01*
X240079380Y-150909608D01*
X239947466Y-150879500D01*
X239947460Y-150879500D01*
X239929628Y-150879500D01*
X233420300Y-150879500D01*
X233353261Y-150859815D01*
X233307506Y-150807011D01*
X233305858Y-150799435D01*
X240427384Y-150799435D01*
X240483309Y-150844032D01*
X240488637Y-150848531D01*
X240489683Y-150849466D01*
X240494725Y-150854234D01*
X240505566Y-150865075D01*
X240510334Y-150870117D01*
X240511269Y-150871163D01*
X240515768Y-150876491D01*
X240609695Y-150994275D01*
X240613865Y-150999814D01*
X240614677Y-151000958D01*
X240618552Y-151006757D01*
X240626708Y-151019737D01*
X240630231Y-151025708D01*
X240630910Y-151026936D01*
X240634114Y-151033137D01*
X240689109Y-151147336D01*
X240756777Y-151079667D01*
X241108918Y-151079667D01*
X241463885Y-151434634D01*
X241655692Y-151242828D01*
X241617416Y-151204552D01*
X241612106Y-151198899D01*
X241611066Y-151197720D01*
X241606078Y-151191693D01*
X241595552Y-151178123D01*
X241590955Y-151171794D01*
X241590072Y-151170494D01*
X241585916Y-151163942D01*
X241495184Y-151010520D01*
X241491452Y-151003736D01*
X241490738Y-151002336D01*
X241487402Y-150995250D01*
X241480581Y-150979489D01*
X241477700Y-150972209D01*
X241477168Y-150970730D01*
X241474772Y-150963355D01*
X241425494Y-150793737D01*
X241423900Y-150787684D01*
X241423606Y-150786441D01*
X241422294Y-150780173D01*
X241420150Y-150768434D01*
X241108918Y-151079667D01*
X240756777Y-151079667D01*
X240756778Y-151079666D01*
X240494541Y-150817429D01*
X240427384Y-150799435D01*
X233305858Y-150799435D01*
X233303864Y-150790268D01*
X240819519Y-150790268D01*
X240932848Y-150903598D01*
X241148304Y-150688143D01*
X241686757Y-150688143D01*
X241689600Y-150724271D01*
X241734535Y-150878939D01*
X241734536Y-150878942D01*
X241816526Y-151017581D01*
X241816532Y-151017589D01*
X241930416Y-151131473D01*
X241930424Y-151131479D01*
X242069061Y-151213468D01*
X242211756Y-151254924D01*
X242211756Y-150348750D01*
X241686757Y-150348750D01*
X241686757Y-150688143D01*
X241148304Y-150688143D01*
X241287817Y-150548630D01*
X241144728Y-150405541D01*
X241125812Y-150476137D01*
X241113424Y-150506045D01*
X241057471Y-150602957D01*
X241037765Y-150628637D01*
X240958637Y-150707765D01*
X240932957Y-150727471D01*
X240836045Y-150783424D01*
X240819519Y-150790268D01*
X233303864Y-150790268D01*
X233296300Y-150755500D01*
X233296300Y-150606500D01*
X233569300Y-150606500D01*
X233795426Y-150606500D01*
X233853296Y-150548630D01*
X233853295Y-150548629D01*
X234205433Y-150548629D01*
X234263304Y-150606500D01*
X234397322Y-150606500D01*
X234347043Y-150577471D01*
X234321363Y-150557765D01*
X234312228Y-150548630D01*
X235267509Y-150548630D01*
X235325379Y-150606500D01*
X235919575Y-150606500D01*
X235977445Y-150548630D01*
X236329583Y-150548630D01*
X236387453Y-150606500D01*
X236981649Y-150606500D01*
X237039519Y-150548630D01*
X237391657Y-150548630D01*
X237449527Y-150606500D01*
X238043723Y-150606500D01*
X238101593Y-150548630D01*
X238453732Y-150548630D01*
X238511602Y-150606500D01*
X239105798Y-150606500D01*
X239163668Y-150548630D01*
X239515806Y-150548630D01*
X239573676Y-150606500D01*
X239955125Y-150606500D01*
X239962106Y-150606697D01*
X239963507Y-150606776D01*
X239970407Y-150607358D01*
X239985640Y-150609074D01*
X239992531Y-150610047D01*
X239993914Y-150610282D01*
X240000734Y-150611639D01*
X240132628Y-150641742D01*
X240166386Y-150607983D01*
X240162529Y-150602957D01*
X240106576Y-150506045D01*
X240094188Y-150476137D01*
X240072570Y-150395458D01*
X239870774Y-150193662D01*
X239515806Y-150548630D01*
X239163668Y-150548630D01*
X238808700Y-150193662D01*
X238453732Y-150548630D01*
X238101593Y-150548630D01*
X237746625Y-150193662D01*
X237391657Y-150548630D01*
X237039519Y-150548630D01*
X236684551Y-150193662D01*
X236329583Y-150548630D01*
X235977445Y-150548630D01*
X235622477Y-150193662D01*
X235267509Y-150548630D01*
X234312228Y-150548630D01*
X234258830Y-150495232D01*
X234205433Y-150548629D01*
X233853295Y-150548629D01*
X233569300Y-150264634D01*
X233569300Y-150606500D01*
X233296300Y-150606500D01*
X233296300Y-150017592D01*
X233674396Y-150017592D01*
X234029364Y-150372560D01*
X234137620Y-150264304D01*
X234125225Y-150218045D01*
X234121000Y-150185952D01*
X234121000Y-150074048D01*
X234125225Y-150041955D01*
X234154188Y-149933863D01*
X234166576Y-149903955D01*
X234204686Y-149837945D01*
X234085571Y-149718830D01*
X235035232Y-149718830D01*
X235097765Y-149781363D01*
X235117471Y-149807043D01*
X235173424Y-149903955D01*
X235185812Y-149933863D01*
X235214775Y-150041955D01*
X235219000Y-150074048D01*
X235219000Y-150185952D01*
X235214775Y-150218045D01*
X235203362Y-150260637D01*
X235446407Y-150017592D01*
X235798545Y-150017592D01*
X236153514Y-150372561D01*
X236508482Y-150017592D01*
X236860619Y-150017592D01*
X237215588Y-150372561D01*
X237570556Y-150017592D01*
X237922694Y-150017592D01*
X238277662Y-150372561D01*
X238632631Y-150017592D01*
X238984768Y-150017592D01*
X239339737Y-150372561D01*
X239568797Y-150143500D01*
X241234825Y-150143500D01*
X241413757Y-150322432D01*
X241413757Y-150292415D01*
X241423197Y-150244960D01*
X241427003Y-150235772D01*
X241453882Y-150195546D01*
X241533553Y-150115875D01*
X241559181Y-150098750D01*
X241533552Y-150081625D01*
X241515572Y-150063645D01*
X241491940Y-150077290D01*
X241484787Y-150081113D01*
X241483319Y-150081837D01*
X241475916Y-150085191D01*
X241459385Y-150092037D01*
X241451811Y-150094888D01*
X241450262Y-150095414D01*
X241442485Y-150097774D01*
X241297909Y-150136513D01*
X241289988Y-150138359D01*
X241288383Y-150138678D01*
X241280399Y-150139996D01*
X241262660Y-150142332D01*
X241254579Y-150143128D01*
X241252946Y-150143235D01*
X241244838Y-150143500D01*
X241234825Y-150143500D01*
X239568797Y-150143500D01*
X239694705Y-150017592D01*
X240046842Y-150017592D01*
X240099730Y-150070480D01*
X240106576Y-150053955D01*
X240162529Y-149957043D01*
X240182235Y-149931363D01*
X240261363Y-149852235D01*
X240287043Y-149832529D01*
X240383955Y-149776576D01*
X240413863Y-149764188D01*
X240484458Y-149745271D01*
X240401811Y-149662624D01*
X240046842Y-150017592D01*
X239694705Y-150017592D01*
X239339737Y-149662624D01*
X238984768Y-150017592D01*
X238632631Y-150017592D01*
X238277662Y-149662624D01*
X237922694Y-150017592D01*
X237570556Y-150017592D01*
X237215588Y-149662624D01*
X236860619Y-150017592D01*
X236508482Y-150017592D01*
X236153514Y-149662624D01*
X235798545Y-150017592D01*
X235446407Y-150017592D01*
X235091438Y-149662623D01*
X235035232Y-149718830D01*
X234085571Y-149718830D01*
X234029365Y-149662624D01*
X233674396Y-150017592D01*
X233296300Y-150017592D01*
X233296300Y-149770551D01*
X233569300Y-149770551D01*
X233853296Y-149486555D01*
X234205434Y-149486555D01*
X234381508Y-149662629D01*
X234443955Y-149626576D01*
X234473863Y-149614188D01*
X234581955Y-149585225D01*
X234614048Y-149581000D01*
X234725952Y-149581000D01*
X234758045Y-149585225D01*
X234804304Y-149597620D01*
X234915368Y-149486555D01*
X235267509Y-149486555D01*
X235622477Y-149841523D01*
X235977445Y-149486555D01*
X236329583Y-149486555D01*
X236684551Y-149841523D01*
X237039519Y-149486555D01*
X237391657Y-149486555D01*
X237746625Y-149841523D01*
X238101593Y-149486555D01*
X238453732Y-149486555D01*
X238808700Y-149841523D01*
X239163668Y-149486555D01*
X239515806Y-149486555D01*
X239870774Y-149841523D01*
X240225742Y-149486555D01*
X239870774Y-149131587D01*
X239515806Y-149486555D01*
X239163668Y-149486555D01*
X238808700Y-149131587D01*
X238453732Y-149486555D01*
X238101593Y-149486555D01*
X237746625Y-149131587D01*
X237391657Y-149486555D01*
X237039519Y-149486555D01*
X236684551Y-149131587D01*
X236329583Y-149486555D01*
X235977445Y-149486555D01*
X235622477Y-149131587D01*
X235267509Y-149486555D01*
X234915368Y-149486555D01*
X234915369Y-149486554D01*
X234560402Y-149131587D01*
X234205434Y-149486555D01*
X233853296Y-149486555D01*
X233569300Y-149202559D01*
X233569300Y-149770551D01*
X233296300Y-149770551D01*
X233296300Y-148955518D01*
X233674397Y-148955518D01*
X234029365Y-149310486D01*
X234384333Y-148955518D01*
X234736471Y-148955518D01*
X235091439Y-149310486D01*
X235446407Y-148955518D01*
X235798546Y-148955518D01*
X236153514Y-149310486D01*
X236508482Y-148955518D01*
X236860620Y-148955518D01*
X237215588Y-149310486D01*
X237570556Y-148955518D01*
X237922694Y-148955518D01*
X238277662Y-149310486D01*
X238632631Y-148955518D01*
X238984769Y-148955518D01*
X239339737Y-149310486D01*
X239694705Y-148955518D01*
X240046843Y-148955518D01*
X240396500Y-149305175D01*
X240396500Y-149295162D01*
X240396765Y-149287054D01*
X240396872Y-149285421D01*
X240397668Y-149277340D01*
X240400004Y-149259601D01*
X240401322Y-149251617D01*
X240401641Y-149250012D01*
X240403487Y-149242091D01*
X240442226Y-149097515D01*
X240444586Y-149089738D01*
X240445112Y-149088189D01*
X240447963Y-149080615D01*
X240454809Y-149064084D01*
X240458163Y-149056681D01*
X240458887Y-149055213D01*
X240462710Y-149048060D01*
X240537549Y-148918437D01*
X240541820Y-148911568D01*
X240542729Y-148910207D01*
X240547471Y-148903588D01*
X240558363Y-148889394D01*
X240563521Y-148883110D01*
X240564600Y-148881880D01*
X240570135Y-148875972D01*
X240623684Y-148822423D01*
X240401811Y-148600550D01*
X240046843Y-148955518D01*
X239694705Y-148955518D01*
X239339737Y-148600550D01*
X238984769Y-148955518D01*
X238632631Y-148955518D01*
X238277662Y-148600549D01*
X237922694Y-148955518D01*
X237570556Y-148955518D01*
X237215588Y-148600550D01*
X236860620Y-148955518D01*
X236508482Y-148955518D01*
X236153514Y-148600550D01*
X235798546Y-148955518D01*
X235446407Y-148955518D01*
X235091439Y-148600550D01*
X234736471Y-148955518D01*
X234384333Y-148955518D01*
X234029365Y-148600550D01*
X233674397Y-148955518D01*
X233296300Y-148955518D01*
X233296300Y-148708477D01*
X233569300Y-148708477D01*
X233853296Y-148424481D01*
X234205434Y-148424481D01*
X234560402Y-148779449D01*
X234915370Y-148424481D01*
X235267509Y-148424481D01*
X235622477Y-148779449D01*
X235977445Y-148424481D01*
X236329583Y-148424481D01*
X236684551Y-148779449D01*
X237039519Y-148424481D01*
X237391657Y-148424481D01*
X237746625Y-148779449D01*
X238101593Y-148424481D01*
X238453732Y-148424481D01*
X238808700Y-148779449D01*
X239163668Y-148424481D01*
X239515806Y-148424481D01*
X239870774Y-148779449D01*
X240225742Y-148424481D01*
X240225741Y-148424480D01*
X240577880Y-148424480D01*
X240827804Y-148674404D01*
X240848061Y-148662710D01*
X240855213Y-148658887D01*
X240856681Y-148658163D01*
X240864084Y-148654809D01*
X240880615Y-148647963D01*
X240888189Y-148645112D01*
X240889738Y-148644586D01*
X240897515Y-148642226D01*
X241042091Y-148603487D01*
X241050012Y-148601641D01*
X241051617Y-148601322D01*
X241059601Y-148600004D01*
X241077340Y-148597668D01*
X241085421Y-148596872D01*
X241087054Y-148596765D01*
X241095162Y-148596500D01*
X241115798Y-148596500D01*
X241287817Y-148424481D01*
X240932848Y-148069512D01*
X240577880Y-148424480D01*
X240225741Y-148424480D01*
X239870774Y-148069513D01*
X239515806Y-148424481D01*
X239163668Y-148424481D01*
X238808700Y-148069513D01*
X238453732Y-148424481D01*
X238101593Y-148424481D01*
X237746625Y-148069513D01*
X237391657Y-148424481D01*
X237039519Y-148424481D01*
X236684551Y-148069513D01*
X236329583Y-148424481D01*
X235977445Y-148424481D01*
X235622477Y-148069513D01*
X235267509Y-148424481D01*
X234915370Y-148424481D01*
X234560402Y-148069513D01*
X234205434Y-148424481D01*
X233853296Y-148424481D01*
X233569300Y-148140485D01*
X233569300Y-148708477D01*
X233296300Y-148708477D01*
X233296300Y-147893444D01*
X233674397Y-147893444D01*
X234029365Y-148248412D01*
X234384333Y-147893444D01*
X234736471Y-147893444D01*
X235091439Y-148248412D01*
X235446407Y-147893444D01*
X235798546Y-147893444D01*
X236153514Y-148248412D01*
X236508482Y-147893444D01*
X236860620Y-147893444D01*
X237215588Y-148248412D01*
X237570556Y-147893444D01*
X237922694Y-147893444D01*
X238277662Y-148248412D01*
X238632631Y-147893444D01*
X238984769Y-147893444D01*
X239339737Y-148248412D01*
X239694705Y-147893444D01*
X240046843Y-147893444D01*
X240401811Y-148248412D01*
X240756779Y-147893444D01*
X240756778Y-147893443D01*
X241108917Y-147893443D01*
X241463885Y-148248411D01*
X241601909Y-148110387D01*
X241517515Y-148087774D01*
X241509738Y-148085414D01*
X241508189Y-148084888D01*
X241500615Y-148082037D01*
X241484084Y-148075191D01*
X241476681Y-148071837D01*
X241475213Y-148071113D01*
X241468060Y-148067290D01*
X241338437Y-147992451D01*
X241331568Y-147988180D01*
X241330207Y-147987271D01*
X241323588Y-147982529D01*
X241309394Y-147971637D01*
X241303110Y-147966479D01*
X241301880Y-147965400D01*
X241295972Y-147959865D01*
X241190135Y-147854028D01*
X241184600Y-147848120D01*
X241183521Y-147846890D01*
X241178363Y-147840606D01*
X241171152Y-147831209D01*
X241108917Y-147893443D01*
X240756778Y-147893443D01*
X240401811Y-147538476D01*
X240046843Y-147893444D01*
X239694705Y-147893444D01*
X239339737Y-147538476D01*
X238984769Y-147893444D01*
X238632631Y-147893444D01*
X238277662Y-147538475D01*
X237922694Y-147893444D01*
X237570556Y-147893444D01*
X237215588Y-147538476D01*
X236860620Y-147893444D01*
X236508482Y-147893444D01*
X236153514Y-147538476D01*
X235798546Y-147893444D01*
X235446407Y-147893444D01*
X235091439Y-147538476D01*
X234736471Y-147893444D01*
X234384333Y-147893444D01*
X234069889Y-147579000D01*
X234422027Y-147579000D01*
X234560402Y-147717375D01*
X234915370Y-147362407D01*
X235267509Y-147362407D01*
X235622477Y-147717375D01*
X235977445Y-147362407D01*
X236329583Y-147362407D01*
X236684551Y-147717375D01*
X237039519Y-147362407D01*
X237391657Y-147362407D01*
X237746625Y-147717375D01*
X238101593Y-147362407D01*
X238453732Y-147362407D01*
X238808700Y-147717375D01*
X239163668Y-147362407D01*
X239515806Y-147362407D01*
X239870774Y-147717375D01*
X240225742Y-147362407D01*
X240577880Y-147362407D01*
X240932848Y-147717374D01*
X241052824Y-147597398D01*
X241023487Y-147487909D01*
X241021641Y-147479988D01*
X241021322Y-147478383D01*
X241020004Y-147470399D01*
X241017668Y-147452660D01*
X241016872Y-147444579D01*
X241016765Y-147442946D01*
X241016500Y-147434838D01*
X241016500Y-147285162D01*
X241016765Y-147277054D01*
X241016872Y-147275421D01*
X241017668Y-147267340D01*
X241020004Y-147249601D01*
X241021322Y-147241617D01*
X241021641Y-147240012D01*
X241023487Y-147232091D01*
X241051807Y-147126397D01*
X240932848Y-147007438D01*
X240577880Y-147362407D01*
X240225742Y-147362407D01*
X239870774Y-147007439D01*
X239515806Y-147362407D01*
X239163668Y-147362407D01*
X238808700Y-147007439D01*
X238453732Y-147362407D01*
X238101593Y-147362407D01*
X237746625Y-147007439D01*
X237391657Y-147362407D01*
X237039519Y-147362407D01*
X236684551Y-147007439D01*
X236329583Y-147362407D01*
X235977445Y-147362407D01*
X235622477Y-147007439D01*
X235267509Y-147362407D01*
X234915370Y-147362407D01*
X234906797Y-147353834D01*
X234887765Y-147378637D01*
X234808637Y-147457765D01*
X234782957Y-147477471D01*
X234686045Y-147533424D01*
X234656137Y-147545812D01*
X234548045Y-147574775D01*
X234515952Y-147579000D01*
X234422027Y-147579000D01*
X234069889Y-147579000D01*
X234029365Y-147538476D01*
X233674397Y-147893444D01*
X233296300Y-147893444D01*
X233296300Y-147646403D01*
X233569300Y-147646403D01*
X233853296Y-147362407D01*
X233569300Y-147078411D01*
X233569300Y-147646403D01*
X233296300Y-147646403D01*
X233296300Y-146831369D01*
X233674397Y-146831369D01*
X233911000Y-147067972D01*
X233911000Y-146974048D01*
X233915225Y-146941955D01*
X233944188Y-146833863D01*
X233956576Y-146803955D01*
X234012529Y-146707043D01*
X234032235Y-146681363D01*
X234032880Y-146680718D01*
X234887120Y-146680718D01*
X234887765Y-146681363D01*
X234907471Y-146707043D01*
X234963424Y-146803955D01*
X234975812Y-146833863D01*
X235004775Y-146941955D01*
X235009000Y-146974048D01*
X235009000Y-147085952D01*
X235006911Y-147101809D01*
X235091439Y-147186337D01*
X235446407Y-146831369D01*
X235798546Y-146831369D01*
X236153514Y-147186337D01*
X236508482Y-146831369D01*
X236860620Y-146831369D01*
X237215588Y-147186337D01*
X237570556Y-146831369D01*
X237922694Y-146831369D01*
X238277662Y-147186337D01*
X238632631Y-146831369D01*
X238984769Y-146831369D01*
X239339737Y-147186337D01*
X239694705Y-146831369D01*
X240046843Y-146831369D01*
X240401811Y-147186337D01*
X240756779Y-146831369D01*
X241108918Y-146831369D01*
X241169062Y-146891513D01*
X241178363Y-146879394D01*
X241183521Y-146873110D01*
X241184600Y-146871880D01*
X241190135Y-146865972D01*
X241224738Y-146831369D01*
X243233066Y-146831369D01*
X243428197Y-147026500D01*
X243474838Y-147026500D01*
X243482946Y-147026765D01*
X243484579Y-147026872D01*
X243492660Y-147027668D01*
X243510399Y-147030004D01*
X243518383Y-147031322D01*
X243519988Y-147031641D01*
X243527909Y-147033487D01*
X243568691Y-147044414D01*
X243600737Y-146975694D01*
X243605727Y-146966107D01*
X243606818Y-146964217D01*
X243612634Y-146955087D01*
X243626331Y-146935525D01*
X243632946Y-146926907D01*
X243634350Y-146925235D01*
X243641630Y-146917294D01*
X243742800Y-146816124D01*
X243750741Y-146808844D01*
X243752413Y-146807440D01*
X243761031Y-146800825D01*
X243780593Y-146787128D01*
X243789723Y-146781312D01*
X243791613Y-146780221D01*
X243801200Y-146775231D01*
X243859621Y-146747988D01*
X243799383Y-146687750D01*
X244438760Y-146687750D01*
X244443327Y-146687750D01*
X244447418Y-146687817D01*
X244448236Y-146687844D01*
X244452248Y-146688042D01*
X244461166Y-146688626D01*
X244465177Y-146688954D01*
X244465992Y-146689034D01*
X244470065Y-146689502D01*
X244534074Y-146697930D01*
X244543403Y-146699523D01*
X244545272Y-146699916D01*
X244554455Y-146702216D01*
X244574505Y-146708060D01*
X244583509Y-146711063D01*
X244585296Y-146711736D01*
X244593998Y-146715397D01*
X244682196Y-146756524D01*
X244687105Y-146744674D01*
X244690456Y-146737279D01*
X244691180Y-146735811D01*
X244695004Y-146728657D01*
X244703951Y-146713161D01*
X244708221Y-146706293D01*
X244709130Y-146704932D01*
X244713870Y-146698315D01*
X244782536Y-146608828D01*
X244727207Y-146553499D01*
X244573011Y-146553499D01*
X244438760Y-146687750D01*
X243799383Y-146687750D01*
X243665132Y-146553499D01*
X243510936Y-146553499D01*
X243233066Y-146831369D01*
X241224738Y-146831369D01*
X241295972Y-146760135D01*
X241301880Y-146754600D01*
X241303110Y-146753521D01*
X241309394Y-146748363D01*
X241323588Y-146737471D01*
X241330207Y-146732729D01*
X241331568Y-146731820D01*
X241338437Y-146727549D01*
X241407370Y-146687750D01*
X242314609Y-146687750D01*
X242643327Y-146687750D01*
X242647418Y-146687817D01*
X242648236Y-146687844D01*
X242652248Y-146688042D01*
X242661166Y-146688626D01*
X242665177Y-146688954D01*
X242665992Y-146689034D01*
X242670065Y-146689502D01*
X242734074Y-146697930D01*
X242743403Y-146699523D01*
X242745272Y-146699916D01*
X242750879Y-146701320D01*
X242603058Y-146553499D01*
X242448862Y-146553499D01*
X242314609Y-146687750D01*
X241407370Y-146687750D01*
X241468060Y-146652710D01*
X241475213Y-146648887D01*
X241476681Y-146648163D01*
X241484084Y-146644809D01*
X241500615Y-146637963D01*
X241508189Y-146635112D01*
X241509738Y-146634586D01*
X241517515Y-146632226D01*
X241598114Y-146610629D01*
X241540984Y-146553499D01*
X241386788Y-146553499D01*
X241108918Y-146831369D01*
X240756779Y-146831369D01*
X240478909Y-146553499D01*
X240324713Y-146553499D01*
X240046843Y-146831369D01*
X239694705Y-146831369D01*
X239416835Y-146553499D01*
X239262639Y-146553499D01*
X238984769Y-146831369D01*
X238632631Y-146831369D01*
X238354761Y-146553499D01*
X238200565Y-146553499D01*
X237922694Y-146831369D01*
X237570556Y-146831369D01*
X237292686Y-146553499D01*
X237138490Y-146553499D01*
X236860620Y-146831369D01*
X236508482Y-146831369D01*
X236230612Y-146553499D01*
X236076416Y-146553499D01*
X235798546Y-146831369D01*
X235446407Y-146831369D01*
X235168537Y-146553499D01*
X235014341Y-146553499D01*
X234887120Y-146680718D01*
X234032880Y-146680718D01*
X234111363Y-146602235D01*
X234136165Y-146583201D01*
X234106463Y-146553499D01*
X233952267Y-146553499D01*
X233674397Y-146831369D01*
X233296300Y-146831369D01*
X233296300Y-146404499D01*
X233315985Y-146337460D01*
X233368789Y-146291705D01*
X233420300Y-146280499D01*
X245945300Y-146280499D01*
X246012339Y-146300184D01*
G37*
%TD.AperFunction*%
%TA.AperFunction,Conductor*%
G36*
X245146121Y-148143935D02*
G01*
X245191876Y-148196739D01*
X245192516Y-148198164D01*
X245207793Y-148232764D01*
X245207794Y-148232765D01*
X245287235Y-148312206D01*
X245390009Y-148357585D01*
X245415135Y-148360500D01*
X245704864Y-148360499D01*
X245704879Y-148360497D01*
X245704882Y-148360497D01*
X245729987Y-148357586D01*
X245729988Y-148357585D01*
X245729991Y-148357585D01*
X245832765Y-148312206D01*
X245912206Y-148232765D01*
X245918179Y-148219237D01*
X245963259Y-148165864D01*
X246030044Y-148145333D01*
X246097327Y-148164168D01*
X246119293Y-148181642D01*
X246177903Y-148240252D01*
X246269972Y-148278388D01*
X246269974Y-148278388D01*
X246334059Y-148278388D01*
X246401098Y-148298073D01*
X246446853Y-148350877D01*
X246458054Y-148401384D01*
X246459221Y-148545609D01*
X246460084Y-148652385D01*
X246440942Y-148719581D01*
X246388510Y-148765761D01*
X246336088Y-148777387D01*
X246269970Y-148777387D01*
X246177902Y-148815523D01*
X246107436Y-148885989D01*
X246069300Y-148978057D01*
X246069300Y-150755500D01*
X246049615Y-150822539D01*
X245996811Y-150868294D01*
X245945300Y-150879500D01*
X244847425Y-150879500D01*
X244780386Y-150859815D01*
X244734631Y-150807011D01*
X244724687Y-150737853D01*
X244728379Y-150720801D01*
X244730775Y-150712579D01*
X244733992Y-150688143D01*
X244737256Y-150663353D01*
X244737255Y-150017592D01*
X245357214Y-150017592D01*
X245360622Y-150021000D01*
X245445952Y-150021000D01*
X245478045Y-150025225D01*
X245586137Y-150054188D01*
X245616045Y-150066576D01*
X245712957Y-150122529D01*
X245738637Y-150142235D01*
X245796300Y-150199898D01*
X245796300Y-149746741D01*
X245712183Y-149662624D01*
X245357214Y-150017592D01*
X244737255Y-150017592D01*
X244737255Y-149534148D01*
X244736128Y-149525589D01*
X244730990Y-149486554D01*
X244730775Y-149484920D01*
X244680400Y-149376891D01*
X244649177Y-149345668D01*
X244967063Y-149345668D01*
X244982610Y-149379008D01*
X244986279Y-149387732D01*
X244986952Y-149389520D01*
X244989948Y-149398505D01*
X244995792Y-149418556D01*
X244998091Y-149427737D01*
X244998484Y-149429606D01*
X245000077Y-149438939D01*
X245008503Y-149502949D01*
X245008969Y-149507004D01*
X245009049Y-149507818D01*
X245009379Y-149511841D01*
X245009963Y-149520757D01*
X245010161Y-149524771D01*
X245010188Y-149525589D01*
X245010255Y-149529680D01*
X245010255Y-149670632D01*
X245181146Y-149841523D01*
X245536114Y-149486555D01*
X245181145Y-149131586D01*
X244967063Y-149345668D01*
X244649177Y-149345668D01*
X244596115Y-149292606D01*
X244588444Y-149284935D01*
X244590601Y-149282777D01*
X244557814Y-149241761D01*
X244552788Y-149226860D01*
X244541777Y-149185767D01*
X244512757Y-149135502D01*
X244502220Y-149117251D01*
X244502214Y-149117243D01*
X244283401Y-148898430D01*
X244282833Y-148897390D01*
X244668440Y-148897390D01*
X244701581Y-148930531D01*
X244707116Y-148936439D01*
X244708195Y-148937669D01*
X244713352Y-148943952D01*
X244724245Y-148958147D01*
X244728988Y-148964767D01*
X244729897Y-148966128D01*
X244734168Y-148972998D01*
X244782675Y-149057015D01*
X244786498Y-149064167D01*
X244787222Y-149065635D01*
X244790574Y-149073033D01*
X244797420Y-149089562D01*
X244800281Y-149097164D01*
X244800807Y-149098714D01*
X244803159Y-149106470D01*
X244805757Y-149116167D01*
X244825091Y-149135502D01*
X245005076Y-148955517D01*
X245357214Y-148955517D01*
X245712183Y-149310486D01*
X245796300Y-149226369D01*
X245796300Y-148964618D01*
X245796898Y-148952454D01*
X245797139Y-148950009D01*
X245798923Y-148937983D01*
X245804167Y-148911618D01*
X245807126Y-148899806D01*
X245807839Y-148897456D01*
X245811937Y-148886005D01*
X245860361Y-148769099D01*
X245865569Y-148758089D01*
X245866727Y-148755923D01*
X245867037Y-148755404D01*
X245742586Y-148630953D01*
X245732398Y-148632135D01*
X245728937Y-148632488D01*
X245728218Y-148632551D01*
X245724537Y-148632818D01*
X245716669Y-148633272D01*
X245713136Y-148633425D01*
X245712415Y-148633446D01*
X245708805Y-148633499D01*
X245679233Y-148633499D01*
X245357214Y-148955517D01*
X245005076Y-148955517D01*
X244830823Y-148781264D01*
X244780712Y-148831376D01*
X244772771Y-148838656D01*
X244771099Y-148840060D01*
X244762481Y-148846675D01*
X244742919Y-148860372D01*
X244733789Y-148866188D01*
X244731899Y-148867279D01*
X244722312Y-148872269D01*
X244668440Y-148897390D01*
X244282833Y-148897390D01*
X244249916Y-148837107D01*
X244254900Y-148767415D01*
X244296772Y-148711482D01*
X244362236Y-148687065D01*
X244371076Y-148686749D01*
X244438858Y-148686749D01*
X244438860Y-148686749D01*
X244452923Y-148684897D01*
X244488086Y-148680269D01*
X244596115Y-148629894D01*
X244656997Y-148569012D01*
X244970709Y-148569012D01*
X245181145Y-148779448D01*
X245335261Y-148625333D01*
X245328244Y-148623705D01*
X245308433Y-148618315D01*
X245299523Y-148615526D01*
X245297753Y-148614898D01*
X245289129Y-148611470D01*
X245165396Y-148556836D01*
X245155149Y-148551734D01*
X245153129Y-148550609D01*
X245143388Y-148544578D01*
X245122522Y-148530285D01*
X245113362Y-148523366D01*
X245111584Y-148521889D01*
X245103138Y-148514188D01*
X245008504Y-148419554D01*
X245008504Y-148419559D01*
X245000076Y-148483568D01*
X244998483Y-148492897D01*
X244998090Y-148494766D01*
X244995790Y-148503949D01*
X244989946Y-148523999D01*
X244986943Y-148533003D01*
X244986270Y-148534790D01*
X244982609Y-148543493D01*
X244970709Y-148569012D01*
X244656997Y-148569012D01*
X244680400Y-148545609D01*
X244730775Y-148437580D01*
X244737256Y-148388353D01*
X244737256Y-148248250D01*
X244756941Y-148181211D01*
X244809745Y-148135456D01*
X244861256Y-148124250D01*
X245079082Y-148124250D01*
X245146121Y-148143935D01*
G37*
%TD.AperFunction*%
%TD*%
%TA.AperFunction,Conductor*%
%TO.N,GNDL*%
G36*
X260406539Y-146288072D02*
G01*
X260452294Y-146340876D01*
X260463500Y-146392387D01*
X260463501Y-150743387D01*
X260443816Y-150810426D01*
X260391012Y-150856181D01*
X260339501Y-150867387D01*
X253818030Y-150867387D01*
X253817909Y-150867399D01*
X253812334Y-150867399D01*
X253680414Y-150897508D01*
X253558496Y-150956220D01*
X253452703Y-151040584D01*
X253379043Y-151132948D01*
X253368331Y-151146381D01*
X253346364Y-151191994D01*
X253309616Y-151268296D01*
X253279500Y-151400219D01*
X253279500Y-151410451D01*
X253279499Y-151410473D01*
X253279499Y-151467877D01*
X253279498Y-151526479D01*
X253279499Y-151526488D01*
X253279499Y-156324181D01*
X253279509Y-156324265D01*
X253304602Y-156434227D01*
X253304603Y-156434229D01*
X253353531Y-156535840D01*
X253353535Y-156535847D01*
X253423853Y-156624027D01*
X253512031Y-156694351D01*
X253512036Y-156694354D01*
X253607124Y-156740147D01*
X253613648Y-156743289D01*
X253723607Y-156768387D01*
X253730172Y-156768387D01*
X277768757Y-156768387D01*
X277835796Y-156788072D01*
X277881551Y-156840876D01*
X277892757Y-156892301D01*
X277894960Y-160087001D01*
X277875322Y-160154055D01*
X277822549Y-160199846D01*
X277770960Y-160211087D01*
X276019610Y-160211087D01*
X275952571Y-160191402D01*
X275906816Y-160138598D01*
X275895610Y-160087332D01*
X275894718Y-159635431D01*
X276167717Y-159635431D01*
X276168067Y-159812087D01*
X276700999Y-159812087D01*
X276762567Y-159750519D01*
X277114705Y-159750519D01*
X277176273Y-159812087D01*
X277621770Y-159812087D01*
X277621587Y-159547465D01*
X277469673Y-159395551D01*
X277114705Y-159750519D01*
X276762567Y-159750519D01*
X276407598Y-159395550D01*
X276167717Y-159635431D01*
X275894718Y-159635431D01*
X275894106Y-159325559D01*
X275894109Y-159325536D01*
X275894095Y-159318355D01*
X275894108Y-159318307D01*
X275893967Y-159243289D01*
X275893906Y-159210564D01*
X275879391Y-159147476D01*
X276159524Y-159147476D01*
X276161673Y-159156816D01*
X276163046Y-159163661D01*
X276163283Y-159165043D01*
X276164262Y-159171895D01*
X276166005Y-159187116D01*
X276166598Y-159193973D01*
X276166680Y-159195373D01*
X276166892Y-159202390D01*
X276167045Y-159283966D01*
X276231528Y-159219482D01*
X276583668Y-159219482D01*
X276938636Y-159574450D01*
X277293604Y-159219482D01*
X276938636Y-158864514D01*
X276583668Y-159219482D01*
X276231528Y-159219482D01*
X276231529Y-159219481D01*
X276159524Y-159147476D01*
X275879391Y-159147476D01*
X275868649Y-159100786D01*
X275819626Y-158999367D01*
X275749290Y-158911379D01*
X275661158Y-158841224D01*
X275661156Y-158841223D01*
X275661155Y-158841222D01*
X275559640Y-158792409D01*
X275486418Y-158775721D01*
X275449809Y-158767377D01*
X275449808Y-158767377D01*
X275449807Y-158767377D01*
X275393486Y-158767387D01*
X251404500Y-158767387D01*
X251337461Y-158747702D01*
X251291706Y-158694898D01*
X251290302Y-158688445D01*
X276052631Y-158688445D01*
X276407599Y-159043413D01*
X276762567Y-158688445D01*
X277114705Y-158688445D01*
X277469672Y-159043412D01*
X277621135Y-158891949D01*
X277620854Y-158484658D01*
X277469673Y-158333477D01*
X277114705Y-158688445D01*
X276762567Y-158688445D01*
X276407599Y-158333477D01*
X276052631Y-158688445D01*
X251290302Y-158688445D01*
X251280500Y-158643387D01*
X251280500Y-158442011D01*
X251280590Y-158441095D01*
X251280500Y-158379633D01*
X251280500Y-158330168D01*
X251280428Y-158329808D01*
X251261291Y-158283796D01*
X251261222Y-158283630D01*
X251242364Y-158238102D01*
X251242362Y-158238100D01*
X251242361Y-158238097D01*
X251242158Y-158237793D01*
X251206872Y-158202610D01*
X251206743Y-158202481D01*
X251171896Y-158167633D01*
X251171594Y-158167431D01*
X251171587Y-158167428D01*
X251147297Y-158157408D01*
X252155957Y-158157408D01*
X252492936Y-158494387D01*
X252528914Y-158494387D01*
X252881052Y-158494387D01*
X253202872Y-158494387D01*
X253041962Y-158333477D01*
X252881052Y-158494387D01*
X252528914Y-158494387D01*
X252865893Y-158157408D01*
X252865892Y-158157407D01*
X253218031Y-158157407D01*
X253555011Y-158494387D01*
X253590989Y-158494387D01*
X253943127Y-158494387D01*
X254264947Y-158494387D01*
X254104037Y-158333477D01*
X253943127Y-158494387D01*
X253590989Y-158494387D01*
X253927968Y-158157408D01*
X254280106Y-158157408D01*
X254617085Y-158494387D01*
X254653063Y-158494387D01*
X255005201Y-158494387D01*
X255327021Y-158494387D01*
X255166111Y-158333477D01*
X255005201Y-158494387D01*
X254653063Y-158494387D01*
X254990042Y-158157408D01*
X255342180Y-158157408D01*
X255679159Y-158494387D01*
X255715137Y-158494387D01*
X256067275Y-158494387D01*
X256389096Y-158494387D01*
X256228185Y-158333476D01*
X256067275Y-158494387D01*
X255715137Y-158494387D01*
X256052116Y-158157408D01*
X256404255Y-158157408D01*
X256741234Y-158494387D01*
X256777212Y-158494387D01*
X257129350Y-158494387D01*
X257451170Y-158494387D01*
X257290260Y-158333477D01*
X257129350Y-158494387D01*
X256777212Y-158494387D01*
X257114191Y-158157408D01*
X257466329Y-158157408D01*
X257803308Y-158494387D01*
X257839286Y-158494387D01*
X258191424Y-158494387D01*
X258513244Y-158494387D01*
X258352334Y-158333477D01*
X258191424Y-158494387D01*
X257839286Y-158494387D01*
X258176265Y-158157408D01*
X258528403Y-158157408D01*
X258865382Y-158494387D01*
X258901360Y-158494387D01*
X259253499Y-158494387D01*
X259575319Y-158494387D01*
X259414409Y-158333477D01*
X259253499Y-158494387D01*
X258901360Y-158494387D01*
X259238338Y-158157408D01*
X259590478Y-158157408D01*
X259927457Y-158494387D01*
X259963435Y-158494387D01*
X260315573Y-158494387D01*
X260637393Y-158494387D01*
X260476483Y-158333477D01*
X260315573Y-158494387D01*
X259963435Y-158494387D01*
X260300414Y-158157408D01*
X260652552Y-158157408D01*
X260989531Y-158494387D01*
X261025509Y-158494387D01*
X261377647Y-158494387D01*
X261699468Y-158494387D01*
X261538557Y-158333476D01*
X261377647Y-158494387D01*
X261025509Y-158494387D01*
X261362488Y-158157408D01*
X261714627Y-158157408D01*
X262051606Y-158494387D01*
X262087584Y-158494387D01*
X262439722Y-158494387D01*
X262761542Y-158494387D01*
X262600632Y-158333477D01*
X262439722Y-158494387D01*
X262087584Y-158494387D01*
X262424563Y-158157408D01*
X262776701Y-158157408D01*
X263113680Y-158494387D01*
X263149658Y-158494387D01*
X263501796Y-158494387D01*
X263823616Y-158494387D01*
X263662706Y-158333477D01*
X263501796Y-158494387D01*
X263149658Y-158494387D01*
X263486637Y-158157408D01*
X263838775Y-158157408D01*
X264175754Y-158494387D01*
X264211732Y-158494387D01*
X264563870Y-158494387D01*
X264885691Y-158494387D01*
X264724780Y-158333476D01*
X264563870Y-158494387D01*
X264211732Y-158494387D01*
X264548711Y-158157408D01*
X264900850Y-158157408D01*
X265237829Y-158494387D01*
X265273807Y-158494387D01*
X265625945Y-158494387D01*
X265947765Y-158494387D01*
X265786855Y-158333477D01*
X265625945Y-158494387D01*
X265273807Y-158494387D01*
X265610786Y-158157408D01*
X265962924Y-158157408D01*
X266299903Y-158494387D01*
X266335881Y-158494387D01*
X266688019Y-158494387D01*
X267009839Y-158494387D01*
X266848929Y-158333477D01*
X266688019Y-158494387D01*
X266335881Y-158494387D01*
X266672860Y-158157408D01*
X266672859Y-158157407D01*
X267024998Y-158157407D01*
X267361978Y-158494387D01*
X267397956Y-158494387D01*
X267750094Y-158494387D01*
X268071914Y-158494387D01*
X267911004Y-158333477D01*
X267750094Y-158494387D01*
X267397956Y-158494387D01*
X267734935Y-158157408D01*
X268087073Y-158157408D01*
X268424052Y-158494387D01*
X268460030Y-158494387D01*
X268812168Y-158494387D01*
X269133988Y-158494387D01*
X268973078Y-158333477D01*
X268812168Y-158494387D01*
X268460030Y-158494387D01*
X268797009Y-158157408D01*
X269149147Y-158157408D01*
X269486126Y-158494387D01*
X269522104Y-158494387D01*
X269874242Y-158494387D01*
X270196063Y-158494387D01*
X270035152Y-158333476D01*
X269874242Y-158494387D01*
X269522104Y-158494387D01*
X269859083Y-158157408D01*
X270211222Y-158157408D01*
X270548201Y-158494387D01*
X270584179Y-158494387D01*
X270936317Y-158494387D01*
X271258137Y-158494387D01*
X271097227Y-158333477D01*
X270936317Y-158494387D01*
X270584179Y-158494387D01*
X270921158Y-158157408D01*
X271273296Y-158157408D01*
X271610275Y-158494387D01*
X271646253Y-158494387D01*
X271998391Y-158494387D01*
X272320211Y-158494387D01*
X272159301Y-158333477D01*
X271998391Y-158494387D01*
X271646253Y-158494387D01*
X271983232Y-158157408D01*
X272335370Y-158157408D01*
X272672349Y-158494387D01*
X272708327Y-158494387D01*
X273060466Y-158494387D01*
X273382286Y-158494387D01*
X273221376Y-158333477D01*
X273060466Y-158494387D01*
X272708327Y-158494387D01*
X273045305Y-158157408D01*
X273397445Y-158157408D01*
X273734424Y-158494387D01*
X273770402Y-158494387D01*
X274122540Y-158494387D01*
X274444360Y-158494387D01*
X274283450Y-158333477D01*
X274122540Y-158494387D01*
X273770402Y-158494387D01*
X274107381Y-158157408D01*
X274459519Y-158157408D01*
X274796498Y-158494387D01*
X274832476Y-158494387D01*
X275184614Y-158494387D01*
X275393439Y-158494387D01*
X275457423Y-158494376D01*
X275464347Y-158494568D01*
X275465746Y-158494646D01*
X275472698Y-158495230D01*
X275487924Y-158496942D01*
X275494770Y-158497906D01*
X275496152Y-158498140D01*
X275503007Y-158499501D01*
X275514070Y-158502022D01*
X275345524Y-158333476D01*
X275184614Y-158494387D01*
X274832476Y-158494387D01*
X275169455Y-158157408D01*
X275521594Y-158157408D01*
X275876562Y-158512376D01*
X276231530Y-158157408D01*
X276583668Y-158157408D01*
X276938636Y-158512376D01*
X277293604Y-158157408D01*
X276938636Y-157802440D01*
X276583668Y-158157408D01*
X276231530Y-158157408D01*
X275876562Y-157802440D01*
X275521594Y-158157408D01*
X275169455Y-158157408D01*
X274814487Y-157802440D01*
X274459519Y-158157408D01*
X274107381Y-158157408D01*
X273752413Y-157802440D01*
X273397445Y-158157408D01*
X273045305Y-158157408D01*
X273045306Y-158157407D01*
X272690338Y-157802439D01*
X272335370Y-158157408D01*
X271983232Y-158157408D01*
X271628264Y-157802440D01*
X271273296Y-158157408D01*
X270921158Y-158157408D01*
X270566190Y-157802440D01*
X270211222Y-158157408D01*
X269859083Y-158157408D01*
X269504115Y-157802440D01*
X269149147Y-158157408D01*
X268797009Y-158157408D01*
X268442041Y-157802440D01*
X268087073Y-158157408D01*
X267734935Y-158157408D01*
X267379966Y-157802439D01*
X267024998Y-158157407D01*
X266672859Y-158157407D01*
X266317892Y-157802440D01*
X265962924Y-158157408D01*
X265610786Y-158157408D01*
X265255818Y-157802440D01*
X264900850Y-158157408D01*
X264548711Y-158157408D01*
X264193743Y-157802440D01*
X263838775Y-158157408D01*
X263486637Y-158157408D01*
X263131669Y-157802440D01*
X262776701Y-158157408D01*
X262424563Y-158157408D01*
X262069595Y-157802440D01*
X261714627Y-158157408D01*
X261362488Y-158157408D01*
X261007520Y-157802440D01*
X260652552Y-158157408D01*
X260300414Y-158157408D01*
X259945446Y-157802440D01*
X259590478Y-158157408D01*
X259238338Y-158157408D01*
X259238339Y-158157407D01*
X258883371Y-157802439D01*
X258528403Y-158157408D01*
X258176265Y-158157408D01*
X257821297Y-157802440D01*
X257466329Y-158157408D01*
X257114191Y-158157408D01*
X256759223Y-157802440D01*
X256404255Y-158157408D01*
X256052116Y-158157408D01*
X255697148Y-157802440D01*
X255342180Y-158157408D01*
X254990042Y-158157408D01*
X254635074Y-157802440D01*
X254280106Y-158157408D01*
X253927968Y-158157408D01*
X253572999Y-157802439D01*
X253218031Y-158157407D01*
X252865892Y-158157407D01*
X252510925Y-157802440D01*
X252155957Y-158157408D01*
X251147297Y-158157408D01*
X251125860Y-158148565D01*
X251125716Y-158148449D01*
X251125697Y-158148497D01*
X251108452Y-158141354D01*
X251054048Y-158097514D01*
X251031983Y-158031220D01*
X251031905Y-158027381D01*
X251030981Y-157821305D01*
X251429985Y-157821305D01*
X251430720Y-157985099D01*
X251507555Y-157964512D01*
X251539648Y-157960287D01*
X251606698Y-157960287D01*
X251448851Y-157802440D01*
X251429985Y-157821305D01*
X251030981Y-157821305D01*
X251030591Y-157734332D01*
X251049975Y-157667208D01*
X251096680Y-157626370D01*
X251624919Y-157626370D01*
X251979888Y-157981339D01*
X252334856Y-157626370D01*
X252686993Y-157626370D01*
X253041962Y-157981339D01*
X253396930Y-157626370D01*
X253749068Y-157626370D01*
X254104037Y-157981339D01*
X254459005Y-157626370D01*
X254811142Y-157626370D01*
X255166111Y-157981339D01*
X255521079Y-157626370D01*
X255873217Y-157626370D01*
X256228185Y-157981339D01*
X256583154Y-157626370D01*
X256935291Y-157626370D01*
X257290260Y-157981339D01*
X257645228Y-157626370D01*
X257997365Y-157626370D01*
X258352334Y-157981339D01*
X258707302Y-157626370D01*
X259059440Y-157626370D01*
X259414409Y-157981339D01*
X259769377Y-157626370D01*
X260121514Y-157626370D01*
X260476483Y-157981339D01*
X260831451Y-157626370D01*
X261183588Y-157626370D01*
X261538557Y-157981339D01*
X261893525Y-157626370D01*
X262245663Y-157626370D01*
X262600632Y-157981339D01*
X262955600Y-157626370D01*
X263307737Y-157626370D01*
X263662706Y-157981339D01*
X264017674Y-157626370D01*
X264369812Y-157626370D01*
X264724780Y-157981339D01*
X265079749Y-157626370D01*
X265431886Y-157626370D01*
X265786855Y-157981339D01*
X266141823Y-157626370D01*
X266493960Y-157626370D01*
X266848929Y-157981339D01*
X267203897Y-157626370D01*
X267556035Y-157626370D01*
X267911004Y-157981339D01*
X268265972Y-157626370D01*
X268618109Y-157626370D01*
X268973078Y-157981339D01*
X269328046Y-157626370D01*
X269680184Y-157626370D01*
X270035152Y-157981339D01*
X270390121Y-157626370D01*
X270742258Y-157626370D01*
X271097227Y-157981339D01*
X271452195Y-157626370D01*
X271804332Y-157626370D01*
X272159301Y-157981339D01*
X272514269Y-157626370D01*
X272866407Y-157626370D01*
X273221376Y-157981339D01*
X273576344Y-157626370D01*
X273928481Y-157626370D01*
X274283450Y-157981339D01*
X274638418Y-157626370D01*
X274990555Y-157626370D01*
X275345524Y-157981339D01*
X275700492Y-157626370D01*
X276052630Y-157626370D01*
X276407599Y-157981339D01*
X276762566Y-157626371D01*
X277114705Y-157626371D01*
X277469672Y-157981338D01*
X277620403Y-157830607D01*
X277620287Y-157661287D01*
X277523848Y-157661287D01*
X277491755Y-157657062D01*
X277383663Y-157628099D01*
X277353755Y-157615711D01*
X277256843Y-157559758D01*
X277231163Y-157540052D01*
X277216093Y-157524982D01*
X277114705Y-157626371D01*
X276762566Y-157626371D01*
X276762567Y-157626370D01*
X276407599Y-157271402D01*
X276052630Y-157626370D01*
X275700492Y-157626370D01*
X275345524Y-157271402D01*
X274990555Y-157626370D01*
X274638418Y-157626370D01*
X274283450Y-157271402D01*
X273928481Y-157626370D01*
X273576344Y-157626370D01*
X273221376Y-157271402D01*
X272866407Y-157626370D01*
X272514269Y-157626370D01*
X272159301Y-157271402D01*
X271804332Y-157626370D01*
X271452195Y-157626370D01*
X271097227Y-157271402D01*
X270742258Y-157626370D01*
X270390121Y-157626370D01*
X270035152Y-157271402D01*
X269680184Y-157626370D01*
X269328046Y-157626370D01*
X268973078Y-157271402D01*
X268618109Y-157626370D01*
X268265972Y-157626370D01*
X267911004Y-157271402D01*
X267556035Y-157626370D01*
X267203897Y-157626370D01*
X266848929Y-157271402D01*
X266493960Y-157626370D01*
X266141823Y-157626370D01*
X265786855Y-157271402D01*
X265431886Y-157626370D01*
X265079749Y-157626370D01*
X264724780Y-157271402D01*
X264369812Y-157626370D01*
X264017674Y-157626370D01*
X263662706Y-157271402D01*
X263307737Y-157626370D01*
X262955600Y-157626370D01*
X262600632Y-157271402D01*
X262245663Y-157626370D01*
X261893525Y-157626370D01*
X261538557Y-157271402D01*
X261183588Y-157626370D01*
X260831451Y-157626370D01*
X260476483Y-157271402D01*
X260121514Y-157626370D01*
X259769377Y-157626370D01*
X259414409Y-157271402D01*
X259059440Y-157626370D01*
X258707302Y-157626370D01*
X258352334Y-157271402D01*
X257997365Y-157626370D01*
X257645228Y-157626370D01*
X257290260Y-157271402D01*
X256935291Y-157626370D01*
X256583154Y-157626370D01*
X256228185Y-157271402D01*
X255873217Y-157626370D01*
X255521079Y-157626370D01*
X255166111Y-157271402D01*
X254811142Y-157626370D01*
X254459005Y-157626370D01*
X254104037Y-157271402D01*
X253749068Y-157626370D01*
X253396930Y-157626370D01*
X253041962Y-157271402D01*
X252686993Y-157626370D01*
X252334856Y-157626370D01*
X251979888Y-157271402D01*
X251624919Y-157626370D01*
X251096680Y-157626370D01*
X251102573Y-157621217D01*
X251106938Y-157619301D01*
X251117925Y-157614730D01*
X251125686Y-157611503D01*
X251125855Y-157611433D01*
X251142849Y-157604393D01*
X251171897Y-157592362D01*
X251171900Y-157592358D01*
X251172215Y-157592148D01*
X251172215Y-157592147D01*
X251172217Y-157592147D01*
X251207065Y-157557193D01*
X251242364Y-157521895D01*
X251242365Y-157521892D01*
X251242575Y-157521577D01*
X251242578Y-157521574D01*
X251261514Y-157475662D01*
X251280500Y-157429826D01*
X251280500Y-157429821D01*
X251280573Y-157429451D01*
X251280575Y-157429448D01*
X251280500Y-157379949D01*
X251280500Y-157345652D01*
X251553500Y-157345652D01*
X251803819Y-157095333D01*
X252155957Y-157095333D01*
X252510925Y-157450301D01*
X252865893Y-157095333D01*
X252865892Y-157095332D01*
X253218031Y-157095332D01*
X253572999Y-157450301D01*
X253927968Y-157095333D01*
X254280106Y-157095333D01*
X254635074Y-157450301D01*
X254990042Y-157095333D01*
X255342180Y-157095333D01*
X255697148Y-157450301D01*
X256052116Y-157095333D01*
X256404255Y-157095333D01*
X256759223Y-157450301D01*
X257114191Y-157095333D01*
X257466329Y-157095333D01*
X257821297Y-157450301D01*
X258176265Y-157095333D01*
X258528403Y-157095333D01*
X258883371Y-157450301D01*
X259238338Y-157095333D01*
X259590478Y-157095333D01*
X259945446Y-157450301D01*
X260300414Y-157095333D01*
X260652552Y-157095333D01*
X261007520Y-157450301D01*
X261362488Y-157095333D01*
X261714627Y-157095333D01*
X262069595Y-157450301D01*
X262424563Y-157095333D01*
X262776701Y-157095333D01*
X263131669Y-157450301D01*
X263486637Y-157095333D01*
X263838775Y-157095333D01*
X264193743Y-157450301D01*
X264548711Y-157095333D01*
X264900850Y-157095333D01*
X265255818Y-157450301D01*
X265610786Y-157095333D01*
X265962924Y-157095333D01*
X266317892Y-157450301D01*
X266672860Y-157095333D01*
X266672859Y-157095332D01*
X267024998Y-157095332D01*
X267379966Y-157450301D01*
X267734935Y-157095333D01*
X268087073Y-157095333D01*
X268442041Y-157450301D01*
X268797009Y-157095333D01*
X269149147Y-157095333D01*
X269504115Y-157450301D01*
X269859083Y-157095333D01*
X270211222Y-157095333D01*
X270566190Y-157450301D01*
X270921158Y-157095333D01*
X271273296Y-157095333D01*
X271628264Y-157450301D01*
X271983232Y-157095333D01*
X272335370Y-157095333D01*
X272690338Y-157450301D01*
X273045305Y-157095333D01*
X273397445Y-157095333D01*
X273752413Y-157450301D01*
X274107381Y-157095333D01*
X274459519Y-157095333D01*
X274814487Y-157450301D01*
X275169455Y-157095333D01*
X275521594Y-157095333D01*
X275876562Y-157450301D01*
X276231530Y-157095333D01*
X276583668Y-157095333D01*
X276938635Y-157450300D01*
X277068828Y-157320108D01*
X277063988Y-157308424D01*
X277035025Y-157200332D01*
X277030800Y-157168239D01*
X277030800Y-157056335D01*
X277032768Y-157041387D01*
X276637614Y-157041387D01*
X276583668Y-157095333D01*
X276231530Y-157095333D01*
X276177584Y-157041387D01*
X275575540Y-157041387D01*
X275521594Y-157095333D01*
X275169455Y-157095333D01*
X275115509Y-157041387D01*
X274513465Y-157041387D01*
X274459519Y-157095333D01*
X274107381Y-157095333D01*
X274053435Y-157041387D01*
X273451391Y-157041387D01*
X273397445Y-157095333D01*
X273045305Y-157095333D01*
X273045306Y-157095332D01*
X272991361Y-157041387D01*
X272389316Y-157041387D01*
X272335370Y-157095333D01*
X271983232Y-157095333D01*
X271929286Y-157041387D01*
X271327242Y-157041387D01*
X271273296Y-157095333D01*
X270921158Y-157095333D01*
X270867212Y-157041387D01*
X270265168Y-157041387D01*
X270211222Y-157095333D01*
X269859083Y-157095333D01*
X269805137Y-157041387D01*
X269203093Y-157041387D01*
X269149147Y-157095333D01*
X268797009Y-157095333D01*
X268743063Y-157041387D01*
X268141019Y-157041387D01*
X268087073Y-157095333D01*
X267734935Y-157095333D01*
X267680989Y-157041387D01*
X267078944Y-157041387D01*
X267024998Y-157095332D01*
X266672859Y-157095332D01*
X266618914Y-157041387D01*
X266016870Y-157041387D01*
X265962924Y-157095333D01*
X265610786Y-157095333D01*
X265556840Y-157041387D01*
X264954796Y-157041387D01*
X264900850Y-157095333D01*
X264548711Y-157095333D01*
X264494765Y-157041387D01*
X263892721Y-157041387D01*
X263838775Y-157095333D01*
X263486637Y-157095333D01*
X263432691Y-157041387D01*
X262830647Y-157041387D01*
X262776701Y-157095333D01*
X262424563Y-157095333D01*
X262370617Y-157041387D01*
X261768573Y-157041387D01*
X261714627Y-157095333D01*
X261362488Y-157095333D01*
X261308542Y-157041387D01*
X260706498Y-157041387D01*
X260652552Y-157095333D01*
X260300414Y-157095333D01*
X260246468Y-157041387D01*
X259644424Y-157041387D01*
X259590478Y-157095333D01*
X259238338Y-157095333D01*
X259238339Y-157095332D01*
X259184394Y-157041387D01*
X258582349Y-157041387D01*
X258528403Y-157095333D01*
X258176265Y-157095333D01*
X258122319Y-157041387D01*
X257520275Y-157041387D01*
X257466329Y-157095333D01*
X257114191Y-157095333D01*
X257060245Y-157041387D01*
X256458201Y-157041387D01*
X256404255Y-157095333D01*
X256052116Y-157095333D01*
X255998170Y-157041387D01*
X255396126Y-157041387D01*
X255342180Y-157095333D01*
X254990042Y-157095333D01*
X254936096Y-157041387D01*
X254334052Y-157041387D01*
X254280106Y-157095333D01*
X253927968Y-157095333D01*
X253874022Y-157041387D01*
X253715942Y-157041387D01*
X253708961Y-157041190D01*
X253707560Y-157041111D01*
X253700661Y-157040529D01*
X253685427Y-157038813D01*
X253678535Y-157037840D01*
X253677152Y-157037605D01*
X253670330Y-157036248D01*
X253545424Y-157007738D01*
X253538719Y-157006009D01*
X253537371Y-157005621D01*
X253530710Y-157003499D01*
X253516240Y-156998435D01*
X253509734Y-156995950D01*
X253508438Y-156995413D01*
X253502102Y-156992578D01*
X253386672Y-156936989D01*
X253380472Y-156933785D01*
X253379896Y-156933467D01*
X253218031Y-157095332D01*
X252865892Y-157095332D01*
X252510925Y-156740365D01*
X252155957Y-157095333D01*
X251803819Y-157095333D01*
X251553500Y-156845014D01*
X251553500Y-157345652D01*
X251280500Y-157345652D01*
X251280500Y-156564296D01*
X251624920Y-156564296D01*
X251979888Y-156919264D01*
X252334856Y-156564296D01*
X252686994Y-156564296D01*
X253041961Y-156919263D01*
X253191146Y-156770078D01*
X253135311Y-156700059D01*
X253131173Y-156694563D01*
X253130361Y-156693420D01*
X253126453Y-156687575D01*
X253118297Y-156674594D01*
X253114756Y-156668590D01*
X253114077Y-156667361D01*
X253110892Y-156661194D01*
X253055308Y-156545762D01*
X253052475Y-156539430D01*
X253051938Y-156538134D01*
X253049447Y-156531611D01*
X253044385Y-156517140D01*
X253042276Y-156510519D01*
X253041888Y-156509172D01*
X253040151Y-156502437D01*
X253011648Y-156377532D01*
X253010295Y-156370732D01*
X253010060Y-156369350D01*
X253009084Y-156362445D01*
X253007368Y-156347213D01*
X253006786Y-156340312D01*
X253006707Y-156338911D01*
X253006510Y-156331930D01*
X253006510Y-156331431D01*
X253006500Y-156331229D01*
X253006499Y-156244790D01*
X252686994Y-156564296D01*
X252334856Y-156564296D01*
X251979888Y-156209328D01*
X251624920Y-156564296D01*
X251280500Y-156564296D01*
X251280500Y-156283578D01*
X251553500Y-156283578D01*
X251803819Y-156033259D01*
X252155957Y-156033259D01*
X252510925Y-156388227D01*
X252865893Y-156033259D01*
X252510925Y-155678291D01*
X252155957Y-156033259D01*
X251803819Y-156033259D01*
X251553500Y-155782940D01*
X251553500Y-156283578D01*
X251280500Y-156283578D01*
X251280500Y-155502222D01*
X251624920Y-155502222D01*
X251979888Y-155857190D01*
X252334856Y-155502222D01*
X252686994Y-155502222D01*
X253006499Y-155821727D01*
X253006499Y-155182717D01*
X252686994Y-155502222D01*
X252334856Y-155502222D01*
X251979888Y-155147254D01*
X251624920Y-155502222D01*
X251280500Y-155502222D01*
X251280500Y-154942010D01*
X251280590Y-154941094D01*
X251280500Y-154879632D01*
X251280500Y-154830167D01*
X251280428Y-154829807D01*
X251274982Y-154816714D01*
X251261291Y-154783795D01*
X251242364Y-154738101D01*
X251242362Y-154738099D01*
X251242361Y-154738096D01*
X251242158Y-154737792D01*
X251206872Y-154702609D01*
X251206743Y-154702480D01*
X251186245Y-154681981D01*
X251514616Y-154681981D01*
X251537678Y-154737430D01*
X251541833Y-154749011D01*
X251542555Y-154751388D01*
X251545563Y-154763426D01*
X251545566Y-154763442D01*
X251545594Y-154763551D01*
X251548291Y-154777093D01*
X251548290Y-154777093D01*
X251550784Y-154789583D01*
X251550806Y-154789738D01*
X251550809Y-154789738D01*
X251550878Y-154790085D01*
X251552661Y-154802105D01*
X251552902Y-154804550D01*
X251553500Y-154816714D01*
X251553500Y-154879413D01*
X251553593Y-154942569D01*
X251553500Y-154944509D01*
X251553500Y-155221504D01*
X251803819Y-154971184D01*
X252155956Y-154971184D01*
X252510925Y-155326153D01*
X252865893Y-154971184D01*
X252510925Y-154616216D01*
X252155956Y-154971184D01*
X251803819Y-154971184D01*
X251514616Y-154681981D01*
X251186245Y-154681981D01*
X251171896Y-154667632D01*
X251171594Y-154667430D01*
X251171587Y-154667427D01*
X251125860Y-154648564D01*
X251125715Y-154648448D01*
X251125696Y-154648496D01*
X251092730Y-154634841D01*
X251038327Y-154591000D01*
X251016262Y-154524706D01*
X251016185Y-154520886D01*
X251015823Y-154440147D01*
X251624920Y-154440147D01*
X251979888Y-154795115D01*
X252334856Y-154440147D01*
X252686994Y-154440147D01*
X253006499Y-154759652D01*
X253006499Y-154120642D01*
X252686994Y-154440147D01*
X252334856Y-154440147D01*
X251979888Y-154085179D01*
X251624920Y-154440147D01*
X251015823Y-154440147D01*
X251014929Y-154240846D01*
X251017257Y-154232783D01*
X251417556Y-154232783D01*
X251448851Y-154264078D01*
X251803819Y-153909110D01*
X252155957Y-153909110D01*
X252510925Y-154264078D01*
X252865893Y-153909110D01*
X252510925Y-153554142D01*
X252155957Y-153909110D01*
X251803819Y-153909110D01*
X251553500Y-153658791D01*
X251553500Y-153879415D01*
X251553593Y-153942571D01*
X251553008Y-153954789D01*
X251552768Y-153957250D01*
X251550945Y-153969532D01*
X251550889Y-153969810D01*
X251550874Y-153969917D01*
X251548419Y-153982251D01*
X251548420Y-153982252D01*
X251545714Y-153995898D01*
X251545681Y-153996026D01*
X251545650Y-153996185D01*
X251542687Y-154008036D01*
X251541972Y-154010395D01*
X251537863Y-154021882D01*
X251514179Y-154079055D01*
X251514180Y-154079056D01*
X251489750Y-154138281D01*
X251484494Y-154149419D01*
X251483321Y-154151615D01*
X251476963Y-154162209D01*
X251469537Y-154173291D01*
X251469538Y-154173292D01*
X251462167Y-154184378D01*
X251454843Y-154194287D01*
X251453269Y-154196209D01*
X251445014Y-154205326D01*
X251417556Y-154232783D01*
X251017257Y-154232783D01*
X251034312Y-154173725D01*
X251086910Y-154127734D01*
X251091309Y-154125804D01*
X251126204Y-154111291D01*
X251126211Y-154111310D01*
X251126361Y-154111224D01*
X251171897Y-154092364D01*
X251171901Y-154092359D01*
X251172041Y-154092267D01*
X251172199Y-154092160D01*
X251172207Y-154092157D01*
X251207389Y-154056872D01*
X251242364Y-154021897D01*
X251242366Y-154021890D01*
X251242490Y-154021706D01*
X251242564Y-154021593D01*
X251242571Y-154021587D01*
X251261571Y-153975526D01*
X251261572Y-153975526D01*
X251261602Y-153975449D01*
X251280500Y-153929828D01*
X251280500Y-153929823D01*
X251280571Y-153929465D01*
X251280573Y-153929462D01*
X251280500Y-153879634D01*
X251280500Y-153378073D01*
X251624920Y-153378073D01*
X251979888Y-153733041D01*
X252334856Y-153378073D01*
X252686994Y-153378073D01*
X253006499Y-153697578D01*
X253006499Y-153058568D01*
X252686994Y-153378073D01*
X252334856Y-153378073D01*
X251979888Y-153023105D01*
X251624920Y-153378073D01*
X251280500Y-153378073D01*
X251280500Y-153097355D01*
X251553500Y-153097355D01*
X251803819Y-152847036D01*
X252155957Y-152847036D01*
X252510925Y-153202004D01*
X252865893Y-152847036D01*
X252510925Y-152492068D01*
X252155957Y-152847036D01*
X251803819Y-152847036D01*
X251553500Y-152596717D01*
X251553500Y-153097355D01*
X251280500Y-153097355D01*
X251280500Y-152315999D01*
X251624920Y-152315999D01*
X251979888Y-152670967D01*
X252334856Y-152315999D01*
X252686994Y-152315999D01*
X253006499Y-152635504D01*
X253006499Y-151996494D01*
X252686994Y-152315999D01*
X252334856Y-152315999D01*
X251979888Y-151961031D01*
X251624920Y-152315999D01*
X251280500Y-152315999D01*
X251280500Y-152035280D01*
X251553500Y-152035280D01*
X251803819Y-151784961D01*
X252155956Y-151784961D01*
X252510925Y-152139929D01*
X252865893Y-151784961D01*
X252510925Y-151429993D01*
X252155956Y-151784961D01*
X251803819Y-151784961D01*
X251553500Y-151534642D01*
X251553500Y-152035280D01*
X251280500Y-152035280D01*
X251280500Y-151253923D01*
X251624919Y-151253923D01*
X251979888Y-151608892D01*
X252334856Y-151253924D01*
X252686994Y-151253924D01*
X253006499Y-151573429D01*
X253006499Y-151528025D01*
X253006498Y-151528015D01*
X253006499Y-151467873D01*
X253006499Y-151409888D01*
X253006500Y-151409841D01*
X253006501Y-151392539D01*
X253006698Y-151385565D01*
X253006777Y-151384164D01*
X253007360Y-151377254D01*
X253009077Y-151362023D01*
X253010049Y-151355142D01*
X253010284Y-151353759D01*
X253011642Y-151346934D01*
X253045169Y-151200066D01*
X253046904Y-151193341D01*
X253047292Y-151191994D01*
X253049407Y-151185356D01*
X253054471Y-151170886D01*
X253056943Y-151164411D01*
X253057480Y-151163114D01*
X253060329Y-151156745D01*
X253125695Y-151021019D01*
X253128898Y-151014821D01*
X253129577Y-151013593D01*
X253133106Y-151007613D01*
X253139864Y-150996858D01*
X253041962Y-150898956D01*
X252686994Y-151253924D01*
X252334856Y-151253924D01*
X251979888Y-150898956D01*
X251972092Y-150906751D01*
X251959064Y-150934692D01*
X251954073Y-150944280D01*
X251952982Y-150946170D01*
X251947166Y-150955300D01*
X251933469Y-150974862D01*
X251926854Y-150983480D01*
X251925450Y-150985152D01*
X251918170Y-150993093D01*
X251817000Y-151094263D01*
X251809059Y-151101543D01*
X251807387Y-151102947D01*
X251798769Y-151109562D01*
X251779207Y-151123259D01*
X251770077Y-151129075D01*
X251768187Y-151130166D01*
X251758599Y-151135157D01*
X251730656Y-151148186D01*
X251624919Y-151253923D01*
X251280500Y-151253923D01*
X251280500Y-151073636D01*
X251300185Y-151006597D01*
X251352989Y-150960842D01*
X251404500Y-150949636D01*
X251475148Y-150949636D01*
X251489211Y-150947784D01*
X251524374Y-150943156D01*
X251632403Y-150892781D01*
X251716688Y-150808496D01*
X251756608Y-150722887D01*
X252155957Y-150722887D01*
X252510925Y-151077855D01*
X252865893Y-150722887D01*
X252865892Y-150722886D01*
X253218031Y-150722886D01*
X253304632Y-150809487D01*
X253394282Y-150737998D01*
X253399821Y-150733829D01*
X253400965Y-150733017D01*
X253406764Y-150729142D01*
X253419744Y-150720986D01*
X253425745Y-150717446D01*
X253426972Y-150716768D01*
X253433143Y-150713581D01*
X253568872Y-150648218D01*
X253575282Y-150645351D01*
X253576578Y-150644815D01*
X253583009Y-150642362D01*
X253597479Y-150637298D01*
X253604140Y-150635176D01*
X253605488Y-150634788D01*
X253612195Y-150633059D01*
X253759066Y-150599538D01*
X253765886Y-150598181D01*
X253767269Y-150597946D01*
X253774161Y-150596973D01*
X253789395Y-150595257D01*
X253796294Y-150594675D01*
X253797695Y-150594596D01*
X253799622Y-150594541D01*
X253799468Y-150594387D01*
X254408606Y-150594387D01*
X254861542Y-150594387D01*
X255470680Y-150594387D01*
X255923616Y-150594387D01*
X256532755Y-150594387D01*
X256985691Y-150594387D01*
X257594829Y-150594387D01*
X258047765Y-150594387D01*
X258656903Y-150594387D01*
X259109840Y-150594387D01*
X259718978Y-150594387D01*
X260171914Y-150594387D01*
X259945446Y-150367919D01*
X259718978Y-150594387D01*
X259109840Y-150594387D01*
X258883371Y-150367918D01*
X258656903Y-150594387D01*
X258047765Y-150594387D01*
X257821297Y-150367919D01*
X257594829Y-150594387D01*
X256985691Y-150594387D01*
X256759223Y-150367919D01*
X256532755Y-150594387D01*
X255923616Y-150594387D01*
X255697148Y-150367919D01*
X255470680Y-150594387D01*
X254861542Y-150594387D01*
X254635074Y-150367919D01*
X254408606Y-150594387D01*
X253799468Y-150594387D01*
X253572999Y-150367918D01*
X253218031Y-150722886D01*
X252865892Y-150722886D01*
X252510925Y-150367919D01*
X252155957Y-150722887D01*
X251756608Y-150722887D01*
X251767063Y-150700467D01*
X251773544Y-150651240D01*
X251773544Y-150480162D01*
X252046543Y-150480162D01*
X252334856Y-150191850D01*
X252686994Y-150191850D01*
X253041962Y-150546818D01*
X253396930Y-150191850D01*
X253749069Y-150191850D01*
X254104037Y-150546818D01*
X254459005Y-150191850D01*
X254811143Y-150191850D01*
X255166111Y-150546818D01*
X255521079Y-150191850D01*
X255521078Y-150191849D01*
X255873217Y-150191849D01*
X256228185Y-150546818D01*
X256583154Y-150191850D01*
X256935292Y-150191850D01*
X257290260Y-150546818D01*
X257645228Y-150191850D01*
X257997366Y-150191850D01*
X258352334Y-150546818D01*
X258707302Y-150191850D01*
X259059441Y-150191850D01*
X259414409Y-150546818D01*
X259769377Y-150191850D01*
X259414409Y-149836882D01*
X259059441Y-150191850D01*
X258707302Y-150191850D01*
X258352334Y-149836882D01*
X257997366Y-150191850D01*
X257645228Y-150191850D01*
X257290260Y-149836882D01*
X256935292Y-150191850D01*
X256583154Y-150191850D01*
X256228185Y-149836881D01*
X255873217Y-150191849D01*
X255521078Y-150191849D01*
X255166111Y-149836882D01*
X254811143Y-150191850D01*
X254459005Y-150191850D01*
X254104037Y-149836882D01*
X253749069Y-150191850D01*
X253396930Y-150191850D01*
X253041962Y-149836882D01*
X252686994Y-150191850D01*
X252334856Y-150191850D01*
X252046543Y-149903537D01*
X252046543Y-150480162D01*
X251773544Y-150480162D01*
X251773543Y-149875362D01*
X252370506Y-149875362D01*
X252510925Y-150015781D01*
X252865893Y-149660813D01*
X253218031Y-149660813D01*
X253572999Y-150015781D01*
X253927968Y-149660813D01*
X254280106Y-149660813D01*
X254635074Y-150015781D01*
X254990042Y-149660813D01*
X255342180Y-149660813D01*
X255697148Y-150015781D01*
X256052116Y-149660813D01*
X256404255Y-149660813D01*
X256759223Y-150015781D01*
X257114191Y-149660813D01*
X257466329Y-149660813D01*
X257821297Y-150015781D01*
X258127884Y-149709193D01*
X258113955Y-149703424D01*
X258110804Y-149701605D01*
X258569195Y-149701605D01*
X258883371Y-150015781D01*
X259238339Y-149660813D01*
X259590478Y-149660813D01*
X259945445Y-150015780D01*
X260190500Y-149770726D01*
X260190500Y-149550899D01*
X259945446Y-149305845D01*
X259590478Y-149660813D01*
X259238339Y-149660813D01*
X258883371Y-149305844D01*
X258878773Y-149310442D01*
X258855812Y-149396137D01*
X258843424Y-149426045D01*
X258787471Y-149522957D01*
X258767765Y-149548637D01*
X258688637Y-149627765D01*
X258662957Y-149647471D01*
X258569195Y-149701605D01*
X258110804Y-149701605D01*
X258017043Y-149647471D01*
X257991363Y-149627765D01*
X257912235Y-149548637D01*
X257892529Y-149522957D01*
X257836576Y-149426045D01*
X257824188Y-149396137D01*
X257804496Y-149322645D01*
X257466329Y-149660813D01*
X257114191Y-149660813D01*
X256759223Y-149305845D01*
X256404255Y-149660813D01*
X256052116Y-149660813D01*
X255697148Y-149305845D01*
X255342180Y-149660813D01*
X254990042Y-149660813D01*
X254635074Y-149305845D01*
X254280106Y-149660813D01*
X253927968Y-149660813D01*
X253572999Y-149305844D01*
X253218031Y-149660813D01*
X252865893Y-149660813D01*
X252768065Y-149562985D01*
X252623500Y-149707551D01*
X252623500Y-149707552D01*
X252561225Y-149769826D01*
X252555317Y-149775360D01*
X252554087Y-149776439D01*
X252547804Y-149781596D01*
X252533609Y-149792489D01*
X252526989Y-149797232D01*
X252525628Y-149798141D01*
X252518758Y-149802412D01*
X252434741Y-149850919D01*
X252427589Y-149854742D01*
X252426121Y-149855466D01*
X252418723Y-149858818D01*
X252402194Y-149865664D01*
X252394592Y-149868525D01*
X252393042Y-149869051D01*
X252385289Y-149871402D01*
X252370506Y-149875362D01*
X251773543Y-149875362D01*
X251773543Y-149754499D01*
X251793227Y-149687461D01*
X251846031Y-149641706D01*
X251897543Y-149630500D01*
X252229560Y-149630500D01*
X252229562Y-149630500D01*
X252305989Y-149610021D01*
X252374511Y-149570460D01*
X252430460Y-149514511D01*
X252558055Y-149386915D01*
X252944134Y-149386915D01*
X253041962Y-149484743D01*
X253211821Y-149314884D01*
X253211811Y-149314888D01*
X253210262Y-149315414D01*
X253202485Y-149317774D01*
X253057909Y-149356513D01*
X253049988Y-149358359D01*
X253048383Y-149358678D01*
X253040399Y-149359996D01*
X253022660Y-149362332D01*
X253014579Y-149363128D01*
X253012946Y-149363235D01*
X253004838Y-149363500D01*
X252967551Y-149363500D01*
X252944134Y-149386915D01*
X252558055Y-149386915D01*
X252815194Y-149129775D01*
X253749068Y-149129775D01*
X254104037Y-149484743D01*
X254459005Y-149129775D01*
X254811142Y-149129775D01*
X255166111Y-149484743D01*
X255521079Y-149129775D01*
X255873217Y-149129775D01*
X256228185Y-149484743D01*
X256583154Y-149129775D01*
X256935291Y-149129775D01*
X257290260Y-149484743D01*
X257645228Y-149129775D01*
X259059440Y-149129775D01*
X259414409Y-149484743D01*
X259769377Y-149129775D01*
X259414409Y-148774807D01*
X259059440Y-149129775D01*
X257645228Y-149129775D01*
X257290260Y-148774807D01*
X256935291Y-149129775D01*
X256583154Y-149129775D01*
X256228185Y-148774806D01*
X255873217Y-149129775D01*
X255521079Y-149129775D01*
X255166111Y-148774807D01*
X254811142Y-149129775D01*
X254459005Y-149129775D01*
X254104037Y-148774807D01*
X253749068Y-149129775D01*
X252815194Y-149129775D01*
X252818151Y-149126818D01*
X252879474Y-149093334D01*
X252905832Y-149090500D01*
X252995890Y-149090500D01*
X252995892Y-149090500D01*
X253123186Y-149056392D01*
X253237314Y-148990500D01*
X253330500Y-148897314D01*
X253345218Y-148871822D01*
X253654883Y-148871822D01*
X253920610Y-148606095D01*
X253831940Y-148657290D01*
X253824787Y-148661113D01*
X253823319Y-148661837D01*
X253815916Y-148665191D01*
X253799385Y-148672037D01*
X253791811Y-148674888D01*
X253790262Y-148675414D01*
X253782485Y-148677774D01*
X253700067Y-148699857D01*
X253699996Y-148700399D01*
X253698678Y-148708383D01*
X253698359Y-148709988D01*
X253696513Y-148717909D01*
X253657774Y-148862485D01*
X253655414Y-148870262D01*
X253654888Y-148871811D01*
X253654883Y-148871822D01*
X253345218Y-148871822D01*
X253396392Y-148783186D01*
X253430500Y-148655892D01*
X253430500Y-148598738D01*
X254280106Y-148598738D01*
X254635074Y-148953706D01*
X254990042Y-148598738D01*
X255342180Y-148598738D01*
X255697148Y-148953706D01*
X256052116Y-148598738D01*
X256404255Y-148598738D01*
X256759223Y-148953706D01*
X257114191Y-148598738D01*
X257466329Y-148598738D01*
X257821296Y-148953705D01*
X257885112Y-148889889D01*
X257892531Y-148877040D01*
X257912235Y-148851363D01*
X257991363Y-148772235D01*
X258017040Y-148752531D01*
X258029891Y-148745110D01*
X258176263Y-148598738D01*
X258528403Y-148598738D01*
X258883371Y-148953706D01*
X259238339Y-148598738D01*
X259590478Y-148598738D01*
X259945445Y-148953705D01*
X260190500Y-148708651D01*
X260190500Y-148488824D01*
X259945446Y-148243770D01*
X259590478Y-148598738D01*
X259238339Y-148598738D01*
X258883371Y-148243769D01*
X258528403Y-148598738D01*
X258176263Y-148598738D01*
X258176264Y-148598737D01*
X257821297Y-148243770D01*
X257466329Y-148598738D01*
X257114191Y-148598738D01*
X256759223Y-148243770D01*
X256404255Y-148598738D01*
X256052116Y-148598738D01*
X255697148Y-148243770D01*
X255342180Y-148598738D01*
X254990042Y-148598738D01*
X254635074Y-148243770D01*
X254280106Y-148598738D01*
X253430500Y-148598738D01*
X253430500Y-148574500D01*
X253450185Y-148507461D01*
X253502989Y-148461706D01*
X253554500Y-148450500D01*
X253575890Y-148450500D01*
X253575892Y-148450500D01*
X253703186Y-148416392D01*
X253799803Y-148360610D01*
X254166095Y-148360610D01*
X254459005Y-148067701D01*
X254811143Y-148067701D01*
X255166111Y-148422669D01*
X255521079Y-148067701D01*
X255873217Y-148067701D01*
X256228185Y-148422669D01*
X256578453Y-148072401D01*
X256563902Y-148068502D01*
X256936093Y-148068502D01*
X257290260Y-148422669D01*
X257645228Y-148067701D01*
X257997366Y-148067701D01*
X258352334Y-148422669D01*
X258707302Y-148067701D01*
X259059441Y-148067701D01*
X259414409Y-148422669D01*
X259769377Y-148067701D01*
X259414409Y-147712733D01*
X259059441Y-148067701D01*
X258707302Y-148067701D01*
X258352334Y-147712733D01*
X257997366Y-148067701D01*
X257645228Y-148067701D01*
X257290260Y-147712733D01*
X257269089Y-147733903D01*
X257265812Y-147746136D01*
X257253424Y-147776045D01*
X257197471Y-147872957D01*
X257177765Y-147898637D01*
X257098637Y-147977765D01*
X257072957Y-147997471D01*
X256976045Y-148053424D01*
X256946136Y-148065812D01*
X256936093Y-148068502D01*
X256563902Y-148068502D01*
X256553863Y-148065812D01*
X256523955Y-148053424D01*
X256427043Y-147997471D01*
X256401363Y-147977765D01*
X256322235Y-147898637D01*
X256302529Y-147872957D01*
X256246576Y-147776045D01*
X256234188Y-147746138D01*
X256225860Y-147715058D01*
X255873217Y-148067701D01*
X255521079Y-148067701D01*
X255166111Y-147712733D01*
X254811143Y-148067701D01*
X254459005Y-148067701D01*
X254283500Y-147892196D01*
X254283500Y-148024838D01*
X254283235Y-148032946D01*
X254283128Y-148034579D01*
X254282332Y-148042660D01*
X254279996Y-148060399D01*
X254278678Y-148068383D01*
X254278359Y-148069988D01*
X254276513Y-148077909D01*
X254237774Y-148222485D01*
X254235414Y-148230262D01*
X254234888Y-148231811D01*
X254232037Y-148239385D01*
X254225191Y-148255916D01*
X254221837Y-148263319D01*
X254221113Y-148264787D01*
X254217290Y-148271940D01*
X254166095Y-148360610D01*
X253799803Y-148360610D01*
X253817314Y-148350500D01*
X253910500Y-148257314D01*
X253976392Y-148143186D01*
X254010500Y-148015892D01*
X254010500Y-147884108D01*
X253976392Y-147756814D01*
X253910500Y-147642686D01*
X253817314Y-147549500D01*
X253795081Y-147536664D01*
X254280106Y-147536664D01*
X254635074Y-147891632D01*
X254990042Y-147536664D01*
X255342180Y-147536664D01*
X255697148Y-147891632D01*
X256052116Y-147536664D01*
X257466329Y-147536664D01*
X257821297Y-147891632D01*
X258176265Y-147536664D01*
X258528403Y-147536664D01*
X258883371Y-147891632D01*
X259238339Y-147536664D01*
X259590478Y-147536664D01*
X259945445Y-147891631D01*
X260190500Y-147646577D01*
X260190500Y-147426750D01*
X259945446Y-147181696D01*
X259590478Y-147536664D01*
X259238339Y-147536664D01*
X258883371Y-147181695D01*
X258528403Y-147536664D01*
X258176265Y-147536664D01*
X257821297Y-147181696D01*
X257466329Y-147536664D01*
X256052116Y-147536664D01*
X255697148Y-147181696D01*
X255342180Y-147536664D01*
X254990042Y-147536664D01*
X254635074Y-147181696D01*
X254280106Y-147536664D01*
X253795081Y-147536664D01*
X253737096Y-147503186D01*
X253703187Y-147483608D01*
X253639539Y-147466554D01*
X253575892Y-147449500D01*
X253444108Y-147449500D01*
X253316812Y-147483608D01*
X253202686Y-147549500D01*
X253202683Y-147549502D01*
X253139005Y-147613181D01*
X253077682Y-147646666D01*
X253051324Y-147649500D01*
X252600438Y-147649500D01*
X252549486Y-147663152D01*
X252524010Y-147669979D01*
X252479096Y-147695911D01*
X252479094Y-147695912D01*
X252455490Y-147709539D01*
X252455487Y-147709541D01*
X252139710Y-148025318D01*
X252078387Y-148058803D01*
X252052029Y-148061637D01*
X251422044Y-148061637D01*
X251355005Y-148041952D01*
X251309250Y-147989148D01*
X251298044Y-147937637D01*
X251298044Y-147811637D01*
X251172044Y-147811637D01*
X251105005Y-147791952D01*
X251059250Y-147739148D01*
X251048044Y-147687637D01*
X251048044Y-146655461D01*
X251548044Y-146655461D01*
X251548044Y-147561637D01*
X252073043Y-147561637D01*
X252073043Y-147346578D01*
X252346043Y-147346578D01*
X252346043Y-147457495D01*
X252395258Y-147429081D01*
X252402410Y-147425258D01*
X252403878Y-147424534D01*
X252411276Y-147421182D01*
X252427805Y-147414336D01*
X252435407Y-147411475D01*
X252436957Y-147410949D01*
X252444711Y-147408597D01*
X252538420Y-147383487D01*
X252546341Y-147381641D01*
X252547946Y-147381322D01*
X252555930Y-147380004D01*
X252573669Y-147377668D01*
X252581750Y-147376872D01*
X252583383Y-147376765D01*
X252591491Y-147376500D01*
X252705729Y-147376500D01*
X252510925Y-147181696D01*
X252346043Y-147346578D01*
X252073043Y-147346578D01*
X252073043Y-147222265D01*
X252073042Y-147222243D01*
X252070199Y-147186115D01*
X252025264Y-147031447D01*
X252025263Y-147031444D01*
X251982650Y-146959388D01*
X252288617Y-146959388D01*
X252309436Y-147031046D01*
X252334856Y-147005627D01*
X252334855Y-147005626D01*
X252686993Y-147005626D01*
X253024086Y-147342719D01*
X253029394Y-147338363D01*
X253043588Y-147327471D01*
X253050207Y-147322729D01*
X253051568Y-147321820D01*
X253058437Y-147317550D01*
X253121302Y-147281253D01*
X253161908Y-147240647D01*
X253143863Y-147235812D01*
X253113955Y-147223424D01*
X253017043Y-147167471D01*
X252991363Y-147147765D01*
X252912235Y-147068637D01*
X252892994Y-147043563D01*
X253787005Y-147043563D01*
X254104037Y-147360595D01*
X254459005Y-147005627D01*
X254811143Y-147005627D01*
X255166111Y-147360595D01*
X255521079Y-147005627D01*
X255873217Y-147005627D01*
X256228185Y-147360594D01*
X256233922Y-147354857D01*
X256234189Y-147353861D01*
X256246576Y-147323955D01*
X256302529Y-147227043D01*
X256322235Y-147201363D01*
X256401363Y-147122235D01*
X256427043Y-147102529D01*
X256523955Y-147046576D01*
X256553861Y-147034189D01*
X256554857Y-147033922D01*
X256583152Y-147005627D01*
X256935292Y-147005627D01*
X256976508Y-147046843D01*
X257072957Y-147102529D01*
X257098637Y-147122235D01*
X257177765Y-147201363D01*
X257197471Y-147227043D01*
X257253156Y-147323491D01*
X257290260Y-147360595D01*
X257645228Y-147005627D01*
X257997366Y-147005627D01*
X258352334Y-147360595D01*
X258707302Y-147005627D01*
X259059441Y-147005627D01*
X259414409Y-147360595D01*
X259769377Y-147005627D01*
X259414409Y-146650659D01*
X259059441Y-147005627D01*
X258707302Y-147005627D01*
X258352334Y-146650659D01*
X257997366Y-147005627D01*
X257645228Y-147005627D01*
X257290260Y-146650659D01*
X256935292Y-147005627D01*
X256583152Y-147005627D01*
X256583153Y-147005626D01*
X256228185Y-146650658D01*
X255873217Y-147005627D01*
X255521079Y-147005627D01*
X255166111Y-146650659D01*
X254811143Y-147005627D01*
X254459005Y-147005627D01*
X254104036Y-146650658D01*
X253862126Y-146892568D01*
X253855812Y-146916136D01*
X253843424Y-146946045D01*
X253787471Y-147042957D01*
X253787005Y-147043563D01*
X252892994Y-147043563D01*
X252892529Y-147042957D01*
X252836576Y-146946045D01*
X252824188Y-146916137D01*
X252814106Y-146878513D01*
X252686993Y-147005626D01*
X252334855Y-147005626D01*
X252288617Y-146959388D01*
X251982650Y-146959388D01*
X251943273Y-146892805D01*
X251943267Y-146892797D01*
X251829383Y-146778913D01*
X251829375Y-146778907D01*
X251690736Y-146696917D01*
X251690733Y-146696915D01*
X251548045Y-146655460D01*
X251548044Y-146655461D01*
X251048044Y-146655461D01*
X251048042Y-146655460D01*
X250905354Y-146696915D01*
X250905351Y-146696917D01*
X250766712Y-146778907D01*
X250766708Y-146778910D01*
X250652817Y-146892802D01*
X250648034Y-146898969D01*
X250645722Y-146897176D01*
X250604692Y-146935461D01*
X250549067Y-146948637D01*
X250220939Y-146948637D01*
X250171718Y-146955117D01*
X250171710Y-146955119D01*
X250063684Y-147005493D01*
X250035725Y-147033453D01*
X249974402Y-147066938D01*
X249904710Y-147061954D01*
X249860363Y-147033453D01*
X249832403Y-147005493D01*
X249816081Y-146997882D01*
X249724374Y-146955118D01*
X249724372Y-146955117D01*
X249675157Y-146948638D01*
X249675152Y-146948637D01*
X249675147Y-146948637D01*
X249675140Y-146948637D01*
X249320939Y-146948637D01*
X249271718Y-146955117D01*
X249271710Y-146955119D01*
X249180007Y-146997882D01*
X249127602Y-147009500D01*
X248898676Y-147009500D01*
X248831637Y-146989815D01*
X248810995Y-146973181D01*
X248747316Y-146909502D01*
X248747314Y-146909500D01*
X248690250Y-146876554D01*
X248633187Y-146843608D01*
X248569539Y-146826554D01*
X248505892Y-146809500D01*
X248374108Y-146809500D01*
X248246812Y-146843608D01*
X248132686Y-146909500D01*
X248132683Y-146909502D01*
X248039502Y-147002683D01*
X248039500Y-147002686D01*
X247973608Y-147116812D01*
X247941723Y-147235812D01*
X247939500Y-147244108D01*
X247939500Y-147375892D01*
X247953127Y-147426750D01*
X247973608Y-147503187D01*
X248000347Y-147549500D01*
X248039500Y-147617314D01*
X248132686Y-147710500D01*
X248246814Y-147776392D01*
X248374108Y-147810500D01*
X248374110Y-147810500D01*
X248505890Y-147810500D01*
X248505892Y-147810500D01*
X248633186Y-147776392D01*
X248747314Y-147710500D01*
X248810866Y-147646947D01*
X248872185Y-147613465D01*
X248941877Y-147618449D01*
X248997811Y-147660320D01*
X249022228Y-147725784D01*
X249022544Y-147734631D01*
X249022544Y-148376241D01*
X249029024Y-148425462D01*
X249029026Y-148425470D01*
X249048044Y-148466253D01*
X249079400Y-148533496D01*
X249163685Y-148617781D01*
X249271714Y-148668156D01*
X249272414Y-148668248D01*
X249274400Y-148668510D01*
X249277244Y-148669768D01*
X249280825Y-148670812D01*
X249280685Y-148671290D01*
X249338297Y-148696775D01*
X249376769Y-148755099D01*
X249377602Y-148824964D01*
X249345900Y-148879129D01*
X249313533Y-148911496D01*
X249257585Y-148967443D01*
X249257579Y-148967451D01*
X249218026Y-149035960D01*
X249218023Y-149035965D01*
X249204717Y-149085625D01*
X249199229Y-149106108D01*
X249197544Y-149112395D01*
X249197544Y-149195272D01*
X249177859Y-149262311D01*
X249161225Y-149282953D01*
X249079400Y-149364777D01*
X249040533Y-149448128D01*
X248994360Y-149500567D01*
X248927167Y-149519719D01*
X248860286Y-149499503D01*
X248829776Y-149471210D01*
X248798126Y-149429964D01*
X248672786Y-149333786D01*
X248526831Y-149273331D01*
X248470200Y-149265874D01*
X248470200Y-149863887D01*
X248450515Y-149930926D01*
X248397711Y-149976681D01*
X248346200Y-149987887D01*
X248194200Y-149987887D01*
X248127161Y-149968202D01*
X248081406Y-149915398D01*
X248070200Y-149863887D01*
X248070200Y-149265874D01*
X248013571Y-149273330D01*
X247861952Y-149336132D01*
X247792482Y-149343600D01*
X247730003Y-149312324D01*
X247694351Y-149252235D01*
X247690500Y-149221570D01*
X247690500Y-149003055D01*
X248565416Y-149003055D01*
X248571337Y-149003835D01*
X248579323Y-149005153D01*
X248580928Y-149005472D01*
X248588852Y-149007319D01*
X248606133Y-149011950D01*
X248613884Y-149014301D01*
X248615434Y-149014827D01*
X248623038Y-149017689D01*
X248785525Y-149084992D01*
X248792921Y-149088343D01*
X248794389Y-149089067D01*
X248801543Y-149092891D01*
X248817039Y-149101838D01*
X248823907Y-149106108D01*
X248825268Y-149107017D01*
X248831885Y-149111757D01*
X248896646Y-149161450D01*
X248924544Y-149133553D01*
X248924544Y-149103447D01*
X248924809Y-149095339D01*
X248924916Y-149093706D01*
X248925712Y-149085625D01*
X248928048Y-149067886D01*
X248929366Y-149059902D01*
X248929685Y-149058297D01*
X248931532Y-149050375D01*
X248956642Y-148956667D01*
X248958993Y-148948914D01*
X248959519Y-148947364D01*
X248961351Y-148942493D01*
X248793665Y-148774807D01*
X248565416Y-149003055D01*
X247690500Y-149003055D01*
X247690500Y-148978060D01*
X247690499Y-148978057D01*
X247686106Y-148967451D01*
X247652364Y-148885990D01*
X247581897Y-148815523D01*
X247503831Y-148783187D01*
X247489829Y-148777387D01*
X247477851Y-148775005D01*
X247478244Y-148773025D01*
X247426059Y-148757702D01*
X247380304Y-148704898D01*
X247369134Y-148650404D01*
X247370377Y-148598738D01*
X247907660Y-148598738D01*
X248262628Y-148953706D01*
X248617596Y-148598738D01*
X248262628Y-148243770D01*
X247907660Y-148598738D01*
X247370377Y-148598738D01*
X247375174Y-148399405D01*
X247396466Y-148332858D01*
X247450355Y-148288387D01*
X247478229Y-148282673D01*
X247477851Y-148280770D01*
X247489824Y-148278388D01*
X247489828Y-148278388D01*
X247581897Y-148240252D01*
X247589854Y-148232295D01*
X247921964Y-148232295D01*
X248070758Y-148083500D01*
X248454496Y-148083500D01*
X248749544Y-148378548D01*
X248749544Y-148023547D01*
X248745916Y-148025191D01*
X248729385Y-148032037D01*
X248721811Y-148034888D01*
X248720262Y-148035414D01*
X248712485Y-148037774D01*
X248567909Y-148076513D01*
X248559988Y-148078359D01*
X248558383Y-148078678D01*
X248550399Y-148079996D01*
X248532660Y-148082332D01*
X248524579Y-148083128D01*
X248522946Y-148083235D01*
X248514838Y-148083500D01*
X248454496Y-148083500D01*
X248070758Y-148083500D01*
X248086558Y-148067700D01*
X247963500Y-147944642D01*
X247963500Y-148091157D01*
X247962902Y-148103321D01*
X247962661Y-148105766D01*
X247960877Y-148117792D01*
X247955633Y-148144157D01*
X247952674Y-148155969D01*
X247951961Y-148158319D01*
X247947863Y-148169770D01*
X247921964Y-148232295D01*
X247589854Y-148232295D01*
X247652364Y-148169785D01*
X247690500Y-148077716D01*
X247690500Y-146541387D01*
X247974458Y-146541387D01*
X248065897Y-146632826D01*
X248118060Y-146602710D01*
X248125213Y-146598887D01*
X248126681Y-146598163D01*
X248134084Y-146594809D01*
X248150615Y-146587963D01*
X248158189Y-146585112D01*
X248159738Y-146584586D01*
X248167515Y-146582226D01*
X248312091Y-146543487D01*
X248320012Y-146541641D01*
X248321290Y-146541387D01*
X249036532Y-146541387D01*
X249189783Y-146694638D01*
X249205350Y-146690101D01*
X249214531Y-146687802D01*
X249216400Y-146687409D01*
X249225733Y-146685816D01*
X249289743Y-146677390D01*
X249293798Y-146676924D01*
X249294612Y-146676844D01*
X249298635Y-146676514D01*
X249307551Y-146675930D01*
X249311565Y-146675732D01*
X249312383Y-146675705D01*
X249316473Y-146675638D01*
X249478621Y-146675637D01*
X249612872Y-146541387D01*
X250098606Y-146541387D01*
X250232856Y-146675637D01*
X250483901Y-146675637D01*
X250579741Y-146579797D01*
X250585395Y-146574487D01*
X250586574Y-146573447D01*
X250592601Y-146568459D01*
X250606171Y-146557933D01*
X250612500Y-146553336D01*
X250613800Y-146552453D01*
X250620351Y-146548297D01*
X250632035Y-146541387D01*
X252222755Y-146541387D01*
X252510924Y-146829557D01*
X252799095Y-146541387D01*
X254346904Y-146541387D01*
X254635074Y-146829557D01*
X254923244Y-146541387D01*
X255408978Y-146541387D01*
X255697148Y-146829557D01*
X255985318Y-146541387D01*
X256471053Y-146541387D01*
X256759223Y-146829557D01*
X257047393Y-146541387D01*
X257533127Y-146541387D01*
X257821297Y-146829557D01*
X258109467Y-146541387D01*
X258595201Y-146541387D01*
X258883371Y-146829557D01*
X259171542Y-146541387D01*
X259657276Y-146541387D01*
X259945445Y-146829557D01*
X260190500Y-146584503D01*
X260190500Y-146541387D01*
X259657276Y-146541387D01*
X259171542Y-146541387D01*
X258595201Y-146541387D01*
X258109467Y-146541387D01*
X257533127Y-146541387D01*
X257047393Y-146541387D01*
X256471053Y-146541387D01*
X255985318Y-146541387D01*
X255408978Y-146541387D01*
X254923244Y-146541387D01*
X254346904Y-146541387D01*
X252799095Y-146541387D01*
X252222755Y-146541387D01*
X250632035Y-146541387D01*
X250098606Y-146541387D01*
X249612872Y-146541387D01*
X249036532Y-146541387D01*
X248321290Y-146541387D01*
X247974458Y-146541387D01*
X247690500Y-146541387D01*
X247690500Y-146392387D01*
X247710185Y-146325348D01*
X247762989Y-146279593D01*
X247814500Y-146268387D01*
X260339500Y-146268387D01*
X260406539Y-146288072D01*
G37*
%TD.AperFunction*%
%TA.AperFunction,Conductor*%
G36*
X250814413Y-149250185D02*
G01*
X250860168Y-149302989D01*
X250870112Y-149372147D01*
X250859756Y-149406905D01*
X250829024Y-149472808D01*
X250822545Y-149522023D01*
X250822544Y-149522040D01*
X250822544Y-150651241D01*
X250829024Y-150700466D01*
X250831422Y-150708692D01*
X250831282Y-150778561D01*
X250793389Y-150837263D01*
X250729775Y-150866160D01*
X250712375Y-150867387D01*
X250083713Y-150867387D01*
X250016674Y-150847702D01*
X249970919Y-150794898D01*
X249960975Y-150725740D01*
X249964667Y-150708688D01*
X249967063Y-150700466D01*
X249967063Y-150700465D01*
X249973544Y-150651240D01*
X249973543Y-149522035D01*
X249973541Y-149522023D01*
X249971103Y-149503500D01*
X250245914Y-149503500D01*
X250246251Y-149508644D01*
X250246449Y-149512658D01*
X250246476Y-149513476D01*
X250246543Y-149517567D01*
X250246543Y-149777393D01*
X250291955Y-149765225D01*
X250324048Y-149761000D01*
X250435952Y-149761000D01*
X250468045Y-149765225D01*
X250549544Y-149787062D01*
X250549544Y-149517566D01*
X250549611Y-149513475D01*
X250549638Y-149512657D01*
X250549836Y-149508645D01*
X250550173Y-149503500D01*
X250245914Y-149503500D01*
X249971103Y-149503500D01*
X249968634Y-149484743D01*
X249967063Y-149472807D01*
X249936331Y-149406904D01*
X249925840Y-149337828D01*
X249954359Y-149274044D01*
X250012836Y-149235804D01*
X250048714Y-149230500D01*
X250747374Y-149230500D01*
X250814413Y-149250185D01*
G37*
%TD.AperFunction*%
%TD*%
M02*
